<svg xmlns="http://www.w3.org/2000/svg" fill="none" viewBox="0 0 24 24" class="group-hover:scale-110 duration-200 ease-out icon-container size-icon-l muted-icon"><g clip-path="url(#baccarat_svg__a)"><path fill="#8f8f8f" d="M17.33 1H7.7a1.69 1.69 0 0 0-1.69 1.69v16.62c0 .933.757 1.69 1.69 1.69h9.63a1.69 1.69 0 0 0 1.69-1.69V2.69A1.69 1.69 0 0 0 17.33 1"></path><path fill="#1A1C1E" fill-rule="evenodd" d="m13.01 8.63-.47.47-.47-.47c-.66-.66-1.72-.66-2.38 0-.66.66-.66 1.72 0 2.38l.47.47 2.38 2.38 2.85-2.85c.66-.66.66-1.72 0-2.38-.66-.66-1.72-.66-2.38 0" clip-rule="evenodd"></path><path fill="#696969" d="M14.44 21c-.87-2.23-1.58-2.98-5.51-3.85 0 0-2.92-14.45-2.92-14.64 0-.38.33-.91.48-1.01h10.44c.87.11 1.58.82 1.58 1.69v17.32c-.07.13-.57.49-1.16.49h-2.92z"></path><path fill="#8f8f8f" d="M16.32 2.01H6.69A1.69 1.69 0 0 0 5 3.7v16.62c0 .933.757 1.69 1.69 1.69h9.63a1.69 1.69 0 0 0 1.69-1.69V3.7a1.69 1.69 0 0 0-1.69-1.69"></path><path fill="#1A1C1E" fill-rule="evenodd" d="m12 9.64-.47.47-.47-.47c-.66-.66-1.72-.66-2.38 0-.66.66-.66 1.72 0 2.38l.47.47 2.38 2.38 2.85-2.85c.66-.66.66-1.72 0-2.38-.66-.66-1.72-.66-2.38 0" clip-rule="evenodd"></path><path fill="#696969" d="M13.43 22.01c-.87-2.23-1.58-2.98-5.51-3.85C7.92 18.16 5 3.71 5 3.52c0-.38.33-.91.48-1.01h10.44c.87.11 1.58.82 1.58 1.69v17.32c-.07.13-.57.49-1.16.49h-2.92z"></path><path fill="#8f8f8f" d="M15.32 3.01H5.69A1.69 1.69 0 0 0 4 4.7v16.62c0 .933.757 1.69 1.69 1.69h9.63a1.69 1.69 0 0 0 1.69-1.69V4.7a1.69 1.69 0 0 0-1.69-1.69"></path><path fill="#1A1C1E" fill-rule="evenodd" d="m11 10.64-.47.47-.47-.47c-.66-.66-1.72-.66-2.38 0-.66.66-.66 1.72 0 2.38l.47.47 2.38 2.38 2.85-2.85c.66-.66.66-1.72 0-2.38-.66-.66-1.72-.66-2.38 0" clip-rule="evenodd"></path></g><defs><clipPath id="baccarat_svg__a"><path fill="#fff" d="M4 1h15.02v22.01H4z"></path></clipPath></defs></svg>