<svg xmlns="http://www.w3.org/2000/svg" fill="none" viewBox="0 0 24 24" class="!size-icon-l flex-shrink-0 icon-container size-icon-xl muted-icon"><path fill="#cca6ff" d="M22.05 13.557a.81.81 0 0 1-.445 1.055l-2.25.916 2.082 1.251a.81.81 0 1 1-.834 1.389l-2.083-1.252.248 2.418a.81.81 0 0 1-1.61.165l-.373-3.626-3.98-2.39v4.643l2.915 2.187a.81.81 0 1 1-.972 1.296l-1.944-1.458v2.43a.81.81 0 1 1-1.62 0v-2.43L9.24 21.609a.81.81 0 0 1-.972-1.296l2.916-2.187v-4.644l-3.98 2.392L6.83 19.5a.81.81 0 0 1-1.611-.166l.248-2.417-2.082 1.251a.81.81 0 1 1-.835-1.388l2.083-1.252-2.25-.915a.81.81 0 0 1 .61-1.5l3.376 1.372 4.052-2.434L6.37 9.615l-3.377 1.373a.81.81 0 0 1-.61-1.5l2.25-.916L2.551 7.32a.81.81 0 1 1 .834-1.388l2.083 1.252-.248-2.418A.81.81 0 1 1 6.83 4.6l.373 3.626 3.98 2.392V5.975L8.268 3.788a.81.81 0 1 1 .972-1.296l1.944 1.458V1.52a.81.81 0 0 1 1.62 0v2.43l1.944-1.458a.81.81 0 1 1 .972 1.296l-2.916 2.187v4.644l3.98-2.392.373-3.626a.81.81 0 0 1 1.611.166l-.248 2.417 2.083-1.251a.81.81 0 1 1 .834 1.388l-2.083 1.252 2.25.915a.81.81 0 0 1-.61 1.5l-3.376-1.372-4.051 2.434 4.052 2.435 3.376-1.373a.809.809 0 0 1 1.055.445"></path></svg>