<svg xmlns="http://www.w3.org/2000/svg" fill="none" viewBox="0 0 24 24" class="group-hover:scale-110 duration-200 ease-out icon-container size-icon-l muted-icon"><path fill="#8f8f8f" fill-rule="evenodd" d="M17.96 4.688c.788 0 1.427.639 1.427 1.427 0 6.576-1.642 10.857-4.886 13.405-3.16 2.482-7.514 3.037-12.209 3.037a1.427 1.427 0 1 1 0-2.855c4.62 0 8.1-.586 10.445-2.427 2.261-1.776 3.795-5.002 3.795-11.16 0-.788.64-1.428 1.428-1.428Z" clip-rule="evenodd"></path><path fill="#8f8f8f" fill-rule="evenodd" d="M17.003 1.834c.52-.52 1.364-.52 1.884 0l3.74 3.738a1.332 1.332 0 1 1-1.885 1.884L17.945 4.66 15.15 7.456a1.332 1.332 0 1 1-1.884-1.884l3.738-3.738Z" clip-rule="evenodd"></path><path fill="#696969" d="M5.435 3.065a.717.717 0 1 1 1.434 0v3.16a.717.717 0 0 1-1.434 0z"></path><path fill="#696969" d="M7.731 3.928a.717.717 0 0 1 0 1.434H4.573a.717.717 0 0 1 0-1.434zM19.494 18.34a.703.703 0 1 1 1.407 0v3.097a.703.703 0 1 1-1.407 0z"></path><path fill="#696969" d="M21.746 19.185a.703.703 0 1 1 0 1.407h-3.097a.703.703 0 0 1 0-1.407zM10.455 9.698a.468.468 0 1 1 .937 0v2.062a.468.468 0 1 1-.937 0z"></path><path fill="#696969" d="M11.955 10.261a.468.468 0 0 1 0 .937H9.893a.468.468 0 1 1 0-.937zm9.473.728a.378.378 0 1 1 .756 0v1.664a.378.378 0 0 1-.756 0z"></path><path fill="#696969" d="M22.639 11.443a.378.378 0 1 1 0 .756h-1.665a.378.378 0 0 1 0-.756zM5.59 13.594a.563.563 0 1 1 1.125 0v2.48a.563.563 0 0 1-1.126 0z"></path><path fill="#696969" d="M7.392 14.27a.563.563 0 0 1 0 1.127h-2.48a.563.563 0 1 1 0-1.126h2.48Z"></path></svg>