<svg xmlns="http://www.w3.org/2000/svg" fill="none" viewBox="0 0 24 24" class="group-hover:scale-110 duration-200 ease-out icon-container size-icon-l muted-icon"><g clip-path="url(#game-shows_svg__a)"><path fill="#8f8f8f" d="M12 1.5a9 9 0 1 0 .001 18.001A9 9 0 0 0 12 1.5m4.06 7.92-2.12 1.62c-.08.06-.11.16-.08.25l.78 2.48c.07.21-.17.39-.35.26l-2.16-1.49a.244.244 0 0 0-.26 0l-2.16 1.49c-.18.13-.42-.05-.35-.26l.78-2.48c.03-.09 0-.19-.08-.25L7.94 9.42c-.18-.13-.08-.42.14-.42h2.63c.1 0 .19-.06.22-.16l.85-2.53c.07-.21.37-.21.44 0l.85 2.53c.03.09.12.16.22.16h2.63c.22 0 .32.28.14.42"></path><path fill="#696969" d="M12 20c-5.24 0-9.5-4.26-9.5-9.5S6.76 1 12 1s9.5 4.26 9.5 9.5S17.24 20 12 20m0-18c-4.69 0-8.5 3.81-8.5 8.5 0 4.69 3.81 8.5 8.5 8.5 4.69 0 8.5-3.81 8.5-8.5C20.5 5.81 16.69 2 12 2"></path><path fill="#696969" d="M12 17c-3.58 0-6.5-2.92-6.5-6.5S8.42 4 12 4s6.5 2.92 6.5 6.5S15.58 17 12 17m0-12a5.51 5.51 0 0 0-5.5 5.5c0 3.03 2.47 5.5 5.5 5.5s5.5-2.47 5.5-5.5S15.03 5 12 5"></path><path fill="#8f8f8f" d="M17.26 22H6.74l1.82-2.18c-.33-.12-.65-.26-.96-.41l-2.32 2.77c-.12.15-.15.36-.07.53.08.18.26.29.45.29h12.67c.19 0 .37-.11.45-.29.08-.18.06-.38-.07-.53l-2.32-2.77c-.31.15-.63.29-.96.41L17.25 22z"></path><path fill="#696969" d="m7.95 20.54.6-.72c-.33-.12-.65-.26-.96-.41l-.64.77c.38 0 .72.14 1 .37zm7.49-.72.6.72c.27-.23.62-.37 1-.37l-.64-.77c-.31.15-.63.29-.96.41z"></path></g><defs><clipPath id="game-shows_svg__a"><path fill="#fff" d="M2.5 1h19v22h-19z"></path></clipPath></defs></svg>