<svg xmlns="http://www.w3.org/2000/svg" fill="none" viewBox="0 0 24 24" class="group-hover:scale-110 duration-200 ease-out icon-container size-icon-l muted-icon"><g clip-path="url(#arcade_svg__a)"><path fill="#997dbf" fill-rule="evenodd" d="M13.52 13.02h-1.04v-4.5s.13.03.52.03.52-.03.52-.03z" clip-rule="evenodd"></path><path fill="#cca6ff" fill-rule="evenodd" d="M13.52 9.1s-.18-.18-.52-.18-.52.18-.52.18v3.92h1.04z" clip-rule="evenodd"></path><path fill="#cca6ff" d="M3.82 13.52h16.36c.45 0 .82.37.82.82v2.86c0 .22-.09.43-.24.58-.15.16-.36.24-.58.24H3.82a.785.785 0 0 1-.57-.28.804.804 0 0 1-.25-.54v-2.86c0-.45.37-.82.82-.82m4.11-.5v-1.23c0-.33-.13-.64-.36-.88-.23-.23-.54-.36-.87-.36H5.47c-.33 0-.64.13-.87.37-.23.23-.36.55-.35.87v1.23"></path><path fill="#997dbf" d="M19.38 20.09c-.13.55-.63.93-1.19.93H5.81c-.56 0-1.06-.38-1.19-.93l-.37-1.54h15.5z"></path><path fill="#cca6ff" d="M13 8.04A3.02 3.02 0 1 0 13 2a3.02 3.02 0 0 0 0 6.04"></path><path fill="#997dbf" fill-rule="evenodd" d="M15.49 3.31c.11.33.16.67.16 1.04a3.36 3.36 0 0 1-3.36 3.36c-.3 0-.6-.04-.88-.12.46.29 1 .45 1.59.45 1.67 0 3.02-1.35 3.02-3.02 0-.64-.2-1.23-.53-1.71" clip-rule="evenodd"></path><path fill="#997dbf" d="M7.93 11.79c0-.33-.13-.64-.36-.88h-.01c-.05.88-.84 1.4-1.47 1.4H4.25v.72h3.68z"></path></g><defs><clipPath id="arcade_svg__a"><path fill="#fff" d="M3 2h18v19.02H3z"></path></clipPath></defs></svg>