<svg xmlns="http://www.w3.org/2000/svg" fill="none" viewBox="0 0 24 24" class="group-hover:scale-110 duration-200 ease-out icon-container size-icon-l muted-icon"><path fill="#8f8f8f" d="m22.626 10.946-10.151-9.73a.687.687 0 0 0-.95 0l-10.162 9.74a1.144 1.144 0 0 0 .805 1.956h1.6v8.69c0 .757.615 1.372 1.373 1.372h3.886a.686.686 0 0 0 .686-.686v-5.944a.23.23 0 0 1 .23-.23h4.115a.23.23 0 0 1 .229.23v5.944c0 .379.307.686.686.686h3.886c.758 0 1.372-.615 1.372-1.372v-8.688h1.601a1.144 1.144 0 0 0 .794-1.969Z"></path><path fill="#696969" d="M3.718 12.881H20.23v8.483c0 .89-.72 1.611-1.61 1.611H5.328a1.61 1.61 0 0 1-1.61-1.61z"></path><path fill="#000" d="M3.718 12.881H20.23v1.316H3.718z" opacity="0.2"></path><path fill="#8f8f8f" d="M9.256 22.975h5.488V17.03c0-.758-.615-1.372-1.372-1.372h-2.744c-.757 0-1.372.614-1.372 1.372v5.944Z"></path></svg>