<svg xmlns="http://www.w3.org/2000/svg" fill="none" viewBox="0 0 24 24" class="!size-icon-l flex-shrink-0 icon-container size-icon-xl muted-icon"><path fill="#696969" d="M10.659 1.105a2.477 2.477 0 0 1 2.682 0l1.606 1.035c.311.2.663.328 1.03.375l1.895.24a2.477 2.477 0 0 1 2.056 1.724l.564 1.824c.11.354.297.679.549.95l1.297 1.401c.66.714.843 1.747.466 2.643l-.74 1.76c-.143.342-.208.71-.19 1.08l.093 1.908c.047.97-.477 1.88-1.341 2.324l-1.699.873c-.33.169-.616.41-.84.705l-1.155 1.52a2.477 2.477 0 0 1-2.521.919l-1.862-.424a2.475 2.475 0 0 0-1.098 0l-1.862.424a2.477 2.477 0 0 1-2.521-.918l-1.155-1.521a2.475 2.475 0 0 0-.84-.705l-1.698-.873a2.477 2.477 0 0 1-1.342-2.324l.093-1.907c.018-.37-.047-.74-.19-1.08l-.74-1.761a2.477 2.477 0 0 1 .466-2.643l1.297-1.4c.252-.272.44-.597.549-.95l.564-1.825a2.477 2.477 0 0 1 2.056-1.725l1.894-.24c.368-.046.72-.174 1.031-.374l1.605-1.035Z"></path><path fill="#000" d="M5.344 14.543H3.929v-4.092h1.473l2.181 2.338v-2.338h1.415v4.092H7.43L5.344 12.24zm8.558 0h-4.32v-4.092h4.32v1.046H10.99v.55h2.719v.86H10.99v.572h2.912zm3.168 0h-1.508l-1.345-4.092h1.532l.702 2.414.771-2.186h1.362l.766 2.186.702-2.414h1.537l-1.35 4.092h-1.503l-.836-2.39z" opacity="0.2"></path><path fill="#8f8f8f" d="M4.91 14.046H3.494V9.954h1.473l2.18 2.339V9.954h1.415v4.092H6.997l-2.088-2.303v2.303Zm8.557 0h-4.32V9.954h4.32v1.047h-2.911v.55h2.718v.858h-2.718v.573h2.911v1.065Zm3.169 0h-1.509l-1.344-4.092h1.532l.701 2.415.772-2.187h1.362l.766 2.187.701-2.415h1.538l-1.35 4.092h-1.503l-.836-2.39z"></path></svg>