<svg xmlns="http://www.w3.org/2000/svg" fill="none" viewBox="0 0 36 36"><g fill="#cca6ff" clip-path="url(#a)"><path d="M19.316 13.914c-3.727.232-2.054 5.086 2.067 4.83 4.03-.25 1.904-5.077-2.067-4.83Z"/><path d="M17.742 10.916a12.008 12.008 0 1 0 0 24.015 12.008 12.008 0 0 0 0-24.015Zm0 22.757a10.747 10.747 0 1 1-.003-21.493 10.747 10.747 0 0 1 .003 21.493Zm-.362-31.14c-2.85 2.155-2.355 5.46-2.355 5.46S13.233 3.34 10.906.497c-.314 3.66.833 8.51.833 8.51S10.282 6 6.712 5.833c2.961 1.702 4.11 4.768 4.373 5.59a11.936 11.936 0 0 1 5.856-1.771c-.234-.766-1.064-3.993.44-7.119Z"/><path d="M9.599 24.101v2.513H8.554V20.14h2.201c.745 0 1.306.178 1.683.533.377.355.566.84.567 1.458 0 .612-.192 1.093-.577 1.445-.385.35-.942.526-1.67.526h-1.16Zm2.342-1.971c0-.367-.103-.647-.308-.84-.204-.193-.533-.289-.986-.288H9.6v2.246h1.046c.864 0 1.296-.373 1.296-1.118Zm2.858 3.668h2.238v.816h-3.284V20.14H14.8v5.66Zm7.025-.587h-2.732l-.496 1.403h-1.12l2.386-6.373h1.201l2.376 6.373h-1.12l-.495-1.403Zm-.293-.806-1.073-3.026-1.073 3.026h2.146Zm6.105-4.266-2.154 4.118v2.357h-1.053v-2.357l-2.164-4.118h1.211l1.486 3 1.486-3h1.188Z"/></g><defs><clipPath id="a"><path fill="#fff" d="M0 0h36v36H0z"/></clipPath></defs></svg>