<svg xmlns="http://www.w3.org/2000/svg" fill="none" viewBox="0 0 24 24" class="group-hover:scale-110 duration-200 ease-out icon-container size-icon-l muted-icon"><g clip-path="url(#recent_svg__a)"><path fill="#8f8f8f" d="M12 1.5C6.21 1.5 1.5 6.21 1.5 12S6.21 22.5 12 22.5 22.5 17.79 22.5 12 17.79 1.5 12 1.5m4.71 15.21c-.2.2-.45.29-.71.29-.26 0-.51-.1-.71-.29l-4-4A.99.99 0 0 1 11 12V4c0-.55.45-1 1-1s1 .45 1 1v7.59l3.71 3.71c.39.39.39 1.02 0 1.41"></path><path fill="#696969" d="M12 2c5.51 0 10 4.49 10 10s-4.49 10-10 10S2 17.51 2 12 6.49 2 12 2m0-1C5.93 1 1 5.93 1 12s4.93 11 11 11 11-4.93 11-11S18.07 1 12 1"></path></g><defs><clipPath id="recent_svg__a"><path fill="#fff" d="M1 1h22v22H1z"></path></clipPath></defs></svg>