<svg xmlns="http://www.w3.org/2000/svg" fill="none" viewBox="0 0 24 24" class="group-hover:scale-110 duration-200 ease-out icon-container size-icon-l muted-icon"><g clip-path="url(#roulette_svg__a)"><path fill="#8f8f8f" d="m14.93 18.37-1.3-3.14a3.64 3.64 0 0 0 1.6-1.6l3.14 1.3a7.06 7.06 0 0 1-3.44 3.44"></path><path fill="#696969" d="M11.98 19.03c-.86 0-1.67-.16-2.43-.44l1.3-3.14c.36.12.73.2 1.13.2.4 0 .77-.08 1.13-.2l1.3 3.14c-.76.28-1.58.44-2.43.44"></path><path fill="#8f8f8f" d="m5.59 14.93 3.14-1.3c.35.69.91 1.25 1.6 1.6l-1.3 3.14a7.06 7.06 0 0 1-3.44-3.44m3.44-9.34 1.3 3.14c-.69.35-1.25.91-1.6 1.6l-3.14-1.3a7.06 7.06 0 0 1 3.44-3.44"></path><path fill="#696969" d="M11.98 4.93c.86 0 1.67.16 2.43.44l-1.3 3.14c-.36-.12-.73-.2-1.13-.2-.4 0-.77.08-1.13.2l-1.3-3.14c.76-.28 1.58-.44 2.43-.44M5.37 9.55l3.14 1.3c-.12.36-.2.73-.2 1.13 0 .4.08.77.2 1.13l-3.14 1.3c-.28-.76-.44-1.58-.44-2.43 0-.85.16-1.67.44-2.43m13.22 4.86-3.14-1.3c.12-.36.2-.73.2-1.13 0-.4-.08-.77-.2-1.13l3.14-1.3c.28.76.44 1.58.44 2.43 0 .85-.16 1.67-.44 2.43"></path><path fill="#8f8f8f" d="M15.23 10.33a3.64 3.64 0 0 0-1.6-1.6l1.3-3.14a7.06 7.06 0 0 1 3.44 3.44z"></path><path fill="#696969" d="M17.15 6.41c-1.29-1.2-3-1.96-4.89-2.03V1c2.82.07 5.37 1.21 7.28 3.02z"></path><path fill="#8f8f8f" d="M11.7 4.38c-1.89.07-3.59.83-4.89 2.03L4.42 4.02A10.95 10.95 0 0 1 11.7 1z"></path><path fill="#696969" d="M6.41 6.81c-1.2 1.29-1.96 3-2.03 4.89H1a10.95 10.95 0 0 1 3.02-7.28z"></path><path fill="#8f8f8f" d="M4.38 12.26c.07 1.89.83 3.59 2.03 4.89l-2.39 2.39A10.95 10.95 0 0 1 1 12.26z"></path><path fill="#696969" d="M6.81 17.55c1.29 1.2 3 1.96 4.89 2.03v3.38a10.95 10.95 0 0 1-7.28-3.02z"></path><path fill="#8f8f8f" d="M12.26 19.58c1.89-.07 3.59-.83 4.89-2.03l2.39 2.39a10.95 10.95 0 0 1-7.28 3.02z"></path><path fill="#696969" d="M17.55 17.15c1.2-1.29 1.96-3 2.03-4.89h3.38a10.95 10.95 0 0 1-3.02 7.28z"></path><path fill="#8f8f8f" d="M19.58 11.7a7.595 7.595 0 0 0-2.03-4.89l2.39-2.39a10.95 10.95 0 0 1 3.02 7.28zm-6.082-1.622-3.415 3.415.389.39 3.415-3.416-.389-.39Z"></path><path fill="#696969" d="M10.27 14.24a.55.55 0 1 0 0-1.1.55.55 0 0 0 0 1.1m3.42-3.42a.55.55 0 1 0 0-1.1.55.55 0 0 0 0 1.1"></path><path fill="#8f8f8f" d="m10.472 10.078-.389.389 3.415 3.415.39-.389z"></path><path fill="#696969" d="M10.27 10.82a.55.55 0 1 0 0-1.1.55.55 0 0 0 0 1.1m3.42 3.42a.55.55 0 1 0 0-1.1.55.55 0 0 0 0 1.1"></path></g><defs><clipPath id="roulette_svg__a"><path fill="#fff" d="M1 1h21.96v21.96H1z"></path></clipPath></defs></svg>