<svg xmlns="http://www.w3.org/2000/svg" fill="none" viewBox="0 0 24 24" class="group-hover:scale-110 duration-200 ease-out icon-container size-icon-l muted-icon"><g clip-path="url(#slots_svg__a)"><path fill="#8f8f8f" d="M19.595 20.381h-2.357v-1.048h2.357c.44 0 .786-.356.786-.785V13.32h1.047v5.228a1.835 1.835 0 0 1-1.833 1.833"></path><path fill="#696969" d="M21.292 18.6a1.26 1.26 0 0 1-1.257 1.257h-2.797v.524h2.357a1.835 1.835 0 0 0 1.834-1.833V13.32h-.137v5.29z"></path><path fill="#8f8f8f" fill-rule="evenodd" d="M1 9.905v7.333h16.762V9.905zm5.238 6.286h-4.19v-5.239h4.19zm5.238 0h-4.19v-5.239h4.19zm5.238 0h-4.19v-5.239h4.19zM1 6.94v2.441h16.762v-2.44a1.22 1.22 0 0 0-1.226-1.227H2.226A1.22 1.22 0 0 0 1 6.94m15.714 1.393H2.048V7.286h14.666z" clip-rule="evenodd"></path><path fill="#8f8f8f" d="M1 17.762v4.012A1.22 1.22 0 0 0 2.226 23h14.31a1.22 1.22 0 0 0 1.226-1.226v-4.012zm14.667 3.143h-4.19v-1.048h4.19zm5.238-7.334a2.095 2.095 0 1 0 0-4.19 2.095 2.095 0 0 0 0 4.19"></path><path fill="#696969" fill-rule="evenodd" d="M22.361 9.978a2 2 0 0 1 .115.66 2.101 2.101 0 0 1-2.095 2.095c-.566 0-1.08-.23-1.456-.597a2.08 2.08 0 0 0 1.98 1.435A2.101 2.101 0 0 0 23 11.476c0-.587-.24-1.12-.639-1.498" clip-rule="evenodd"></path><path fill="#8f8f8f" fill-rule="evenodd" d="M2.048 8.333V7.286h11.65l1.937-1.572a4.196 4.196 0 0 0-.094-.524C14.954 2.802 12.419 1 9.381 1c-3.038 0-5.573 1.791-6.16 4.18a4.76 4.76 0 0 0-.094.534h-.901A1.22 1.22 0 0 0 1 6.94v2.441h10.12l1.289-1.048zm2.242-3.08c.555-1.833 2.63-3.205 5.09-3.205 2.462 0 4.494 1.34 5.07 3.142.053.168.095.346.126.524H4.185a3.11 3.11 0 0 1 .105-.46Z" clip-rule="evenodd"></path><path fill="#696969" fill-rule="evenodd" d="M17.5 16.075c0 .367-.304.67-.67.67H1v.493h16.762V9.905H17.5v6.18zm-.073-9.963c.031.105.063.22.063.336v1.77c0 .367-.304.67-.671.67H1v.493h16.762V6.94c0-.325-.126-.608-.335-.828m.073 15.17a1.22 1.22 0 0 1-1.226 1.226H1.964c-.356 0-.67-.157-.89-.398.146.513.596.89 1.162.89h14.31a1.22 1.22 0 0 0 1.226-1.226v-4.012h-.262v3.52z" clip-rule="evenodd"></path><path fill="#696969" d="M15.111 5.714c-.618-2.294-2.954-4.012-5.73-4.012-2.776 0-5.113 1.708-5.73 4.012h.534a3.24 3.24 0 0 1 .104-.46c.556-1.834 2.63-3.206 5.092-3.206 2.462 0 4.494 1.34 5.07 3.142.053.168.095.346.126.524zm1.603 1.572H2.048v1.047h14.666zM2.048 16.19h4.19v-5.238h-4.19v5.239Zm1.1-3.436c.031-.188.042-.366.052-.555l.46.031c.158.011.326.011.504.011h.503c.178 0 .419-.021.702-.031l.146.282c-.21.252-.419.608-.628 1.069-.21.46-.409.985-.587 1.571h-.796c.325-.565.586-1.005.765-1.33.178-.325.324-.608.44-.838H4.11c-.24 0-.408 0-.492.01a.45.45 0 0 0-.178.053.239.239 0 0 0-.084.125c-.02.063-.052.137-.063.22l-.251-.041c.052-.19.084-.378.115-.556l-.01-.02Zm4.138 3.436h4.19v-5.238h-4.19v5.239Zm1.1-3.436c.031-.188.042-.366.052-.555l.461.031c.157.011.325.011.503.011h.503c.178 0 .419-.021.702-.031l.146.282c-.21.252-.419.608-.628 1.069-.21.46-.409.985-.587 1.571h-.796c.325-.565.586-1.005.765-1.33.178-.325.324-.608.44-.838h-.598c-.24 0-.408 0-.492.01a.45.45 0 0 0-.178.053.239.239 0 0 0-.084.125c-.02.063-.052.137-.063.22l-.251-.041c.052-.19.084-.378.115-.556l-.01-.02Zm4.138-1.802v5.239h4.19v-5.239zm2.839 2.588c-.21.461-.409.985-.587 1.571h-.796c.325-.565.586-1.005.765-1.33.178-.325.324-.608.44-.838h-.597c-.241 0-.41 0-.493.01a.452.452 0 0 0-.178.053.24.24 0 0 0-.084.125c-.02.063-.052.137-.063.22l-.251-.042c.052-.188.084-.377.115-.555a4.74 4.74 0 0 0 .053-.555l.46.031c.158.011.325.011.503.011h.503c.178 0 .42-.021.702-.031l.147.282c-.21.252-.42.608-.629 1.069z"></path></g><defs><clipPath id="slots_svg__a"><path fill="#fff" d="M1 1h22v22H1z"></path></clipPath></defs></svg>