<svg xmlns="http://www.w3.org/2000/svg" fill="none" viewBox="0 0 149 149" class="w-full h-full"><path fill="#2C343D" d="M65.53 60.491H12.52c-2.452 0-4.904-.084-7.357 0h-.1l5.038 5.04V12.518c0-2.452.085-4.904 0-7.357v-.1L5.062 10.1h53.01c2.453 0 4.905.085 7.357 0h.101l-5.039-5.039v53.011c0 2.453-.05 4.905 0 7.357v.101c0 2.637 2.318 5.157 5.04 5.04 2.737-.118 5.038-2.218 5.038-5.04V12.52c0-2.452.05-4.904 0-7.357v-.1c0-2.722-2.3-5.04-5.039-5.04H12.52c-2.452 0-4.904-.05-7.357 0h-.1C2.34.022.021 2.324.021 5.062v53.009c0 2.453-.05 4.905 0 7.357v.101c0 2.721 2.302 5.04 5.04 5.04h53.01c2.453 0 4.905.05 7.357 0h.101c2.637 0 5.157-2.319 5.04-5.04-.118-2.738-2.218-5.039-5.04-5.039Z"></path><path fill="#2C343D" d="M45.206 40.167H25.385l5.04 5.039V25.385l-5.04 5.04h19.821l-5.04-5.04v19.821c0 2.637 2.319 5.157 5.04 5.039 2.738-.117 5.04-2.217 5.04-5.039V25.385c0-2.72-2.302-5.038-5.04-5.038H25.385c-2.72 0-5.038 2.3-5.038 5.039v19.82c0 2.721 2.3 5.039 5.039 5.039h19.82c2.637 0 5.157-2.318 5.04-5.039-.119-2.738-2.218-5.04-5.04-5.04Zm42.832 42.832V14.652c0-3.14.084-6.298 0-9.44v-.134l-5.039 5.04h53.011c2.452 0 4.905.083 7.357 0h.101l-5.039-5.04V58.09c0 2.453-.084 4.905 0 7.357v.101l5.039-5.04h-40.145c-2.637 0-5.156 2.319-5.039 5.04.118 2.738 2.217 5.04 5.039 5.04h40.145c2.721 0 5.039-2.302 5.039-5.04V12.536c0-2.452.05-4.905 0-7.357v-.1c0-2.722-2.301-5.04-5.039-5.04H90.457c-2.453 0-4.905-.05-7.357 0h-.101c-2.721 0-5.04 2.301-5.04 5.04v68.346c0 3.14-.066 6.299 0 9.44v.134c0 2.637 2.319 5.157 5.04 5.039 2.738-.118 5.039-2.217 5.039-5.039"></path><path fill="#2C343D" d="M118.104 25.386v19.82l5.039-5.04h-19.82l5.039 5.04V25.385c0-2.636-2.318-5.156-5.039-5.038-2.738.117-5.039 2.217-5.039 5.039v19.82c0 2.721 2.301 5.039 5.039 5.039h19.82c2.722 0 5.04-2.301 5.04-5.039V25.385c0-2.636-2.318-5.156-5.04-5.038-2.737.117-5.039 2.217-5.039 5.039M60.491 82.999v53.011c0 2.452-.084 4.905 0 7.357v.101l5.04-5.039H12.518c-2.452 0-4.904-.084-7.357 0h-.1l5.038 5.039V90.457c0-2.453.05-4.905 0-7.357v-.101c0-2.637-2.317-5.157-5.039-5.04C2.324 78.078.022 80.178.022 83v53.01c0 2.452-.05 4.905 0 7.357v.101c0 2.721 2.302 5.039 5.04 5.039h53.009c2.453 0 4.905.05 7.357 0h.101c2.721 0 5.04-2.301 5.04-5.039V90.457c0-2.453.05-4.905 0-7.357v-.101c0-2.637-2.319-5.157-5.04-5.04-2.738.118-5.039 2.218-5.039 5.04Z"></path><path fill="#2C343D" d="M45.206 118.104H25.385l5.04 5.039v-19.82l-5.04 5.039h19.821l-5.04-5.039v19.82c0 2.638 2.319 5.157 5.04 5.04 2.738-.118 5.04-2.218 5.04-5.04v-19.82c0-2.721-2.302-5.039-5.04-5.039H25.385c-2.72 0-5.038 2.301-5.038 5.039v19.82c0 2.722 2.3 5.04 5.039 5.04h19.82c2.637 0 5.157-2.318 5.04-5.04-.119-2.737-2.218-5.039-5.04-5.039m42.832 25.364v-40.313l-5.039 5.039h53.011c2.452 0 4.905.051 7.357 0h.101c2.721 0 5.039-2.301 5.039-5.039V82.999c0-2.637-2.318-5.157-5.039-5.04-2.738.118-5.039 2.218-5.039 5.04v20.156l5.039-5.039H90.457c-2.453 0-4.905-.05-7.357 0h-.101c-2.721 0-5.04 2.301-5.04 5.039v40.313c0 2.637 2.319 5.156 5.04 5.039 2.738-.118 5.039-2.217 5.039-5.039"></path><path fill="#2C343D" d="M123.143 138.429h-19.82l5.039 5.039v-19.821l-5.039 5.039h19.82l-5.039-5.039v19.821c0 2.637 2.318 5.156 5.039 5.039 2.738-.118 5.04-2.217 5.04-5.039v-19.821c0-2.721-2.302-5.039-5.04-5.039h-19.82c-2.721 0-5.039 2.302-5.039 5.039v19.821c0 2.721 2.301 5.039 5.039 5.039h19.82c2.638 0 5.157-2.318 5.04-5.039-.118-2.738-2.218-5.039-5.04-5.039m15.286-15.118v20.157c0 2.637 2.318 5.156 5.039 5.039 2.738-.118 5.039-2.217 5.039-5.039v-20.157c0-2.637-2.318-5.156-5.039-5.039-2.738.118-5.039 2.218-5.039 5.039"></path></svg>