<svg xmlns="http://www.w3.org/2000/svg" fill="none" viewBox="0 0 24 24" class="icon-container size-icon-m muted-icon"><g clip-path="url(#call-of-duty_svg__a)"><path fill="#8f8f8f" d="M22 15.34s-6.85-3.98-10-6.62c-3.15 2.64-10 6.62-10 6.62v3.98s6.85-3.91 10-6.55c3.15 2.64 10 6.47 10 6.47v-3.91z"></path><path fill="#8f8f8f" d="M22 7.62S15.15 3.64 12 1C8.85 3.64 2 7.62 2 7.62v3.98s6.85-3.91 10-6.55c3.15 2.64 10 6.55 10 6.55z"></path><path fill="#696969" d="M12 19.11c-2.17 0-4.22-.44-6.11-1.2-1.61 1-2.96 1.78-3.45 2.06 2.69 1.95 5.96 3.05 9.55 3.05 3.59 0 6.86-1.17 9.55-3.13-.49-.28-1.81-1.03-3.4-2-1.89.78-3.96 1.22-6.15 1.22z"></path></g><defs><clipPath id="call-of-duty_svg__a"><path fill="#fff" d="M2 1h20v22.02H2z"></path></clipPath></defs></svg>