<svg xmlns="http://www.w3.org/2000/svg" fill="none" viewBox="0 0 24 24" class="icon-container size-icon-m muted-icon"><g clip-path="url(#counter-strike_svg__a)"><path fill="#cca6ff" d="M20.79 3.72c-.14 0-.28-.05-.38-.16l-1.63-1.63a.55.55 0 0 1 0-.77.55.55 0 0 1 .77 0l1.63 1.63c.21.21.21.56 0 .77-.11.11-.25.16-.38.16z"></path><path fill="#997dbf" d="m20.59 3.15-1.63-1.63c-.1-.1-.16-.24-.16-.38 0 0-.02.01-.02.02a.55.55 0 0 0 0 .77l1.63 1.63c.11.11.25.16.38.16s.28-.05.38-.16c.1-.11.16-.25.16-.39-.1.09-.23.14-.36.14-.14 0-.28-.05-.38-.16"></path><path fill="#cca6ff" d="M15.63 8.88a.53.53 0 0 1-.41-.19c-.19-.22-.16-.55.05-.76l6.36-6.37c.08-.08.22-.08.3 0l.47.47c.08.08.08.22 0 .3l-6.39 6.39c-.11.11-.25.16-.38.16"></path><path fill="#997dbf" fill-rule="evenodd" d="m5.13 16-2.94 2.93c-.26.26-.26.67 0 .93l2.77 2.77c.41.41 1.1.28 1.34-.25l1.32-3.65-2.49-2.74zm3.54 2.72 2.91 2.65c.29.29.77.29 1.06 0l.55-.55c.27-.27.29-.69.07-.98l-2.4-3.3-2.18 2.18z" clip-rule="evenodd"></path><path fill="#cca6ff" fill-rule="evenodd" d="M13.48 13.89s.41.33 1.2 1.12c2.14 2.14 5.08 1.69 6.41 1.33.4-.11.63-.51.53-.91l-.35-1.39a.74.74 0 0 0-.78-.56c-1.05.09-3.22.03-4.83-1.58l-.09-.09-2.08 2.08z" clip-rule="evenodd"></path><path fill="#997dbf" fill-rule="evenodd" d="m21.22 15.2-.08-.32c-.05.28-.25.51-.53.59-1.33.36-4.02.5-6.16-1.64-.66-.66-.13-.15-.39-.38l-.3.31s.53.46.78.71c2.14 2.14 4.84 2 6.16 1.64.4-.11.63-.51.53-.91zm-8.47-7.3 1.78-1.78c.33-.33.8-.51 1.27-.47l3.08.22-4.08 4.08z" clip-rule="evenodd"></path><path fill="#cca6ff" fill-rule="evenodd" d="m8.15 18.21 6.91-6.91-2.78-2.78c-.53-.53-1.39-.53-1.92 0L6.08 12.8c-.1.1-.16.23-.18.37l-.24 2.29 2.49 2.74z" clip-rule="evenodd"></path><path stroke="#cca6ff" stroke-linecap="round" stroke-linejoin="round" stroke-width="0.54" d="m3.57 20.24-.62-.62a.296.296 0 0 1 0-.41l2.07-2.12m8.59-9.14 1.5-1.5c.18-.18.42-.27.67-.26l.96.05"></path><path stroke="#997dbf" stroke-linecap="round" stroke-linejoin="round" stroke-width="0.54" d="m12.47 10.11-2.12 2.12"></path><path stroke="#cca6ff" stroke-linecap="round" stroke-linejoin="round" stroke-width="0.54" d="m12.29 20.84.59-.59-2.31-2.91"></path><path fill="#997dbf" d="m22.4 2.03-.16-.16-6.45 6.45c-.02.19-.16.25-.3.25-.14 0-.29-.06-.39-.17 0 .11.05.21.12.29.11.13.26.19.41.19.14 0 .28-.05.38-.16l6.39-6.39c.08-.08.08-.22 0-.3"></path><path fill="#997dbf" fill-rule="evenodd" d="m13.88 10.72-5.43 5.43a.87.87 0 0 1-1.15.07s-.45-.3-.71-.47c-.26-.17-.1.05-.1.05l1.28 1.45c.19.22.52.23.73.02l5.96-5.96-.59-.59z" clip-rule="evenodd"></path></g><defs><clipPath id="counter-strike_svg__a"><path fill="#fff" d="M2 1h20.47v21.88H2z"></path></clipPath></defs></svg>