<svg xmlns="http://www.w3.org/2000/svg" fill="none" viewBox="0 0 24 24" class="icon-container size-icon-m muted-icon"><g clip-path="url(#dota-2_svg__a)"><path fill="#8f8f8f" d="M14.5 2v1.7L12 2H2v20h20V2zM7.25 19.17l-2.33-2.19 1.38-3.07 3.85 4.06-2.89 1.2zm11.44-.81-3.69.29L5 6l3-.75L19.29 15.5zm-.74-8.14-3.89-3.8 2.89-1.2 2.38 1.93z"></path><path fill="#696969" d="m14.76 6.13 2.19-.91 2.38 1.93-1.38 3.07-3.64-3.55c-.67.83-1.31 1.68-1.92 2.56l6.9 6.27-.6 2.86-3.69.29-4.76-6.02a41.82 41.82 0 0 0-1.82 3.52l1.73 1.83-2.89 1.2-.08-.07c-.36.95-.69 1.92-.99 2.9h15.82V2h-3.32c-1.39 1.29-2.7 2.67-3.92 4.13z"></path></g><defs><clipPath id="dota-2_svg__a"><path fill="#fff" d="M2 2h20v20H2z"></path></clipPath></defs></svg>