<svg xmlns="http://www.w3.org/2000/svg" fill="none" viewBox="0 0 24 24" class="icon-container size-icon-m muted-icon"><g clip-path="url(#esport-fifa_svg__a)"><path fill="#cca6ff" d="M10.68 8.73c-.57-1.04-1.1-2.02-.28-2.62.37-.27.79-.37 1.21-.28.77.17 1.43.96 1.92 1.71.27-.52.81-.88 1.44-.88.88 0 1.6.71 1.63 1.58.21-.57.34-1.17.34-1.77C16.95 4 14.94 2 12.47 2 10 2 8 4 8 6.47c0 1.05.37 2.12.97 3 0 0 1.5 2.03 1.5 5.53 0 .12 0 .24-.01.36.58-.77 1.3-1.97 1.33-3.29.03-1.24-.6-2.41-1.11-3.35z"></path><path fill="#cca6ff" d="m14.16 8.63.04.08c.15.27.43.47.77.47.49 0 .89-.4.89-.89s-.4-.89-.89-.89-.89.4-.89.89c0 .11.03.22.06.32 0 0 0 .01.01.02z"></path><path fill="#cca6ff" d="M14.97 9.93a1.637 1.637 0 0 1-1.51-1.02c-.35-.66-1.19-2.16-2.01-2.34-.21-.05-.4 0-.6.15-.26.19-.04.68.5 1.66.55 1.02 1.24 2.28 1.2 3.73-.06 2.28-1.79 4.15-2.21 4.58-.45 2.86-1.86 5.33-1.86 5.33h8s-2-3.5-2-7c0-2.89 1.01-4.75 1.37-5.32-.25.16-.55.25-.87.25z"></path><path fill="#997dbf" d="M16.6 8.24c.1-.27.18-.55.24-.83 0-.02 0-.03.01-.05.06-.29.09-.59.09-.88 0-.29-.03-.58-.09-.85-.02-.11-.06-.21-.09-.31-.04-.16-.09-.33-.15-.48-.05-.13-.12-.25-.19-.38-.06-.11-.11-.23-.18-.34-.09-.14-.19-.27-.3-.4-.06-.07-.12-.15-.18-.22-.13-.14-.27-.27-.42-.4l-.15-.12c-.17-.13-.35-.25-.54-.36a.467.467 0 0 0-.1-.05c-.21-.11-.43-.21-.65-.29-.02 0-.03 0-.05-.02-.24-.08-.5-.14-.76-.18a5.27 5.27 0 0 1 2.03 4.15c0 .15-.03.31-.04.46.82.06 1.48.74 1.5 1.57zm-.74.05c0-.48-.39-.87-.87-.88-.12.54-.3 1.07-.55 1.57.15.12.32.19.53.19.49 0 .89-.4.89-.89zm-1.8 1.35s-.05.09-.08.13c0 0-1.35 2.41-1.35 6.57 0 3.41-2.16 5.66-2.16 5.66h6s-2-3.5-2-7c0-.41.02-.79.06-1.16.01-.11.03-.21.04-.31.03-.26.07-.51.11-.74l.06-.29c.05-.23.11-.45.17-.66l.06-.21c.07-.24.15-.45.23-.65 0-.02.02-.05.03-.07.09-.22.18-.42.26-.59.03-.06.05-.1.08-.15.05-.09.09-.18.13-.25.06-.1.1-.17.14-.24a1.61 1.61 0 0 1-1.78-.04"></path></g><defs><clipPath id="esport-fifa_svg__a"><path fill="#fff" d="M8 2h8.95v20H8z"></path></clipPath></defs></svg>