<svg xmlns="http://www.w3.org/2000/svg" fill="none" viewBox="0 0 24 24" class="icon-container size-icon-m muted-icon"><g fill-rule="evenodd" clip-path="url(#starcraft_svg__a)" clip-rule="evenodd"><path fill="#997dbf" d="M18.09 16.63c0 3.67-4.89 6.37-4.89 6.37V2.83L16.6 1l3.63 1.68-2.14 1.99z"></path><path fill="#cca6ff" d="m16.6 1-3.4 1.83c1.26.46 2.29 1.25 2.65 1.73l2.24.18v-.08l2.14-1.99L16.6.99z"></path><path fill="#cca6ff" d="M18.09 16.63V4.67l2.13-1.98c-1.77.08-4.78.5-4.78 2.36v13.04c0 .29-1.43 3.3-2.2 4.89.4-.23 4.85-2.85 4.85-6.35"></path><path fill="#997dbf" d="m17.37 19.1-1.93-1.01c0 .29-1.43 3.3-2.2 4.89.3-.17 2.85-1.68 4.13-3.88"></path><path fill="#cca6ff" d="M6.14 16.63c0 3.67 4.89 6.37 4.89 6.37V2.83L7.63 1 4 2.68l2.14 1.99z"></path><path fill="#cca6ff" d="m7.63 1 3.4 1.83c-1.26.46-2.29 1.25-2.65 1.73l-2.24.18v-.08L4 2.68z"></path><path fill="#997dbf" d="M6.14 16.63V4.67L4 2.68c1.77.08 4.78.5 4.78 2.36v13.04c0 .29 1.43 3.3 2.2 4.89-.4-.23-4.85-2.85-4.85-6.35z"></path><path fill="#997dbf" d="m6.86 19.1 1.93-1.01c0 .29 1.43 3.3 2.2 4.89-.3-.17-2.85-1.68-4.13-3.88"></path></g><defs><clipPath id="starcraft_svg__a"><path fill="#fff" d="M4 1h16.23v22H4z"></path></clipPath></defs></svg>