<svg width="1404" height="632" viewBox="0 0 1404 632" fill="none" xmlns="http://www.w3.org/2000/svg">
<g clip-path="url(#clip0_8220_6526)">
<path d="M1177.67 2.39001C1057.29 211.312 1057.29 420.362 1177.67 629.284H1397.44C1215.21 422.145 1213.18 213.223 1397.44 2.39001H1177.67Z" fill="#26202B"/>
<path d="M590.78 629.41H811.439C772.245 420.488 772.245 211.438 811.439 2.51588H590.78C629.847 215.515 630.356 416.539 590.78 629.41Z" fill="#26202B"/>
<path d="M1104.38 2.39001H884.613C844.019 211.312 844.019 420.362 884.613 629.284H1104.38C1004.11 422.145 1002.71 213.35 1104.38 2.39001Z" fill="#26202B"/>
<path d="M226.198 2.39003C346.58 211.312 346.58 420.362 226.198 629.284H6.5564C188.785 422.145 190.821 213.223 6.5564 2.39003H226.325H226.198Z" fill="#26202B"/>
<path d="M299.497 2.39001H519.265C559.859 211.312 559.859 420.362 519.265 629.284H299.497C399.773 422.145 401.173 213.35 299.497 2.39001Z" fill="#26202B"/>
</g>
<defs>
<clipPath id="clip0_8220_6526">
<rect width="1404" height="631.8" fill="white"/>
</clipPath>
</defs>
</svg>
