<svg
  width="100%" height="100%" viewBox="0 0 1513 677" fill="none"
  xmlns="http://www.w3.org/2000/svg" preserveAspectRatio="xMidYMax slice">
  <g opacity="0.25">
    <path
      d="M1269.27 674.425C1139.62 449.432 1139.62 224.301 1269.27 -0.691833H1505.94C1309.69 222.381 1307.5 447.374 1505.94 674.425H1269.27Z"
      fill="url(#paint0_linear_4861_78095)"></path>
    <path
      d="M637.225 -0.827369H874.858C832.648 224.166 832.648 449.296 874.858 674.289H637.225C679.297 444.906 679.845 228.419 637.225 -0.827369Z"
      fill="url(#paint1_linear_4861_78095)"></path>
    <path
      d="M1190.33 674.425L953.661 674.425C909.944 449.432 909.944 224.301 953.661 -0.691833L1190.33 -0.691833C1082.34 222.381 1080.84 447.237 1190.33 674.425Z"
      fill="url(#paint2_linear_4861_78095)"></path>
    <path
      d="M244.598 674.425C374.24 449.432 374.24 224.301 244.598 -0.691833H8.06091C204.307 222.381 206.5 447.374 8.06091 674.425H244.735H244.598Z"
      fill="url(#paint3_linear_4861_78095)"></path>
    <path
      d="M323.535 674.425H560.209C603.926 449.432 603.926 224.301 560.209 -0.691833H323.535C431.525 222.381 433.033 447.237 323.535 674.425Z"
      fill="url(#paint4_linear_4861_78095)"></path>
  </g>
  <path
    d="M-505.029 818.867L-505.029 1342.92L-505.029 1347.39L-501.071 1345.32C345.196 902.901 1183.63 907.792 2015.06 1345.32L2019.03 1347.4L2019.03 1342.92L2019.03 815.073L2019.03 813.145L2017.2 812.516C1177.25 523.012 336.743 523.012 -503.206 812.516L-502.43 814.768L-505.029 814.768L-505.029 815.074L-505.029 818.867Z"
    fill="#141114" stroke="url(#paint5_radial_4861_78095)"
    stroke-width="5.40947"></path>
  <defs>
    <linearGradient id="paint0_linear_4861_78095" x1="757" y1="674.425" x2="757"
      y2="-0.827332" gradientUnits="userSpaceOnUse">
      <stop stop-color="#8d52da"></stop>
      <stop offset="1" stop-color="#141114"></stop>
    </linearGradient>
    <linearGradient id="paint1_linear_4861_78095" x1="757" y1="674.425" x2="757"
      y2="-0.827332" gradientUnits="userSpaceOnUse">
      <stop stop-color="#8d52da"></stop>
      <stop offset="1" stop-color="#141114"></stop>
    </linearGradient>
    <linearGradient id="paint2_linear_4861_78095" x1="757" y1="674.425" x2="757"
      y2="-0.827332" gradientUnits="userSpaceOnUse">
      <stop stop-color="#8d52da"></stop>
      <stop offset="1" stop-color="#141114"></stop>
    </linearGradient>
    <linearGradient id="paint3_linear_4861_78095" x1="757" y1="674.425" x2="757"
      y2="-0.827332" gradientUnits="userSpaceOnUse">
      <stop stop-color="#8d52da"></stop>
      <stop offset="1" stop-color="#141114"></stop>
    </linearGradient>
    <linearGradient id="paint4_linear_4861_78095" x1="757" y1="674.425" x2="757"
      y2="-0.827332" gradientUnits="userSpaceOnUse">
      <stop stop-color="#8d52da"></stop>
      <stop offset="1" stop-color="#141114"></stop>
    </linearGradient>
    <radialGradient id="paint5_radial_4861_78095" cx="0" cy="0" r="1"
      gradientUnits="userSpaceOnUse"
      gradientTransform="translate(750.615 588.375) rotate(90) scale(256.581 568.673)">
      <stop stop-color="#dffd51"></stop>
      <stop offset="1" stop-color="#141114"></stop>
    </radialGradient>
  </defs>
</svg>