<svg
width="100%" height="100%" viewBox="0 0 1511 1077" fill="none"
xmlns="http://www.w3.org/2000/svg">
<g opacity="0.5">
<g filter="url(#filter0_f_4522_17458)">
<path
d="M256.259 119.423C598.534 357.773 669.786 570.082 384.447 914.835L-1337.55 1251.22C188.57 573.019 171.351 301.708 -647.324 -94.9775L256.259 119.423Z"
fill="#8d52da"></path>
<path
d="M1389.81 718.408L1182.39 758.938C1124.59 569.831 1038.1 417.62 919.544 276.811L1134.22 327.747C1177.64 438.781 1259.11 567.093 1389.81 718.408Z"
fill="#8d52da"></path>
<path
d="M440.501 163.14L826.847 254.805C952.593 405.971 1038.56 569.933 1086.19 777.761L634.268 866.04C783.435 571.974 708.357 374.353 440.501 163.14Z"
fill="#8d52da"></path>
<path
d="M1361.6 381.672C1368.99 462.632 1447.5 569.683 1588.88 679.522L1665.55 664.535C1521.79 570.529 1446.51 473.984 1455.48 403.928L1361.6 381.672Z"
fill="#8d52da"></path>
<path
d="M1324.51 372.86L1188.6 340.596C1232.08 443.962 1315.86 569.734 1439.24 708.751L1557.66 685.598C1419.51 570.73 1338.69 459.447 1324.44 372.86H1324.51Z"
fill="#8d52da"></path>
</g>
</g>
<defs>
<filter id="filter0_f_4522_17458" x="-1401.55" y="-158.978"
width="3131.09" height="1474.2" filterUnits="userSpaceOnUse"
color-interpolation-filters="sRGB">
<feGaussianBlur stdDeviation="32"
result="effect1_foregroundBlur_4522_17458"></feGaussianBlur>
</filter>
</defs>
</svg>