<svg width="100%" height="100%" viewBox="0 0 1678 919"
fill="none" xmlns="http://www.w3.org/2000/svg" preserveAspectRatio="xMidYMid meet">
<g opacity="0.7" filter="url(#filter0_f_5269_51337)">
<path
d="M1318.81 768.122L1527.56 768.388C1487.55 736.261 1455.43 695.159 1433.14 644.908H1253.88C1269.31 692.825 1291.25 733.849 1318.82 768.122H1318.81Z"
fill="#8D52DA"></path>
<path
d="M993.525 397.964C992.702 417.999 992.291 438.628 992.258 459.9C992.077 583.02 1004.86 685.04 1033.37 767.746L1231.98 767.996C1181.29 693.185 1153.71 591.134 1153.91 460.104C1153.94 438.613 1154.75 417.92 1156.26 397.949H993.542L993.525 397.964Z"
fill="#8D52DA"></path>
<path
d="M749.288 644.908H928.017C922.34 588.768 920.119 527.177 920.218 459.806C920.251 438.613 920.514 418.014 921.04 397.964H757.021C757.481 417.952 757.679 438.487 757.646 459.602C757.547 527.068 755.145 588.737 749.288 644.924V644.908Z"
fill="#8D52DA"></path>
<path
d="M445.875 151.381C496.567 227.07 524.126 329.121 523.945 459.274C523.846 529.386 515.817 591.166 500.581 644.909H672.943C681.433 589.38 685.497 527.679 685.595 459.493C685.776 336.374 672.992 234.354 644.463 151.648L445.875 151.381Z"
fill="#8D52DA"></path>
<path
d="M280.083 458.96C280.05 480.702 278.849 501.519 276.546 521.428H447.377C449.105 501.504 450.01 480.764 450.043 459.179C450.24 326.395 417.137 224.328 359.041 151.271L150.285 150.989C231.481 216.183 280.281 318.25 280.083 458.96Z"
fill="#8D52DA"></path>
</g>
<path
d="M1318.8 768.122L1527.56 768.388C1487.55 736.261 1455.43 695.159 1433.14 644.908H1253.88C1269.31 692.825 1291.25 733.849 1318.82 768.122H1318.8Z"
fill="#141114"></path>
<path
d="M993.525 397.964C992.702 417.999 992.291 438.628 992.258 459.9C992.077 583.02 1004.86 685.04 1033.37 767.746L1231.98 767.997C1181.29 693.185 1153.71 591.134 1153.91 460.104C1153.94 438.613 1154.75 417.92 1156.26 397.949H993.541L993.525 397.964Z"
fill="#141114"></path>
<path
d="M749.287 644.908H928.016C922.34 588.768 920.119 527.177 920.218 459.806C920.25 438.613 920.514 418.014 921.04 397.964H757.02C757.481 417.952 757.678 438.487 757.646 459.602C757.547 527.068 755.145 588.737 749.287 644.924V644.908Z"
fill="#141114"></path>
<path
d="M445.875 151.381C496.567 227.07 524.125 329.121 523.945 459.274C523.846 529.386 515.817 591.166 500.581 644.909H672.943C681.433 589.38 685.496 527.679 685.595 459.493C685.776 336.374 672.992 234.354 644.463 151.648L445.875 151.381Z"
fill="#141114"></path>
<path
d="M280.083 458.96C280.05 480.702 278.849 501.519 276.545 521.428H447.377C449.105 501.504 450.009 480.764 450.042 459.179C450.24 326.395 417.136 224.328 359.041 151.271L150.285 150.989C231.481 216.183 280.28 318.25 280.083 458.96Z"
fill="#141114"></path>
<defs>
<filter id="filter0_f_5269_51337" x="0.2854" y="0.98877" width="1677.28"
height="917.399" filterUnits="userSpaceOnUse"
color-interpolation-filters="sRGB">
<feGaussianBlur stdDeviation="75" result="effect1_foregroundBlur_5269_51337">
</feGaussianBlur>
</filter>
</defs>
</svg>