<svg width="100%"
height="100%" viewBox="0 0 614 382" fill="none"
xmlns="http://www.w3.org/2000/svg">
<g opacity="0.1">
<g filter="url(#filter0_f_5028_37881)">
<path
d="M-241.824 -498.348C-3.33207 -267.293 46.3154 -61.4808 -152.504 272.722L-1352.36 598.816C-288.989 -58.633 -300.987 -321.642 -871.428 -706.188L-241.824 -498.348Z"
fill="#8d52da"></path>
<path
d="M547.994 82.3053L403.465 121.595C363.195 -61.7243 302.929 -209.277 220.321 -345.777L369.907 -296.4C400.155 -188.764 456.928 -64.379 547.994 82.3053Z"
fill="#8d52da"></path>
<path
d="M-113.471 -455.977L155.729 -367.116C243.347 -220.577 303.246 -61.6322 336.436 139.836L21.5425 225.414C125.48 -59.6533 73.1667 -251.226 -113.471 -455.977Z"
fill="#8d52da"></path>
<path
d="M528.356 -244.125C533.505 -165.642 588.209 -61.8675 686.723 44.6102L740.14 30.0817C639.971 -61.047 587.519 -154.637 593.771 -222.55L528.356 -244.125Z"
fill="#8d52da"></path>
<path
d="M502.473 -252.676L407.775 -283.953C438.069 -183.75 496.451 -61.827 582.415 72.9353L664.931 50.4911C568.67 -60.8616 512.356 -168.739 502.427 -252.676H502.473Z"
fill="#8d52da"></path>
</g>
<path
d="M-205.889 -498.348C32.6028 -267.293 82.2503 -61.4808 -116.569 272.722L-1316.43 598.816C-253.054 -58.633 -265.052 -321.642 -835.493 -706.188L-205.889 -498.348Z"
fill="#141114"></path>
<path
d="M583.925 82.317L439.396 121.607C399.126 -61.7126 338.86 -209.266 256.252 -345.766L405.838 -296.388C436.086 -188.752 492.859 -64.3673 583.925 82.317Z"
fill="#141114"></path>
<path
d="M-77.544 -455.977L191.656 -367.116C279.274 -220.577 339.173 -61.6322 372.363 139.836L57.4696 225.414C161.408 -59.6533 109.094 -251.226 -77.544 -455.977Z"
fill="#141114"></path>
<path
d="M564.287 -244.125C569.436 -165.642 624.14 -61.8675 722.653 44.6102L776.07 30.0817C675.902 -61.047 623.45 -154.637 629.702 -222.55L564.287 -244.125Z"
fill="#141114"></path>
<path
d="M538.408 -252.676L443.71 -283.953C474.004 -183.75 532.386 -61.827 618.349 72.9353L700.865 50.4911C604.604 -60.8616 548.291 -168.739 538.362 -252.676H538.408Z"
fill="#141114"></path>
</g>
<defs>
<filter id="filter0_f_5028_37881" x="-1414.86" y="-768.684"
width="2217.5" height="1430" filterUnits="userSpaceOnUse"
color-interpolation-filters="sRGB">
<feGaussianBlur stdDeviation="31.2483"
result="effect1_foregroundBlur_5028_37881"></feGaussianBlur>
</filter>
</defs>
</svg>