<svg width="100%"
height="100%" viewBox="0 0 612 382" fill="none"
xmlns="http://www.w3.org/2000/svg">
<g opacity="0.1">
<g filter="url(#filter0_f_5028_37880)">
<path
d="M268.717 -20.7924C74.9368 164.068 34.5971 328.732 196.143 596.118L1171.06 857.016C307.039 331.01 316.788 120.585 780.283 -187.078L268.717 -20.7924Z"
fill="#8d52da"></path>
<path
d="M164.434 13.1133L-54.2971 84.2076C-125.489 201.449 -174.158 328.616 -201.126 489.804L54.7321 558.273C-29.7198 330.199 12.7863 176.928 164.434 13.1133Z"
fill="#8d52da"></path>
</g>
<path
d="M239.526 -20.7924C45.7464 164.068 5.40668 328.732 166.952 596.118L1141.86 857.016C277.849 331.01 287.598 120.585 751.093 -187.078L239.526 -20.7924Z"
fill="#141114"></path>
<path
d="M135.235 13.1133L-83.4953 84.2076C-154.687 201.449 -203.356 328.616 -230.324 489.804L25.5338 558.273C-58.918 330.199 -16.4119 176.928 135.235 13.1133Z"
fill="#141114"></path>
</g>
<defs>
<filter id="filter0_f_5028_37880" x="-591.644" y="-249.575"
width="1825.2" height="1169.09" filterUnits="userSpaceOnUse"
color-interpolation-filters="sRGB">
<feGaussianBlur stdDeviation="31.2483"
result="effect1_foregroundBlur_5028_37880"></feGaussianBlur>
</filter>
</defs>
</svg>