<svg width="360" height="360" viewBox="0 0 360 360" fill="none" xmlns="http://www.w3.org/2000/svg">
<path d="M220.328 182.992L200.376 196.086V147.87L220.328 137.837V182.992Z" fill="#FFB900"/>
<path d="M324.27 204.365L304.318 217.459L261.716 209.472L281.668 197.797L324.27 204.365Z" fill="#FF8D2F"/>
<path d="M152.857 189.322L156.602 190.073L152.857 190.839V205.199L156.602 205.797L152.857 207.592V217.82L269.079 237.886L357.636 182.81V168.282L354.869 167.113L357.636 165.249V147.076L355.302 146.728L357.636 145.141V136.695L254.729 122.696L152.857 171.705V189.322Z" fill="#C8F5A6"/>
<path d="M152.857 171.706L269.079 191.772L357.636 136.696L254.729 121.306L152.857 171.706Z" fill="#7ACE5B"/>
<path d="M152.857 171.705L269.093 191.771L357.65 136.695L254.743 121.291L152.871 171.691L152.857 171.705ZM319.701 134.135C318.96 137.112 324.116 140.368 333.659 142.873L273.299 179.442C259.69 178.468 246.081 179.359 236.705 181.877L195.012 174.739C197.052 171.037 192.608 167.141 183.205 164.289L250.65 130.183C262.568 130.99 274.417 130.35 282.311 128.499L319.701 134.135Z" fill="#0B801F"/>
<path d="M244.783 162.02C225.292 158.82 217.23 152.391 226.298 147.715C235.129 143.179 257.135 141.941 275.872 144.877C294.846 147.841 304.026 154.075 295.95 158.875C287.651 163.815 264.526 165.262 244.77 162.02H244.783Z" fill="#0B801F"/>
<path d="M227.108 173.36C221.268 172.4 218.864 170.48 221.575 169.074C224.216 167.711 230.811 167.349 236.414 168.226C242.1 169.116 244.839 170.981 242.422 172.414C239.935 173.889 233.018 174.32 227.094 173.36H227.108Z" fill="#0B801F"/>
<path d="M285.474 141.468C279.634 140.508 277.231 138.588 279.941 137.182C282.582 135.819 289.177 135.457 294.78 136.334C300.467 137.224 303.205 139.089 300.788 140.522C298.301 141.997 291.385 142.428 285.46 141.468H285.474Z" fill="#0B801F"/>
<path d="M182.171 169.869C182.562 170.063 182.744 170.286 182.73 170.537C182.73 170.787 182.464 171.051 181.989 171.316L183.457 171.566L182.87 171.872L181.375 171.622C180.564 171.956 179.586 172.179 178.454 172.29C177.323 172.401 176.135 172.359 174.919 172.165L176.917 171.149C177.56 171.246 178.105 171.246 178.552 171.149L176.219 170.745C175.408 170.968 174.724 171.135 174.193 171.26C173.648 171.371 172.991 171.441 172.223 171.483C171.454 171.511 170.602 171.455 169.68 171.288C168.911 171.163 168.366 170.996 168.017 170.787C167.668 170.578 167.528 170.356 167.598 170.119C167.654 169.883 167.905 169.646 168.31 169.396L166.843 169.145L167.444 168.839L168.911 169.089C169.722 168.755 170.658 168.533 171.748 168.435C172.838 168.338 173.997 168.38 175.227 168.561L173.229 169.576C172.642 169.493 172.153 169.493 171.762 169.576L174.067 169.966L174.444 169.869C175.143 169.674 175.772 169.535 176.331 169.423C176.89 169.312 177.532 169.256 178.259 169.229C178.985 169.201 179.768 169.27 180.606 169.409C181.291 169.521 181.836 169.688 182.213 169.883L182.171 169.869ZM172.991 170.189L170.993 169.841C170.798 170.008 170.951 170.133 171.482 170.217C171.915 170.286 172.418 170.272 172.991 170.175V170.189ZM179.223 170.592C179.139 170.523 178.957 170.453 178.692 170.411C178.273 170.342 177.756 170.37 177.169 170.481L179.223 170.829C179.321 170.745 179.321 170.662 179.223 170.578V170.592Z" fill="#C8F5A6"/>
<path d="M267.514 184.396C267.947 184.604 268.198 184.841 268.24 185.105C268.282 185.37 268.086 185.648 267.667 185.94L269.218 186.204L268.687 186.538L267.094 186.26C266.34 186.622 265.39 186.858 264.258 186.97C263.126 187.081 261.911 187.039 260.625 186.845L262.428 185.759C263.112 185.857 263.671 185.857 264.104 185.759L261.631 185.342C260.849 185.578 260.206 185.759 259.675 185.884C259.144 186.01 258.487 186.093 257.705 186.121C256.923 186.149 256.042 186.093 255.064 185.912C254.254 185.773 253.653 185.592 253.248 185.37C252.843 185.147 252.647 184.91 252.661 184.66C252.661 184.409 252.857 184.145 253.22 183.895L251.669 183.63L252.214 183.31L253.765 183.575C254.505 183.213 255.428 182.976 256.517 182.879C257.607 182.781 258.795 182.823 260.094 183.004L258.278 184.089C257.663 184.006 257.16 184.006 256.783 184.089L259.228 184.507L259.591 184.409C260.262 184.201 260.877 184.048 261.422 183.922C261.967 183.811 262.609 183.742 263.35 183.714C264.09 183.686 264.901 183.755 265.781 183.908C266.508 184.034 267.094 184.201 267.528 184.409L267.514 184.396ZM258.208 184.743L256.098 184.382C255.931 184.563 256.126 184.688 256.685 184.785C257.146 184.869 257.663 184.855 258.222 184.743H258.208ZM264.663 185.175C264.551 185.091 264.356 185.036 264.076 184.98C263.629 184.896 263.112 184.924 262.525 185.063L264.705 185.439C264.775 185.342 264.761 185.258 264.649 185.175H264.663Z" fill="#C8F5A6"/>
<path d="M267.943 125.869C268.32 126.022 268.516 126.189 268.558 126.384C268.6 126.579 268.432 126.774 268.069 126.982L269.382 127.177L268.921 127.414L267.566 127.205C266.923 127.469 266.126 127.636 265.148 127.706C264.184 127.789 263.15 127.748 262.061 127.595L263.584 126.815C264.156 126.885 264.631 126.885 265.009 126.815L262.899 126.495C262.242 126.662 261.683 126.801 261.236 126.885C260.789 126.968 260.23 127.024 259.559 127.052C258.889 127.066 258.148 127.024 257.31 126.899C256.625 126.788 256.108 126.662 255.759 126.495C255.41 126.328 255.242 126.161 255.256 125.98C255.256 125.8 255.424 125.605 255.731 125.424L254.404 125.229L254.865 124.993L256.192 125.187C256.821 124.923 257.603 124.756 258.54 124.7C259.462 124.631 260.482 124.672 261.585 124.812L260.049 125.591C259.532 125.521 259.098 125.521 258.777 125.591L260.859 125.911L261.166 125.841C261.739 125.702 262.256 125.577 262.717 125.507C263.178 125.438 263.737 125.382 264.352 125.368C264.981 125.368 265.665 125.41 266.42 125.521C267.049 125.619 267.538 125.744 267.915 125.897L267.943 125.869ZM260.035 126.078L258.232 125.8C258.092 125.925 258.26 126.022 258.735 126.092C259.126 126.147 259.559 126.147 260.035 126.064V126.078ZM265.526 126.412C265.428 126.356 265.274 126.301 265.023 126.273C264.631 126.217 264.198 126.231 263.709 126.328L265.568 126.607C265.568 126.607 265.61 126.481 265.526 126.412Z" fill="#C8F5A6"/>
<path d="M344.744 137.418C345.163 137.585 345.415 137.766 345.485 137.975C345.569 138.184 345.443 138.392 345.121 138.615L346.505 138.824L346.1 139.074L344.674 138.865C344.087 139.144 343.305 139.325 342.341 139.408C341.377 139.492 340.315 139.45 339.169 139.297L340.539 138.462C341.139 138.545 341.628 138.545 341.992 138.462L339.77 138.128C339.141 138.309 338.596 138.448 338.163 138.545C337.73 138.643 337.171 138.698 336.501 138.712C335.83 138.74 335.047 138.684 334.181 138.545C333.455 138.434 332.896 138.295 332.504 138.128C332.113 137.961 331.904 137.78 331.876 137.571C331.834 137.376 331.96 137.182 332.225 136.987L330.828 136.778L331.247 136.528L332.644 136.736C333.231 136.458 333.985 136.277 334.908 136.208C335.83 136.138 336.878 136.166 338.037 136.319L336.654 137.154C336.109 137.084 335.676 137.084 335.355 137.154L337.548 137.488L337.856 137.404C338.401 137.251 338.904 137.126 339.351 137.043C339.798 136.959 340.357 136.903 340.986 136.889C341.628 136.876 342.341 136.931 343.137 137.043C343.794 137.14 344.325 137.265 344.744 137.432V137.418ZM336.738 137.655L334.838 137.363C334.726 137.502 334.922 137.599 335.411 137.683C335.83 137.738 336.263 137.738 336.738 137.655ZM342.411 138.017C342.299 137.961 342.131 137.905 341.866 137.864C341.461 137.808 341.014 137.822 340.539 137.919L342.495 138.211C342.537 138.142 342.509 138.072 342.411 138.017Z" fill="#C8F5A6"/>
<path d="M278.851 152.127C279.983 152.628 280.625 153.184 280.751 153.811C280.891 154.437 280.416 155.091 279.34 155.786L283.336 156.427L281.981 157.206L277.873 156.552C275.959 157.401 273.527 157.971 270.607 158.236C267.673 158.514 264.543 158.389 261.218 157.902L265.843 155.313C267.589 155.55 269.028 155.55 270.132 155.313L263.775 154.298C261.777 154.854 260.1 155.286 258.745 155.578C257.389 155.87 255.699 156.051 253.673 156.12C251.661 156.19 249.383 156.023 246.868 155.62C244.786 155.286 243.235 154.854 242.215 154.339C241.195 153.824 240.706 153.254 240.762 152.656C240.804 152.057 241.307 151.459 242.257 150.861L238.303 150.234L239.728 149.483L243.669 150.109C245.597 149.274 247.944 148.732 250.725 148.509C253.505 148.286 256.537 148.398 259.821 148.843L255.182 151.362C253.617 151.153 252.345 151.153 251.353 151.348L257.585 152.349L258.535 152.113C260.254 151.64 261.805 151.264 263.202 151C264.599 150.735 266.234 150.568 268.106 150.527C269.992 150.471 272.06 150.638 274.324 150.986C276.196 151.278 277.691 151.682 278.823 152.169L278.851 152.127ZM255.098 152.878L249.691 152.016C249.271 152.433 249.76 152.753 251.172 152.976C252.345 153.17 253.673 153.129 255.098 152.878ZM271.627 153.95C271.348 153.755 270.845 153.602 270.118 153.491C268.958 153.31 267.645 153.365 266.164 153.671L271.767 154.562C271.949 154.339 271.893 154.131 271.627 153.95Z" fill="#C8F5A6"/>
<path d="M269.077 237.885L152.854 217.82V207.592L156.599 205.797L152.854 205.199V190.839L156.599 190.073L152.854 189.322V171.705L269.077 191.771V237.885Z" fill="#7ACE5B"/>
<path d="M323.423 204.198L303.457 216.582V170.412L323.423 158.069V204.198Z" fill="#7ACE5B"/>
<path d="M323.426 158.752L303.46 170.413L200.218 148.274L220.324 137.838L323.426 158.752Z" fill="#329442"/>
<path d="M324.261 157.569L304.309 169.244L200.368 147.87L221.243 137.031L324.261 157.569Z" fill="#FFCE4C"/>
<path d="M320.659 159.67L307.902 167.129L204.269 145.839L217.501 138.965L320.659 159.67Z" fill="#FDFFD0"/>
<path d="M239.41 199.356L269.017 204.797L281.662 197.798L269.017 203.183L239.41 199.356Z" fill="#0B801F"/>
<path d="M256.056 231.29L269.022 234.574L287.088 223.149L269.022 232.96L256.056 231.29Z" fill="#0B801F"/>
<path d="M248.432 210.779L269.083 216.317L298.914 198.673L269.013 213.479L248.432 210.779Z" fill="#0B801F"/>
<path d="M357.648 168.283L335.474 180.18L357.648 165.249L354.881 167.114L357.648 168.283Z" fill="#0B801F"/>
<path d="M152.866 207.594L182.026 211.49L156.61 205.799L152.866 207.594Z" fill="#0B801F"/>
<path d="M152.866 190.839L218.578 201.387L156.61 190.074L152.866 190.839Z" fill="#0B801F"/>
<path d="M324.262 204.364L304.309 217.458V169.243L324.262 157.568V204.364Z" fill="#FFB900"/>
<path d="M320.66 206.73L307.903 215.107V167.128L320.66 159.669V206.73Z" fill="#C9FF79"/>
<path d="M357.644 147.076L349.61 150.568L355.311 146.728L357.644 147.076Z" fill="#0B801F"/>
<g style="mix-blend-mode:multiply">
<path d="M231.604 231.416L152.87 217.821V207.593L156.615 205.798L152.87 205.2V190.839L156.615 190.074L152.87 189.323V171.706L251.85 188.794L231.604 231.416Z" fill="#7ACE5B"/>
</g>
<path d="M194.79 141.829L174.837 154.143V108.794L194.79 99.3597V141.829Z" fill="#FFB900"/>
<path d="M298.731 161.921L278.779 174.25L236.177 166.722L256.13 155.743L298.731 161.921Z" fill="#FF8D2F"/>
<path d="M127.331 147.783L131.076 148.478L127.331 149.202V162.7L131.076 163.27L127.331 164.954V174.583L243.553 193.452L332.11 141.66V127.995L329.343 126.882L332.11 125.129V108.055L329.776 107.721L332.11 106.232V98.2866L229.203 85.109L127.331 131.21V147.783Z" fill="#C8F5A6"/>
<path d="M127.331 131.21L243.553 150.093L332.11 98.2869L229.203 83.8013L127.331 131.21Z" fill="#7ACE5B"/>
<path d="M127.331 131.209L243.567 150.092L332.124 98.2996L229.217 83.814L127.345 131.223L127.331 131.209ZM294.175 95.8784C293.434 98.6753 298.59 101.751 308.133 104.088L247.773 138.486C234.164 137.568 220.554 138.403 211.179 140.768L169.486 134.061C171.525 130.583 167.082 126.923 157.679 124.223L225.123 92.1491C237.042 92.9144 248.89 92.3161 256.785 90.5628L294.175 95.8644V95.8784Z" fill="#0B801F"/>
<path d="M219.258 122.095C199.766 119.089 191.704 113.036 200.772 108.653C209.603 104.381 231.609 103.226 250.346 105.981C269.321 108.778 278.5 114.637 270.424 119.145C262.125 123.793 239.001 125.142 219.244 122.095H219.258Z" fill="#0B801F"/>
<path d="M201.582 132.769C195.741 131.864 193.338 130.055 196.049 128.747C198.69 127.467 205.285 127.119 210.887 127.94C216.574 128.775 219.313 130.529 216.896 131.878C214.408 133.27 207.492 133.673 201.568 132.769H201.582Z" fill="#0B801F"/>
<path d="M259.949 102.767C254.108 101.863 251.705 100.054 254.415 98.7459C257.056 97.4657 263.651 97.1178 269.254 97.9388C274.941 98.7737 277.679 100.527 275.262 101.877C272.775 103.268 265.859 103.672 259.935 102.767H259.949Z" fill="#0B801F"/>
<path d="M156.638 129.47C157.029 129.651 157.211 129.86 157.197 130.096C157.197 130.333 156.932 130.569 156.456 130.834L157.924 131.07L157.337 131.362L155.842 131.126C155.031 131.446 154.053 131.655 152.921 131.752C151.79 131.849 150.602 131.808 149.386 131.627L151.385 130.667C152.027 130.75 152.572 130.75 153.019 130.667L150.686 130.291C149.875 130.5 149.191 130.667 148.66 130.764C148.115 130.875 147.458 130.945 146.69 130.973C145.921 131.001 145.069 130.945 144.147 130.792C143.378 130.667 142.833 130.514 142.484 130.319C142.135 130.124 141.995 129.915 142.065 129.693C142.121 129.47 142.372 129.247 142.778 129.011L141.31 128.774L141.911 128.496L143.378 128.733C144.189 128.412 145.125 128.204 146.215 128.12C147.305 128.037 148.464 128.078 149.694 128.245L147.696 129.192C147.109 129.108 146.62 129.108 146.229 129.192L148.534 129.567L148.911 129.484C149.61 129.303 150.239 129.164 150.798 129.066C151.357 128.969 151.999 128.899 152.726 128.886C153.452 128.872 154.235 128.927 155.073 129.053C155.758 129.164 156.303 129.317 156.68 129.498L156.638 129.47ZM147.458 129.776L145.46 129.456C145.265 129.609 145.418 129.734 145.949 129.818C146.382 129.887 146.885 129.874 147.458 129.776ZM153.69 130.166C153.606 130.096 153.424 130.041 153.159 129.999C152.74 129.929 152.223 129.957 151.636 130.068L153.69 130.402C153.788 130.319 153.788 130.249 153.69 130.166Z" fill="#C8F5A6"/>
<path d="M241.988 143.15C242.421 143.345 242.672 143.567 242.714 143.818C242.756 144.068 242.561 144.333 242.141 144.597L243.692 144.847L243.161 145.154L241.569 144.903C240.814 145.237 239.864 145.474 238.732 145.571C237.6 145.682 236.385 145.641 235.099 145.446L236.902 144.416C237.586 144.513 238.145 144.5 238.578 144.416L236.105 144.013C235.323 144.235 234.68 144.416 234.149 144.527C233.618 144.639 232.962 144.722 232.179 144.75C231.397 144.778 230.516 144.722 229.538 144.555C228.728 144.43 228.127 144.263 227.722 144.054C227.317 143.846 227.121 143.623 227.135 143.386C227.135 143.15 227.331 142.899 227.694 142.663L226.143 142.412L226.688 142.106L228.239 142.357C228.979 142.009 229.902 141.8 230.991 141.703C232.081 141.605 233.269 141.647 234.568 141.828L232.752 142.844C232.137 142.76 231.634 142.76 231.257 142.844L233.702 143.233L234.065 143.136C234.736 142.941 235.351 142.788 235.896 142.691C236.441 142.579 237.083 142.51 237.824 142.496C238.564 142.468 239.375 142.538 240.255 142.677C240.982 142.788 241.569 142.955 242.002 143.15H241.988ZM232.682 143.484L230.572 143.15C230.405 143.317 230.6 143.442 231.159 143.526C231.62 143.595 232.137 143.581 232.696 143.484H232.682ZM239.137 143.887C239.026 143.818 238.83 143.748 238.551 143.706C238.103 143.637 237.586 143.665 237 143.79L239.179 144.138C239.249 144.054 239.235 143.971 239.123 143.887H239.137Z" fill="#C8F5A6"/>
<path d="M242.417 88.101C242.794 88.2401 242.99 88.4071 243.032 88.588C243.073 88.7689 242.906 88.9637 242.543 89.1585L243.856 89.3394L243.395 89.5621L242.04 89.3672C241.397 89.6038 240.6 89.7708 239.622 89.8404C238.658 89.9099 237.624 89.8821 236.534 89.729L238.057 88.9915C238.63 89.0611 239.105 89.0611 239.483 88.9915L237.373 88.6993C236.716 88.8663 236.157 88.9776 235.71 89.0611C235.263 89.1446 234.704 89.2003 234.033 89.2142C233.363 89.2281 232.622 89.1863 231.784 89.0611C231.099 88.9637 230.582 88.8385 230.233 88.6854C229.884 88.5323 229.716 88.3654 229.73 88.1984C229.73 88.0175 229.898 87.8505 230.205 87.6696L228.878 87.4748L229.339 87.2521L230.666 87.433C231.295 87.1826 232.077 87.0295 233.013 86.9738C233.936 86.9043 234.956 86.946 236.059 87.0852L234.522 87.8227C234.005 87.767 233.572 87.7531 233.251 87.8227L235.333 88.1149L235.64 88.0453C236.213 87.9062 236.73 87.8088 237.191 87.7253C237.652 87.6418 238.211 87.6 238.826 87.5861C239.455 87.5861 240.139 87.6139 240.894 87.7253C241.523 87.8088 242.012 87.934 242.389 88.0731L242.417 88.101ZM234.508 88.2958L232.706 88.0453C232.566 88.1705 232.734 88.254 233.209 88.3236C233.6 88.3793 234.033 88.3654 234.508 88.2958ZM240 88.6158C239.902 88.5602 239.748 88.5184 239.497 88.4767C239.105 88.421 238.672 88.4349 238.183 88.5323L240.041 88.7967C240.041 88.7967 240.083 88.6715 240 88.6158Z" fill="#C8F5A6"/>
<path d="M319.218 98.9685C319.638 99.1216 319.889 99.2886 319.959 99.4834C320.043 99.6782 319.917 99.873 319.596 100.082L320.979 100.277L320.574 100.513L319.148 100.304C318.562 100.569 317.779 100.736 316.815 100.805C315.851 100.889 314.789 100.847 313.643 100.694L315.013 99.9147C315.613 99.9843 316.102 99.9843 316.466 99.9147L314.244 99.5947C313.615 99.7617 313.071 99.9008 312.637 99.9843C312.204 100.068 311.645 100.123 310.975 100.151C310.304 100.179 309.522 100.123 308.655 99.9982C307.929 99.9008 307.37 99.7617 306.979 99.6086C306.587 99.4556 306.378 99.2747 306.35 99.0938C306.308 98.9129 306.434 98.7181 306.699 98.5372L305.302 98.3423L305.721 98.1058L307.118 98.3006C307.705 98.0362 308.46 97.8692 309.382 97.7997C310.304 97.7301 311.352 97.7718 312.512 97.911L311.128 98.6902C310.583 98.6206 310.15 98.6206 309.829 98.6902L312.023 98.9964L312.33 98.9268C312.875 98.7876 313.378 98.6624 313.825 98.5789C314.272 98.4954 314.831 98.4537 315.46 98.4398C316.102 98.4258 316.815 98.4676 317.612 98.5928C318.268 98.6902 318.799 98.8155 319.218 98.9546V98.9685ZM311.212 99.1912L309.312 98.9268C309.2 99.052 309.396 99.1494 309.885 99.219C310.304 99.2747 310.737 99.2747 311.212 99.1912ZM316.885 99.5251C316.773 99.4695 316.606 99.4138 316.34 99.386C315.935 99.3303 315.488 99.3442 315.013 99.4416L316.969 99.7199C316.969 99.7199 316.983 99.5947 316.885 99.5251Z" fill="#C8F5A6"/>
<path d="M253.318 112.801C254.45 113.26 255.093 113.789 255.218 114.387C255.358 114.971 254.883 115.598 253.807 116.238L257.803 116.836L256.448 117.573L252.34 116.947C250.426 117.754 247.995 118.283 245.074 118.534C242.14 118.784 239.01 118.687 235.685 118.214L240.31 115.778C242.056 116.001 243.495 116.001 244.599 115.778L238.242 114.818C236.244 115.347 234.567 115.751 233.212 116.029C231.857 116.307 230.166 116.474 228.14 116.544C226.128 116.613 223.85 116.46 221.335 116.071C219.253 115.751 217.703 115.347 216.683 114.86C215.663 114.373 215.174 113.844 215.229 113.274C215.271 112.703 215.774 112.147 216.724 111.576L212.77 110.978L214.195 110.268L218.136 110.866C220.064 110.073 222.411 109.572 225.192 109.364C227.972 109.155 231.004 109.252 234.288 109.684L229.649 112.049C228.084 111.854 226.812 111.84 225.82 112.035L232.052 112.968L233.002 112.745C234.721 112.3 236.272 111.952 237.669 111.701C239.066 111.451 240.701 111.298 242.573 111.256C244.46 111.214 246.527 111.353 248.791 111.687C250.663 111.966 252.158 112.341 253.29 112.801H253.318ZM229.565 113.51L224.158 112.689C223.739 113.079 224.228 113.371 225.639 113.594C226.812 113.775 228.14 113.747 229.565 113.51ZM246.094 114.512C245.815 114.331 245.312 114.192 244.585 114.081C243.426 113.914 242.112 113.969 240.631 114.248L246.234 115.097C246.416 114.888 246.36 114.693 246.094 114.512Z" fill="#C8F5A6"/>
<path d="M243.551 193.452L127.329 174.583V164.953L131.074 163.27L127.329 162.699V149.202L131.074 148.478L127.329 147.782V131.209L243.551 150.092V193.452Z" fill="#7ACE5B"/>
<path d="M297.885 161.768L277.918 173.415V130L297.885 118.38V161.768Z" fill="#7ACE5B"/>
<path d="M297.883 119.019L277.916 129.998L174.675 109.167L194.781 99.3571L297.883 119.019Z" fill="#329442"/>
<path d="M298.717 117.907L278.765 128.886L174.824 108.792L195.713 98.5924L298.717 117.907Z" fill="#FFCE4C"/>
<path d="M295.115 119.897L282.358 126.91L178.725 106.886L191.957 100.416L295.115 119.897Z" fill="#FDFFD0"/>
<path d="M213.871 157.218L243.479 162.338L256.124 155.743L243.479 160.808L213.871 157.218Z" fill="#0B801F"/>
<path d="M230.517 187.247L243.483 190.337L261.55 179.594L243.483 188.82L230.517 187.247Z" fill="#0B801F"/>
<path d="M222.893 167.961L243.544 173.166L273.375 156.579L243.474 170.508L222.893 167.961Z" fill="#0B801F"/>
<path d="M332.109 127.996L309.935 139.184L332.109 125.13L329.343 126.883L332.109 127.996Z" fill="#0B801F"/>
<path d="M127.327 164.955L156.487 168.615L131.072 163.271L127.327 164.955Z" fill="#0B801F"/>
<path d="M127.327 149.204L193.039 159.125L131.072 148.48L127.327 149.204Z" fill="#0B801F"/>
<path d="M298.723 161.922L278.771 174.25V128.887L298.723 117.908V161.922Z" fill="#FFB900"/>
<path d="M295.121 164.148L282.365 172.024V126.911L295.121 119.898V164.148Z" fill="#C9FF79"/>
<path d="M332.106 108.056L324.071 111.326L329.772 107.722L332.106 108.056Z" fill="#0B801F"/>
<g style="mix-blend-mode:multiply">
<path d="M260.146 183.756L332.103 141.663V127.999L329.337 126.885L332.103 125.132V108.058L329.77 107.724L332.103 106.235V98.2899L247.557 147.744L260.146 183.756Z" fill="#C8F5A6"/>
</g>
<path d="M274.618 119.685L294.571 132.793V84.5629L274.618 74.5441V119.685Z" fill="#FFB900"/>
<path d="M170.685 141.058L190.637 154.166L233.239 146.165L213.287 134.49L170.685 141.058Z" fill="#FF8D2F"/>
<path d="M342.074 108.4L240.202 59.3911L137.295 73.4036V81.8362L139.629 83.4225L137.295 83.7843V101.943L140.062 103.808L137.295 104.977V119.518L225.852 174.594L342.074 154.515V144.287L338.33 142.492L342.074 141.894V127.533L338.33 126.768L342.074 126.017V108.4Z" fill="#7ACE5B"/>
<path d="M240.202 58L137.295 73.404L225.852 128.48L342.074 108.4L240.202 58Z" fill="#7ACE5B"/>
<path d="M240.202 58L137.295 73.404L225.852 128.48L342.088 108.414L240.202 58ZM212.62 65.1941C220.501 67.0448 232.349 67.6849 244.282 66.8778L311.726 100.984C302.337 103.85 297.88 107.733 299.919 111.434L258.226 118.572C248.851 116.054 235.241 115.163 221.632 116.137L161.272 79.5684C170.801 77.0776 175.971 73.8075 175.23 70.8297L212.62 65.1941Z" fill="#0B801F"/>
<path d="M250.142 98.7146C269.634 95.5142 277.696 89.0854 268.628 84.4099C259.797 79.8736 237.791 78.6352 219.054 81.5712C200.079 84.5352 190.899 90.7691 198.975 95.5698C207.275 100.51 230.399 101.957 250.156 98.7146H250.142Z" fill="#0B801F"/>
<path d="M267.832 110.056C273.672 109.096 276.075 107.175 273.365 105.77C270.724 104.406 264.129 104.045 258.526 104.921C252.923 105.798 250.101 107.676 252.518 109.11C255.005 110.585 261.921 111.016 267.846 110.056H267.832Z" fill="#0B801F"/>
<path d="M209.456 78.1627C215.297 77.2025 217.7 75.2822 214.989 73.8768C212.348 72.5131 205.753 72.1513 200.15 73.028C194.464 73.9186 191.725 75.7832 194.142 77.2164C196.629 78.6914 203.546 79.1228 209.47 78.1627H209.456Z" fill="#0B801F"/>
<path d="M237.93 119.727C238.769 119.727 239.593 119.796 240.39 119.922C241.214 120.033 241.968 120.214 242.653 120.45L244.344 120.269L245.154 120.548L243.38 120.743C244.176 121.104 244.483 121.466 244.246 121.814C243.994 122.176 243.086 122.468 241.521 122.677L238.95 121.508C239.705 121.411 240.04 121.271 239.97 121.118L237.064 121.438C237.302 121.772 237.441 122.051 237.497 122.259C237.539 122.482 237.344 122.705 236.882 122.955C236.421 123.206 235.513 123.4 234.186 123.567C233.068 123.707 231.978 123.734 230.93 123.693C229.896 123.637 229.002 123.512 228.248 123.317C227.507 123.122 226.948 122.886 226.543 122.621L224.489 122.844L224.126 122.482L226.138 122.259C225.816 121.856 225.956 121.508 226.557 121.202C227.13 120.91 228.122 120.687 229.505 120.52L231.07 121.494C230.371 121.591 229.994 121.703 229.938 121.842L232.928 121.522L232.9 121.383C232.789 121.118 232.775 120.896 232.817 120.729C232.872 120.562 233.11 120.395 233.515 120.242C233.92 120.089 234.605 119.963 235.541 119.866C236.31 119.782 237.12 119.755 237.944 119.769L237.93 119.727ZM232.928 121.898L230.274 122.19C230.651 122.343 231.21 122.385 231.908 122.301C232.495 122.232 232.831 122.092 232.928 121.898ZM238.531 120.673C238.224 120.659 237.916 120.673 237.595 120.701C237.078 120.757 236.841 120.882 236.869 121.077L239.37 120.798C239.118 120.729 238.839 120.687 238.531 120.673Z" fill="#C8F5A6"/>
<path d="M319.735 104.227C320.574 104.227 321.398 104.296 322.194 104.421C323.019 104.533 323.773 104.714 324.458 104.95L326.149 104.769L326.959 105.048L325.184 105.242C325.981 105.604 326.288 105.966 326.051 106.314C325.799 106.676 324.891 106.968 323.326 107.177L320.755 106.008C321.51 105.91 321.845 105.771 321.775 105.618L318.869 105.938C319.106 106.272 319.246 106.55 319.302 106.759C319.344 106.982 319.148 107.204 318.687 107.455C318.226 107.705 317.318 107.9 315.991 108.067C314.873 108.206 313.783 108.234 312.735 108.192C311.701 108.137 310.807 108.011 310.052 107.817C309.312 107.622 308.753 107.385 308.348 107.121L306.294 107.344L305.931 106.982L307.943 106.759C307.621 106.356 307.761 106.008 308.362 105.702C308.935 105.409 309.927 105.187 311.31 105.02L312.875 105.994C312.176 106.091 311.799 106.203 311.743 106.342L314.733 106.022L314.705 105.882C314.593 105.618 314.579 105.395 314.621 105.228C314.677 105.061 314.915 104.894 315.32 104.741C315.725 104.588 316.41 104.463 317.346 104.366C318.114 104.282 318.925 104.254 319.749 104.268L319.735 104.227ZM314.719 106.383L312.064 106.676C312.442 106.829 313.001 106.87 313.699 106.787C314.286 106.717 314.621 106.578 314.719 106.383ZM320.322 105.173C320.015 105.159 319.707 105.173 319.386 105.201C318.869 105.256 318.631 105.382 318.659 105.576L321.16 105.298C320.909 105.228 320.629 105.187 320.322 105.173Z" fill="#C8F5A6"/>
<path d="M236.696 61.3815C237.535 61.3815 238.359 61.451 239.155 61.5763C239.98 61.6876 240.734 61.8685 241.419 62.1051L243.11 61.9242L243.92 62.2025L242.146 62.3973C242.942 62.7591 243.249 63.1209 243.012 63.4687C242.76 63.8305 241.852 64.1227 240.287 64.3315L237.716 63.1626C238.471 63.0652 238.806 62.926 238.736 62.773L235.83 63.093C236.068 63.427 236.207 63.7053 236.263 63.914C236.305 64.1367 236.109 64.3593 235.648 64.6098C235.187 64.8602 234.279 65.0551 232.952 65.222C231.834 65.3612 230.744 65.389 229.696 65.3473C228.662 65.2916 227.768 65.1664 227.013 64.9716C226.273 64.7768 225.714 64.5402 225.309 64.2758L223.255 64.4985L222.892 64.1367L224.904 63.914C224.582 63.5105 224.722 63.1626 225.323 62.8565C225.896 62.5643 226.888 62.3416 228.271 62.1746L229.836 63.1487C229.137 63.2461 228.76 63.3574 228.704 63.4966L231.694 63.1765L231.666 63.0374C231.554 62.773 231.54 62.5503 231.582 62.3834C231.638 62.2164 231.876 62.0494 232.281 61.8963C232.686 61.7433 233.371 61.618 234.307 61.5206C235.075 61.4371 235.886 61.4093 236.71 61.4232L236.696 61.3815ZM231.68 63.5383L229.025 63.8305C229.403 63.9836 229.962 64.0253 230.66 63.9418C231.247 63.8723 231.582 63.7331 231.68 63.5383ZM237.283 62.3138C236.976 62.2999 236.668 62.3138 236.347 62.3416C235.83 62.3973 235.592 62.5225 235.62 62.7173L238.121 62.439C237.87 62.3694 237.591 62.3277 237.283 62.3138Z" fill="#C8F5A6"/>
<path d="M162.345 72.0818C163.183 72.0818 164.008 72.1514 164.804 72.2766C165.628 72.3879 166.383 72.5688 167.068 72.8054L168.758 72.6245L169.569 72.9028L167.794 73.0976C168.591 73.4594 168.898 73.8212 168.66 74.1691C168.409 74.5308 167.501 74.8231 165.936 75.0318L163.365 73.8629C164.119 73.7655 164.455 73.6264 164.385 73.4733L161.479 73.7933C161.716 74.1273 161.856 74.4056 161.912 74.6143C161.954 74.837 161.758 75.0596 161.297 75.3101C160.836 75.5606 159.928 75.7554 158.6 75.9224C157.483 76.0615 156.393 76.0893 155.345 76.0476C154.311 75.9919 153.417 75.8667 152.662 75.6719C151.922 75.4771 151.363 75.2405 150.958 74.9761L148.904 75.1988L148.54 74.837L150.552 74.6143C150.231 74.2108 150.371 73.8629 150.971 73.5568C151.544 73.2646 152.536 73.0419 153.92 72.8749L155.485 73.849C154.786 73.9464 154.409 74.0577 154.353 74.1969L157.343 73.8768L157.315 73.7377C157.203 73.4733 157.189 73.2507 157.231 73.0837C157.287 72.9167 157.525 72.7497 157.93 72.5966C158.335 72.4436 159.02 72.3183 159.956 72.2209C160.724 72.1374 161.535 72.1096 162.359 72.1235L162.345 72.0818ZM157.343 74.2386L154.688 74.5308C155.065 74.6839 155.624 74.7257 156.323 74.6422C156.91 74.5726 157.245 74.4334 157.343 74.2386ZM162.932 73.028C162.624 73.0141 162.317 73.028 161.996 73.0558C161.479 73.1115 161.241 73.2367 161.269 73.4316L163.77 73.1532C163.519 73.0837 163.239 73.0419 162.932 73.028Z" fill="#C8F5A6"/>
<path d="M220.584 87.6387C222.847 87.277 224.915 87.1239 226.801 87.1795C228.674 87.2352 230.322 87.3883 231.706 87.6527C233.103 87.917 234.654 88.2928 236.372 88.7659L237.323 89.0024L243.554 88.0005C242.562 87.8057 241.291 87.8196 239.726 88.0145L235.087 85.4958C238.371 85.0505 241.403 84.9392 244.183 85.1619C246.964 85.3845 249.311 85.9272 251.239 86.7621L255.179 86.1359L256.604 86.8873L252.65 87.5135C253.6 88.1119 254.103 88.7102 254.145 89.3086C254.187 89.9069 253.712 90.4774 252.692 90.9923C251.672 91.5071 250.121 91.9385 248.039 92.2725C245.524 92.676 243.261 92.843 241.235 92.7734C239.209 92.7038 237.518 92.5229 236.163 92.2307C234.808 91.9385 233.131 91.5071 231.133 90.9505L224.775 91.9663C225.893 92.2029 227.318 92.2168 229.065 91.9663L233.69 94.5545C230.364 95.0555 227.235 95.1668 224.3 94.8885C221.38 94.6241 218.963 94.0536 217.035 93.2048L212.927 93.8588L211.572 93.0795L215.568 92.4395C214.492 91.7576 214.017 91.0897 214.156 90.4635C214.282 89.8373 214.911 89.2807 216.057 88.7798C217.188 88.2928 218.683 87.8892 220.556 87.597L220.584 87.6387ZM243.778 89.6703C245.189 89.4477 245.678 89.1277 245.259 88.7102L239.852 89.5729C241.291 89.8234 242.604 89.8512 243.778 89.6703ZM223.169 91.2706L228.772 90.38C227.29 90.0739 225.977 90.0182 224.817 90.1991C224.091 90.3104 223.588 90.4635 223.308 90.6583C223.029 90.8531 222.987 91.0619 223.169 91.2706Z" fill="#C8F5A6"/>
<path d="M225.855 174.594L342.078 154.515V144.287L338.333 142.492L342.078 141.894V127.534L338.333 126.768L342.078 126.017V108.4L225.855 128.48V174.594Z" fill="#C8F5A6"/>
<path d="M171.51 140.893L191.476 153.277V107.121L171.51 94.7643V140.893Z" fill="#7ACE5B"/>
<path d="M171.516 95.4456L191.482 107.12L294.724 84.9676L274.618 74.5452L171.516 95.4456Z" fill="#329442"/>
<path d="M170.683 94.2629L190.636 105.938L294.576 84.5641L273.702 73.7242L170.683 94.2629Z" fill="#FFCE4C"/>
<path d="M174.291 96.364L187.048 103.822L290.68 82.5324L277.449 75.6722L174.291 96.364Z" fill="#FDFFD0"/>
<path d="M255.538 136.063L225.93 141.49L213.285 134.491L225.93 139.876L255.538 136.063Z" fill="#0B801F"/>
<path d="M238.896 167.985L225.93 171.269L207.864 159.844L225.93 169.655L238.896 167.985Z" fill="#0B801F"/>
<path d="M246.514 147.473L225.863 153.012L196.032 135.367L225.933 150.173L246.514 147.473Z" fill="#0B801F"/>
<path d="M137.297 104.978L159.471 116.875L137.297 101.944L140.064 103.809L137.297 104.978Z" fill="#0B801F"/>
<path d="M342.083 144.287L312.922 148.183L338.338 142.492L342.083 144.287Z" fill="#0B801F"/>
<path d="M342.076 127.533L276.364 138.081L338.331 126.768L342.076 127.533Z" fill="#0B801F"/>
<path d="M170.685 141.059L190.637 154.167V105.937L170.685 94.2622V141.059Z" fill="#FFB900"/>
<path d="M174.285 143.425L187.042 151.802V103.823L174.285 96.3643V143.425Z" fill="#C9FF79"/>
<path d="M137.297 83.7838L145.331 87.2626L139.631 83.422L137.297 83.7838Z" fill="#0B801F"/>
<path d="M210.009 268.156H209.944C208.933 258.859 189.989 250.504 161.93 248.076C127.894 245.145 93.3519 252.066 84.7942 263.546C83.7051 265.005 83.0956 266.464 82.9141 267.911H82.8622L82.6029 279.687C81.5267 289.592 101.041 298.205 130.656 300.749C164.692 303.68 199.234 296.758 207.792 285.279C209.27 283.29 209.866 281.301 209.672 279.352H209.724L209.996 268.143L210.009 268.156Z" fill="#FF9946"/>
<path d="M130.653 299.908C102.231 297.454 83.1185 289.435 82.5739 280.047C81.9775 289.81 101.388 298.242 130.653 300.76C164.689 303.691 199.231 296.77 207.789 285.29C209.202 283.405 209.799 281.506 209.695 279.647C209.604 281.235 208.982 282.837 207.789 284.438C199.231 295.917 164.689 302.852 130.653 299.908Z" fill="#FF8D2F"/>
<path d="M86.2604 263.932C94.6107 252.724 128.323 245.97 161.555 248.837C194.788 251.704 214.937 263.106 206.587 274.315C198.237 285.523 164.525 292.277 131.292 289.41C98.0597 286.543 77.9102 275.141 86.2604 263.932Z" fill="url(#paint0_linear_4506_7144)"/>
<path d="M84.7852 263.804C93.3429 252.325 127.885 245.39 161.921 248.335C195.958 251.266 216.626 262.952 208.055 274.432C199.497 285.912 164.955 292.846 130.919 289.902C96.8827 286.97 76.2145 275.284 84.7852 263.804Z" fill="#FF8D2F"/>
<path d="M86.2802 263.146C94.6305 251.937 128.343 245.184 161.575 248.05C194.808 250.917 214.957 262.319 206.607 273.528C198.257 284.736 164.544 291.49 131.312 288.623C98.0795 285.756 77.93 274.354 86.2802 263.146Z" fill="#FF8D2F"/>
<path d="M108.699 282.436C85.5416 275.373 83.6745 263.325 104.511 255.538C125.348 247.752 161.018 247.171 184.176 254.234C207.333 261.298 209.201 273.346 188.364 281.132C167.527 288.919 131.857 289.5 108.699 282.436Z" fill="#FF8D2F"/>
<path d="M93.3022 264.074C100.68 254.518 130.45 248.746 159.78 251.187C189.123 253.627 206.925 263.364 199.547 272.933C192.17 282.488 162.399 288.26 133.07 285.82C103.727 283.379 85.9244 273.643 93.3022 264.074Z" fill="#FFA052"/>
<path d="M159.803 252.427C184.011 254.442 200.361 261.428 201.204 269.176C202.073 260.937 185.295 253.318 159.803 251.188C130.461 248.747 100.703 254.506 93.3253 264.075C92.0287 265.754 91.523 267.419 91.6915 269.072C91.8212 267.833 92.3528 266.567 93.3253 265.315C100.703 255.759 130.474 249.987 159.803 252.427Z" fill="#FFCA9F"/>
<path d="M151.224 259.272C144.17 259.479 142.588 260.77 141.797 263.12H141.668C140.138 261.687 136.079 261.106 132.254 261.222C126.367 261.403 122.27 263.753 123.463 267.498L113.285 266.335V267.859L114.27 270.287L124.41 269.899L125.213 271.888L115.087 270.765V272.288L116.072 274.716L126.199 274.29L128.144 279.093L134.108 278.822V277.299L133.46 277.208C133.058 276.201 134.355 275.659 136.04 275.581L160.961 274.509C162.569 274.445 163.684 274.768 163.957 275.439L164.579 276.989L171.697 277.169V275.646L169.791 272.469L178.881 272.095V270.571L177.947 269.783L168.858 270.145L168.08 268.221L177.182 267.872V266.348L176.249 265.561L167.12 265.883C164.89 261.041 159.302 258.962 151.263 259.207L151.224 259.272ZM131.826 271.449L131.061 269.551C130.348 267.795 130.854 265.858 135.483 265.69C140.112 265.522 142.147 267.356 142.861 269.099L143.626 270.971L131.826 271.436V271.449ZM161.182 268.143L162.102 270.429L149.473 270.932L148.54 268.621C147.827 266.852 147.943 264.14 153.104 263.972C158.264 263.804 160.469 266.413 161.182 268.156V268.143Z" fill="#FFB578"/>
<path d="M151.224 257.76C144.17 257.967 142.588 259.258 141.797 261.608H141.668C140.138 260.175 136.079 259.594 132.254 259.71C126.367 259.891 122.27 262.241 123.463 265.986L113.285 266.347L114.27 268.775L124.41 268.387L125.213 270.376L115.087 270.776L116.072 273.204L126.199 272.778L128.144 277.582L134.108 277.31L133.46 275.709C133.058 274.702 134.355 274.16 136.04 274.082L160.961 273.01C162.569 272.946 163.684 273.269 163.957 273.94L164.579 275.49L171.697 275.67L169.791 270.97L178.881 270.596L177.947 268.297L168.858 268.659L168.08 266.735L177.182 266.386L176.249 264.087L167.12 264.41C164.89 259.568 159.302 257.489 151.263 257.734L151.224 257.76ZM131.826 269.924L131.061 268.026C130.348 266.27 130.854 264.333 135.483 264.165C140.073 264.01 142.147 265.831 142.861 267.574L143.626 269.446L131.826 269.911V269.924ZM161.182 266.618L162.102 268.904L149.473 269.408L148.54 267.096C147.827 265.327 147.943 262.615 153.104 262.447C158.264 262.28 160.469 264.888 161.182 266.631V266.618Z" fill="white"/>
<path d="M82.8638 271.68L82.9805 267.91C82.8249 277.556 103.156 286.504 130.735 289.384C130.735 289.384 89.7877 286.982 82.8638 271.68Z" fill="#FF8D2F"/>
<path d="M209.964 270.919L209.899 266.98C210.495 274.999 189.581 287.331 161.976 289.668C161.976 289.668 202.91 286.091 209.964 270.919Z" fill="#FFCA9F"/>
<path d="M124.389 269.925L114.249 270.312V268.788L124.389 268.401V269.925Z" fill="#FF8D2F"/>
<path d="M126.168 274.327L116.054 274.753V273.229L126.168 272.803V274.327Z" fill="#FF8D2F"/>
<path d="M134.083 278.86L128.119 279.131V277.607L134.083 277.336V278.86Z" fill="#FF8D2F"/>
<path d="M171.668 277.22L164.55 277.039V275.516L171.668 275.697V277.22Z" fill="#FF8D2F"/>
<path d="M178.846 272.145L170.366 272.494L169.757 270.996L178.846 270.621V272.145Z" fill="#FF8D2F"/>
<path d="M177.144 267.935L168.651 268.257L168.041 266.76L177.144 266.411V267.935Z" fill="#FF8D2F"/>
<path d="M217.095 254.335H217.031C216.019 245.037 197.076 236.682 169.017 234.255C134.98 231.324 100.438 238.245 91.8805 249.725C90.7914 251.184 90.1819 252.643 90.0004 254.089H89.9485L89.6892 265.866C88.613 275.77 108.127 284.383 137.742 286.927C171.778 289.859 206.32 282.937 214.878 271.457C216.356 269.469 216.953 267.48 216.758 265.53H216.81L217.082 254.322L217.095 254.335Z" fill="#FF9946"/>
<path d="M137.739 286.088C109.317 283.634 90.2048 275.615 89.6602 266.227C89.0638 275.99 108.474 284.422 137.739 286.94C171.775 289.871 206.317 282.95 214.875 271.47C216.288 269.585 216.885 267.687 216.781 265.827C216.69 267.415 216.068 269.017 214.875 270.618C206.317 282.098 171.775 289.032 137.739 286.088Z" fill="#FF8D2F"/>
<path d="M93.3421 250.098C101.692 238.89 135.405 232.136 168.637 235.003C201.869 237.869 222.019 249.272 213.669 260.48C205.318 271.689 171.606 278.442 138.374 275.576C105.141 272.709 84.9918 261.307 93.3421 250.098Z" fill="url(#paint1_linear_4506_7144)"/>
<path d="M91.8669 249.97C100.425 238.491 134.967 231.556 169.003 234.5C203.039 237.432 223.707 249.118 215.137 260.598C206.579 272.077 172.037 279.012 138.001 276.068C103.964 273.136 83.2962 261.45 91.8669 249.97Z" fill="#FF8D2F"/>
<path d="M93.3619 249.312C101.712 238.103 135.424 231.349 168.657 234.216C201.889 237.083 222.039 248.485 213.688 259.694C205.338 270.902 171.626 277.656 138.394 274.789C105.161 271.922 85.0116 260.52 93.3619 249.312Z" fill="#FF8D2F"/>
<path d="M115.781 268.602C92.6233 261.539 90.7562 249.491 111.593 241.704C132.43 233.918 168.1 233.337 191.257 240.4C214.415 247.463 216.282 259.511 195.445 267.298C174.609 275.085 138.939 275.666 115.781 268.602Z" fill="#FF8D2F"/>
<path d="M100.384 250.24C107.762 240.684 137.532 234.912 166.862 237.353C196.204 239.793 214.007 249.53 206.629 259.098C199.251 268.654 169.481 274.426 140.151 271.986C110.809 269.545 93.0061 259.809 100.384 250.24Z" fill="#FFA052"/>
<path d="M166.885 238.593C191.093 240.608 207.443 247.594 208.286 255.341C209.155 247.103 192.376 239.484 166.885 237.353C137.542 234.913 107.785 240.672 100.407 250.241C99.1103 251.919 98.6046 253.585 98.7732 255.238C98.9029 253.998 99.4345 252.733 100.407 251.48C107.785 241.925 137.555 236.153 166.885 238.593Z" fill="#FFCA9F"/>
<path d="M158.305 245.438C151.252 245.644 149.67 246.936 148.879 249.286H148.749C147.219 247.853 143.161 247.271 139.336 247.388C133.449 247.568 129.352 249.919 130.545 253.663L120.366 252.501V254.025L121.352 256.453L131.491 256.065L132.295 258.054L122.169 256.93V258.454L123.154 260.882L133.281 260.456L135.226 265.259L141.19 264.988V263.464L140.542 263.374C140.14 262.367 141.436 261.825 143.122 261.747L168.043 260.675C169.651 260.611 170.766 260.934 171.038 261.605L171.661 263.155L178.779 263.335V261.812L176.873 258.635L185.962 258.26V256.737L185.029 255.949L175.939 256.311L175.161 254.387L184.264 254.038V252.514L183.33 251.726L174.202 252.049C171.972 247.207 166.383 245.128 158.344 245.373L158.305 245.438ZM138.908 257.615L138.143 255.717C137.43 253.96 137.935 252.023 142.564 251.856C147.154 251.701 149.229 253.521 149.942 255.265L150.707 257.137L138.908 257.602V257.615ZM168.263 254.309L169.184 256.595L156.555 257.098L155.621 254.787C154.908 253.018 155.025 250.306 160.185 250.138C165.294 249.97 167.55 252.579 168.263 254.322V254.309Z" fill="#FFB578"/>
<path d="M158.305 243.927C151.252 244.134 149.67 245.425 148.879 247.775H148.749C147.219 246.342 143.161 245.761 139.336 245.877C133.449 246.058 129.352 248.408 130.545 252.153L120.366 252.514L121.352 254.942L131.491 254.554L132.295 256.543L122.169 256.943L123.154 259.371L133.281 258.945L135.226 263.749L141.19 263.477L140.542 261.876C140.14 260.869 141.436 260.327 143.122 260.249L168.043 259.177C169.651 259.113 170.766 259.436 171.038 260.107L171.661 261.657L178.779 261.837L176.873 257.137L185.962 256.763L185.029 254.464L175.939 254.826L175.161 252.902L184.264 252.553L183.33 250.254L174.202 250.577C171.972 245.735 166.383 243.656 158.344 243.901L158.305 243.927ZM138.908 256.104L138.143 254.206C137.43 252.45 137.935 250.513 142.564 250.345C147.154 250.19 149.229 252.011 149.942 253.754L150.707 255.626L138.908 256.091V256.104ZM168.263 252.785L169.184 255.071L156.555 255.575L155.621 253.263C154.908 251.494 155.025 248.782 160.185 248.614C165.294 248.447 167.55 251.055 168.263 252.798V252.785Z" fill="white"/>
<path d="M89.9501 257.86L90.0668 254.089C89.9112 263.735 110.242 272.684 137.821 275.564C137.821 275.564 96.874 273.162 89.9501 257.86Z" fill="#FF8D2F"/>
<path d="M217.05 257.085L216.985 253.147C217.582 261.166 196.667 273.498 169.062 275.835C169.062 275.835 209.997 272.258 217.05 257.085Z" fill="#FFCA9F"/>
<path d="M131.47 256.092L121.331 256.479V254.955L131.47 254.581V256.092Z" fill="#FF8D2F"/>
<path d="M133.255 260.494L123.141 260.92V259.396L133.255 258.983V260.494Z" fill="#FF8D2F"/>
<path d="M141.159 265.027L135.195 265.298V263.774L141.159 263.503V265.027Z" fill="#FF8D2F"/>
<path d="M178.755 263.386L171.636 263.205V261.681L178.755 261.862V263.386Z" fill="#FF8D2F"/>
<path d="M185.937 258.311L177.458 258.66L176.848 257.162L185.937 256.788V258.311Z" fill="#FF8D2F"/>
<path d="M184.23 254.102L175.737 254.425L175.128 252.927L184.23 252.578V254.102Z" fill="#FF8D2F"/>
<path d="M215.202 239.459H215.137C214.126 230.161 195.182 221.806 167.123 219.379C133.087 216.447 98.5449 223.369 89.9872 234.849C88.898 236.308 88.2886 237.767 88.1071 239.213H88.0552L87.7959 250.99C86.7197 260.894 106.234 269.507 135.849 272.051C169.885 274.982 204.427 268.061 212.985 256.581C214.463 254.593 215.059 252.604 214.865 250.654H214.917L215.189 239.446L215.202 239.459Z" fill="#FF9946"/>
<path d="M135.866 271.212C107.444 268.759 88.3315 260.74 87.7869 251.352C87.1905 261.114 106.601 269.546 135.866 272.064C169.902 274.996 204.444 268.074 213.002 256.594C214.415 254.709 215.012 252.811 214.908 250.951C214.817 252.54 214.195 254.141 213.002 255.742C204.444 267.222 169.902 274.156 135.866 271.212Z" fill="#FF8D2F"/>
<path d="M91.4647 235.233C99.8149 224.025 133.527 217.271 166.76 220.138C199.992 223.004 220.141 234.407 211.791 245.615C203.441 256.824 169.729 263.577 136.496 260.711C103.264 257.844 83.1144 246.442 91.4647 235.233Z" fill="url(#paint2_linear_4506_7144)"/>
<path d="M89.9894 235.105C98.5471 223.625 133.089 216.691 167.126 219.635C201.162 222.567 221.83 234.253 213.259 245.733C204.702 257.212 170.16 264.147 136.123 261.203C102.087 258.271 81.4188 246.585 89.9894 235.105Z" fill="#FF8D2F"/>
<path d="M91.4647 234.446C99.8149 223.238 133.527 216.484 166.76 219.351C199.992 222.218 220.141 233.62 211.791 244.829C203.441 256.037 169.729 262.791 136.496 259.924C103.264 257.057 83.1144 245.655 91.4647 234.446Z" fill="#FF8D2F"/>
<path d="M113.904 253.737C90.746 246.674 88.8789 234.626 109.716 226.839C130.552 219.053 166.222 218.472 189.38 225.535C212.538 232.599 214.405 244.647 193.568 252.433C172.731 260.22 137.061 260.801 113.904 253.737Z" fill="#FF8D2F"/>
<path d="M98.5064 235.363C105.884 225.807 135.655 220.035 164.984 222.476C194.327 224.916 212.129 234.653 204.752 244.221C197.374 253.777 167.603 259.549 138.274 257.109C108.931 254.668 91.1286 244.932 98.5064 235.363Z" fill="#FFA052"/>
<path d="M164.987 223.716C189.195 225.731 205.546 232.717 206.388 240.465C207.257 232.226 190.479 224.607 164.987 222.477C135.645 220.036 105.887 225.795 98.5095 235.364C97.2129 237.043 96.7072 238.708 96.8757 240.361C97.0054 239.122 97.537 237.856 98.5095 236.604C105.887 227.048 135.658 221.276 164.987 223.716Z" fill="#FFCA9F"/>
<path d="M156.418 230.574C149.365 230.78 147.783 232.072 146.992 234.422H146.862C145.332 232.989 141.274 232.407 137.449 232.524C131.562 232.704 127.465 235.055 128.657 238.799L118.479 237.637V239.161L119.464 241.589L129.604 241.201L130.408 243.19L120.281 242.066V243.59L121.267 246.018L131.393 245.592L133.338 250.395L139.303 250.124V248.6L138.654 248.51C138.252 247.503 139.549 246.96 141.235 246.883L166.156 245.811C167.764 245.747 168.879 246.069 169.151 246.741L169.773 248.291L176.892 248.471V246.948L174.986 243.771L184.075 243.396V241.873L183.142 241.085L174.052 241.447L173.274 239.523L182.377 239.174V237.65L181.443 236.862L172.315 237.185C170.085 232.343 164.496 230.264 156.457 230.509L156.418 230.574ZM137.021 242.751L136.256 240.853C135.543 239.096 136.048 237.159 140.677 236.992C145.267 236.837 147.342 238.657 148.055 240.401L148.82 242.273L137.021 242.738V242.751ZM166.389 239.432L167.31 241.718L154.681 242.221L153.747 239.91C153.034 238.141 153.151 235.429 158.311 235.261C163.42 235.093 165.676 237.702 166.389 239.445V239.432Z" fill="#FFB578"/>
<path d="M156.418 229.048C149.365 229.255 147.783 230.546 146.992 232.896H146.862C145.332 231.463 141.274 230.882 137.449 230.998C131.562 231.179 127.465 233.529 128.657 237.274L118.479 237.636L119.464 240.063L129.604 239.676L130.408 241.664L120.281 242.065L121.267 244.492L131.393 244.066L133.338 248.87L139.303 248.599L138.654 246.998C138.252 245.99 139.549 245.448 141.235 245.371L166.156 244.299C167.764 244.234 168.879 244.557 169.151 245.228L169.773 246.778L176.892 246.959L174.986 242.258L184.075 241.884L183.142 239.585L174.052 239.947L173.274 238.023L182.377 237.674L181.443 235.376L172.315 235.699C170.085 230.856 164.496 228.777 156.457 229.023L156.418 229.048ZM137.021 241.225L136.256 239.327C135.543 237.571 136.048 235.634 140.677 235.466C145.267 235.311 147.342 237.132 148.055 238.875L148.82 240.748L137.021 241.212V241.225ZM166.389 237.92L167.31 240.205L154.681 240.709L153.747 238.397C153.034 236.628 153.151 233.917 158.311 233.749C163.42 233.581 165.676 236.189 166.389 237.933V237.92Z" fill="white"/>
<path d="M88.0524 242.984L88.1691 239.213C88.0135 248.859 108.345 257.808 135.924 260.687C135.924 260.687 94.9763 258.286 88.0524 242.984Z" fill="#FF8D2F"/>
<path d="M215.172 242.22L215.107 238.282C215.704 246.301 194.789 258.633 167.184 260.97C167.184 260.97 208.119 257.393 215.172 242.22Z" fill="#FFCA9F"/>
<path d="M129.597 241.228L119.457 241.615V240.091L129.597 239.704V241.228Z" fill="#FF8D2F"/>
<path d="M131.374 245.63L121.247 246.056V244.533L131.374 244.106V245.63Z" fill="#FF8D2F"/>
<path d="M139.279 250.164L133.302 250.435V248.912L139.279 248.641V250.164Z" fill="#FF8D2F"/>
<path d="M176.877 248.511L169.758 248.33V246.82L176.877 247V248.511Z" fill="#FF8D2F"/>
<path d="M184.046 243.436L175.566 243.798L174.97 242.3L184.046 241.925V243.436Z" fill="#FF8D2F"/>
<path d="M182.341 239.24L173.849 239.55L173.239 238.065L182.341 237.716V239.24Z" fill="#FF8D2F"/>
<path d="M212.646 224.118H212.581C211.57 214.82 192.626 206.466 164.567 204.038C130.531 201.107 95.9889 208.028 87.4312 219.508C86.342 220.967 85.7326 222.426 85.5511 223.872H85.4992L85.2399 235.649C84.1637 245.553 103.678 254.166 133.293 256.71C167.329 259.642 201.871 252.72 210.429 241.24C211.907 239.252 212.503 237.263 212.309 235.313H212.361L212.633 224.105L212.646 224.118Z" fill="#FF9946"/>
<path d="M133.31 255.873C104.888 253.419 85.7755 245.4 85.2309 236.012C84.6345 245.775 104.045 254.207 133.31 256.725C167.346 259.656 201.888 252.735 210.446 241.255C211.859 239.37 212.456 237.472 212.352 235.612C212.261 237.2 211.639 238.802 210.446 240.403C201.888 251.883 167.346 258.817 133.31 255.873Z" fill="#FF8D2F"/>
<path d="M88.9098 219.895C97.2601 208.686 130.972 201.932 164.205 204.799C197.437 207.666 217.587 219.068 209.236 230.277C200.886 241.485 167.174 248.239 133.942 245.372C100.709 242.505 80.5596 231.103 88.9098 219.895Z" fill="url(#paint3_linear_4506_7144)"/>
<path d="M87.4346 219.767C95.9923 208.287 130.534 201.353 164.571 204.297C198.607 207.228 219.275 218.914 210.705 230.394C202.147 241.874 167.605 248.808 133.568 245.864C99.5321 242.933 78.8639 231.246 87.4346 219.767Z" fill="#FF8D2F"/>
<path d="M88.9098 219.108C97.2601 207.899 130.972 201.146 164.205 204.013C197.437 206.879 217.587 218.281 209.236 229.49C200.886 240.699 167.174 247.452 133.942 244.585C100.709 241.719 80.5596 230.316 88.9098 219.108Z" fill="#FF8D2F"/>
<path d="M111.339 238.399C88.1812 231.335 86.314 219.287 107.151 211.501C127.987 203.714 163.658 203.133 186.815 210.196C209.973 217.26 211.84 229.308 191.003 237.094C170.167 244.881 134.497 245.462 111.339 238.399Z" fill="#FF8D2F"/>
<path d="M95.9517 220.036C103.329 210.48 133.1 204.708 162.43 207.149C191.759 209.589 209.575 219.326 202.197 228.895C194.819 238.463 165.049 244.222 135.719 241.782C106.377 239.341 88.5739 229.605 95.9517 220.036Z" fill="#FFA052"/>
<path d="M162.433 208.389C186.641 210.404 202.991 217.39 203.834 225.138C204.703 216.899 187.924 209.28 162.433 207.15C133.09 204.709 103.333 210.468 95.9548 220.037C94.6582 221.716 94.1525 223.381 94.3211 225.034C94.4507 223.795 94.9823 222.529 95.9548 221.277C103.333 211.721 133.103 205.949 162.433 208.389Z" fill="#FFCA9F"/>
<path d="M153.863 215.234C146.81 215.441 145.228 216.732 144.437 219.082H144.307C142.777 217.649 138.719 217.068 134.894 217.184C129.007 217.365 124.91 219.715 126.103 223.46L115.924 222.298V223.821L116.91 226.249L127.049 225.862L127.853 227.85L117.726 226.727V228.25L118.712 230.678L128.838 230.252L130.783 235.056L136.748 234.784V233.261L136.1 233.17C135.698 232.163 136.994 231.621 138.68 231.543L163.601 230.472C165.209 230.407 166.324 230.73 166.596 231.401L167.218 232.951L174.337 233.132V231.608L172.431 228.431L181.52 228.057V226.533L180.587 225.745L171.497 226.107L170.719 224.183L179.822 223.834V222.31L178.888 221.523L169.76 221.846C167.53 217.003 161.941 214.924 153.902 215.17L153.863 215.234ZM134.466 227.411L133.701 225.513C132.988 223.757 133.493 221.82 138.122 221.652C142.712 221.497 144.787 223.318 145.5 225.061L146.265 226.933L134.466 227.398V227.411ZM163.821 224.092L164.742 226.378L152.113 226.882L151.179 224.57C150.466 222.801 150.583 220.089 155.743 219.922C160.852 219.754 163.108 222.362 163.821 224.105V224.092Z" fill="#FFB578"/>
<path d="M153.863 213.709C146.81 213.916 145.228 215.207 144.437 217.557H144.307C142.777 216.124 138.719 215.543 134.894 215.659C129.007 215.84 124.91 218.19 126.103 221.935L115.924 222.296L116.91 224.724L127.049 224.337L127.853 226.325L117.726 226.726L118.712 229.153L128.838 228.727L130.783 233.531L136.748 233.26L136.1 231.658C135.698 230.651 136.994 230.109 138.68 230.031L163.601 228.96C165.209 228.895 166.324 229.218 166.596 229.889L167.218 231.439L174.337 231.62L172.431 226.919L181.52 226.545L180.587 224.246L171.497 224.608L170.719 222.684L179.822 222.335L178.888 220.037L169.76 220.359C167.53 215.517 161.941 213.438 153.902 213.683L153.863 213.709ZM134.466 225.886L133.701 223.988C132.988 222.232 133.493 220.295 138.122 220.127C142.712 219.972 144.787 221.793 145.5 223.536L146.265 225.409L134.466 225.873V225.886ZM163.821 222.581L164.742 224.866L152.113 225.37L151.179 223.058C150.466 221.289 150.583 218.577 155.743 218.41C160.852 218.242 163.108 220.85 163.821 222.593V222.581Z" fill="white"/>
<path d="M85.4995 227.644L85.6162 223.874C85.4606 233.52 105.792 242.469 133.371 245.348C133.371 245.348 92.4235 242.946 85.4995 227.644Z" fill="#FF8D2F"/>
<path d="M212.605 226.881L212.54 222.943C213.136 230.962 192.222 243.294 164.617 245.631C164.617 245.631 205.551 242.054 212.605 226.881Z" fill="#FFCA9F"/>
<path d="M127.028 225.888L116.901 226.276V224.752L127.028 224.365V225.888Z" fill="#FF8D2F"/>
<path d="M128.818 230.291L118.692 230.717V229.193L128.818 228.767V230.291Z" fill="#FF8D2F"/>
<path d="M136.723 234.823L130.746 235.095V233.571L136.723 233.3V234.823Z" fill="#FF8D2F"/>
<path d="M174.318 233.184L167.187 233.003V231.479L174.318 231.66V233.184Z" fill="#FF8D2F"/>
<path d="M181.488 228.109L173.008 228.458L172.399 226.96L181.488 226.585V228.109Z" fill="#FF8D2F"/>
<path d="M179.772 223.899L171.293 224.222L170.683 222.724L179.772 222.375V223.899Z" fill="#FF8D2F"/>
<path d="M214.683 210.793H214.618C213.606 201.495 194.663 193.14 166.604 190.713C132.568 187.782 98.0255 194.703 89.4678 206.183C88.3786 207.642 87.7692 209.101 87.5877 210.547H87.5358L87.2765 222.324C86.2003 232.228 105.714 240.841 135.329 243.385C169.366 246.317 203.908 239.395 212.465 227.915C213.944 225.927 214.54 223.938 214.346 221.988H214.397L214.67 210.78L214.683 210.793Z" fill="#FF9946"/>
<path d="M135.346 242.546C106.924 240.093 87.8121 232.074 87.2675 222.686C86.6711 232.448 106.082 240.881 135.346 243.399C169.383 246.33 203.925 239.409 212.482 227.929C213.896 226.043 214.492 224.145 214.388 222.286C214.298 223.874 213.675 225.475 212.482 227.077C203.925 238.556 169.383 245.491 135.346 242.546Z" fill="#FF8D2F"/>
<path d="M90.9512 206.567C99.3015 195.358 133.014 188.605 166.246 191.472C199.479 194.338 219.628 205.74 211.278 216.949C202.928 228.158 169.215 234.911 135.983 232.044C102.75 229.178 82.601 217.775 90.9512 206.567Z" fill="url(#paint4_linear_4506_7144)"/>
<path d="M89.4711 206.438C98.0288 194.959 132.571 188.024 166.607 190.968C200.644 193.9 221.312 205.586 212.741 217.066C204.183 228.546 169.641 235.48 135.605 232.536C101.569 229.604 80.9004 217.918 89.4711 206.438Z" fill="#FF8D2F"/>
<path d="M90.9512 205.78C99.3015 194.572 133.014 187.818 166.246 190.685C199.479 193.552 219.628 204.954 211.278 216.162C202.928 227.371 169.215 234.125 135.983 231.258C102.75 228.391 82.601 216.989 90.9512 205.78Z" fill="#FF8D2F"/>
<path d="M113.385 225.059C90.2275 217.996 88.3604 205.948 109.197 198.161C130.034 190.375 165.704 189.794 188.862 196.857C212.019 203.921 213.886 215.968 193.05 223.755C172.213 231.542 136.543 232.123 113.385 225.059Z" fill="#FF8D2F"/>
<path d="M97.9881 206.697C105.366 197.142 135.136 191.369 164.466 193.81C193.808 196.251 211.611 205.987 204.233 215.556C196.856 225.111 167.085 230.884 137.755 228.443C108.413 226.002 90.6103 216.266 97.9881 206.697Z" fill="#FFA052"/>
<path d="M164.469 195.05C188.677 197.065 205.027 204.051 205.87 211.798C206.739 203.56 189.961 195.941 164.469 193.81C135.127 191.37 105.369 197.129 97.9913 206.698C96.6947 208.376 96.189 210.042 96.3576 211.695C96.4872 210.455 97.0188 209.19 97.9913 207.937C105.369 198.382 135.14 192.61 164.469 195.05Z" fill="#FFCA9F"/>
<path d="M155.905 201.906C148.851 202.113 147.269 203.404 146.478 205.755H146.349C144.819 204.321 140.76 203.74 136.935 203.856C131.048 204.037 126.951 206.387 128.144 210.132L117.966 208.97V210.494L118.951 212.921L129.091 212.534L129.895 214.523L119.768 213.399V214.923L120.753 217.35L130.88 216.924L132.825 221.728L138.789 221.457V219.933L138.141 219.843C137.739 218.835 139.036 218.293 140.721 218.216L165.642 217.144C167.25 217.079 168.365 217.402 168.638 218.074L169.26 219.623L176.378 219.804V218.28L174.472 215.104L183.562 214.729V213.205L182.628 212.418L173.539 212.779L172.761 210.855L181.863 210.507V208.983L180.93 208.195L171.801 208.518C169.571 203.676 163.983 201.597 155.944 201.842L155.905 201.906ZM136.507 214.083L135.742 212.185C135.029 210.429 135.535 208.492 140.164 208.324C144.754 208.169 146.828 209.99 147.542 211.733L148.307 213.606L136.507 214.071V214.083ZM165.863 210.765L166.783 213.05L154.154 213.554L153.221 211.243C152.508 209.474 152.624 206.762 157.785 206.594C162.894 206.426 165.15 209.034 165.863 210.778V210.765Z" fill="#FFB578"/>
<path d="M155.905 200.382C148.851 200.589 147.269 201.88 146.478 204.23H146.349C144.819 202.797 140.76 202.216 136.935 202.332C131.048 202.513 126.951 204.863 128.144 208.608L117.966 208.969L118.951 211.397L129.091 211.01L129.895 212.998L119.768 213.398L120.753 215.826L130.88 215.4L132.825 220.204L138.789 219.933L138.141 218.331C137.739 217.324 139.036 216.782 140.721 216.704L165.642 215.632C167.25 215.568 168.365 215.891 168.638 216.562L169.26 218.112L176.378 218.293L174.472 213.592L183.562 213.218L182.628 210.919L173.539 211.281L172.761 209.357L181.863 209.008L180.93 206.71L171.801 207.032C169.571 202.19 163.983 200.111 155.944 200.356L155.905 200.382ZM136.507 212.559L135.742 210.661C135.029 208.905 135.535 206.968 140.164 206.8C144.754 206.645 146.828 208.466 147.542 210.209L148.307 212.081L136.507 212.546V212.559ZM165.863 209.253L166.783 211.539L154.154 212.043L153.221 209.731C152.508 207.962 152.624 205.25 157.785 205.082C162.945 204.915 165.15 207.523 165.863 209.266V209.253Z" fill="white"/>
<path d="M87.546 214.317L87.6627 210.547C87.5071 220.193 107.838 229.141 135.417 232.021C135.417 232.021 94.47 229.619 87.546 214.317Z" fill="#FF8D2F"/>
<path d="M214.651 213.556L214.586 209.617C215.183 217.636 194.268 229.968 166.663 232.305C166.663 232.305 207.597 228.729 214.651 213.556Z" fill="#FFCA9F"/>
<path d="M129.064 212.561L118.938 212.936V211.425L129.064 211.038V212.561Z" fill="#FF8D2F"/>
<path d="M130.855 216.964L120.728 217.377V215.866L130.855 215.44V216.964Z" fill="#FF8D2F"/>
<path d="M138.76 221.484L132.782 221.768V220.245L138.76 219.974V221.484Z" fill="#FF8D2F"/>
<path d="M176.355 219.845L169.224 219.665V218.154L176.355 218.335V219.845Z" fill="#FF8D2F"/>
<path d="M183.527 214.771L175.047 215.133L174.45 213.635L183.527 213.26V214.771Z" fill="#FF8D2F"/>
<path d="M181.809 210.561L173.329 210.884L172.72 209.386L181.809 209.05V210.561Z" fill="#FF8D2F"/>
<path d="M214.983 211.091C213.674 198.062 183.592 187.486 147.805 187.447C112.019 187.409 84.0633 197.946 85.3729 210.975C85.4637 211.853 85.3729 218.219 85.4767 219.084C86.7863 232.114 116.868 242.689 152.655 242.728C188.441 242.767 216.397 232.23 215.087 219.201C214.996 218.322 215.087 211.956 214.983 211.091Z" fill="#FF9946"/>
<path d="M214.983 211.091C216.293 224.12 188.351 234.645 152.551 234.619C116.764 234.58 86.6825 224.004 85.373 210.975C84.0634 197.946 112.006 187.421 147.805 187.447C183.592 187.486 213.674 198.062 214.983 211.091Z" fill="#FF8D2F"/>
<path d="M207.826 211.091C208.954 222.222 184.046 231.223 152.201 231.184C120.356 231.145 93.6324 222.106 92.5173 210.975C91.3893 199.844 116.297 190.843 148.142 190.882C179.987 190.908 206.711 199.96 207.826 211.091Z" fill="#FFCA9F"/>
<path d="M206.818 212.293C207.869 222.753 183.427 231.211 152.218 231.185C121.008 231.159 94.855 222.649 93.8047 212.19C92.7544 201.73 117.196 193.272 148.405 193.298C179.615 193.324 205.768 201.833 206.818 212.293Z" fill="#FFF5E9"/>
<path d="M206.818 212.293C205.768 201.833 179.615 193.324 148.405 193.298C117.196 193.272 92.7544 201.73 93.8047 212.19C94.855 222.649 121.008 231.159 152.218 231.185C183.427 231.211 207.869 222.753 206.818 212.293Z" fill="#FFA052"/>
<path d="M172.859 233.431C198.325 230.344 216.037 221.512 214.987 211.091C214.909 210.381 214.753 209.684 214.52 208.986C213.366 220.453 196.536 229.957 172.872 233.444L172.859 233.431Z" fill="#FFC697"/>
<path d="M85.4251 208.869C85.3214 209.566 85.3084 210.264 85.3732 210.974C86.4235 221.395 105.912 230.266 132.013 233.404C107.636 229.879 88.8871 220.349 85.4251 208.869Z" fill="#FFC697"/>
<path d="M191.042 215.353C191.159 215.714 190.588 215.934 189.434 215.972L185.078 216.102C184.546 216.114 184.222 216.244 184.183 216.411L184.248 216.605C184.416 221.318 176.896 224.585 165.914 225.037C164.669 225.076 163.904 224.895 163.787 224.534L161.829 218.051C161.687 217.599 162.166 217.393 163.385 217.264C165.81 216.967 167.042 216.334 166.692 215.146L165.317 210.613C164.98 209.49 163.385 208.961 160.986 209.038C158.769 209.103 157.797 209.761 157.771 211.156L159.275 218.193C159.625 222.623 153.712 225.296 142.263 225.644C130.814 225.993 122.944 223.423 120.61 219.252L120.337 218.348C120.195 218.181 119.897 218.077 119.365 218.09L115.008 218.219C113.854 218.258 113.167 218.077 113.063 217.716L111.326 211.969C111.209 211.608 111.78 211.388 112.934 211.35L117.29 211.22C117.822 211.207 118.159 211.104 118.185 210.936L118.042 210.484C117.939 205.681 125.511 203.176 134.574 202.904C136.001 202.866 136.415 203.072 136.506 203.356L138.309 209.322C138.438 209.748 137.984 210.045 136.804 210.278C135.378 210.601 134.354 211.065 134.613 211.931L136.091 216.799C136.403 217.845 137.803 218.31 139.67 218.258C141.446 218.206 142.38 217.716 142.432 216.437L141.031 209.425C140.474 204.893 145.505 201.988 158.562 201.587C170.556 201.226 179.269 203.976 181.875 208.444L182.031 208.973C182.173 209.141 182.459 209.219 182.99 209.206L187.347 209.077C188.501 209.038 189.188 209.219 189.292 209.58L191.029 215.327L191.042 215.353Z" fill="#FF8D2F"/>
<path d="M191.042 213.945C191.159 214.307 190.588 214.527 189.434 214.565L185.078 214.694C184.546 214.707 184.222 214.836 184.183 215.004L184.248 215.198C184.416 219.911 176.896 223.178 165.914 223.63C164.669 223.669 163.904 223.488 163.787 223.127L161.829 216.644C161.687 216.192 162.166 215.986 163.385 215.857C165.81 215.56 167.042 214.927 166.692 213.739L165.317 209.206C164.98 208.083 163.385 207.553 160.986 207.631C158.769 207.696 157.797 208.354 157.771 209.749L159.275 216.786C159.625 221.216 153.712 223.889 142.263 224.237C130.892 224.586 122.944 222.016 120.61 217.845L120.337 216.941C120.195 216.773 119.897 216.67 119.365 216.683L115.008 216.812C113.854 216.851 113.167 216.67 113.063 216.309L111.326 210.562C111.209 210.201 111.78 209.981 112.934 209.942L117.29 209.813C117.822 209.8 118.159 209.697 118.185 209.529L118.042 209.077C117.939 204.274 125.511 201.768 134.574 201.497C136.001 201.458 136.415 201.665 136.506 201.949L138.309 207.915C138.438 208.341 137.984 208.638 136.804 208.871C135.378 209.193 134.354 209.658 134.613 210.523L136.091 215.392C136.403 216.438 137.803 216.903 139.67 216.851C141.537 216.799 142.38 216.309 142.432 215.03L141.031 208.018C140.474 203.486 145.505 200.58 158.562 200.18C170.556 199.819 179.269 202.569 181.875 207.037L182.031 207.566C182.173 207.734 182.459 207.812 182.99 207.799L187.347 207.67C188.501 207.631 189.188 207.812 189.292 208.173L191.029 213.92L191.042 213.945Z" fill="white"/>
<path d="M101.797 189.668C91.4891 181.571 62.9634 195.75 38.0942 221.344C13.225 246.937 1.41274 274.248 11.7339 282.358C12.4211 282.9 16.9722 287.381 17.6594 287.923C27.9676 296.02 56.4933 281.841 81.3625 256.248C106.232 230.654 118.044 203.343 107.723 195.233C107.036 194.691 102.484 190.21 101.797 189.668Z" fill="#FF9946"/>
<path d="M101.797 189.668C112.105 197.764 100.306 225.088 75.4365 250.682C50.5673 276.276 22.0416 290.454 11.7334 282.358C1.42527 274.261 13.2245 246.937 38.0938 221.344C62.963 195.75 91.4887 181.571 101.797 189.668Z" fill="#FF8D2F"/>
<path d="M96.8349 194.782C105.652 201.704 94.851 225.774 72.7177 248.553C50.5843 271.318 25.5077 284.167 16.7036 277.245C7.89953 270.324 18.6874 246.254 40.8208 223.475C62.9541 200.71 88.0308 187.861 96.8349 194.782Z" fill="#FFCA9F"/>
<path d="M96.986 196.357C105.271 202.865 94.4057 226.238 72.7132 248.552C51.0207 270.865 26.735 283.688 18.4495 277.18C10.1641 270.672 21.0298 247.299 42.7223 224.985C64.4148 202.671 88.7005 189.849 96.986 196.357Z" fill="#FFF5E9"/>
<path d="M96.986 196.357C88.7005 189.849 64.4018 202.671 42.7223 224.985C21.0298 247.299 10.1641 270.659 18.4495 277.167C26.735 283.675 51.0337 270.853 72.7132 248.539C94.4057 226.225 105.271 202.852 96.986 196.344V196.357Z" fill="#FFA052"/>
<path d="M88.678 235.329C104.134 214.952 110.046 196.15 101.8 189.668C101.242 189.229 100.62 188.854 99.9456 188.545C107.414 197.338 102.591 215.972 88.678 235.329Z" fill="#FFC697"/>
<path d="M10.2391 280.86C10.667 281.415 11.1597 281.919 11.7303 282.358C19.9897 288.84 39.9059 281.054 60.2888 264.551C40.8135 279.556 20.9233 286.348 10.2391 280.86Z" fill="#FFC697"/>
<path d="M42.0216 265.533C41.2436 265.985 40.9972 265.83 41.3344 265.094L42.5921 262.305C42.7477 261.969 42.6051 261.879 42.2809 262.021L41.866 262.266C32.2839 267.25 28.3163 265.546 31.2726 258.612C31.6356 257.811 32.258 257.114 33.036 256.662L46.8191 248.656C47.7786 248.1 48.0379 248.191 47.8564 248.888C47.61 250.205 48.4658 250.386 50.9812 248.927L60.6281 243.323C63.0269 241.928 64.6347 240.327 65.3348 238.777C65.9832 237.357 64.9977 237.382 62.1841 238.79L47.4415 247.054C38.3781 251.858 35.0328 250.644 38.3651 243.284C41.6585 235.988 49.6587 227.982 58.8906 222.106L60.8096 220.996C61.1986 220.725 61.5098 220.415 61.6654 220.079L62.9231 217.29C63.2603 216.554 63.8567 215.908 64.6347 215.456L76.8618 208.354C77.6398 207.902 77.8862 208.057 77.549 208.793L76.2913 211.582C76.1357 211.918 76.2135 212.047 76.5506 211.892L77.5101 211.337C87.2478 206.314 89.6465 208.832 87.0144 214.655C86.5995 215.572 86.016 216.076 85.4195 216.425L72.7126 223.798C71.818 224.314 71.3641 224.327 71.3123 223.772C71.1567 223.152 70.5862 222.933 68.732 224.005L58.372 230.022C56.1548 231.313 54.7155 232.734 54.1709 233.935C53.6263 235.136 54.3006 235.2 56.8679 233.922L71.5197 225.748C80.8814 220.699 84.9916 221.086 81.2055 229.467C77.7306 237.163 69.108 245.879 59.1629 252.245L58.0219 252.904C57.6329 253.175 57.3865 253.446 57.231 253.782L55.9732 256.571C55.6361 257.307 55.0397 257.953 54.2617 258.405L42.0345 265.507L42.0216 265.533Z" fill="#FF8D2F"/>
<path d="M41.0042 264.565C40.2263 265.017 39.9799 264.862 40.317 264.126L41.5747 261.337C41.7303 261.001 41.5877 260.91 41.2636 261.053L40.8486 261.298C31.2666 266.282 27.2989 264.578 30.2552 257.643C30.6183 256.843 31.2407 256.146 32.0186 255.694L45.8017 247.687C46.7612 247.132 47.0206 247.223 46.839 247.92C46.5927 249.237 47.4484 249.418 49.9639 247.959L59.6108 242.354C62.0095 240.96 63.6173 239.359 64.3175 237.809C64.9658 236.389 63.9804 236.414 61.1667 237.822L46.4241 246.086C37.3607 250.89 34.0154 249.676 37.3478 242.316C40.6412 235.02 48.6413 227.014 57.8733 221.138L59.7923 220.028C60.1813 219.756 60.4925 219.447 60.6481 219.111L61.9058 216.322C62.2429 215.586 62.8394 214.94 63.6173 214.488L75.8445 207.386C76.6225 206.934 76.8688 207.089 76.5317 207.825L75.274 210.614C75.1184 210.95 75.1962 211.079 75.5333 210.924L76.4928 210.369C86.2304 205.345 88.6292 207.864 85.997 213.687C85.5821 214.604 84.9986 215.108 84.4022 215.456L71.6953 222.83C70.8006 223.346 70.3468 223.359 70.2949 222.804C70.1393 222.184 69.5688 221.965 67.7147 223.036L57.3546 229.054C55.1374 230.345 53.6982 231.766 53.1536 232.967C52.6349 234.103 53.2833 234.232 55.8506 232.954L70.5024 224.78C79.864 219.731 83.9743 220.118 80.1882 228.499C76.7132 236.195 68.0907 244.911 58.1456 251.277L57.0046 251.936C56.6156 252.207 56.3692 252.478 56.2136 252.814L54.9559 255.603C54.6188 256.339 54.0223 256.985 53.2444 257.437L41.0172 264.539L41.0042 264.565Z" fill="white"/>
<defs>
<linearGradient id="paint0_linear_4506_7144" x1="178.621" y1="237.345" x2="114.113" y2="301.691" gradientUnits="userSpaceOnUse">
<stop stop-color="#F2A800"/>
<stop offset="0.06" stop-color="#EEA300"/>
<stop offset="0.13" stop-color="#E39700"/>
<stop offset="0.19" stop-color="#D18200"/>
<stop offset="0.21" stop-color="#CA7A00"/>
<stop offset="0.31" stop-color="#CE7C02"/>
<stop offset="0.41" stop-color="#DA830B"/>
<stop offset="0.51" stop-color="#EF8F18"/>
<stop offset="0.54" stop-color="#F7941E"/>
<stop offset="1" stop-color="#B67A00"/>
</linearGradient>
<linearGradient id="paint1_linear_4506_7144" x1="185.71" y1="223.509" x2="121.189" y2="287.854" gradientUnits="userSpaceOnUse">
<stop stop-color="#F2A800"/>
<stop offset="0.06" stop-color="#EEA300"/>
<stop offset="0.13" stop-color="#E39700"/>
<stop offset="0.19" stop-color="#D18200"/>
<stop offset="0.21" stop-color="#CA7A00"/>
<stop offset="0.31" stop-color="#CE7C02"/>
<stop offset="0.41" stop-color="#DA830B"/>
<stop offset="0.51" stop-color="#EF8F18"/>
<stop offset="0.54" stop-color="#F7941E"/>
<stop offset="1" stop-color="#B67A00"/>
</linearGradient>
<linearGradient id="paint2_linear_4506_7144" x1="183.817" y1="208.637" x2="119.309" y2="272.983" gradientUnits="userSpaceOnUse">
<stop stop-color="#F2A800"/>
<stop offset="0.06" stop-color="#EEA300"/>
<stop offset="0.13" stop-color="#E39700"/>
<stop offset="0.19" stop-color="#D18200"/>
<stop offset="0.21" stop-color="#CA7A00"/>
<stop offset="0.31" stop-color="#CE7C02"/>
<stop offset="0.41" stop-color="#DA830B"/>
<stop offset="0.51" stop-color="#EF8F18"/>
<stop offset="0.54" stop-color="#F7941E"/>
<stop offset="1" stop-color="#B67A00"/>
</linearGradient>
<linearGradient id="paint3_linear_4506_7144" x1="181.262" y1="193.303" x2="116.753" y2="257.649" gradientUnits="userSpaceOnUse">
<stop stop-color="#F2A800"/>
<stop offset="0.06" stop-color="#EEA300"/>
<stop offset="0.13" stop-color="#E39700"/>
<stop offset="0.19" stop-color="#D18200"/>
<stop offset="0.21" stop-color="#CA7A00"/>
<stop offset="0.31" stop-color="#CE7C02"/>
<stop offset="0.41" stop-color="#DA830B"/>
<stop offset="0.51" stop-color="#EF8F18"/>
<stop offset="0.54" stop-color="#F7941E"/>
<stop offset="1" stop-color="#B67A00"/>
</linearGradient>
<linearGradient id="paint4_linear_4506_7144" x1="183.309" y1="179.969" x2="118.8" y2="244.315" gradientUnits="userSpaceOnUse">
<stop stop-color="#F2A800"/>
<stop offset="0.06" stop-color="#EEA300"/>
<stop offset="0.13" stop-color="#E39700"/>
<stop offset="0.19" stop-color="#D18200"/>
<stop offset="0.21" stop-color="#CA7A00"/>
<stop offset="0.31" stop-color="#CE7C02"/>
<stop offset="0.41" stop-color="#DA830B"/>
<stop offset="0.51" stop-color="#EF8F18"/>
<stop offset="0.54" stop-color="#F7941E"/>
<stop offset="1" stop-color="#B67A00"/>
</linearGradient>
</defs>
</svg>
