<svg width="501" height="501" viewBox="0 0 501 501" fill="none" xmlns="http://www.w3.org/2000/svg">
<path d="M418.881 449.631C418.881 449.631 435.31 428.998 437.9 421.444C439.246 417.533 440.931 396.625 442.251 377.376C443.1 364.948 453.449 402.852 459.835 407.567C463.293 402.342 458.591 357.407 458.591 357.407C458.591 357.407 388.99 311.891 379.618 308.05C370.245 304.209 360.796 301.842 356.043 300.764C351.29 299.685 343.2 295.934 342.402 303.59C341.605 311.246 351.583 342.03 352.151 344.621C352.719 347.211 365.352 339.695 364.439 362.964C363.527 386.232 377.621 451.246 377.621 451.246C377.621 451.246 392.659 455.827 393.195 455.871C393.73 455.916 418.875 449.638 418.875 449.638L418.881 449.631Z" fill="#0D0D0D"/>
<path d="M374.494 309.484C387.497 325.843 381.812 434.222 381.812 434.222L424.929 423.038C424.929 423.038 420.795 353.061 408.194 338.533C395.587 324.006 374.494 309.484 374.494 309.484Z" fill="#1F2144"/>
<path d="M370.992 354.658C369.199 347.506 364.338 339.683 361.007 334.337C357.677 328.99 342.824 307.477 342.824 307.477L351.501 347.053L370.992 354.658Z" fill="#353657"/>
<path d="M403.243 463.317C403.333 466.526 406.191 480.18 411.997 480.55C417.803 480.913 443.451 481.009 450.291 481.009C458.578 481.009 460.205 457.402 460.339 450.735C460.339 450.735 462.349 424.245 459.019 400.702C457.385 389.135 454.176 380.388 449.366 380.031C448.453 379.96 418.805 378.359 417.892 378.761C404.283 384.784 405.285 442.148 404.169 447.781C402.982 453.791 403.243 463.323 403.243 463.323V463.317Z" fill="#0D0D0D"/>
<path d="M453.417 472.971C457.007 472.971 459.918 454.401 459.918 431.494C459.918 408.587 457.007 390.017 453.417 390.017C449.826 390.017 446.915 408.587 446.915 431.494C446.915 454.401 449.826 472.971 453.417 472.971Z" fill="#4B4C69"/>
<path d="M453.582 390.043C454.807 405.636 451.924 417.305 450.577 421.714C451.062 419.985 451.86 416.75 452.013 413.464C452.077 412.054 452.74 400.104 451.432 392.014C450.443 394.043 449.557 397.527 448.842 402.089C449.34 409.917 450.201 422.748 450.214 422.939C450.252 422.824 450.335 422.569 450.443 422.199C454.457 410.938 455.892 399.868 456.186 393.941C455.394 391.568 454.514 390.196 453.589 390.049L453.582 390.043Z" fill="#0D0D0D"/>
<path d="M459.522 445.735C459.778 441.295 459.918 436.497 459.918 431.495C459.918 430.665 459.918 429.842 459.905 429.026C457.232 429.779 452.07 430.991 449.053 430.161C449.091 429.491 449.123 428.809 449.161 428.101C449.161 428.011 449.167 427.928 449.174 427.839C451.624 427.252 456.734 425.038 459.593 418.518C459.274 412.348 458.738 406.816 458.036 402.306C457.423 406.147 456.537 410.67 455.426 413.465C453.429 418.473 450.246 423.998 449.225 425.574C449.18 420.91 448.172 419.226 447.241 418.62C447.03 422.677 446.922 427.003 446.922 431.495C446.922 435.712 447.024 439.783 447.202 443.617C447.968 442.367 448.376 439.866 448.663 436.382C448.829 436.79 449.027 437.167 449.225 437.403C450.061 438.404 451.809 445.136 452.102 446.916C452.396 448.696 455.012 465.067 456.147 463.817C459.848 459.74 452.817 441.244 449.352 435.419C449.301 435.329 449.033 435.042 448.778 434.812C448.797 434.544 448.817 434.27 448.836 433.989L459.522 445.742V445.735Z" fill="#0D0D0D"/>
<path d="M451.994 461.978C451.822 464.804 451.381 467.554 450.922 469.813C451.688 471.842 452.53 472.971 453.41 472.971C453.468 472.971 453.525 472.952 453.583 472.945C454.112 462.405 453.959 459.285 451.847 448.765C451.847 448.765 452.409 455.158 451.988 461.984L451.994 461.978Z" fill="#0D0D0D"/>
<path d="M453.634 472.971C457.224 472.971 460.135 454.401 460.135 431.494C460.135 408.587 457.224 390.017 453.634 390.017C450.043 390.017 447.132 408.587 447.132 431.494C447.132 454.401 450.043 472.971 453.634 472.971Z" stroke="#4B4C69" stroke-width="0.880459" stroke-miterlimit="10"/>
<path d="M347.794 319.325C347.794 311.094 347.704 307.668 353.714 306.373C359.724 305.078 387.765 319.484 393.367 324.888C398.969 330.292 413.739 365.058 415.359 365.6C416.98 366.142 424.03 353.707 418.881 348.667C413.732 343.627 406.351 337.68 401.489 330.649C396.627 323.619 369.633 298.06 350.161 299.221C330.689 300.382 345.663 321.89 345.663 321.89L347.794 319.325Z" fill="#333454"/>
<path d="M344.157 309.484C352.056 317.606 366.583 340.479 368.076 343.784C369.569 347.089 369.327 349.673 369.346 349.692C369.365 349.711 369.658 356.423 368.076 349.692C366.494 342.961 345.363 312.406 344.157 311.175C342.951 309.944 344.157 309.484 344.157 309.484Z" fill="#464765"/>
<path d="M378.271 435.2L405.253 427.741L418.881 434.683L383.969 444.559L378.271 435.2Z" fill="#414261"/>
<path d="M418.881 434.682C418.683 434.739 407.875 428.799 407.875 428.799L411.461 400.229L401.253 393.932L397.252 429.954L400.2 431.587L404.066 401.103L406.593 402.296L402.682 433.335L408.679 437.572L418.881 434.682Z" fill="#A73819"/>
<path d="M168.2 299.663C178.765 298.942 241.941 297.264 273.166 296.779C304.39 296.294 341.663 299.663 341.663 299.663L350.161 344.611C350.161 344.611 252.054 350.36 234.572 351.482C217.091 352.605 136.509 350.774 128.649 351.865C120.789 352.956 57.7913 345.109 57.7913 345.109C57.7913 345.109 71.4129 337.81 77.5952 334.365C83.7776 330.919 107.799 317.362 120.163 312.251C132.528 307.141 141.569 303.81 151.196 302.145C160.824 300.48 168.2 299.676 168.2 299.676V299.663Z" fill="#78798F"/>
<path d="M313.533 297.73C301.276 297.085 286.66 296.575 273.166 296.779C241.941 297.258 178.771 298.942 168.2 299.663C168.2 299.663 160.83 300.467 151.196 302.132C141.562 303.797 132.528 307.128 120.163 312.238C107.799 317.349 83.7776 330.906 77.5952 334.352C71.4129 337.797 57.7913 345.096 57.7913 345.096C57.7913 345.096 120.782 352.943 128.649 351.852C132.005 351.387 148.593 351.457 167.874 351.597L313.533 297.723V297.73Z" fill="#5B5D77"/>
<path d="M162.815 351.51L165.137 336.236L191.493 310.473C191.493 310.473 173.731 305.094 156.951 307.704C140.171 310.313 120.291 315.851 111.978 323.182C103.664 330.513 90.1448 350.553 90.1448 350.553L161.43 354.623L162.821 351.51H162.815Z" fill="#6A6B83"/>
<path d="M238.534 297.481C208.637 298.183 175.581 299.159 168.199 299.663C168.199 299.663 160.83 300.467 151.196 302.133C141.562 303.798 132.528 307.128 120.163 312.239C107.799 317.349 83.7773 330.907 77.595 334.352C71.4126 337.798 57.791 345.096 57.791 345.096C57.791 345.096 80.6383 347.942 100.532 349.971C102.318 344.375 106.835 333.382 115.825 328.527C128.158 321.873 153.219 311.984 159.873 311.984C166.528 311.984 172.793 314.918 172.793 314.918L148.491 351.496C149.461 351.496 150.45 351.496 151.471 351.502C157.155 342.398 174.069 315.997 174.069 315.997L177.202 316.973L165.137 336.228L238.534 297.481Z" fill="#434563"/>
<path opacity="0.33" d="M338.868 343.03L331.997 304.124L300.415 302.58L255.78 319.085C255.78 319.085 240.282 314.147 237.309 318.416C234.336 322.684 248.634 323.615 249.565 327.699C250.497 331.782 250.867 334.194 261.63 334.009C272.393 333.824 289.48 331.967 300.434 332.707C311.389 333.447 338.868 343.017 338.868 343.017V343.03Z" fill="#B4B5C1"/>
<path d="M61.919 343.642C61.919 343.642 72.0315 337.192 75.1641 335.75C78.2968 334.308 118.843 310.97 135.425 306.153C152.007 301.336 242.694 297.329 262.957 296.965C283.22 296.601 333.215 299.396 336.909 299.938C340.603 300.481 343.391 312.73 343.391 312.73L348.885 342.966L345.101 343.642C345.101 343.642 337.605 303.607 337.292 303.428C334.957 302.082 297.218 299.364 247.421 300.353C197.624 301.342 155.65 304.455 146.87 305.763C131.718 308.022 70.7299 344.504 70.7299 344.504L61.9126 343.649L61.919 343.642Z" fill="#0D0D0D"/>
<path d="M459.311 365.773C457.691 356.043 411.39 338.032 411.39 338.032C411.39 338.032 402.834 327.485 389.596 314.432C364.554 289.753 298.621 291.553 288.898 291.553C279.175 291.553 278.983 294.258 271.416 294.258C263.85 294.258 237.551 294.8 225.658 294.8C213.766 294.8 216.828 293.358 210.524 293.358C204.221 293.358 171.555 293.18 138.288 304.345C98.3233 317.762 64.113 340.833 57.7839 345.101C57.7839 345.101 66.2312 350.639 67.1308 351.545C68.0304 352.445 145.492 353.166 161.346 357.128C165.289 358.11 179.402 358.27 198.377 357.951C169.8 355.22 128.642 351.858 128.642 351.858C123.429 351.411 101.373 346.466 88.4469 345.828C75.5143 345.19 65.2742 344.489 65.2742 344.489C65.2742 344.489 119.403 312.588 134.384 307.382C149.371 302.169 166.91 301.965 229.582 299.598C304.37 296.772 329.795 301.346 337.489 301.978C337.923 302.016 338.293 302.303 338.376 302.731L346.9 345.458C346.9 345.458 312.224 350.875 279.557 355.303C321.041 353.567 357.389 351.666 357.389 351.666C357.389 351.666 348.125 317.864 347.5 314.732C346.874 311.599 343.116 302.335 352.508 301.965C361.9 301.589 378.922 311.357 384.811 317.367C390.693 323.377 404.213 340.15 409.1 344.61C413.987 349.069 443.527 379.962 442.774 394.107C442.021 408.252 425.624 430.856 425.624 430.856L378.035 444.925C378.035 444.925 371.17 467.727 380.766 465.813C390.361 463.899 435.143 461.315 435.143 461.315C435.143 461.315 440.713 441.556 440.905 436.426C442.404 395.364 449.754 363.469 455.732 368.784C461.71 374.099 459.318 398.107 459.318 398.107C459.318 398.107 459.835 410.893 460.76 405.406C463.822 387.255 460.938 375.502 459.318 365.773H459.311Z" fill="#FCD22A"/>
<path d="M223.936 360.789C229.008 361.714 253.654 358.817 279.571 355.302C251.664 356.469 221.435 357.56 198.383 357.95C210.589 359.117 220.503 360.163 223.936 360.789Z" fill="#FCD22A"/>
<path d="M136.452 306.094C127.316 308.378 63.98 343.59 63.98 343.59L66.4363 343.813C74.3286 339.188 120.699 312.142 134.391 307.383C135.891 306.86 137.415 306.394 139.004 305.966C139.514 305.539 138.959 305.469 136.452 306.1V306.094Z" fill="#FF9844"/>
<path d="M136.452 306.094C127.316 308.378 63.98 343.59 63.98 343.59L66.4363 343.813C74.3286 339.188 120.699 312.142 134.391 307.383C135.891 306.86 137.415 306.394 139.004 305.966C139.514 305.539 138.959 305.469 136.452 306.1V306.094Z" fill="#FF9844"/>
<path d="M54.9902 348.134C54.5181 340.618 53.5738 332.516 53.2931 330.819C53.0124 329.121 47.2639 321.44 46.0389 320.712C44.8139 319.985 25.7819 317.159 24.0848 316.782C22.3877 316.406 21.1882 317.65 20.5502 318.377C19.9122 319.105 14.3615 324.611 13.4491 325.938C12.5368 327.265 12.0264 328.228 14.0935 330.155C16.1607 332.082 23.887 339.547 27.7024 341.295C31.5177 343.043 39.7289 341.812 40.654 352.747C41.5792 363.683 55.8388 358.553 55.8388 358.553L55.003 348.141L54.9902 348.134Z" fill="#8C2428"/>
<path d="M44.4374 350.629C40.2521 345.135 38.0381 339.801 37.381 337.588C36.7238 335.374 37.0556 332.643 38.1211 330.805C39.1866 328.968 46.8172 329.032 47.8827 330.805C48.9482 332.579 49.1842 335.093 49.1842 335.093C49.1842 335.093 40.4881 335.865 39.7927 336.847C39.0973 337.83 47.3531 352.74 47.3531 352.74L44.431 350.629H44.4374Z" fill="#BD482E"/>
<path d="M49.1843 335.093L49.6437 324.898C48.1316 322.869 46.6004 321.051 46.0389 320.712C44.8139 319.985 25.782 317.159 24.0849 316.782C22.3877 316.406 21.1883 317.65 20.5503 318.377C19.9059 319.111 14.3615 324.611 13.4492 325.938C12.9005 326.729 12.5049 327.399 12.7155 328.216L36.826 334.136L49.1971 335.1L49.1843 335.093Z" fill="#FFB900"/>
<path d="M49.6435 324.899C48.1314 322.87 46.6002 321.051 46.0387 320.713C45.7452 320.535 44.4054 320.241 42.536 319.884C38.5484 321.198 35.0776 322.972 33.6293 324.35C31.6515 326.238 30.4265 329.116 29.948 332.446L36.813 334.131L38.3889 334.252C39.5118 332.784 41.1515 331.119 43.5377 329.326C45.2922 328.012 47.3658 327.061 49.5733 326.372L49.6371 324.899H49.6435Z" fill="#FFCE4A"/>
<path d="M64.1328 342.029C68.9753 341.002 99.9956 340.357 103.026 340.287C106.057 340.217 117.388 340.861 120.846 341.155C124.304 341.448 145.307 343.681 145.307 343.681L212.758 339.649C212.758 339.649 217.562 337.85 218.283 338.807C219.004 339.764 226.207 339.407 226.807 339.285C227.407 339.164 230.291 340.281 230.291 340.281L260.437 341.806C260.437 341.806 331.173 336.191 344.387 341.276C357.6 346.361 263.244 350.789 247.351 351.65C231.458 352.518 184.902 353.322 172.889 352.728C160.881 352.135 113.202 352.971 106.114 351.172C99.0258 349.372 74.5261 349.608 73.0905 349.251C71.655 348.894 61.9253 343.624 61.9253 343.624L64.1392 342.016L64.1328 342.029Z" fill="#0D0D0D"/>
<path d="M443.745 352.891C440.893 358.046 439.866 368.835 437.99 380.083C441.04 385.404 442.986 390.349 442.782 394.107C442.029 408.252 425.632 430.856 425.632 430.856L378.042 444.925C378.042 444.925 371.177 467.727 380.773 465.813C390.369 463.899 435.151 461.315 435.151 461.315C435.151 461.315 440.721 441.556 440.912 436.426C442.412 395.364 449.761 363.469 455.74 368.784C461.718 374.099 459.325 398.107 459.325 398.107C459.325 398.107 459.842 410.893 460.767 405.406C463.83 387.255 460.946 375.502 459.325 365.773C458.726 362.168 451.988 357.427 443.751 352.885L443.745 352.891Z" fill="#DA652A"/>
<path d="M435.47 460.15L423.647 433.334L377.646 446.349C376.332 451.3 372.638 467.436 380.773 465.815C390.368 463.901 435.151 461.317 435.151 461.317C435.151 461.317 435.272 460.89 435.476 460.15H435.47Z" fill="#BD482E"/>
<path d="M411.397 338.033C411.397 338.033 402.842 327.486 389.603 314.433C383.822 308.735 375.866 304.454 366.921 301.232C361.607 300.058 357.377 299.21 355.322 298.738C347.124 296.868 344.285 299.956 344.77 304.256C344.942 305.768 345.554 307.293 346.275 308.646C346.058 305.386 347.079 302.183 352.521 301.966C361.913 301.59 378.935 311.358 384.824 317.368C390.707 323.378 404.226 340.151 409.113 344.611C413.994 349.07 443.54 379.963 442.788 394.108C442.035 408.253 425.638 430.857 425.638 430.857L378.048 444.926C378.048 444.926 377.583 446.489 377.059 448.754C389.775 445.621 416.808 438.635 427.373 433.333C432.362 427.042 439.125 411.111 444.389 397.496C446.163 385.884 448.389 376.952 450.705 372.147C447.802 367.579 441.875 358.309 435.533 348.643C423.494 342.748 411.404 338.039 411.404 338.039L411.397 338.033Z" fill="#FFB900"/>
<path opacity="0.1" d="M208.05 16.3652H272.84L398.216 421.746C398.216 421.746 388.538 447.331 235.58 447.331C82.6228 447.331 82.6228 421.746 82.6228 421.746L208.05 16.3652Z" fill="url(#paint0_linear_4754_161)"/>
<path opacity="0.1" d="M415.366 11.0781H480.156L406.867 421.576C406.867 421.576 388.531 447.333 235.573 447.333C82.6161 447.333 91.2676 421.576 91.2676 421.576L415.366 11.0781Z" fill="url(#paint1_linear_4754_161)"/>
<path opacity="0.1" d="M65.696 11.0781H0.905762L74.1944 421.576C74.1944 421.576 92.5309 447.333 245.488 447.333C398.446 447.333 389.794 421.576 389.794 421.576L65.696 11.0781Z" fill="url(#paint2_linear_4754_161)"/>
<path d="M210.538 294.566C216.842 294.566 213.779 296.008 225.672 296.008C237.564 296.008 263.863 295.466 271.43 295.466C278.997 295.466 279.188 292.76 288.912 292.76C298.635 292.76 364.567 290.961 389.609 315.64C395.549 321.497 401.055 326.843 405.33 330.965C401.54 326.709 396.149 320.878 389.609 314.434C364.567 289.755 298.635 291.555 288.912 291.555C279.188 291.555 278.997 294.26 271.43 294.26C263.863 294.26 237.564 294.802 225.672 294.802C213.779 294.802 216.842 293.36 210.538 293.36C204.234 293.36 171.568 293.181 138.302 304.347C113.426 312.698 90.7828 324.789 75.7002 333.759C91.6569 324.935 114.523 313.534 138.302 305.553C171.568 294.381 204.234 294.566 210.538 294.566Z" fill="white"/>
<path d="M336.788 470.211L18.4452 473.088L6.14429 448.538L8.60702 407.756L306.553 397.299L346.882 449.807L336.788 470.211Z" fill="#0D0D0D"/>
<path d="M13.5258 465.313C13.6789 469.262 17.2901 486.074 27.2176 486.527C37.1451 486.98 53.9759 487.088 65.6643 487.088C79.8346 487.088 83.8924 468.777 84.122 460.572C84.122 460.572 82.8269 439.588 57.8423 438.235C32.8576 436.883 16.499 438.784 14.4701 446.185C12.4412 453.58 13.5322 465.313 13.5322 465.313H13.5258Z" fill="#0D0D0D"/>
<path d="M156.709 455.941C156.862 459.89 160.473 476.702 170.401 477.155C180.328 477.608 190.658 477.716 202.346 477.716C216.516 477.716 220.574 459.405 220.804 451.2C220.804 451.2 226.01 430.216 201.025 428.863C176.041 427.511 159.682 429.412 157.653 436.813C155.624 444.208 156.715 455.941 156.715 455.941H156.709Z" fill="#0D0D0D"/>
<path d="M314.579 468.069C314.732 472.018 319.619 488.83 329.547 489.283C339.474 489.736 357.46 489.845 369.148 489.845C383.318 489.845 386.1 460.783 386.33 452.578C386.33 452.578 389.762 419.963 384.071 390.984C381.277 376.744 375.796 365.981 367.566 365.534C366.003 365.451 338.906 363.473 337.356 363.971C314.088 371.385 318.062 442.006 316.161 448.941C314.132 456.336 314.585 468.069 314.585 468.069H314.579Z" fill="#0D0D0D"/>
<path d="M374.495 479.949C380.633 479.949 385.609 457.088 385.609 428.888C385.609 400.689 380.633 377.828 374.495 377.828C368.356 377.828 363.38 400.689 363.38 428.888C363.38 457.088 368.356 479.949 374.495 479.949Z" fill="#4B4C69"/>
<path d="M374.775 377.868C376.868 397.06 371.942 411.428 369.633 416.857C370.469 414.733 371.821 410.745 372.083 406.7C372.198 404.965 373.333 390.252 371.087 380.293C369.397 382.787 367.885 387.081 366.66 392.696C367.515 402.33 368.988 418.127 369.008 418.363C369.071 418.223 369.212 417.904 369.397 417.451C376.262 403.593 378.718 389.965 379.209 382.666C377.857 379.75 376.357 378.053 374.769 377.875L374.775 377.868Z" fill="#0D0D0D"/>
<path d="M384.939 446.428C385.373 440.96 385.609 435.052 385.609 428.895C385.609 427.875 385.602 426.86 385.59 425.852C381.021 426.777 372.198 428.276 367.036 427.249C367.1 426.426 367.157 425.584 367.221 424.71C367.228 424.602 367.234 424.493 367.24 424.385C371.426 423.664 380.167 420.939 385.047 412.913C384.505 405.321 383.58 398.507 382.387 392.956C381.34 397.69 379.828 403.254 377.921 406.693C374.501 412.856 369.059 419.657 367.323 421.603C367.247 415.861 365.524 413.787 363.929 413.041C363.572 418.03 363.38 423.357 363.38 428.895C363.38 434.089 363.553 439.097 363.865 443.818C365.18 442.281 365.875 439.206 366.366 434.912C366.647 435.416 366.985 435.875 367.33 436.169C368.765 437.406 371.751 445.688 372.255 447.883C372.759 450.077 377.225 470.232 379.171 468.682C385.494 463.661 373.474 440.896 367.553 433.719C367.464 433.61 367.011 433.259 366.57 432.972C366.602 432.64 366.634 432.302 366.666 431.964L384.939 446.428Z" fill="#0D0D0D"/>
<path d="M372.064 466.418C371.764 469.902 371.011 473.283 370.239 476.059C371.553 478.56 372.989 479.944 374.495 479.944C374.597 479.944 374.692 479.919 374.794 479.912C375.694 466.935 375.445 463.094 371.828 450.143C371.828 450.143 372.791 458.009 372.07 466.418H372.064Z" fill="#0D0D0D"/>
<path d="M374.865 479.949C381.003 479.949 385.979 457.088 385.979 428.888C385.979 400.689 381.003 377.828 374.865 377.828C368.727 377.828 363.751 400.689 363.751 428.888C363.751 457.088 368.727 479.949 374.865 479.949Z" stroke="#4B4C69" stroke-width="1.27603" stroke-miterlimit="10"/>
<path d="M274.129 464.706L34.1206 466.932V463.545L274.129 461.312V464.706Z" fill="#27284A"/>
<path d="M274.129 464.706L128.566 466.231L133.319 462.766L274.129 461.312V464.706Z" fill="#3F405F"/>
<path d="M381.494 358.668C378.871 353.43 372.51 347.554 361.313 343.056C323.843 336.415 261.394 343.056 233.053 349.143C195.34 346.023 129.504 350.087 129.504 350.087C129.504 350.087 101.852 344.824 97.0545 344.626C92.2566 344.428 60.9174 343.063 60.9174 343.063C60.9174 343.063 35.6584 348.294 26.471 352.748C3.7641 368.577 1.47363 403.164 1.47363 403.164C1.47363 403.164 3.72582 440.959 4.98909 449.011C4.5361 457.746 7.34974 468.375 7.34974 468.375L9.30844 471.316L60.9174 473.039C60.9174 473.039 59.9348 468.981 36.3347 467.565C36.9791 466.722 77.5887 452.431 77.5887 452.431L223.477 450.785L271.883 465.255C271.883 465.255 234.298 466.742 227.464 466.92C220.631 467.099 218.519 469.249 218.641 470.206C218.762 471.169 220.689 471.769 225.244 472.005C285.294 475.125 348.311 470.576 354.199 470.187C354.876 468.834 358.27 449.662 358.429 444.864C359.871 401.269 365.633 356.506 375.726 358.126C385.813 359.747 385.015 395.705 385.015 395.705C385.015 395.705 385.149 404.408 385.162 404.988C385.169 405.569 386.496 405.894 386.515 404.905C387.146 379.295 384.02 363.728 381.494 358.681V358.668ZM309.436 457.95C309.436 457.95 287.336 459.149 284.216 459.27C279.775 457.229 223.324 441.374 217.441 440.653C207.954 440.532 91.3379 442.216 85.9339 442.452C80.5299 442.695 33.8145 461.306 33.8145 461.306C33.8145 461.306 20.7225 458.786 16.2819 460.227L7.4901 448.335C7.4901 448.335 9.32758 426.374 14.3296 416.37C15.1335 414.763 17.4878 416.026 19.4401 416.6C21.3924 417.174 47.4489 423.842 62.7038 425.819C65.8683 426.228 67.7505 424.199 67.7505 424.199C67.7505 424.199 82.6417 430.681 84.9832 430.987C87.3247 431.287 124.374 433.329 130.978 433.329C137.581 433.329 210.602 429.112 212.765 429.246C216.605 429.488 221.895 423.842 221.895 423.842C237.111 422.291 274.856 416.874 291.432 412.07C293.422 411.496 323.977 447.62 323.977 447.62L309.443 457.95H309.436Z" fill="#FFB900"/>
<path d="M298.96 468.912C287.131 468.497 239.108 468.739 219.495 468.854C218.851 469.358 218.602 469.856 218.641 470.2C218.762 471.164 220.689 471.764 225.244 472C271.506 474.405 319.523 472.255 341.835 470.966C326.79 470.181 307.484 469.205 298.96 468.912Z" fill="#542E21"/>
<path d="M354.206 470.185C354.876 468.839 358.244 449.826 358.429 444.926C339.104 446.093 329.062 448.55 329.062 448.55L292.293 472.871C325.246 472.239 350.576 470.421 354.206 470.178V470.185Z" fill="#BD482E"/>
<path d="M218.634 446.542L276.662 462.403L305.238 461.318L308.951 457.982C305.755 458.154 287.061 459.168 284.203 459.277C279.762 457.235 223.311 441.381 217.428 440.66C207.941 440.538 91.325 442.223 85.9211 442.459C80.5171 442.701 33.8017 461.312 33.8017 461.312C33.8017 461.312 20.7097 458.792 16.2691 460.234L7.4773 448.341C6.2268 451.729 10.7248 460.489 13.0408 462.984C15.7141 461.912 32.1812 464.496 32.1812 464.496L77.3526 448.743L218.628 446.542H218.634Z" fill="#693F39"/>
<path d="M308.352 405.71L294.845 414.827C302.897 422.789 322.082 445.4 323.83 447.468C328.213 447.442 333.592 447.404 335.404 447.353C338.249 447.27 347.111 445.222 358.43 444.941C358.43 444.916 358.43 444.89 358.43 444.865C359.112 424.25 360.758 403.374 363.374 387.265L308.346 405.716L308.352 405.71Z" fill="#FF8D2F"/>
<path d="M361.314 343.056C361.263 343.049 361.205 343.037 361.154 343.03C348.337 348.428 321.974 364.372 283.731 411.183C280.331 415.349 296.779 409.205 296.779 409.205L363.375 387.245C366.29 369.297 370.405 357.271 375.72 358.119C385.807 359.74 385.01 395.698 385.01 395.698C385.01 395.698 385.144 404.401 385.156 404.981C385.163 405.562 386.49 405.887 386.509 404.898C387.141 379.289 384.014 363.721 381.488 358.674C378.866 353.436 372.505 347.56 361.307 343.062L361.314 343.056Z" fill="#FF9844"/>
<path d="M33.7319 418.09C40.7947 419.691 53.8549 421.337 53.8549 421.337L52.9234 402.459C52.9234 402.459 63.0487 361.192 64.1141 358.257C71.1323 355.093 83.7394 349.044 93.2395 344.45C83.4651 344.029 60.9241 343.047 60.9241 343.047C60.9241 343.047 35.6651 348.279 26.4777 352.732C3.77081 368.561 1.48035 403.148 1.48035 403.148C1.48035 403.148 1.48035 403.237 1.49311 403.403C5.29567 407.422 8.46022 410.504 9.07909 410.887C10.8145 411.959 26.6691 416.489 33.7319 418.084V418.09Z" fill="#FF9844"/>
<path d="M278.742 342.545C260.635 344.268 244.206 346.749 233.053 349.142C232.875 349.129 232.683 349.11 232.505 349.097L220.804 387.257L214.5 421.263L220.804 421.442C220.804 421.442 236.85 382.159 278.742 342.545Z" fill="#FF9844"/>
<path d="M125.669 427.815C125.669 427.815 135.775 397.662 146.405 381.993C152.332 373.252 167.561 359.018 179.875 348.14C152.951 348.644 129.504 350.092 129.504 350.092C129.504 350.092 129.37 350.066 129.127 350.022C112.431 362.342 82.1695 384.787 78.3733 388.468C73.0906 393.585 63.6926 414.251 62.7292 417.485C63.4438 418.589 81.1678 424.095 81.1678 424.095L125.669 427.821V427.815Z" fill="#FF9844"/>
<path d="M7.34977 468.367L9.30848 471.308L60.9174 473.031C60.9174 473.031 60.4644 471.219 53.1336 469.592C38.0574 469.171 17.156 468.577 7.31787 468.252C7.33701 468.322 7.34339 468.36 7.34339 468.36L7.34977 468.367Z" fill="#542E21"/>
<path d="M294.136 414.129C301.735 421.403 322.203 445.539 323.855 447.491L328.742 447.255L299.049 411.182L294.136 414.129Z" fill="#DA652A"/>
<path d="M359.795 388.464C291.419 412.077 215.036 419.497 215.036 419.497V415.439L126.646 423.848C126.646 423.848 63.1759 417.123 62.7229 417.481C62.27 417.838 63.7182 420.441 63.7182 420.441L60.8918 420.473C53.8865 419.918 16.6584 417.717 1.55019 402.296C1.49277 402.857 1.47363 403.164 1.47363 403.164C1.47363 403.164 1.51829 403.872 1.59486 405.116C4.88063 410.214 9.28292 415.292 13.0791 419.286C13.4683 418.246 13.883 417.264 14.3232 416.383C15.1271 414.776 17.4814 416.039 19.4337 416.613C21.386 417.187 47.4425 423.854 62.6974 425.832C65.862 426.241 67.7441 424.212 67.7441 424.212C67.7441 424.212 82.6354 430.694 84.9769 431C87.3184 431.3 124.368 433.342 130.971 433.342C137.575 433.342 210.595 429.124 212.758 429.258C216.599 429.501 221.888 423.854 221.888 423.854C237.105 422.304 274.85 416.887 291.425 412.083C291.827 411.968 293.397 413.346 295.643 415.624C314.885 407.483 358.8 390.48 359.801 388.47L359.795 388.464Z" fill="#582A23"/>
<path d="M1.58839 405.46C1.58839 405.46 1.58839 405.511 1.58839 405.537C1.6203 406.104 1.66496 406.768 1.70962 407.508C1.70962 407.559 1.716 407.617 1.72238 407.668C1.72876 407.808 1.74152 407.955 1.7479 408.101C1.7479 408.133 1.7479 408.165 1.7479 408.197C1.8117 409.205 1.88188 410.334 1.95844 411.559C1.95844 411.591 1.95844 411.63 1.96482 411.662C2.66664 422.693 3.92991 441.323 4.81036 448.009H7.47726C7.71332 445.412 9.43596 427.784 13.5511 418.003C8.03233 412.976 4.17873 407.61 1.49907 402.468C1.46717 402.8 1.44803 403.023 1.44165 403.112C1.44165 403.138 1.44165 403.157 1.44165 403.157C1.44165 403.157 1.44803 403.291 1.46717 403.546C1.49269 403.929 1.53097 404.58 1.58201 405.46H1.58839Z" fill="#644135"/>
<path d="M287.425 410.896L282.78 413.41C282.78 413.41 306.329 440.13 307.918 442.619C309.506 445.107 310.068 446.695 310.068 446.695L317.539 443.799C317.539 443.799 301.748 422.138 292.293 415.42C290.723 414.303 287.425 410.896 287.425 410.896Z" fill="#27284A"/>
<path d="M260.144 444.926C272.189 445.749 278.033 451.338 280.235 452.339C282.519 453.379 289.837 455.644 297.589 455.715C305.34 455.785 284.024 456.755 278.627 452.576C273.631 448.709 260.144 444.926 260.144 444.926Z" fill="#27284A"/>
<path d="M50.9196 448.538C41.7449 449.954 37.3426 454.267 35.7221 455.18C34.1015 456.092 29.0102 458.223 23.0511 458.204C20.2758 458.198 31.9961 460.463 37.3299 456.239C41.1324 453.221 50.9196 448.538 50.9196 448.538Z" fill="#27284A"/>
<path d="M290.481 415.42L290.066 419.644C290.066 419.644 307.65 437.227 311.038 444.558C314.151 444.558 317.546 443.799 317.546 443.799C317.546 443.799 304.747 425.462 292.299 415.42C291.489 414.769 290.481 415.42 290.481 415.42Z" fill="#3F405F"/>
<path d="M16.103 418.126C17.3918 418.126 18.4445 419.064 18.4445 422.694C18.4445 426.324 12.0006 444.967 11.5284 446.371C11.0563 447.774 8.60632 446.932 8.60632 446.932C8.60632 446.932 8.82963 443.206 10.0036 437.349C11.1775 431.492 14.8078 418.126 16.0966 418.126H16.103Z" fill="#27284A"/>
<path d="M57.842 446.178C58.2567 446.108 63.0674 444.666 63.3417 444.392C63.6161 444.117 64.5093 434.63 64.3753 432.914C64.2413 431.197 63.4119 435.868 62.1742 438.484C60.9364 441.099 57.842 446.184 57.842 446.184V446.178Z" fill="#27284A"/>
<path d="M160.167 391.775C159.133 391.775 156.033 390.933 151.515 389.67C147.841 388.643 144.032 387.577 143.132 387.615C142.347 387.647 138.959 388.432 135.374 389.255C130.161 390.455 124.266 391.807 122.703 391.769C120.119 391.68 77.8249 389.836 77.3974 389.823L50.8624 384.738C50.7604 384.719 50.671 384.649 50.6327 384.553L48.9484 380.661C48.9484 380.661 48.9293 380.597 48.9229 380.565L48.8527 379.927C46.3453 356.602 49.1334 348.569 51.9152 345.94C52.0428 345.819 52.2469 345.826 52.3681 345.953C52.4894 346.081 52.483 346.285 52.3554 346.406C49.6757 348.939 47.0088 356.799 49.4843 379.864L49.5481 380.451L51.1432 384.145L77.4612 389.191C77.844 389.204 120.132 391.048 122.716 391.137C122.741 391.137 122.767 391.137 122.798 391.137C124.4 391.137 130.391 389.753 135.221 388.643C138.998 387.775 142.252 387.022 143.094 386.984C144.089 386.952 147.777 387.973 151.675 389.064C155.305 390.078 159.42 391.233 160.231 391.144C161.934 390.965 218.807 388.266 221.225 388.151L242.452 383.864L260.099 382.103C265.752 380.821 271.928 378.83 271.992 377.854C272.011 377.567 271.992 377.197 271.966 376.763C271.845 374.574 271.647 370.906 276.12 368.539C276.758 368.201 277.951 367.492 279.597 366.516C290.768 359.906 324.768 339.796 345.344 341.385C345.523 341.398 345.65 341.551 345.638 341.729C345.625 341.908 345.453 342.036 345.293 342.023C324.877 340.46 291.043 360.487 279.916 367.065C278.257 368.048 277.064 368.756 276.407 369.1C272.291 371.282 272.47 374.555 272.591 376.725C272.617 377.178 272.636 377.567 272.617 377.892C272.489 379.8 263.072 382.077 260.188 382.728L242.535 384.496L221.289 388.783C220.651 388.815 161.966 391.597 160.282 391.775C160.237 391.775 160.192 391.782 160.141 391.782L160.167 391.775Z" fill="#0D0D0D"/>
<path d="M11.7265 395.534L4.35742 387.584L4.56159 386.863L11.9944 394.877L18.432 394.577L18.4575 395.215L11.7265 395.534Z" fill="#0D0D0D"/>
<path d="M300.338 392.983L294.832 392.715L294.864 392.077L300.268 392.345L364.988 378.787L364.765 379.661L300.338 392.983Z" fill="#0D0D0D"/>
<path d="M289.02 343.738C289.02 343.738 288.165 342.845 291.062 342.698C293.958 342.551 327.856 341.186 329.521 341.327C331.186 341.467 312.99 343.266 308.084 343.489C303.178 343.713 292.006 344.568 290.564 344.612C289.122 344.657 289.02 343.738 289.02 343.738Z" fill="#1E1E1E" stroke="#0D0D0D" stroke-width="0.638014" stroke-miterlimit="10"/>
<path d="M78.1498 347.171C79.2599 346.845 81.6334 346.227 81.8439 345.774C82.0544 345.321 58.7542 344.376 57.4399 344.504C56.1256 344.632 59.6984 345.978 61.2552 346.188C62.812 346.399 73.5625 347.171 75.3617 347.171H78.1498Z" fill="#1E1E1E" stroke="#0D0D0D" stroke-width="0.638014" stroke-miterlimit="10"/>
<path d="M25.6164 363.848C25.9736 363.427 26.5734 363.312 27.0647 363.567C32.5643 366.407 52.4767 378.223 53.2806 378.758C53.9123 379.18 53.9186 382.644 53.8804 384.424C53.8676 385.068 53.5039 385.649 52.9297 385.943L29.7316 397.848C29.2403 398.097 28.6852 398.186 28.1429 398.097L14.1513 395.793C13.4494 395.679 12.9773 395.021 13.0922 394.32C13.5196 391.717 14.8148 385.349 18.1069 377.342C21.3991 369.335 24.3595 365.335 25.61 363.854L25.6164 363.848Z" fill="#1E1E1E" stroke="#0D0D0D" stroke-width="0.638014" stroke-miterlimit="10"/>
<path d="M23.3131 369.494C24.3786 369.494 24.8252 372.99 24.9209 373.558C25.0166 374.126 25.2017 380.366 24.9209 381.029C24.6402 381.693 24.8252 383.205 25.9609 384.341C27.0965 385.476 31.2564 390.389 32.105 390.3C32.9535 390.21 42.1281 379.9 44.7759 378.86C47.4237 377.82 49.88 379.428 49.88 379.9C49.88 380.372 46.3837 381.208 45.3437 382.21C44.3038 383.211 38.5361 389.732 38.1597 390.868C37.7833 392.003 38.3192 392.692 37.2665 393.286C36.2138 393.879 30.1526 397.401 29.3296 397.58C28.5066 397.758 27.5049 397.05 27.3326 394.989C27.1604 392.928 25.2718 389.885 22.6305 388.469C19.9891 387.052 17.571 386.108 17.3987 385.285C17.2265 384.462 19.0448 379.639 20.1039 376.583C21.163 373.526 22.6687 369.501 23.3259 369.501L23.3131 369.494Z" fill="#CCCDD5"/>
<path d="M253.336 383.694C252.418 382.68 255.084 379.222 257.566 377.825C260.048 376.427 303.274 364.841 318.082 361.804C319.658 361.479 325.253 362.079 321.668 365.486C318.082 368.893 295.732 392.888 295.732 392.888L270.441 395.829C270.441 395.829 254.255 384.703 253.336 383.688V383.694Z" fill="#252525" stroke="#0D0D0D" stroke-width="0.638014" stroke-miterlimit="10"/>
<path d="M274.506 377.365C274.263 376.944 274.493 376.408 274.965 376.293C276.477 375.917 279.329 375.215 279.731 375.145C280.28 375.055 283.412 379.649 283.776 381.582C284.14 383.515 284.695 386.087 284.695 386.087C284.695 386.087 302.355 379.847 302.904 378.781C303.452 377.716 307.319 371.648 309.616 370.449C311.912 369.256 315.039 368.611 315.964 368.611C316.889 368.611 306.77 380.096 304.926 381.99C303.089 383.879 296.224 384.632 292.421 386.087C284.637 389.066 280.165 393.998 280.165 393.998C280.165 393.998 271.316 395.165 271.016 395.217C270.716 395.268 270.154 394.706 271.628 393.385C273.102 392.065 276.866 387.637 277.932 386.725C278.997 385.812 278.793 384.996 278.136 383.777C277.626 382.839 275.482 379.062 274.512 377.359L274.506 377.365Z" fill="#CCCDD5"/>
<path d="M131.373 397.702C134.889 396.126 140.931 396.1 144.708 397.446C144.886 397.51 144.957 397.733 144.848 397.893C140.733 404.216 135.405 406.985 134.276 407.521C134.149 407.584 134.002 407.546 133.919 407.431C133.294 406.57 130.844 402.85 131.201 397.963C131.207 397.855 131.277 397.753 131.38 397.708L131.373 397.702Z" fill="#0D0D0D" stroke="#FFB900" stroke-width="0.47851" stroke-miterlimit="10"/>
<path d="M142.066 399.591C142.015 399.578 141.964 399.565 141.919 399.546C141.907 399.546 141.907 399.514 141.919 399.495C142.009 399.316 142.105 399.138 142.2 398.953C142.309 398.742 142.424 398.525 142.532 398.308C142.532 398.308 142.532 398.302 142.551 398.289C142.602 398.308 142.66 398.321 142.711 398.34C142.717 398.34 142.711 398.359 142.711 398.372C142.5 398.78 142.29 399.176 142.085 399.565C142.085 399.565 142.079 399.578 142.066 399.584V399.591Z" fill="#FFB900"/>
<path d="M141.696 399.47C141.632 399.451 141.568 399.438 141.517 399.419C141.498 399.412 141.492 399.387 141.492 399.361C141.511 399.113 141.537 398.864 141.562 398.609C141.562 398.596 141.562 398.583 141.549 398.57L141.186 399.31C141.128 399.298 141.077 399.285 141.033 399.266C141.02 399.266 141.02 399.227 141.033 399.208C141.186 398.889 141.345 398.564 141.505 398.232C141.543 398.156 141.575 398.085 141.619 397.996C141.69 398.015 141.76 398.028 141.824 398.047C141.836 398.047 141.836 398.079 141.836 398.098C141.817 398.347 141.792 398.589 141.766 398.832C141.766 398.851 141.766 398.877 141.773 398.889L142.149 398.136C142.206 398.156 142.264 398.175 142.309 398.194C142.321 398.194 142.315 398.232 142.309 398.251C142.213 398.436 142.117 398.621 142.028 398.806C141.926 399.004 141.824 399.202 141.728 399.393C141.715 399.412 141.709 399.432 141.69 399.464L141.696 399.47Z" fill="#FFB900"/>
<path d="M141.217 397.873C141.288 397.886 141.351 397.899 141.409 397.918L140.784 399.226C140.726 399.213 140.675 399.206 140.624 399.187C140.611 399.187 140.611 399.149 140.624 399.13C140.784 398.785 140.949 398.435 141.122 398.077L141.217 397.873Z" fill="#FFB900"/>
<path d="M140.222 397.709C140.293 397.722 140.356 397.728 140.427 397.741L140.165 398.328C140.28 398.347 140.395 398.373 140.51 398.392L140.784 397.798C140.854 397.811 140.911 397.817 140.975 397.83L140.369 399.138C140.305 399.125 140.248 399.119 140.178 399.106C140.197 399.068 140.216 399.03 140.229 398.991C140.286 398.87 140.337 398.755 140.395 398.634C140.407 398.602 140.407 398.583 140.376 398.577C140.28 398.564 140.184 398.545 140.076 398.526L139.84 399.055C139.769 399.049 139.712 399.036 139.642 399.03L140.222 397.709Z" fill="#FFB900"/>
<path d="M139.827 398.051H139.623C139.623 398.02 139.635 397.988 139.635 397.956C139.635 397.873 139.565 397.835 139.47 397.886C139.412 397.917 139.348 397.962 139.316 398.013C139.176 398.217 139.087 398.422 139.048 398.619C139.036 398.696 139.048 398.76 139.138 398.772C139.214 398.785 139.291 398.753 139.348 398.683C139.387 398.632 139.418 398.575 139.457 398.511H139.297C139.329 398.441 139.355 398.383 139.38 398.313H139.75C139.68 398.479 139.623 398.645 139.482 398.792C139.374 398.906 139.246 398.964 139.106 398.97C138.953 398.97 138.851 398.919 138.838 398.798C138.825 398.721 138.838 398.638 138.857 398.549C138.902 398.37 138.985 398.185 139.099 398C139.125 397.962 139.157 397.924 139.189 397.886C139.348 397.701 139.54 397.624 139.725 397.669C139.884 397.707 139.929 397.86 139.84 398.051H139.827Z" fill="#FFB900"/>
<path d="M138.608 398.32C138.8 398.211 138.902 398.065 138.934 397.892C138.966 397.746 138.914 397.637 138.768 397.612C138.602 397.586 138.423 397.586 138.245 397.573L137.728 398.919H137.932L138.136 398.39C138.168 398.39 138.187 398.39 138.213 398.39C138.289 398.377 138.308 398.403 138.302 398.466C138.289 398.607 138.296 398.747 138.296 398.888C138.296 398.907 138.308 398.926 138.328 398.932C138.385 398.932 138.449 398.932 138.519 398.932C138.519 398.741 138.532 398.556 138.538 398.364C138.564 398.352 138.589 398.339 138.608 398.326V398.32ZM138.43 398.186H138.232L138.385 397.784C138.474 397.79 138.557 397.79 138.634 397.809C138.723 397.828 138.736 397.911 138.672 398.026C138.621 398.122 138.525 398.179 138.43 398.179V398.186Z" fill="#FFB900"/>
<path d="M137.811 398.256C137.83 398.199 137.849 398.135 137.868 398.071C137.9 397.95 137.913 397.829 137.874 397.727C137.804 397.529 137.543 397.51 137.307 397.695C137.249 397.739 137.198 397.79 137.16 397.841C137 398.039 136.924 398.25 136.873 398.454C136.841 398.588 136.834 398.715 136.885 398.818C136.962 398.971 137.198 398.983 137.396 398.837C137.472 398.779 137.549 398.709 137.6 398.639C137.683 398.518 137.747 398.39 137.823 398.262C137.823 398.262 137.817 398.262 137.811 398.262V398.256ZM137.536 398.396C137.492 398.486 137.428 398.575 137.358 398.658C137.243 398.786 137.115 398.779 137.083 398.658C137.058 398.569 137.077 398.46 137.128 398.282C137.192 398.167 137.249 398.052 137.326 397.937C137.377 397.861 137.453 397.784 137.555 397.784C137.657 397.784 137.664 397.861 137.67 397.937C137.677 398.09 137.619 398.25 137.536 398.403V398.396Z" fill="#FFB900"/>
<path d="M136.688 398.235C136.726 398.19 136.764 398.152 136.796 398.108C137.013 397.814 136.892 397.578 136.541 397.623C136.452 397.635 136.369 397.648 136.28 397.655C136.222 397.655 136.203 397.68 136.19 397.725C136.063 398.127 135.935 398.522 135.807 398.905C135.807 398.924 135.801 398.937 135.795 398.969C135.973 398.943 136.146 398.924 136.318 398.892C136.426 398.873 136.522 398.803 136.592 398.72C136.739 398.548 136.777 398.382 136.688 398.235ZM136.375 397.871C136.375 397.871 136.407 397.84 136.426 397.833C136.465 397.827 136.496 397.82 136.535 397.82C136.669 397.814 136.707 397.884 136.65 398.005C136.592 398.114 136.509 398.165 136.388 398.178C136.35 398.178 136.311 398.184 136.267 398.19C136.305 398.082 136.337 397.974 136.375 397.871ZM136.414 398.65C136.382 398.694 136.324 398.726 136.26 398.726C136.197 398.726 136.139 398.739 136.075 398.746C136.114 398.631 136.152 398.522 136.19 398.407C136.19 398.395 136.222 398.382 136.235 398.375C136.292 398.369 136.35 398.363 136.401 398.356C136.49 398.356 136.528 398.388 136.503 398.471C136.484 398.529 136.452 398.586 136.414 398.643V398.65Z" fill="#FFB900"/>
<path d="M134.563 399.111L134.927 397.861C135.003 397.848 135.08 397.835 135.163 397.822C135.188 398.052 135.207 398.275 135.233 398.511C135.29 398.429 135.335 398.358 135.38 398.288C135.488 398.122 135.597 397.956 135.705 397.784C135.724 397.752 135.75 397.733 135.788 397.727C135.845 397.727 135.909 397.708 135.973 397.701L135.565 398.971C135.494 398.984 135.424 398.99 135.348 399.003L135.539 398.397H135.526C135.367 398.633 135.214 398.869 135.054 399.118C135.035 398.875 135.01 398.645 134.99 398.39C134.978 398.422 134.971 398.435 134.965 398.448C134.908 398.639 134.85 398.824 134.799 399.015C134.786 399.054 134.767 399.073 134.722 399.079C134.671 399.079 134.62 399.098 134.563 399.105V399.111Z" fill="#FFB900"/>
<path d="M134.429 397.976C134.359 397.988 134.302 398.001 134.244 398.007C134.2 398.007 134.174 398.033 134.155 398.071C134.002 398.378 133.849 398.671 133.702 398.964C133.638 399.086 133.581 399.207 133.517 399.335C133.587 399.322 133.644 399.303 133.708 399.296C133.747 399.29 133.766 399.271 133.785 399.239C133.829 399.156 133.874 399.067 133.919 398.984C133.925 398.971 133.951 398.945 133.963 398.945C134.04 398.926 134.117 398.913 134.193 398.901C134.193 399.003 134.193 399.099 134.193 399.194C134.27 399.175 134.333 399.162 134.41 399.15C134.423 398.767 134.436 398.378 134.448 397.982L134.429 397.976ZM134.034 398.735C134.085 398.633 134.136 398.537 134.18 398.448C134.18 398.448 134.187 398.448 134.193 398.448C134.193 398.531 134.193 398.614 134.193 398.703C134.142 398.716 134.097 398.722 134.04 398.735H134.034Z" fill="#FFB900"/>
<path d="M133.242 398.273L132.994 399.301C133.147 399.25 133.293 399.205 133.453 399.154C133.434 399.218 133.421 399.275 133.408 399.333C133.408 399.345 133.389 399.358 133.376 399.364C133.159 399.435 132.943 399.498 132.719 399.569C132.719 399.549 132.719 399.53 132.726 399.518C132.815 399.147 132.904 398.771 132.994 398.382C133.006 398.344 133.019 398.318 133.064 398.312C133.121 398.305 133.172 398.286 133.236 398.273H133.242Z" fill="#FFB900"/>
<path d="M138.812 402.711C138.812 402.711 138.78 402.711 138.761 402.711C138.735 402.711 138.71 402.736 138.691 402.736C138.518 402.756 138.365 402.736 138.282 402.641C138.238 402.59 138.199 402.539 138.148 402.494C138.123 402.475 138.072 402.469 138.034 402.456C138.014 402.456 137.989 402.443 137.983 402.437C137.893 402.309 137.753 402.239 137.53 402.252C137.447 402.252 137.37 402.252 137.287 402.252C137.287 402.149 137.255 402.124 137.147 402.124C137.102 402.124 137.057 402.124 137.013 402.124C136.987 402.124 136.968 402.118 136.943 402.111C136.955 402.086 136.968 402.067 136.987 402.041C137.051 402.054 137.115 402.06 137.179 402.073C137.198 402.022 137.185 401.984 137.134 401.977C137.096 401.971 137.045 401.977 137.006 401.971C136.987 401.971 136.955 401.971 136.949 401.958C136.943 401.945 136.955 401.913 136.974 401.907C136.994 401.894 137.032 401.894 137.051 401.894C137.172 401.92 137.204 401.907 137.325 401.805C137.338 401.862 137.345 401.92 137.351 401.971C137.357 402.003 137.364 402.035 137.383 402.067C137.383 402.079 137.415 402.079 137.427 402.086C137.44 402.073 137.459 402.054 137.459 402.041C137.466 401.984 137.478 401.926 137.472 401.875C137.453 401.569 137.357 401.295 137.204 401.039C137.179 401.001 137.153 400.956 137.14 400.912C137.14 400.893 137.153 400.867 137.159 400.842C137.179 400.848 137.198 400.854 137.211 400.867C137.255 400.931 137.293 401.001 137.332 401.071C137.402 401.199 137.466 401.326 137.536 401.454C137.574 401.524 137.638 401.563 137.746 401.563C137.829 401.563 137.874 401.537 137.887 401.473C137.906 401.384 137.912 401.288 137.912 401.199C137.912 401.173 137.868 401.161 137.842 401.141C137.836 401.141 137.823 401.135 137.797 401.129C137.906 401.071 138.008 401.046 138.104 401.039C138.117 401.039 138.123 401.052 138.129 401.058C138.193 401.224 138.257 401.384 138.308 401.55C138.34 401.652 138.302 401.773 138.212 401.894C138.148 401.984 138.097 402.073 138.085 402.162C138.072 402.258 138.059 402.354 138.046 402.443H138.206C138.238 402.347 138.282 402.252 138.302 402.156C138.333 402.022 138.353 401.888 138.442 401.748C138.531 401.601 138.538 401.473 138.48 401.358C138.416 401.224 138.359 401.078 138.302 400.937C138.34 400.893 138.378 400.854 138.404 400.816C138.569 400.58 138.499 400.318 138.238 400.255C138.116 400.223 137.976 400.216 137.842 400.223C137.478 400.229 137.102 400.267 136.758 400.21C136.655 400.197 136.553 400.178 136.458 400.153C136.4 400.14 136.407 400.101 136.47 400.07C136.528 400.044 136.585 400.019 136.643 399.993C136.706 399.967 136.758 399.98 136.796 400.019C136.834 400.05 136.872 400.089 136.923 400.108C137.096 400.184 137.313 400.172 137.536 400.153C137.593 400.153 137.619 400.114 137.6 400.082C137.587 400.063 137.555 400.057 137.53 400.05C137.485 400.038 137.434 400.044 137.396 400.025C137.351 400.012 137.357 399.98 137.396 399.936C137.478 399.987 137.478 399.987 137.593 399.993C137.619 399.993 137.651 400.006 137.67 400.019C137.727 400.063 137.797 400.063 137.887 400.044C137.957 400.031 137.995 399.98 137.963 399.942C137.944 399.916 137.906 399.897 137.874 399.885C137.689 399.814 137.485 399.776 137.262 399.763C136.974 399.751 136.681 399.814 136.387 399.974C136.171 400.095 136.139 400.287 136.311 400.35C136.394 400.382 136.483 400.408 136.579 400.408C136.796 400.414 137.026 400.408 137.249 400.408C137.517 400.408 137.797 400.389 138.046 400.433C138.219 400.465 138.263 400.523 138.238 400.682C138.219 400.778 138.161 400.822 138.053 400.81C137.957 400.797 137.855 400.784 137.766 400.759C137.6 400.714 137.44 400.657 137.281 400.599C137.198 400.567 137.108 400.542 136.994 400.593C136.879 400.644 136.764 400.695 136.662 400.765C136.515 400.867 136.362 400.937 136.202 401.001C135.986 401.084 135.769 401.173 135.577 401.307C135.52 401.346 135.456 401.397 135.424 401.448C135.373 401.543 135.335 401.639 135.309 401.728C135.284 401.83 135.233 401.926 135.131 402.016C135.016 402.111 134.901 402.213 134.805 402.315C134.678 402.449 134.601 402.596 134.576 402.736C134.563 402.839 134.512 402.928 134.422 403.017C134.397 403.043 134.371 403.075 134.365 403.1C134.333 403.183 134.308 403.266 134.295 403.343C134.276 403.477 134.231 403.598 134.097 403.706C134.065 403.732 134.046 403.776 134.033 403.815C134.014 403.859 134.008 403.898 134.001 403.942C134.001 403.974 133.982 403.993 133.938 404.019C133.823 404.076 133.714 404.146 133.657 404.249C133.644 404.268 133.625 404.287 133.599 404.3C133.459 404.383 133.389 404.491 133.427 404.58C133.427 404.593 133.446 404.599 133.459 404.606C133.472 404.593 133.491 404.58 133.497 404.568C133.51 404.536 133.516 404.504 133.529 404.478C133.536 404.478 133.548 404.478 133.555 404.478C133.612 404.51 133.542 404.561 133.548 404.606C133.561 404.606 133.567 404.606 133.58 404.606C133.638 404.606 133.695 404.606 133.752 404.606C133.886 404.593 133.886 404.593 133.925 404.491C133.938 404.453 133.95 404.408 134.008 404.383C134.052 404.357 134.078 404.325 134.084 404.293C134.103 404.242 134.116 404.185 134.129 404.134C134.142 404.083 134.167 404.038 134.244 404.006C134.378 403.949 134.461 403.859 134.499 403.757C134.524 403.681 134.576 403.617 134.639 403.553C134.761 403.445 134.875 403.336 134.997 403.228C135.009 403.215 135.035 403.209 135.054 403.209C135.06 403.209 135.073 403.228 135.073 403.234C135.029 403.387 135.009 403.54 134.946 403.693C134.914 403.77 134.856 403.821 134.767 403.859C134.665 403.904 134.569 403.955 134.473 404.006C134.32 404.083 134.276 404.191 134.25 404.306C134.25 404.331 134.263 404.344 134.301 404.332C134.339 404.319 134.371 404.3 134.41 404.287C134.41 404.287 134.41 404.308 134.41 404.351C134.41 404.351 134.39 404.395 134.429 404.395C134.595 404.383 134.69 404.37 134.799 404.249C134.875 404.153 134.952 404.064 135.041 403.974C135.08 403.93 135.137 403.885 135.194 403.859C135.316 403.796 135.411 403.725 135.488 403.63C135.526 403.585 135.584 403.559 135.647 403.553C135.647 403.559 135.647 403.566 135.647 403.566C135.641 403.579 135.635 403.591 135.622 403.598C135.533 403.674 135.437 403.757 135.348 403.834C135.309 403.866 135.252 403.891 135.214 403.93C135.182 403.961 135.163 404 135.143 404.038C135.143 404.051 135.15 404.07 135.169 404.07C135.182 404.07 135.207 404.057 135.226 404.044C135.245 404.032 135.265 404.012 135.284 403.993C135.303 404.019 135.316 404.032 135.277 404.057C135.258 404.07 135.252 404.089 135.239 404.108C135.258 404.108 135.277 404.127 135.303 404.121C135.399 404.115 135.494 404.102 135.59 404.089C135.641 404.083 135.673 404.057 135.679 404.012C135.679 403.981 135.679 403.955 135.679 403.923C135.679 403.891 135.692 403.866 135.743 403.859C135.794 403.853 135.82 403.827 135.826 403.789C135.826 403.757 135.832 403.725 135.845 403.693C135.864 403.63 135.909 403.604 135.992 403.604C135.992 403.674 135.986 403.745 135.986 403.815C135.986 403.885 136.037 403.923 136.12 403.936C136.234 403.949 136.356 403.955 136.483 403.949C136.636 403.942 136.719 403.879 136.789 403.764C136.847 403.662 136.911 403.566 136.987 403.464C137.083 403.343 137.236 403.279 137.389 403.215C137.415 403.279 137.434 403.343 137.466 403.4C137.504 403.457 137.498 403.521 137.453 403.598C137.434 403.623 137.421 403.649 137.408 403.674C137.396 403.7 137.37 403.732 137.376 403.751C137.389 403.789 137.357 403.827 137.319 403.866C137.293 403.891 137.274 403.917 137.255 403.942C137.211 404 137.217 404.051 137.255 404.083C137.255 404.083 137.262 404.083 137.268 404.089C137.268 404.089 137.274 404.089 137.281 404.095C137.281 404.095 137.287 404.095 137.293 404.095C137.3 404.095 137.306 404.095 137.319 404.102C137.332 404.102 137.351 404.102 137.364 404.102C137.383 404.076 137.396 404.051 137.415 404.019C137.466 404.025 137.466 404.057 137.44 404.089C137.517 404.115 137.574 404.089 137.625 404.032C137.67 403.981 137.695 403.93 137.683 403.878C137.683 403.859 137.683 403.84 137.683 403.821C137.74 403.655 137.797 403.483 137.855 403.317C137.887 403.215 137.925 403.113 137.944 403.011C137.963 402.909 137.944 402.826 137.861 402.762C137.804 402.724 137.753 402.73 137.702 402.807C137.664 402.858 137.632 402.909 137.6 402.96C137.574 403.004 137.53 403.036 137.472 403.062C137.364 403.113 137.249 403.164 137.147 403.221C136.981 403.311 136.853 403.419 136.789 403.566C136.77 403.617 136.732 403.668 136.7 403.713C136.675 403.751 136.63 403.789 136.579 403.802C136.49 403.821 136.394 403.834 136.305 403.84C136.26 403.84 136.241 403.821 136.234 403.802C136.279 403.783 136.33 403.77 136.349 403.745C136.375 403.713 136.349 403.693 136.311 403.681C136.234 403.655 136.209 403.719 136.164 403.751C136.164 403.751 136.151 403.751 136.151 403.745C136.151 403.745 136.151 403.732 136.145 403.725C136.132 403.649 136.145 403.572 136.222 403.489C136.266 403.445 136.311 403.4 136.356 403.349C136.394 403.304 136.426 403.266 136.458 403.221C136.483 403.189 136.477 403.158 136.439 403.151C136.4 403.138 136.362 403.164 136.336 403.189C136.298 403.228 136.26 403.266 136.222 403.304C136.202 403.323 136.177 403.33 136.158 403.349C136.151 403.349 136.145 403.349 136.139 403.349C136.158 403.304 136.164 403.26 136.196 403.215C136.279 403.087 136.4 402.973 136.528 402.858C136.624 402.781 136.649 402.705 136.598 402.634C136.566 402.59 136.515 402.551 136.483 402.5C136.464 402.469 136.451 402.437 136.445 402.398C136.445 402.366 136.451 402.322 136.47 402.29C136.47 402.277 136.502 402.252 136.515 402.252C136.56 402.252 136.604 402.252 136.636 402.264C136.687 402.283 136.732 402.283 136.796 402.264C136.892 402.239 136.987 402.232 137.083 402.226C137.128 402.226 137.14 402.245 137.121 402.283C137.102 402.283 137.089 402.283 137.077 402.283C136.994 402.296 136.917 402.303 136.834 402.315C136.77 402.328 136.726 402.36 136.694 402.411C136.624 402.526 136.63 402.615 136.694 402.692C136.821 402.839 137.032 402.87 137.287 402.845C137.402 402.832 137.51 402.794 137.606 402.724C137.625 402.711 137.632 402.692 137.644 402.679C137.625 402.679 137.606 402.679 137.581 402.679C137.523 402.679 137.466 402.698 137.415 402.698C137.325 402.698 137.242 402.685 137.159 402.673C137.102 402.666 137.051 402.647 137.006 402.622C136.994 402.615 136.994 402.583 137.006 402.558C137.006 402.551 137.051 402.539 137.07 402.532C137.128 402.526 137.185 402.532 137.211 402.456C137.242 402.469 137.281 402.475 137.287 402.494C137.319 402.577 137.421 402.577 137.523 402.583C137.536 402.583 137.555 402.577 137.561 402.564C137.568 402.558 137.561 402.539 137.561 402.532C137.536 402.513 137.51 402.5 137.485 402.481C137.466 402.468 137.453 402.456 137.434 402.437C137.632 402.392 137.715 402.494 137.855 402.526C137.836 402.571 137.817 402.615 137.797 402.66C137.797 402.673 137.797 402.698 137.817 402.698C137.887 402.705 137.919 402.743 137.951 402.781C138.002 402.845 138.085 402.89 138.18 402.915C138.346 402.96 138.531 402.928 138.723 402.826C138.755 402.807 138.786 402.787 138.818 402.762C138.831 402.756 138.837 402.73 138.831 402.724L138.812 402.711ZM137.191 399.974C137.191 399.974 137.236 399.98 137.262 399.987C137.313 399.987 137.306 400.012 137.287 400.05C137.268 400.089 137.236 400.089 137.204 400.082C137.153 400.07 137.108 400.057 137.057 400.038C137.096 399.98 137.14 399.961 137.191 399.974ZM137.651 403.055C137.651 403.055 137.708 403.004 137.74 402.985C137.753 402.973 137.785 402.96 137.791 402.966C137.804 402.966 137.81 402.985 137.804 402.998C137.791 403.055 137.772 403.113 137.753 403.17C137.74 403.209 137.727 403.247 137.715 403.292C137.702 403.323 137.664 403.343 137.651 403.317C137.619 403.272 137.593 403.221 137.574 403.164C137.561 403.126 137.612 403.087 137.651 403.055ZM135.558 402.041C135.622 401.99 135.641 401.939 135.66 401.888C135.66 401.882 135.667 401.875 135.673 401.862C135.711 401.85 135.73 401.862 135.73 401.888C135.73 401.996 135.749 402.092 135.845 402.156C135.864 402.169 135.864 402.188 135.871 402.22C135.769 402.22 135.673 402.226 135.59 402.22C135.488 402.207 135.469 402.111 135.558 402.041ZM134.193 403.885C134.193 403.821 134.225 403.757 134.288 403.725C134.333 403.706 134.365 403.725 134.365 403.757C134.359 403.808 134.269 403.872 134.199 403.885H134.193ZM135.169 403.745C135.169 403.745 135.111 403.732 135.131 403.706C135.15 403.668 135.233 403.611 135.277 403.617C135.296 403.617 135.316 403.642 135.322 403.649C135.303 403.7 135.22 403.757 135.175 403.751L135.169 403.745ZM135.877 403.055C135.883 403.119 135.915 403.17 135.928 403.228C135.947 403.285 135.96 403.343 135.979 403.406C135.718 403.413 135.475 403.426 135.22 403.432C135.233 403.355 135.245 403.279 135.258 403.209C135.265 403.177 135.29 403.158 135.335 403.158C135.379 403.158 135.43 403.158 135.482 403.138C135.539 403.126 135.558 403.094 135.533 403.062C135.513 403.043 135.475 403.024 135.437 403.017C135.303 402.992 135.15 402.998 134.997 403.017C134.971 403.017 134.939 403.036 134.92 403.055C134.792 403.164 134.665 403.279 134.531 403.387C134.518 403.4 134.48 403.413 134.473 403.406C134.454 403.406 134.442 403.381 134.448 403.368C134.461 403.317 134.473 403.26 134.512 403.209C134.601 403.068 134.71 402.934 134.812 402.794C134.837 402.756 134.863 402.717 134.882 402.673C134.901 402.622 134.933 402.583 134.984 402.545C135.041 402.507 135.048 402.507 135.073 402.545C135.08 402.558 135.092 402.571 135.105 402.577C135.156 402.609 135.233 402.59 135.284 402.539C135.309 402.513 135.335 402.481 135.36 402.449C135.43 402.379 135.482 402.366 135.552 402.411C135.584 402.43 135.622 402.449 135.667 402.462C135.769 402.481 135.858 402.443 135.928 402.36C135.979 402.303 136.03 402.258 136.113 402.239C136.177 402.226 136.215 402.232 136.234 402.271C136.247 402.309 136.254 402.347 136.266 402.392C136.279 402.443 136.279 402.494 136.298 402.539C136.317 402.609 136.298 402.647 136.215 402.705C136.145 402.749 136.081 402.787 136.017 402.832C135.915 402.896 135.864 402.979 135.877 403.055ZM136.949 401.588C136.93 401.543 136.904 401.518 136.828 401.537C136.796 401.543 136.764 401.537 136.732 401.537C136.681 401.537 136.662 401.524 136.681 401.48C136.7 401.435 136.726 401.416 136.783 401.416C136.821 401.416 136.866 401.416 136.904 401.416C136.923 401.416 136.949 401.403 136.968 401.397C136.968 401.397 136.968 401.384 136.968 401.377C136.962 401.377 136.949 401.377 136.949 401.365C136.949 401.352 136.943 401.346 136.936 401.333C136.955 401.326 136.974 401.314 136.987 401.314C137.159 401.314 137.274 401.467 137.223 401.607C137.217 401.626 137.198 401.652 137.179 401.671C137.128 401.728 137.064 401.741 137.025 401.703C136.987 401.665 136.962 401.62 136.943 401.569L136.949 401.588Z" fill="#FFB900"/>
<path d="M136.649 402.941C136.649 402.941 136.668 402.961 136.668 402.967C136.668 403.024 136.687 403.075 136.732 403.114C136.738 403.12 136.732 403.146 136.732 403.158C136.725 403.165 136.694 403.177 136.681 403.177C136.566 403.177 136.521 403.107 136.591 403.018C136.611 402.992 136.63 402.973 136.655 402.941H136.649Z" fill="#FFB900"/>
<g opacity="0.7">
<path d="M442.858 206.184C442.858 206.184 436.388 207.045 431.208 204.889C426.027 202.732 407.557 192.799 403.977 191.178C400.398 189.557 397.419 187.682 393.75 192.881C390.081 198.081 381.908 210.606 378.84 215.206C375.771 219.806 357.836 285.732 356.515 288.858C355.195 291.984 356.994 294.862 357.836 297.146C358.678 299.43 356.758 312.726 361.441 321.448C366.124 330.169 368.644 332.192 382.1 332.925C395.556 333.659 407.308 327.656 407.308 327.656L442.864 206.19L442.858 206.184Z" fill="#9C9DAD"/>
<path d="M431.208 204.889C427.948 203.53 419.417 199.089 412.648 195.58C405.764 214.899 391.383 254.89 385.762 267.963C379.497 282.529 366.06 312.496 361.766 322.06C366.245 330.265 368.963 332.211 382.094 332.925C395.543 333.659 407.301 327.655 407.301 327.655L442.858 206.19C442.858 206.19 436.388 207.052 431.208 204.895V204.889Z" fill="#78798F"/>
<path d="M442.857 206.183C442.857 206.183 436.388 207.045 431.207 204.888C429.344 204.11 425.752 202.33 421.758 200.288C413.7 215.951 391.453 259.445 383.324 277.909C377.282 291.632 369.103 311.545 363.578 325.154C367.208 330.781 370.8 332.306 382.087 332.925C395.536 333.658 407.295 327.655 407.295 327.655L442.851 206.19L442.857 206.183Z" fill="#434563"/>
<path d="M442.858 206.183C442.858 206.183 436.388 207.044 431.208 204.887C429.881 204.332 427.673 203.267 425.064 201.959C428.592 206.266 428.139 208.441 428.139 209.213C428.139 210.559 402.389 299.632 379.592 332.758C380.383 332.816 381.213 332.873 382.093 332.918C395.543 333.651 407.301 327.648 407.301 327.648L442.858 206.183Z" fill="#292A4C"/>
<path d="M391.868 332.376C400.768 330.978 407.301 327.642 407.301 327.642L442.858 206.177C442.858 206.177 436.388 207.038 431.208 204.881C430.589 204.626 429.772 204.25 428.821 203.797C431.571 205.813 433.351 207.434 433.428 207.874C433.587 208.761 417.892 261.11 411.219 279.963C406.638 292.908 398.382 316.496 391.861 332.369L391.868 332.376Z" fill="#0D0D0D"/>
</g>
<path d="M392.895 395.922C397.77 398.94 416.833 411.534 425.485 428.793C441.633 407.585 462.924 370.517 484.086 350.993C486.058 332.127 482.115 318.021 481.955 316.381C481.796 314.741 497.867 276.244 500.298 269.493C502.729 262.743 498.046 242.021 483.002 224.635C479.876 221.024 470.484 214.273 470.484 214.273C470.484 214.273 475.078 203.555 477.783 196.977C480.488 190.399 475.709 190.495 472.379 190.399C469.048 190.303 450.942 193.008 444.727 194.635C438.513 196.262 439.323 205.086 437.524 210.216C435.725 215.345 399.881 328.306 398.912 331.221C397.942 334.137 401.413 347.472 400.998 359.141C400.583 370.81 396.417 374.389 395.722 378.779C395.026 383.168 395.441 387.252 395.441 387.252L392.327 393.983C392.002 394.685 392.251 395.514 392.902 395.922H392.895Z" fill="#BD482E"/>
<path d="M477.776 196.984C480.481 190.406 475.703 190.502 472.372 190.406C469.042 190.317 450.935 193.016 444.721 194.643C438.506 196.263 439.317 205.094 437.518 210.223C435.718 215.359 399.875 328.313 398.905 331.229C397.935 334.145 401.406 347.479 400.991 359.148C400.966 359.786 400.934 360.399 400.889 360.986C401.719 368.431 401.431 373.248 403.18 370.256C404.8 367.487 443.802 273.635 470.484 214.275C470.484 214.275 475.077 203.556 477.783 196.978L477.776 196.984Z" fill="#FFCF4F"/>
<path d="M477.776 196.984C480.481 190.406 475.703 190.502 472.372 190.406C471.562 190.387 469.871 190.527 467.696 190.782L401.827 370.339C402.076 371.398 402.452 371.493 403.173 370.256C404.794 367.487 443.796 273.635 470.477 214.274C470.477 214.274 475.071 203.555 477.776 196.978V196.984Z" fill="#FFB900"/>
<path d="M481.955 316.38C481.872 315.545 475.811 322.863 480.207 311.959C480.207 311.959 433.607 399.711 436.962 395.558C438.851 393.216 461.213 363.134 484.475 334.628C483.92 324.394 482.064 317.503 481.949 316.387L481.955 316.38Z" fill="#582A23"/>
<path d="M481.955 316.38C481.872 315.545 475.811 322.863 480.206 311.959C480.206 311.959 460.919 348.275 448.057 373.074L447.897 378.791L483.288 323.52C482.65 319.558 482.018 317.018 481.955 316.38Z" fill="#693F39"/>
<path d="M482.331 223.906C473.304 240.826 459.127 267.706 446.533 292.907C430.257 325.478 417.331 355.241 416.539 357.053C414.766 361.137 414.23 363.835 416.539 368.614C418.849 373.399 426.314 392.336 427.909 395.838C429.51 399.335 431.973 403.781 438.647 394.364C442.762 388.558 463.874 350.609 482.025 315.946C483.193 311.372 497.969 275.943 500.292 269.492C502.722 262.736 498.039 242.019 482.995 224.634C482.797 224.404 482.574 224.161 482.325 223.906H482.331Z" fill="#DA652A"/>
<path d="M470.483 214.271C448.536 263.099 418.262 335.245 407.301 360.862L475.422 217.978L470.483 214.271Z" fill="#582A23"/>
<path d="M388.435 344.613C388.671 350.202 388.671 354.286 389.488 361.738C390.304 369.19 396.072 371.576 397.106 372.003C398.139 372.431 396.755 360.749 397.106 356.295C397.456 351.842 393.705 339.273 392.18 337.059C390.655 334.845 383.388 331.445 384.677 335.432C385.966 339.42 388.429 344.613 388.429 344.613H388.435Z" fill="#303252"/>
<path d="M373.519 331.343C372.805 326.704 378.157 318.978 379.823 317.077C381.488 315.175 409.19 312.189 411.449 311.96C413.708 311.73 422.27 319.922 422.385 321.651C422.499 323.38 411.092 336.574 409.19 336.932C407.289 337.289 391.403 340.294 391.403 340.294C391.403 340.294 393.655 346.802 393.125 349.807C392.596 352.812 390.886 354.203 389.221 353.833C387.555 353.463 388.621 346.566 386.605 343.95C384.589 341.334 379.472 336.338 376.505 334.794C373.538 333.25 373.532 331.349 373.532 331.349L373.519 331.343Z" fill="#8C2428"/>
<path d="M388.34 329.928C387.664 328.072 384.665 325.054 377.519 320.23C375.439 323.446 373.028 328.129 373.519 331.338C373.519 331.338 373.519 333.24 376.492 334.784C379.465 336.328 384.576 341.323 386.592 343.939C388.608 346.555 387.549 353.452 389.208 353.822C390.873 354.192 392.589 352.737 393.112 349.796C393.648 346.797 391.39 340.283 391.39 340.283C390.126 336.544 388.831 331.3 388.327 329.922L388.34 329.928Z" fill="#BD482E"/>
<path d="M422.372 321.766C422.372 321.728 422.385 321.683 422.385 321.652C422.263 319.922 413.708 311.724 411.449 311.96C409.19 312.19 381.488 315.176 379.823 317.077C378.202 318.927 373.124 326.271 373.494 330.935C380.282 329.601 385.214 328.81 385.871 328.695C386.598 328.561 411.424 323.846 422.372 321.766Z" fill="#FFCE4A"/>
<path d="M373.494 330.936C380.033 329.654 384.837 328.875 385.769 328.709C382.49 327.172 381.839 320.351 382.132 319.184C382.285 318.565 381.896 317.283 380.875 316.536C380.339 316.721 379.976 316.906 379.823 317.072C378.202 318.922 373.124 326.266 373.494 330.93V330.936Z" fill="#FFB900"/>
<g style="mix-blend-mode:multiply">
<path d="M469.221 190.622C468.487 190.003 464.991 187.534 463.734 187.917C462.477 188.3 460.193 188.306 459.287 187.879C458.381 187.451 458.049 187.451 456.154 188.587C454.259 189.722 452.843 188.982 452.339 189.263C451.401 189.793 451.446 190.864 450.788 190.711C449.519 190.411 448.192 191.011 447.267 192.428L445.748 196.23C445.467 196.74 445.793 197.06 445.933 197.646C446.322 199.28 446.431 202.368 446.514 203.523C446.597 204.69 447.7 204.052 448.326 203.433C448.53 203.465 448.728 203.918 448.734 204.333C448.766 205.998 451.28 205.571 451.28 205.571C451.28 205.571 451.79 207.485 453.136 207.753C454.483 208.014 454.617 206.617 455.152 205.571C456.263 203.401 455.841 203.976 457.615 197.768L460.161 194.354L458.802 197.704C458.802 197.704 457.245 201.462 456.798 203.695C456.352 205.928 458.483 206.968 459.204 204.626C459.67 203.114 461.15 199.031 462.923 196.466C463.568 195.535 464.263 192.932 465.807 191.483C466.669 190.673 468.353 190.73 469.233 190.622H469.221ZM447.988 199.624L447.554 197.257L448.811 194.712L447.949 197.168L447.988 199.624Z" fill="#808080"/>
</g>
<path d="M458.948 287.809C463.816 294.139 470.452 297.233 478.79 296.933L481.585 290.7C472.563 292.792 465.928 289.826 461.832 281.876L458.948 287.809Z" fill="white"/>
<path d="M471.051 314.217L474.012 307.613C466.662 305.463 459.988 302.228 454.016 297.96L450.967 304.232C458.17 306.401 464.608 309.565 471.051 314.21V314.217Z" fill="white"/>
<path d="M457.972 289.815L455.012 295.908C460.958 300.17 467.619 303.373 474.975 305.453L477.846 299.047C469.807 298.786 463.153 295.698 457.972 289.815Z" fill="white"/>
<path d="M445.786 314.872C454.074 314.687 460.805 318.145 466.024 325.425L462.91 332.367C458.636 323.007 451.917 319.409 442.583 321.457L445.786 314.872Z" fill="white"/>
<path d="M446.845 312.704L449.965 306.292C457.073 308.385 463.772 311.721 470.082 316.379L467.051 323.136C461.615 316.558 454.916 313.093 446.845 312.704Z" fill="white"/>
<path d="M463.727 187.885C462.464 188.229 460.18 188.236 459.28 187.853C458.381 187.47 458.055 187.47 456.135 188.491C454.291 189.473 452.817 188.848 452.307 189.103C451.356 189.575 451.388 190.552 450.731 190.405C449.467 190.13 448.128 190.679 447.177 191.955L445.601 195.439C445.308 195.898 445.218 196.46 445.346 196.989C445.71 198.463 446.163 200.913 446.22 201.959C446.277 203.012 447.86 203.031 448.434 201.43C448.581 201.8 448.434 202.316 448.434 202.693C448.434 204.192 450.954 203.809 450.954 203.809C450.954 203.809 450.59 205.2 452.728 205.583C453.449 205.711 454.272 204.747 454.82 203.809C455.535 202.591 455.254 203.235 457.424 196.772L459.274 194.214C459.274 194.214 458.33 196.842 457.883 197.308C457.436 197.774 457.602 198.858 456.792 200.364C456.537 200.836 456.211 201.736 456.007 202.202C455.503 203.363 456.734 204.939 458.132 203.216C458.712 202.495 460.85 200.141 460.824 198.15C461.724 197.289 462.158 196.632 462.802 195.815C463.459 194.979 464.218 192.797 465.794 191.489C466.675 190.756 468.276 190.724 469.163 190.628C468.442 190.073 464.99 187.546 463.733 187.891L463.727 187.885ZM448.734 196.491C448.638 196.74 448.593 197.008 448.6 197.276L448.574 200.677L447.949 197.314L449.512 194.501L448.734 196.498V196.491ZM452.9 196.989C452.83 197.302 452.849 198.954 452.709 199.624C452.568 200.294 452.332 200.619 452.332 200.619C452.332 200.619 452.428 197.908 452.37 197.557C452.696 197.18 453.366 195.758 453.615 195.33C453.646 195.273 453.672 195.228 453.685 195.209C453.685 195.209 453.659 195.254 453.615 195.33C453.423 195.688 452.97 196.721 452.906 196.989H452.9Z" fill="#E4C7A6"/>
<path d="M467.887 189.703C466.547 188.797 464.608 187.642 463.727 187.885C462.464 188.229 460.18 188.236 459.28 187.853C458.381 187.47 458.055 187.47 456.135 188.491C454.291 189.473 452.817 188.848 452.307 189.103C451.356 189.575 451.388 190.552 450.731 190.405C449.468 190.13 448.128 190.679 447.177 191.955C447.177 191.955 448.664 191.343 449.429 191.266C450.508 191.158 450.839 191.808 451.165 191.266C451.49 190.724 451.005 189.754 452.677 189.754C454.349 189.754 455.459 189.008 456.99 188.676C458.381 188.376 458.489 187.955 461.628 188.676C464.289 187.885 465.565 188.625 466.158 189.001C466.445 189.18 467.294 189.569 467.887 189.709V189.703Z" fill="#F6ECE1"/>
<path d="M450.993 202.432C450.661 202.961 450.859 203.363 449.697 203.434C449.11 203.465 448.683 203.197 448.434 202.687C448.434 204.186 450.954 203.804 450.954 203.804C450.954 203.804 451.765 201.704 452.332 200.626C452.543 199.248 452.46 197.857 452.371 197.564C452.651 197.321 454.508 194.004 454.776 193.276C455.044 192.549 454.667 191.828 454.629 191.745C454.597 191.656 454.266 193.64 453.768 194.335C453.27 195.031 452.505 196.249 452.007 196.715C451.509 197.181 452.332 200.295 450.993 202.445V202.432Z" fill="#C2948B"/>
<path d="M463.612 192.873C462.655 193.633 462.356 195.247 462.056 195.668C461.756 196.083 460.384 197.448 460.288 198.175C460.186 198.903 458.342 202.941 457.889 203.33C457.488 203.675 456.084 204.013 455.899 202.89C455.88 204.313 457.334 204.434 458.177 203.311C458.738 202.565 461.029 199.655 460.971 198.316C461.628 197.627 462.151 196.631 462.802 195.815C463.459 194.979 464.219 192.797 465.794 191.489C465.897 191.406 466.011 191.329 466.126 191.266C465.016 191.54 464.359 192.286 463.612 192.88V192.873Z" fill="#C2948B"/>
<path d="M459.274 194.206C459.918 192.911 459.797 191.386 459.797 191.131C459.529 192.088 457.36 196.356 456.913 196.707C456.467 197.058 456.454 198.781 456.186 199.444C455.924 200.108 455.312 201.684 455.178 201.594C455.044 201.505 455.223 203.228 454.112 204.472C453.647 204.995 452.466 205.933 451.024 204.542C451.35 205.461 452.103 205.85 452.76 205.773C454.068 205.62 454.259 204.746 454.814 203.808C455.529 202.59 455.242 203.234 457.417 196.771L459.268 194.212L459.274 194.206Z" fill="#C2948B"/>
<path d="M450.412 192.556C450.412 192.556 449.014 193.895 448.536 194.859C447.968 195.988 447.234 196.881 447.234 196.881C447.234 196.881 447.305 197.271 447.47 197.704C447.636 198.138 447.738 201.399 447.381 201.966C447.247 202.177 446.871 202.362 446.501 202.534C446.979 202.93 448.07 202.681 448.517 201.526C448.523 201.137 448.587 200.69 448.587 200.69L447.962 197.328L449.525 194.514C449.525 194.514 450.424 193.334 450.424 192.568L450.412 192.556Z" fill="#C2948B"/>
<path d="M457.028 201.614C457.832 201.602 457.794 202.916 457.424 203.229C456.339 203.273 455.976 203.018 456.008 202.897C456.039 202.776 456.224 201.627 457.035 201.614H457.028Z" fill="#ECD7C0"/>
<path d="M452.575 202.783C453.647 202.936 453.602 204.486 453.111 204.78C451.56 204.984 451.184 204.225 451.222 204.084C451.26 203.944 451.509 202.63 452.575 202.783Z" fill="#ECD7C0"/>
<path d="M449.627 201.244C450.597 201.257 450.743 202.641 450.335 202.96C448.976 203.324 448.555 202.693 448.574 202.565C448.593 202.437 448.657 201.231 449.627 201.244Z" fill="#ECD7C0"/>
<path d="M447.203 201.977C447.349 201.658 446.922 200.74 446.386 200.906C446.265 200.944 446.188 201.02 446.137 201.116C446.182 201.442 446.214 201.729 446.226 201.952C446.233 202.073 446.265 202.182 446.309 202.277C446.475 202.316 446.794 202.303 447.209 201.977H447.203Z" fill="#ECD7C0"/>
<path d="M472.487 186.685C472.092 186.5 471.16 186.647 470.401 187.253C470.012 187.566 469.763 188.465 469.648 189.448C470.19 188.255 470.803 187.298 471.958 187.106C472.251 187.062 472.513 187.042 472.755 187.049C472.653 186.851 472.564 186.717 472.487 186.685Z" fill="#F6ECE1"/>
<path d="M449.014 196.473C449.652 196.269 450.482 196.345 450.801 196.473C451.12 196.6 450.526 196.415 449.907 196.473C449.289 196.53 449.014 196.473 449.014 196.473Z" fill="#C2948B"/>
<path d="M449.155 196.99C449.793 196.786 450.374 196.811 450.693 196.945C451.012 197.079 450.418 196.888 449.799 196.945C449.181 197.003 449.155 196.99 449.155 196.99Z" fill="#C2948B"/>
<path d="M450.584 197.371C449.94 197.55 449.359 197.499 449.047 197.352C448.734 197.206 449.321 197.422 449.94 197.391C450.559 197.359 450.584 197.371 450.584 197.371Z" fill="#C2948B"/>
<path d="M455.465 197.824C454.635 198.016 453.583 197.863 453.187 197.678C452.791 197.493 453.532 197.767 454.329 197.748C455.127 197.729 455.471 197.818 455.471 197.818L455.465 197.824Z" fill="#C2948B"/>
<path d="M455.324 197.191C454.495 197.383 453.755 197.306 453.359 197.121C452.964 196.936 453.704 197.21 454.501 197.191C455.299 197.172 455.324 197.191 455.324 197.191Z" fill="#C2948B"/>
<path d="M453.526 196.617C454.361 196.457 455.095 196.566 455.484 196.764C455.874 196.961 455.14 196.655 454.349 196.649C453.558 196.642 453.526 196.623 453.526 196.623V196.617Z" fill="#C2948B"/>
<path d="M452.371 200.995C453.206 200.835 453.94 200.944 454.329 201.142C454.719 201.339 453.985 201.033 453.194 201.027C452.403 201.02 452.371 201.001 452.371 201.001V200.995Z" fill="#C2948B"/>
<path d="M452.575 201.469C453.321 201.335 453.966 201.424 454.317 201.597C454.668 201.769 454.01 201.507 453.309 201.495C452.607 201.482 452.575 201.469 452.575 201.469Z" fill="#C2948B"/>
<path d="M459.236 198.38C458.732 198.495 458.094 198.405 457.851 198.291C457.609 198.176 458.062 198.348 458.547 198.335C459.031 198.323 459.242 198.38 459.242 198.38H459.236Z" fill="#C2948B"/>
<path d="M459.401 197.863C458.7 198.023 458.081 197.959 457.749 197.806C457.417 197.653 458.042 197.882 458.706 197.87C459.37 197.857 459.401 197.87 459.401 197.87V197.863Z" fill="#C2948B"/>
<path d="M457.89 197.378C458.598 197.244 459.21 197.334 459.542 197.5C459.874 197.666 459.255 197.41 458.585 197.398C457.915 197.385 457.89 197.372 457.89 197.372V197.378Z" fill="#C2948B"/>
<path d="M456.792 200.588C457.34 200.575 457.793 200.715 458.017 200.881C458.24 201.047 457.813 200.779 457.309 200.69C456.805 200.601 456.792 200.588 456.792 200.588Z" fill="#C2948B"/>
<path d="M456.875 200.913C457.36 200.9 457.762 201.028 457.966 201.168C458.17 201.309 457.781 201.079 457.341 201.002C456.901 200.926 456.881 200.913 456.881 200.913H456.875Z" fill="#C2948B"/>
<path d="M448.887 200.351C449.519 200.134 450.099 200.16 450.425 200.307C450.75 200.453 450.144 200.243 449.531 200.307C448.919 200.37 448.887 200.358 448.887 200.358V200.351Z" fill="#C2948B"/>
<path d="M449.097 200.759C449.659 200.567 450.175 200.593 450.463 200.714C450.75 200.835 450.214 200.657 449.671 200.714C449.129 200.772 449.104 200.759 449.104 200.759H449.097Z" fill="#C2948B"/>
<defs>
<linearGradient id="paint0_linear_4754_161" x1="240.423" y1="15.019" x2="240.423" y2="428.126" gradientUnits="userSpaceOnUse">
<stop stop-color="#D3A4FF" stop-opacity="0"/>
<stop offset="0.05" stop-color="#D3A4FF" stop-opacity="0.2"/>
<stop offset="0.12" stop-color="#D3A4FF" stop-opacity="0.44"/>
<stop offset="0.18" stop-color="#D3A4FF" stop-opacity="0.64"/>
<stop offset="0.24" stop-color="#D3A4FF" stop-opacity="0.8"/>
<stop offset="0.3" stop-color="#D3A4FF" stop-opacity="0.91"/>
<stop offset="0.34" stop-color="#D3A4FF" stop-opacity="0.98"/>
<stop offset="0.38" stop-color="#D3A4FF"/>
</linearGradient>
<linearGradient id="paint1_linear_4754_161" x1="285.67" y1="15.021" x2="285.67" y2="428.129" gradientUnits="userSpaceOnUse">
<stop stop-color="#D3A4FF" stop-opacity="0"/>
<stop offset="0.05" stop-color="#D3A4FF" stop-opacity="0.2"/>
<stop offset="0.12" stop-color="#D3A4FF" stop-opacity="0.44"/>
<stop offset="0.18" stop-color="#D3A4FF" stop-opacity="0.64"/>
<stop offset="0.24" stop-color="#D3A4FF" stop-opacity="0.8"/>
<stop offset="0.3" stop-color="#D3A4FF" stop-opacity="0.91"/>
<stop offset="0.34" stop-color="#D3A4FF" stop-opacity="0.98"/>
<stop offset="0.38" stop-color="#D3A4FF"/>
</linearGradient>
<linearGradient id="paint2_linear_4754_161" x1="195.391" y1="15.021" x2="195.391" y2="428.129" gradientUnits="userSpaceOnUse">
<stop stop-color="#D3A4FF" stop-opacity="0"/>
<stop offset="0.05" stop-color="#D3A4FF" stop-opacity="0.2"/>
<stop offset="0.12" stop-color="#D3A4FF" stop-opacity="0.44"/>
<stop offset="0.18" stop-color="#D3A4FF" stop-opacity="0.64"/>
<stop offset="0.24" stop-color="#D3A4FF" stop-opacity="0.8"/>
<stop offset="0.3" stop-color="#D3A4FF" stop-opacity="0.91"/>
<stop offset="0.34" stop-color="#D3A4FF" stop-opacity="0.98"/>
<stop offset="0.38" stop-color="#D3A4FF"/>
</linearGradient>
</defs>
</svg>
