<svg width="360" height="360" viewBox="0 0 360 360" fill="none" xmlns="http://www.w3.org/2000/svg">
<g clip-path="url(#clip0_3471_108)">
<path d="M151.22 239.94C142.11 259.59 144.79 281 158.62 299.24L177.16 323.69L195.73 299.18C209.55 280.93 212.21 259.54 203.1 239.89L195.48 223.45H158.86L151.22 239.94Z" fill="#F50000"/>
<path d="M164.78 223.45L161.02 231.56C155.36 243.79 157.02 257.1 165.62 268.45L177.15 283.66L188.7 268.41C197.3 257.06 198.95 243.75 193.29 231.53L189.54 223.45H164.77H164.78Z" fill="#FF5E00"/>
<path d="M170.13 245.71L177.16 253.56L184.2 245.69C189.38 238.85 190.43 230.84 187.11 223.46H167.2C163.88 230.85 164.93 238.87 170.12 245.72L170.13 245.71Z" fill="#FFBD00"/>
<path d="M150.25 69.1097L175.05 24.7597C176.36 22.4097 179.74 22.4197 181.05 24.7597L205.8 69.1697C215.16 89.6297 219.41 112.06 218.18 134.52L214.26 222.34H141.71L137.8 134.61C136.57 112.09 140.84 89.6097 150.25 69.1097Z" fill="#D3A4FF"/>
<path d="M150.25 69.1097L175.05 24.7597C176.36 22.4097 179.74 22.4197 181.05 24.7597L205.8 69.1697L150.25 69.1097Z" fill="#974EE2"/>
<g style="mix-blend-mode:overlay" opacity="0.5">
<path d="M174.48 29.1702C162.62 52.0302 127.65 99.6601 152.48 222.34H156.96C134.61 105.2 167.05 54.7802 176.71 29.4202C177.63 27.0102 176.4 25.4602 174.48 29.1702Z" fill="white"/>
</g>
<path d="M178.05 235.14C187.48 235.14 191.81 233.68 193.6 232.77C194.28 232.43 194.74 231.77 194.84 231.02C195.25 227.96 196.33 217.99 196.33 199.13C196.33 181.23 185.44 162.78 180.47 155.28C179.32 153.55 176.78 153.55 175.63 155.28C170.66 162.77 159.77 181.23 159.77 199.13C159.77 217.99 160.86 227.95 161.26 231.02C161.36 231.77 161.82 232.43 162.5 232.77C164.28 233.68 168.62 235.14 178.05 235.14Z" fill="#974EE2"/>
<path d="M228.92 234.96C229.6 234.62 230.06 233.96 230.16 233.21C230.57 230.15 231.65 217.99 231.65 199.13C231.65 181.23 224.59 162.78 219.62 155.28C219.07 154.45 218.19 154.01 217.3 153.98C216.34 153.95 213.72 203.17 207.25 230.72C206.79 232.67 227.14 235.86 228.92 234.96Z" fill="#974EE2"/>
<path d="M127.05 234.96C126.37 234.62 125.91 233.96 125.81 233.21C125.4 230.15 124.32 217.99 124.32 199.13C124.32 180.27 131.38 162.78 136.35 155.28C136.9 154.45 137.78 154.01 138.67 153.98C139.63 153.95 142.25 203.17 148.72 230.72C149.18 232.67 128.83 235.86 127.05 234.96Z" fill="#974EE2"/>
<g style="mix-blend-mode:screen" opacity="0.7">
<path d="M174.03 165.42C169.62 187.53 167.02 202.72 168.32 231.72C169.93 231.99 171.89 232.2 174.26 232.31C173.05 203.33 174.04 182.81 177.11 161.84C177.5 159.19 175.9 156.67 174.03 165.41V165.42Z" fill="white"/>
</g>
<g style="mix-blend-mode:screen" opacity="0.7">
<path d="M139.23 166.9C139.47 166.6 139.76 166.36 140.07 166.16C139.52 160.31 139.15 156.41 139.15 156.41C135.24 158.73 125.47 183.98 125.47 201.88C125.47 210.07 125.77 215.03 125.77 210.79C125.77 192.89 133.28 174.39 139.23 166.9Z" fill="white"/>
</g>
<g style="mix-blend-mode:multiply">
<path d="M216.96 164.199C216.72 163.899 216.43 163.659 216.12 163.459C216.67 157.609 217.05 153.979 217.31 153.989C218.2 154.019 219.07 154.449 219.63 155.289C224.6 162.779 231.66 181.239 231.66 199.139C231.66 207.329 231.46 214.249 231.19 219.719C231.3 216.189 231.36 212.289 231.36 208.049C231.36 190.149 222.91 171.699 216.96 164.199Z" fill="#CCCCCC"/>
</g>
<g style="mix-blend-mode:screen">
<path d="M183.4 167.4C182.05 168.07 189.42 183.76 189.64 196.45C189.76 203.2 193.66 205.09 193.15 197.13C192.48 186.71 184.75 166.72 183.4 167.4Z" fill="white"/>
</g>
<g style="mix-blend-mode:multiply">
<path d="M193.39 49.7895C192.23 47.8395 189.26 49.1895 189.95 51.3395C195.92 69.7495 205.79 103.7 205.79 131.45C205.79 153.46 198.75 222.33 198.75 222.33H206.52C206.52 222.33 216.73 164.71 216.73 130.12C216.73 95.5295 202.63 65.3495 193.38 49.7795L193.39 49.7895Z" fill="#CCCCCC"/>
</g>
<path d="M182.395 165.209C182.795 165.049 182.805 164.134 182.417 163.165C182.029 162.196 181.391 161.54 180.991 161.7C180.591 161.86 180.581 162.775 180.968 163.744C181.356 164.713 181.995 165.369 182.395 165.209Z" fill="white"/>
<path d="M190.89 112.779C187.62 118.449 187.62 124.119 190.89 129.789H196.85C191.91 124.169 191.85 118.499 196.85 112.779H190.89Z" fill="white"/>
<path d="M174.97 129.789H180.96C179.9 124.119 179.9 118.449 180.96 112.779H174.97C176.03 118.559 176.04 124.009 174.97 129.789Z" fill="white"/>
<path d="M188.9 112.779H182.94C181.84 118.449 181.84 124.119 182.94 129.789H188.9C186.18 124.169 186.14 118.509 188.9 112.779Z" fill="white"/>
<path d="M165.08 112.779C168.35 118.449 168.35 124.119 165.08 129.789H159.12C164.06 124.169 164.12 118.499 159.12 112.779H165.08Z" fill="white"/>
<path d="M167.06 112.779H173.02C174.12 118.449 174.12 124.119 173.02 129.789H167.06C169.78 124.169 169.82 118.509 167.06 112.779Z" fill="white"/>
<path d="M130.66 61.3396C131.831 61.3396 132.78 60.3905 132.78 59.2196C132.78 58.0488 131.831 57.0996 130.66 57.0996C129.489 57.0996 128.54 58.0488 128.54 59.2196C128.54 60.3905 129.489 61.3396 130.66 61.3396Z" fill="white"/>
<path d="M221.57 336.41C222.741 336.41 223.69 335.461 223.69 334.29C223.69 333.119 222.741 332.17 221.57 332.17C220.399 332.17 219.45 333.119 219.45 334.29C219.45 335.461 220.399 336.41 221.57 336.41Z" fill="white"/>
<path d="M253.36 269.519C254.531 269.519 255.48 268.57 255.48 267.399C255.48 266.228 254.531 265.279 253.36 265.279C252.189 265.279 251.24 266.228 251.24 267.399C251.24 268.57 252.189 269.519 253.36 269.519Z" fill="white"/>
<path d="M255.77 142.279C257.107 142.279 258.19 141.196 258.19 139.859C258.19 138.523 257.107 137.439 255.77 137.439C254.433 137.439 253.35 138.523 253.35 139.859C253.35 141.196 254.433 142.279 255.77 142.279Z" fill="white"/>
<path d="M346.43 149.619C347.767 149.619 348.85 148.536 348.85 147.199C348.85 145.863 347.767 144.779 346.43 144.779C345.093 144.779 344.01 145.863 344.01 147.199C344.01 148.536 345.093 149.619 346.43 149.619Z" fill="white"/>
<path d="M95.55 153.05C96.2404 153.05 96.8 152.49 96.8 151.8C96.8 151.109 96.2404 150.55 95.55 150.55C94.8596 150.55 94.3 151.109 94.3 151.8C94.3 152.49 94.8596 153.05 95.55 153.05Z" fill="white"/>
<path d="M247.44 59.0693C248.13 59.0693 248.69 58.5097 248.69 57.8193C248.69 57.129 248.13 56.5693 247.44 56.5693C246.75 56.5693 246.19 57.129 246.19 57.8193C246.19 58.5097 246.75 59.0693 247.44 59.0693Z" fill="white"/>
<path d="M106.14 311.25C106.83 311.25 107.39 310.69 107.39 310C107.39 309.31 106.83 308.75 106.14 308.75C105.45 308.75 104.89 309.31 104.89 310C104.89 310.69 105.45 311.25 106.14 311.25Z" fill="white"/>
<path d="M319.6 261.97C320.29 261.97 320.85 261.41 320.85 260.72C320.85 260.029 320.29 259.47 319.6 259.47C318.91 259.47 318.35 260.029 318.35 260.72C318.35 261.41 318.91 261.97 319.6 261.97Z" fill="white"/>
<path d="M79.47 202.35C80.1604 202.35 80.72 201.79 80.72 201.1C80.72 200.409 80.1604 199.85 79.47 199.85C78.7796 199.85 78.22 200.409 78.22 201.1C78.22 201.79 78.7796 202.35 79.47 202.35Z" fill="white"/>
<path d="M316.07 82.5498C316.76 82.5498 317.32 81.9902 317.32 81.2998C317.32 80.6094 316.76 80.0498 316.07 80.0498C315.38 80.0498 314.82 80.6094 314.82 81.2998C314.82 81.9902 315.38 82.5498 316.07 82.5498Z" fill="white"/>
<path d="M315.12 183.23L316.07 175.8L317.02 183.23L324.45 184.18L317.02 185.12L316.07 192.55L315.12 185.12L307.7 184.18L315.12 183.23Z" fill="white"/>
<path d="M53.04 138.47L53.75 132.89L54.46 138.47L60.05 139.18L54.46 139.9L53.75 145.48L53.04 139.9L47.45 139.18L53.04 138.47Z" fill="white"/>
<path d="M25.12 101.789L25.51 98.7295L25.91 101.789L28.96 102.179L25.91 102.569L25.51 105.629L25.12 102.569L22.07 102.179L25.12 101.789Z" fill="white"/>
<path d="M19.43 216.119L20.37 208.689L21.32 216.119L28.75 217.069L21.32 218.009L20.37 225.439L19.43 218.009L12 217.069L19.43 216.119Z" fill="white"/>
<path d="M72.97 49.0799L73.7 43.4199L74.42 49.0799L80.08 49.7999L74.42 50.5299L73.7 56.1899L72.97 50.5299L67.31 49.7999L72.97 49.0799Z" fill="white"/>
<path d="M78.87 265.829L79.47 261.109L80.07 265.829L84.79 266.429L80.07 267.029L79.47 271.749L78.87 267.029L74.15 266.429L78.87 265.829Z" fill="white"/>
</g>
<defs>
<clipPath id="clip0_3471_108">
<rect width="336.84" height="313.41" fill="white" transform="translate(12 23)"/>
</clipPath>
</defs>
</svg>
