<svg width="45" height="45" viewBox="0 0 45 45" fill="none" xmlns="http://www.w3.org/2000/svg">
<path d="M13 3.75C13 1.67893 14.6789 0 16.75 0H28.7001C30.7712 0 32.4501 1.67893 32.4501 3.75V41.25C32.4501 43.3211 30.7712 45 28.7001 45H16.75C14.6789 45 13 43.3211 13 41.25V3.75Z" fill="white"/>
<path d="M27.6627 40.9334C27.7046 40.2567 27.6907 40.0335 27.5992 39.9233C27.5298 39.8396 27.4805 39.5784 27.4785 39.2821C27.4755 38.8333 27.4152 38.6656 26.8881 37.642C26.3256 36.5494 26.3055 36.4898 26.4055 36.2134C26.4986 35.9556 26.4853 35.8689 26.2816 35.399C26.0783 34.9303 25.9869 34.8281 25.4425 34.4607C24.3863 33.748 23.5375 33.0213 22.124 31.6203C20.546 30.0556 19.2358 28.3351 18.0208 26.2321C17.5989 25.5019 17.5659 25.4716 17.1932 25.4696C16.9134 25.4682 16.5775 25.2241 16.5787 25.0229C16.5791 24.9646 16.2366 24.2103 15.8178 23.347C14.7308 21.1065 14.6379 20.6294 14.9703 18.998C15.1676 18.0307 15.2046 17.9437 15.6161 17.4882C16.0528 17.0049 15.9843 16.8688 15.2689 16.7981C14.3132 16.7035 14.323 16.7095 14.1248 16.0962C14.0274 15.7946 13.9477 15.4528 13.9477 15.3366C13.9477 14.9518 14.3847 13.7337 14.9856 12.4439C15.3116 11.744 15.7296 10.7894 15.9144 10.3227C16.572 8.66182 17.4792 7.33383 18.2117 6.96008C18.5045 6.81066 19.0737 6.69832 20.7675 6.45536C21.7104 6.3201 21.7768 6.25159 21.9122 5.27435C21.991 4.70601 21.9832 4.61693 21.8344 4.37591C21.727 4.2023 21.669 3.95656 21.669 3.67525C21.669 3.27967 21.6912 3.23054 21.9236 3.11037C22.1483 2.99424 22.1782 2.93466 22.1782 2.60329C22.1782 1.81061 22.3381 1.36927 22.7829 0.936609C22.8892 0.833799 22.9923 0.727848 23.0922 0.618896H17.2663C15.2874 0.618896 13.683 2.22322 13.683 4.20222V40.7421C13.683 42.7211 15.2873 44.3255 17.2663 44.3255H27.9257C27.8897 44.2462 27.8145 44.1178 27.7273 43.9906C27.4848 43.6376 27.4874 43.7616 27.6627 40.9334Z" fill="#0E499D"/>
<path d="M28.1518 0.618896H25.0661C25.0964 0.654881 25.14 0.693563 25.1931 0.728368C25.5747 0.978324 26.1535 1.58046 26.2459 1.82342C26.3848 2.18925 26.3536 2.67518 26.1574 3.19986C26.0446 3.50106 25.9972 3.77057 26.029 3.92934C26.089 4.22944 25.7943 4.86562 25.4454 5.18923C25.3195 5.30587 25.1412 5.54824 25.0491 5.72791C24.957 5.9075 24.7284 6.22074 24.5413 6.42384C24.3542 6.62694 24.2135 6.85802 24.2292 6.93732C24.2447 7.01671 24.4674 7.19461 24.724 7.33273C24.9808 7.47086 25.365 7.74188 25.5781 7.93504C25.791 8.12819 26.2211 8.46697 26.5337 8.68786C27.6568 9.4818 28.1957 10.8394 28.2013 12.8887C28.2037 13.7969 28.6467 15.9254 28.964 16.554C29.3986 17.4149 29.5559 17.8895 29.6919 18.7487C29.8665 19.8528 29.8718 19.8653 30.2229 20.0119C30.5584 20.1521 31.4274 20.8576 31.4274 20.9898C31.4274 21.0353 31.5134 21.1929 31.6183 21.3401L31.7355 21.5042V4.20213C31.7351 2.22313 30.1308 0.618896 28.1518 0.618896ZM31.6817 24.613C31.6817 24.656 31.4928 24.8977 31.2619 25.1504C29.652 26.9117 26.8966 26.5193 25.8852 24.3844C25.6404 23.8676 25.6149 23.7378 25.6149 23.0077C25.6149 22.3107 25.6458 22.1359 25.8423 21.7164C26.1565 21.0459 26.7564 20.4317 27.4121 20.1088C27.7105 19.962 27.9722 19.8135 27.9935 19.7788C28.0149 19.7442 27.7456 19.1364 27.3949 18.428C26.5873 16.796 26.4917 16.5042 26.1253 14.5548C25.9595 13.6737 25.8069 12.9053 25.7857 12.8469C25.7179 12.659 25.4808 12.7322 24.8945 13.1219L24.321 13.5032L23.8012 14.8198C23.5154 15.5438 23.2814 16.2438 23.2814 16.3752C23.2814 16.5231 23.3655 16.6927 23.5016 16.8199C23.8413 17.1374 23.933 17.3705 24.5087 19.3817C24.933 20.8632 25.0275 21.2961 24.9599 21.4448C24.895 21.5871 24.9371 21.8993 25.1324 22.7233C25.4197 23.9358 25.5268 24.5784 25.6607 25.8925C25.7964 27.2265 25.94 27.6491 26.7129 28.9896C27.2267 29.8804 27.3845 30.4174 27.7453 32.5032C27.9108 33.4603 28.0779 34.3028 28.1167 34.3753C28.1557 34.4477 28.3238 34.7099 28.4905 34.9576C28.9488 35.6388 29.018 35.9522 28.8532 36.6077C28.7779 36.9071 28.6928 37.3582 28.6639 37.6102C28.606 38.1145 28.7886 39.3359 28.9958 39.8321C29.0658 39.9995 29.1038 40.2098 29.0805 40.2995C29.057 40.3891 29.1551 40.8373 29.2982 41.2953C29.7459 42.7278 29.7261 43.3354 29.2105 43.9866C29.1181 44.1032 29.0685 44.1696 29.0389 44.2143C30.5888 43.8196 31.7351 42.4147 31.7351 40.7419V24.5409C31.704 24.5525 31.6817 24.5802 31.6817 24.613Z" fill="#D30529"/>
<path d="M14.9592 36.2599H16.4078L17.2435 39.9541H17.2575V36.2599H18.4692V42.2545H17.0485L16.185 38.5519H16.171V42.2545H14.9592V36.2599ZM19.0964 36.2599H21.0535C21.9797 36.2599 22.4115 36.856 22.4115 37.7543C22.4115 38.3923 22.1816 38.9633 21.6315 39.0975V39.1143C22.2862 39.1898 22.5509 39.8615 22.5509 40.4827C22.5509 41.5238 22.133 42.2542 21.0535 42.2542H19.0964V36.2599ZM20.3918 38.6107H20.7053C20.9699 38.6107 21.1162 38.3253 21.1162 38.0062C21.1162 37.6704 20.9699 37.385 20.7053 37.385H20.3918V38.6107ZM20.3918 41.1294H20.754C20.9908 41.1294 21.2136 40.8775 21.2136 40.3905C21.2136 39.9288 20.9907 39.6685 20.754 39.6685H20.3918V41.1294ZM23.8401 36.2599H25.4698L26.6815 42.2545H25.3025L25.1702 41.205H24.1395L24.0073 42.2545H22.6281L23.8401 36.2599ZM24.6618 37.4857H24.6479L24.2927 40.0297H25.017L24.6618 37.4857Z" fill="white"/>
</svg>
