<svg width="46" height="46" viewBox="0 0 46 46" fill="none" xmlns="http://www.w3.org/2000/svg">
<path d="M21.9531 8.14209H8.21367C8.09766 8.14209 8.09766 8.25759 8.09766 8.37308V23.6582C8.33573 26.9019 11.2651 27.4514 13.9873 27.4514H28.4199V29.5212C25.0544 29.5212 21.6872 29.4848 18.322 29.5395C16.0521 29.5764 13.7697 29.6135 12.024 29.0561C10.5949 28.7056 9.36913 28.0163 8.09766 27.3389C8.90685 29.7522 10.4059 31.591 12.024 33.3143C13.7404 35.0032 15.7793 36.3323 18.0205 37.2231C20.4478 38.3719 23.669 38.2565 27.0277 38.2565H35.8086C36.1621 38.2565 36.8753 38.2869 37.0787 38.0284V22.5184C36.8753 21.7472 36.6744 21.0136 35.766 20.0132C34.5329 18.8408 31.9539 18.8408 30.0349 18.8408C25.6474 18.8408 21.0312 18.9562 16.7565 18.8408C16.7565 18.2663 16.6437 17.4609 16.7565 16.8864C20.1308 16.8864 23.5065 16.9226 26.8805 16.8683C29.1421 16.8319 31.4129 16.7953 33.1705 17.3454C34.594 17.6989 35.9382 18.4793 37.0787 19.0626C35.2466 13.0773 26.8578 8.27831 21.9531 8.14209Z" fill="url(#paint0_linear_5533_40134)"/>
<defs>
<linearGradient id="paint0_linear_5533_40134" x1="8.09766" y1="23.2009" x2="37.0787" y2="23.2009" gradientUnits="userSpaceOnUse">
<stop stop-color="#33BDD6"/>
<stop offset="1" stop-color="#A04E9D"/>
</linearGradient>
</defs>
</svg>
