<svg width="46" height="46" viewBox="0 0 46 46" fill="none" xmlns="http://www.w3.org/2000/svg">
<path d="M9.24806 34.8009C10.7693 34.8041 12.3024 34.8073 13.826 34.7821C16.9292 34.5976 19.5962 32.1654 20.5691 29.297C21.0996 27.6488 21.614 26.0006 22.1274 24.3554C22.5232 23.0873 22.9184 21.821 23.32 20.5578H15.0841C14.7989 21.4972 14.5054 22.4323 14.2118 23.3674C13.9183 24.3026 13.6247 25.2377 13.3396 26.1771H16.1911C15.8724 27.15 15.5705 28.1396 15.2686 29.1293H9.63254C9.86517 28.3894 10.0978 27.6489 10.3305 26.908C11.3061 23.8025 12.2838 20.6902 13.2725 17.5888C15.6444 17.6 18.0313 17.5963 20.4132 17.5926C21.6023 17.5907 22.7901 17.5888 23.9742 17.5888C24.0472 17.3597 24.1202 17.1308 24.1932 16.902C24.7236 15.2389 25.2509 13.5855 25.7522 11.9193C24.058 11.9109 22.3679 11.9109 20.6778 11.9109C18.9879 11.9109 17.2981 11.9109 15.604 11.9025C11.8467 11.718 8.27385 14.536 7.31773 18.1256C6.68631 20.1592 6.04974 22.1825 5.41373 24.204C4.90082 25.8342 4.38828 27.4633 3.87908 29.0957C3.45974 30.3873 3.47652 31.897 4.24811 33.0544C5.00294 34.2285 6.39517 34.8156 7.73708 34.7989C8.23891 34.7989 8.74284 34.7999 9.24806 34.8009Z" fill="#E11B27"/>
<path fill-rule="evenodd" clip-rule="evenodd" d="M30.9354 34.8324C34.7431 34.9498 38.3327 32.1486 39.3391 28.4919C39.8744 26.7541 40.4169 25.0199 40.9582 23.2892C41.5874 21.278 42.215 19.2717 42.8281 17.2701C43.3313 15.6095 42.979 13.5799 41.5365 12.4896C40.3791 11.5335 38.8191 11.567 37.4269 11.6006C36.8109 11.6177 36.193 11.6018 35.5752 11.586C34.3759 11.5552 33.1767 11.5244 31.9921 11.7348C29.0232 12.456 26.44 14.8044 25.6013 17.7566C25.0143 19.6266 24.4273 21.5008 23.8403 23.375C23.2531 25.2497 22.666 27.1245 22.0788 28.9951C21.6594 30.337 21.7265 31.8634 22.5317 33.0544C23.2529 34.1447 24.5445 34.7318 25.8361 34.7989C26.9144 34.8416 27.9994 34.8367 29.0826 34.8318C29.7013 34.8291 30.3195 34.8263 30.9354 34.8324ZM28.6148 27.3257C29.6214 24.1102 30.6342 20.8747 31.6233 17.6392C32.777 17.628 33.9381 17.6317 35.0918 17.6354C35.6658 17.6373 36.2379 17.6392 36.8064 17.6392C35.6322 21.4804 34.4413 25.3048 33.2336 29.1293H28.0504C28.2382 28.5289 28.4264 27.9277 28.6148 27.3257Z" fill="#E11B27"/>
</svg>
