<svg width="52" height="26" viewBox="0 0 52 26" fill="none" xmlns="http://www.w3.org/2000/svg">
<g clip-path="url(#clip0_6391_26743)">
<path d="M12.9049 1.02295C6.34332 1.02295 1.02197 6.34422 1.02197 12.9058C1.02197 19.4674 6.34332 24.7887 12.9049 24.7887C19.4666 24.7887 24.7879 19.4674 24.7879 12.9058C24.7879 6.34422 19.4666 1.02295 12.9049 1.02295Z" fill="#141414"/>
<path d="M25.8188 1.61523L28.8886 6.91687L31.978 1.61523H25.8188Z" fill="white"/>
<path d="M42.5488 11.2269L38.9063 17.4809L38.3565 16.5319L45.072 5.00891H46.1749L43.1019 10.2811H46.9766L52 1.61523C52 1.61523 45.576 1.61523 44.5222 1.61523C43.1575 1.61523 42.3557 2.885 42.3557 2.885C42.3557 2.885 35.2049 15.1639 35.1984 15.1639C34.8319 15.9035 34.8319 17.1078 35.2049 17.8016C35.2115 17.8147 38.9095 24.193 38.9095 24.193L46.4301 11.2203H42.5488V11.2269Z" fill="white"/>
<path d="M32.4624 9.34516H37.4859L39.4691 5.93836H34.4423L34.9954 4.98931H40.0222L41.989 1.61523C41.989 1.61523 35.8856 1.61523 34.5798 1.61523C33.166 1.61523 32.338 2.89156 32.338 2.89156L29.4385 7.86591L31.3759 11.2073L32.4624 9.34516Z" fill="white"/>
<path d="M8.91253 15.4355H8.07471V16.5188H8.91578C8.9878 16.5188 9.04672 16.4926 9.09253 16.437C9.13834 16.3813 9.16125 16.3159 9.16125 16.2308V15.7203C9.16125 15.6352 9.13834 15.5697 9.09253 15.5141C9.04672 15.4618 8.98455 15.4355 8.91253 15.4355Z" fill="white"/>
<path d="M14.908 15.4355H14.0996V16.4337H14.908C14.9799 16.4337 15.0389 16.4075 15.0814 16.3551C15.1272 16.3028 15.1468 16.2341 15.1468 16.1522V15.7203C15.1468 15.6385 15.1272 15.5697 15.0814 15.5141C15.0356 15.4618 14.9767 15.4355 14.908 15.4355Z" fill="white"/>
<path d="M11.8679 15.4355H11.2756C11.1971 15.4355 11.1381 15.4618 11.0923 15.5174C11.0465 15.573 11.0269 15.6385 11.0269 15.7235V17.5104C11.0269 17.5922 11.0498 17.6577 11.0923 17.7133C11.1381 17.7689 11.1971 17.7984 11.2756 17.7984H11.8679C11.94 17.7984 11.9989 17.7689 12.0447 17.7133C12.0937 17.6577 12.1166 17.5922 12.1166 17.5104V15.7203C12.1166 15.6385 12.0937 15.5697 12.0447 15.5141C11.9989 15.4618 11.94 15.4355 11.8679 15.4355Z" fill="white"/>
<path d="M12.9049 0.00170898C5.77707 0.00170898 -0.00244141 5.78115 -0.00244141 12.9089C-0.00244141 20.0367 5.77707 25.8161 12.9049 25.8161C20.0327 25.8161 25.8122 20.0367 25.8122 12.9089C25.8122 5.78115 20.0327 0.00170898 12.9049 0.00170898ZM8.08098 5.97425H14.7146L13.6969 7.58437L7.06321 7.58762L8.08098 5.97425ZM6.73592 17.615C6.73592 17.8211 6.66396 17.9978 6.52322 18.1386C6.37923 18.2825 6.20248 18.3578 5.99958 18.3578H5.1225C4.91634 18.3578 4.73965 18.2891 4.60216 18.1484C4.46142 18.0109 4.3927 17.8375 4.3927 17.628V17.2811H4.9327L5.01127 17.6019C5.04723 17.7327 5.13891 17.8015 5.28614 17.8015H5.8785C5.95052 17.8015 6.01268 17.7753 6.0585 17.7196C6.10106 17.6673 6.12397 17.5953 6.12397 17.5167V17.1371C6.12397 16.9506 6.04214 16.8557 5.8785 16.8557H5.1356C4.9327 16.8557 4.756 16.7837 4.60871 16.6397C4.46473 16.4957 4.39601 16.319 4.39601 16.1128V15.6088C4.39601 15.4059 4.46797 15.2325 4.60871 15.0885C4.756 14.9445 4.9327 14.8725 5.1356 14.8725H5.99958C6.20248 14.8725 6.37593 14.9412 6.51667 15.0786C6.65741 15.2194 6.72612 15.3896 6.72612 15.599V15.9132H6.19268L6.11086 15.6284C6.0683 15.4943 5.97667 15.4255 5.83924 15.4255H5.25668C5.18141 15.4255 5.11925 15.4517 5.07668 15.5074C5.02763 15.563 5.00797 15.6317 5.00797 15.7136V16.0081C5.00797 16.1913 5.08979 16.283 5.25668 16.283H5.99958C6.19923 16.283 6.37593 16.355 6.51997 16.5023C6.66396 16.6495 6.73592 16.823 6.73592 17.0226V17.615ZM9.77948 16.3386C9.77948 16.5448 9.70751 16.7182 9.56353 16.8622C9.41623 17.0063 9.23954 17.0782 9.03664 17.0782H8.07443V18.3578H7.45922V14.8725H9.03664C9.23954 14.8725 9.41623 14.9445 9.56353 15.0885C9.70751 15.2325 9.77948 15.4059 9.77948 15.6055V16.3386ZM12.7314 17.6084C12.7314 17.8211 12.6627 17.9946 12.5122 18.1386C12.3649 18.2825 12.1947 18.3578 11.9885 18.3578H11.1573C10.9511 18.3578 10.7744 18.2858 10.6304 18.1386C10.4864 17.9946 10.4111 17.8211 10.4111 17.6084V15.6055C10.4111 15.4059 10.4864 15.2292 10.6304 15.0885C10.7744 14.9445 10.9511 14.8725 11.1573 14.8725H11.9885C12.1947 14.8725 12.3682 14.9445 12.5122 15.0885C12.6594 15.2292 12.7314 15.4059 12.7314 15.6088V17.6084ZM12.8853 14.0412L4.48108 14.0445L6.52322 10.8144H5.02432L6.04539 9.20105H12.2961L11.2751 10.8144H8.47374L7.43956 12.4311H11.9493L16.0728 5.91858L21.2076 14.0412H19.2702L18.2491 12.4278H15.2154L16.2364 10.8112H17.2313L16.0728 8.97849L12.8853 14.0412ZM15.2514 18.3578L14.6852 16.9932H14.0994V18.3578H13.4842V14.8725H15.0256C15.2317 14.8725 15.4085 14.9445 15.5492 15.0885C15.6932 15.2325 15.7652 15.4059 15.7652 15.6055V16.2142C15.7652 16.3713 15.7227 16.5153 15.6343 16.643C15.5427 16.7673 15.4281 16.859 15.2939 16.9179L15.9059 18.3578H15.2514ZM18.5502 15.4354H17.6568V18.3578H17.0415V15.4354H16.1546V14.8725H18.5535V15.4354H18.5502ZM21.345 17.615C21.345 17.8211 21.273 17.9978 21.129 18.1386C20.9818 18.2825 20.8084 18.3578 20.6021 18.3578H19.7316C19.5222 18.3578 19.352 18.2891 19.2113 18.1484C19.0738 18.0109 19.0018 17.8375 19.0018 17.628V17.2811H19.5385L19.6203 17.6019C19.6596 17.7327 19.748 17.8015 19.8953 17.8015H20.4876C20.5629 17.8015 20.6251 17.7753 20.6709 17.7196C20.7134 17.6673 20.7363 17.5953 20.7363 17.5167V17.1371C20.7363 16.9506 20.6545 16.8557 20.4876 16.8557H19.7447C19.5385 16.8557 19.3618 16.7837 19.2211 16.6397C19.0771 16.4957 19.0018 16.319 19.0018 16.1128V15.6088C19.0018 15.4059 19.0771 15.2325 19.2211 15.0885C19.3618 14.9445 19.5385 14.8725 19.7447 14.8725H20.6054C20.8116 14.8725 20.985 14.9412 21.1258 15.0786C21.2665 15.2194 21.3352 15.3896 21.3352 15.599V15.9132H20.7985L20.7167 15.6284C20.6742 15.4943 20.5825 15.4255 20.445 15.4255H19.8592C19.784 15.4255 19.7218 15.4517 19.6793 15.5074C19.6334 15.563 19.6105 15.6317 19.6105 15.7136V16.0081C19.6105 16.1913 19.6956 16.283 19.8592 16.283H20.6021C20.805 16.283 20.9785 16.355 21.1225 16.5023C21.273 16.6495 21.345 16.823 21.345 17.0226V17.615ZM21.7214 15.0427H21.5905V15.3208H21.525V15.0427H21.3941V14.9838H21.7214V15.0427ZM22.1141 15.3241V15.1147C22.1141 15.1049 22.1141 15.095 22.1174 15.0786C22.1108 15.0918 22.1108 15.1049 22.101 15.1147L21.993 15.2815H21.9832L21.8719 15.1147C21.8654 15.1049 21.8588 15.0918 21.8523 15.082C21.8523 15.095 21.8588 15.1081 21.8588 15.118V15.3274H21.8032V14.9903H21.8588L21.9898 15.1932L22.1239 14.9903H22.1763V15.3274H22.1141V15.3241Z" fill="white"/>
</g>
<defs>
<clipPath id="clip0_6391_26743">
<rect width="52" height="25.8124" fill="white"/>
</clipPath>
</defs>
</svg>
