<svg width="806" height="173" viewBox="0 0 806 173" fill="none" xmlns="http://www.w3.org/2000/svg">
<path d="M201.8 0.7H223.6V29.7H235L264.7 0.7H294.7L253.5 39.2L298.7 78.5H267L234.6 48.6H223.6V78.5H201.8V0.7Z" fill="white"/>
<path d="M346.1 0.7H375.3L414.5 78.5H390.6L383.5 64.6H337.3L330.4 78.5H305.7L346.1 0.7ZM376 48.4L360.5 17.4L345.2 48.4H376Z" fill="white"/>
<path d="M423.4 0.7H485.2C497.9 0.7 503.5 1.9 507.6 5.6C511.8 9.2 513.7 15.9 513.7 26.4C513.7 40.9 510.5 46.6 501.3 48.8C510.2 50.4 512.9 54.5 512.7 66.3V78.5H490.6V68.8C490.5 60.4 488.3 58.6 478.6 58.9H445.2V78.5H423.5L423.4 0.7ZM479.2 39.9C489.7 39.9 491.8 38.5 491.8 30.8C491.8 25.8 491.4 23.7 490 22C488.4 20.1 486.6 19.8 480 19.8H445.2V39.9H479.2Z" fill="white"/>
<path d="M564.6 0.7H593.8L633 78.5H609.1L602 64.6H555.8L548.9 78.5H524.2L564.6 0.7ZM594.5 48.4L579 17.4L563.7 48.4H594.5Z" fill="white"/>
<path d="M658.7 19.9H626.8V0.7H712.5V19.9H680.6V78.5H658.8L658.7 19.9Z" fill="white"/>
<path d="M804.6 0.7V18.3H746.7V31.7H801.3V47.1H746.7V60.9H805.4V78.5H725.2V0.7H804.6Z" fill="white"/>
<path d="M292.5 142.2C292.4 153.5 292.1 157.4 290.6 160.9C287.8 167.5 282 170.7 270.8 171.5C266.4 172 257.8 172.1 243.5 172.1C222.9 172.1 216.2 171 210.4 167C203.3 162.1 201.3 153.9 201.3 130.8C201.3 110.3 203.4 102.9 211 98.2C217.5 94.1 224.3 93.1 244.4 93.1C271.2 93.1 277 93.7 283.1 97C288.9 100.1 291.6 107 291.6 118.5V121.1H270.7C270.3 112.6 268.7 111.9 249.7 111.9C231.9 111.9 228.6 112.4 225.9 114.9C223.3 117.5 222.8 120.6 222.8 133.2C222.8 151.9 224.4 153.3 245.4 153.3C261.6 153.3 264 153.2 267 151.8C270.1 150.4 271.3 147.9 271.3 142.4L292.5 142.2Z" fill="white"/>
<path d="M379.3 94C390.4 96.2 395.8 102.4 397.3 114.9C397.7 118 397.9 124.3 397.9 133.8C397.9 152.6 396.1 160.2 389.9 165.7C385.6 169.7 379.6 171.5 369.1 172C365.2 172.2 355.7 172.4 348.7 172.4C331.6 172.4 322.9 172 318.6 171.1C310.6 169.6 306 166.3 303.3 160.6C300.5 154.9 299.9 149.2 299.9 132.1C299.9 119 300.1 115.8 301.4 110.5C303.4 102.2 307.6 97.8 315.7 95.2C321.7 93.3 328.3 92.9 347.2 92.9C367.9 92.9 374.2 93.1 379.3 94ZM325.8 114.7C322.9 117.1 322 121 322 132.2C322 143.6 322.9 147.8 325.5 150.3C328.4 152.9 332 153.3 348.4 153.3C367.2 153.3 371.1 152.6 373.6 148.9C375.6 146.1 376.2 142.1 376.2 131.8C376.2 112.2 375.9 112 349 112C333 111.9 328.6 112.5 325.8 114.7Z" fill="white"/>
<path d="M407 93.7H441.6L467.7 145.4L493.7 93.7H528.1V171.5H506.8L507.9 111.4L476.1 171.5H458.7L427.4 111.4L428.1 171.5H407V93.7Z" fill="white"/>
<path d="M538.8 93.7H603.5C611.8 93.7 616.3 94.5 620 96.5C625.8 99.8 628.2 105 628.2 114.9C628.2 125 625 130.3 618.2 131.7C627.9 133.7 631.1 138.2 631.1 149.6C631.1 159.4 628.5 165.6 622.8 168.8C619.5 170.7 614.7 171.5 606.5 171.5H538.8V93.7ZM596.8 124.7C601 124.7 602.5 124.5 603.9 123.8C605.6 122.7 606.7 120.7 606.7 118C606.7 114.9 605.3 112.5 602.9 111.6C601.5 111.1 600.4 111 596.2 111H560.1V124.8H596.8V124.7ZM599.1 154.2C603.5 154.2 604.4 154.1 605.8 153.6C608 152.8 609.2 150.5 609.2 147.2C609.2 143.8 607.9 141.5 605.5 140.6C604.2 140.1 603.3 140 598.5 140H560V154.2H599.1Z" fill="white"/>
<path d="M672.2 93.7H701.4L740.6 171.5H716.7L709.6 157.6H663.4L656.5 171.5H631.8L672.2 93.7ZM702.1 141.4L686.6 110.4L671.3 141.4H702.1Z" fill="white"/>
<path d="M759.4 112.9H725V93.7H805.4V112.9H781.2V171.5H759.4V112.9Z" fill="white"/>
<path d="M114.5 34.3H34.3V171.7H0V0H114.5V34.3ZM171.7 0V171.7H57.1V137.4H137.4V0H171.7Z" fill="white"/>
</svg>
