<svg width="52" height="36" viewBox="0 0 52 36" fill="none" xmlns="http://www.w3.org/2000/svg">
<g clip-path="url(#clip0_6391_26775)">
<path d="M12.3314 0.476088C12.4907 0.381131 12.5922 0.573054 12.6781 0.674039C18.2061 7.58979 23.7408 14.5005 29.2683 21.4163C29.3819 21.5147 29.296 21.7252 29.1427 21.7026C26.496 21.7057 23.8488 21.7036 21.2021 21.7036C20.99 21.7062 20.7871 21.6007 20.6569 21.4354C17.9107 18.0044 15.166 14.5719 12.4198 11.1404C12.3033 11.0017 12.243 10.8223 12.2505 10.642C12.2505 7.32703 12.2515 4.01159 12.2495 0.696648C12.251 0.618271 12.248 0.516783 12.3314 0.476088Z" fill="white"/>
<path d="M37.8981 0.460184C38.0111 0.417478 38.1357 0.521981 38.1191 0.640551C38.1231 3.957 38.1186 7.27344 38.1211 10.5899C38.1287 10.7778 38.0875 10.9722 37.9654 11.1199C37.1309 12.164 36.2954 13.2075 35.4609 14.251C35.3217 14.4319 35.0941 14.5318 34.8665 14.5203C32.2374 14.5178 29.6077 14.5218 26.9786 14.5183C26.8233 14.5424 26.7349 14.3329 26.8494 14.2319C30.4955 9.67046 34.1445 5.11054 37.7926 0.550116C37.8202 0.510928 37.8554 0.480783 37.8981 0.460184Z" fill="white"/>
<path d="M19.7201 27.4072C20.5179 27.2846 21.3555 27.4258 22.0649 27.8137C22.7527 28.186 23.3179 28.7803 23.654 29.4872C24.0268 30.2624 24.1137 31.1688 23.9032 32.0028C23.7033 32.8102 23.2194 33.5427 22.5593 34.0486C21.4303 34.9379 19.7759 35.069 18.5188 34.3742C17.7953 33.9858 17.2085 33.3513 16.8774 32.5997C16.4604 31.6662 16.4549 30.5594 16.8614 29.6208C17.3512 28.4573 18.4696 27.5876 19.7201 27.4072ZM19.9216 28.6632C19.1207 28.7843 18.4163 29.3531 18.1023 30.0961C17.7778 30.8357 17.8416 31.7325 18.2742 32.4153C18.6289 32.9905 19.2338 33.4096 19.903 33.5171C20.5833 33.6367 21.3077 33.4261 21.8262 32.972C22.4176 32.466 22.7376 31.6682 22.6708 30.8935C22.6205 30.2021 22.2658 29.539 21.7127 29.1194C21.2113 28.7316 20.5481 28.5602 19.9216 28.6632Z" fill="white"/>
<path d="M0 27.5784C0.310493 27.494 0.63857 27.5623 0.956097 27.5382C1.06914 27.5537 1.24097 27.4955 1.30477 27.6231C1.32688 27.7894 1.31281 27.9577 1.31482 28.1255C1.31482 29.588 1.31432 31.0511 1.31482 32.5136C2.59699 30.9114 3.87764 29.3082 5.1583 27.705C5.22512 27.6216 5.31606 27.5477 5.4281 27.5457C5.79586 27.5296 6.16414 27.5477 6.53241 27.5387C6.67007 27.5412 6.8228 27.5151 6.94037 27.6065C6.51181 28.1712 6.05762 28.7163 5.61851 29.273C4.30218 30.9209 2.98535 32.5684 1.66852 34.2158C1.57055 34.3353 1.48464 34.467 1.36757 34.5705C1.25252 34.6654 1.09225 34.6358 0.954589 34.6433C0.63656 34.6323 0.316522 34.6604 0 34.6212V27.5784Z" fill="white"/>
<path d="M8.90303 27.8337C9.03969 27.6483 9.26377 27.5358 9.49438 27.5408C9.77874 27.5413 10.0636 27.5358 10.348 27.5433C10.446 27.5328 10.5007 27.6342 10.4882 27.7207C10.4882 29.9665 10.4882 32.2128 10.4882 34.4586C10.5012 34.545 10.4485 34.6505 10.348 34.6394C9.99579 34.6434 9.64359 34.6434 9.2914 34.6389C9.16228 34.6424 9.06029 34.5515 8.98794 34.4545C8.37901 33.6899 7.76707 32.9277 7.15815 32.163C6.53816 32.9352 5.9217 33.71 5.30323 34.4837C5.23691 34.5686 5.14095 34.6399 5.02841 34.6384C4.62497 34.6475 4.22102 34.6364 3.81708 34.6429C3.71811 34.6364 3.59401 34.6681 3.53271 34.5651C5.31227 32.3132 7.11594 30.0795 8.90303 27.8337ZM7.89971 31.0914C8.31772 31.6114 8.7297 32.1359 9.15073 32.6529C9.15374 31.6104 9.15273 30.5683 9.15173 29.5258C8.73322 30.0468 8.31621 30.5689 7.89971 31.0914Z" fill="white"/>
<path d="M12.0833 27.7192C12.0738 27.6398 12.117 27.5424 12.2089 27.5444C12.5631 27.5358 12.9188 27.5393 13.2736 27.5429C13.375 27.5318 13.4383 27.6323 13.4223 27.7252C13.4243 29.6073 13.4233 31.4893 13.4228 33.3719C14.4075 33.3754 15.3922 33.3694 16.3765 33.3744C16.4609 33.3563 16.5136 33.4633 16.4468 33.5201C16.1906 33.8502 15.9258 34.1742 15.6651 34.5018C15.5862 34.6083 15.4525 34.6515 15.3239 34.642C14.2859 34.6385 13.2474 34.646 12.2094 34.6385C12.114 34.6425 12.0743 34.539 12.0833 34.4591C12.0833 32.2128 12.0828 29.966 12.0833 27.7192Z" fill="white"/>
<path d="M25.2046 27.7218C25.1814 27.6183 25.2648 27.5243 25.3699 27.5414C27.1645 27.5394 28.9586 27.5404 30.7527 27.5409C30.8356 27.5293 30.9336 27.5811 30.9256 27.6756C30.9311 28.1619 30.9266 28.6487 30.9276 29.1351C30.9381 29.2511 30.8768 29.3531 30.8055 29.4385C30.2875 30.0791 29.778 30.7262 29.2585 31.3658C29.2329 31.411 29.1475 31.4708 29.2123 31.523C29.9971 32.5098 30.7884 33.492 31.5722 34.4793C31.6289 34.5265 31.63 34.639 31.537 34.6365C31.0718 34.6466 30.606 34.6415 30.1408 34.639C29.9584 34.6415 29.8554 34.4722 29.7544 34.3476C29.034 33.4438 28.313 32.5404 27.59 31.6391C27.5363 31.5728 27.4539 31.4768 27.5287 31.3949C28.2095 30.5308 28.9028 29.6757 29.5871 28.8135C28.5738 28.809 27.5599 28.8221 26.547 28.807C26.5289 30.7061 26.548 32.6063 26.5375 34.5054C26.549 34.5938 26.4576 34.6526 26.3782 34.6405C26.0265 34.6405 25.6748 34.6461 25.3231 34.638C25.2297 34.639 25.192 34.534 25.2041 34.4561C25.2046 32.2114 25.2041 29.9666 25.2046 27.7218Z" fill="white"/>
<path d="M32.7151 27.7251C32.699 27.6347 32.7578 27.5312 32.8593 27.5427C33.1944 27.5367 33.5305 27.5402 33.8661 27.5412C33.9917 27.5337 34.1133 27.5925 34.1872 27.6945C35.8617 29.7896 37.5358 31.8851 39.2103 33.9802C39.3545 34.1736 39.5274 34.3475 39.6525 34.555C39.6404 34.5746 39.6163 34.6137 39.6042 34.6333C39.1983 34.6539 38.7908 34.6333 38.3844 34.6424C38.2241 34.6449 38.0302 34.6585 37.9242 34.5118C37.2951 33.7315 36.6721 32.9462 36.0461 32.1635C35.4261 32.9352 34.8092 33.7099 34.1912 34.4831C34.1249 34.569 34.0279 34.6394 33.9154 34.6389C33.5647 34.6439 33.214 34.6424 32.8638 34.6399C32.7593 34.6544 32.6985 34.5489 32.7151 34.457C32.7151 32.2132 32.7156 29.9689 32.7151 27.7251ZM34.052 29.5293C34.0505 30.5713 34.0505 31.6128 34.052 32.6548C34.47 32.1343 34.886 31.6123 35.3025 31.0908C34.885 30.5708 34.4721 30.0468 34.052 29.5293Z" fill="white"/>
<path d="M38.6195 27.7271C38.609 27.6492 38.6436 27.5477 38.7356 27.5457C39.0697 27.5321 39.4043 27.5437 39.7384 27.5402C39.868 27.5316 40.0037 27.5744 40.0826 27.6829C41.3713 29.2916 42.6549 30.9044 43.9446 32.5121C43.9446 30.9159 43.9441 29.3197 43.9446 27.7231C43.923 27.6226 44.0014 27.5251 44.1064 27.5412C44.4601 27.5417 44.8138 27.5332 45.167 27.5457C45.2574 27.5492 45.2901 27.6497 45.28 27.7271C45.28 29.9699 45.28 32.2126 45.28 34.4554C45.2906 34.5318 45.2569 34.6353 45.1655 34.6368C44.8143 34.6469 44.4621 34.6398 44.1109 34.6403C43.9949 34.6448 43.8848 34.5891 43.8165 34.4971C42.5293 32.8899 41.2467 31.2787 39.9585 29.6724C39.957 30.6145 39.961 31.557 39.957 32.499C39.9816 32.5829 39.862 32.6548 39.8113 32.5784C39.4415 32.1298 39.0843 31.6705 38.7195 31.2179C38.6381 31.1289 38.612 31.0094 38.618 30.8923C38.62 29.8372 38.6175 28.7822 38.6195 27.7271Z" fill="white"/>
<path d="M46.2042 27.6749C46.1936 27.5835 46.2911 27.5307 46.371 27.5413C47.846 27.5388 49.3211 27.5413 50.7962 27.5403C50.9238 27.5322 51.0575 27.5739 51.1354 27.6815C51.3966 28.007 51.6604 28.3316 51.9171 28.6612C51.9849 28.7164 51.9342 28.826 51.8488 28.8109C51.0776 28.8169 50.3059 28.8109 49.5342 28.8134C49.5306 30.6944 49.5387 32.5755 49.5382 34.4565C49.5563 34.5465 49.4945 34.65 49.394 34.6394C49.0418 34.6424 48.6891 34.6439 48.3374 34.6389C48.2625 34.6454 48.1972 34.5791 48.2048 34.5053C48.1922 32.6081 48.2043 30.7105 48.1942 28.8134C47.5858 28.8119 46.9769 28.8154 46.3689 28.8124C46.2881 28.8219 46.1916 28.7662 46.2042 28.6747C46.1991 28.3416 46.1986 28.008 46.2042 27.6749Z" fill="white"/>
</g>
<defs>
<clipPath id="clip0_6391_26775">
<rect width="52" height="35.5034" fill="white"/>
</clipPath>
</defs>
</svg>
