<svg width="156" height="32" viewBox="0 0 156 32" fill="none" xmlns="http://www.w3.org/2000/svg">
<path d="M154.253 7.34326L150.746 15.599C150.096 17.1334 148.603 18.1492 146.944 18.1852H121.83L118.462 26.1096H144.126C144.609 26.1096 145.038 26.3425 145.307 26.7483C145.579 27.1566 145.621 27.6536 145.43 28.1051L144.371 30.5952H110.553L115.202 19.6524C116.76 15.988 120.327 13.6203 124.29 13.6203H145.581L148.908 5.78961H121.093L122.958 1.40237H150.352C151.776 1.40237 153.094 2.11316 153.883 3.30662C154.678 4.50728 154.815 6.01771 154.251 7.34566M155.052 2.53339C154.003 0.948523 152.247 0 150.352 0H122.031L118.973 7.19436H146.788L144.654 12.2179H124.293C119.765 12.2179 115.692 14.9218 113.913 19.1049L108.434 32H145.3L146.721 28.655C147.095 27.7737 147.004 26.7723 146.476 25.9751C145.95 25.1827 145.072 24.7072 144.126 24.7072H120.584L122.759 19.59H146.968C149.181 19.542 151.171 18.1924 152.038 16.1489L155.544 7.89316C156.293 6.13056 156.111 4.12787 155.055 2.53099" fill="white"/>
<path d="M34.2117 12.8685H42.9584C44.6746 12.8685 46.2228 11.848 46.8925 10.2775L50.9132 0.869107H48.8799C48.023 0.866707 47.2453 1.37579 46.9117 2.16102L43.7817 9.48266C43.6161 9.87646 43.2272 10.1334 42.7976 10.1334H35.6639L39.6004 0.869107H37.5457C36.6912 0.869107 35.9159 1.37579 35.5799 2.15862L32.2482 9.90526C31.6457 11.3077 32.6803 12.8685 34.2141 12.8685" fill="white"/>
<path d="M6.08736 4.21427L4.70718 3.56591H15.1605C15.5877 3.56591 15.9766 3.31137 16.1447 2.91995L17.0255 0.86923H6.87468C5.16565 0.86923 3.62225 1.87778 2.94536 3.43624L0.173013 9.91022C-0.427063 11.3126 0.607467 12.8686 2.14126 12.8686H11.1664C11.5961 12.8686 11.9825 12.6141 12.1505 12.2227L13.0483 10.1335H3.54784L6.08736 4.21427Z" fill="white"/>
<path d="M50.121 12.8685C50.9781 12.8685 51.7533 12.3595 52.0892 11.5766L54.9719 4.87212L58.9348 12.3042C59.1197 12.6524 59.4845 12.8685 59.8809 12.8685H62.0674C62.4967 12.8685 62.8836 12.614 63.0515 12.2226L67.9359 0.869125H65.8478C64.9932 0.871525 64.2205 1.37821 63.8842 2.15864L60.8599 9.16571L56.7457 1.43344C56.5608 1.08525 56.1959 0.866725 55.8001 0.866725H53.2247L48.0687 12.8685H50.126H50.121Z" fill="white"/>
<path d="M80.1393 12.8685H90.7653C91.1951 12.8685 91.5814 12.614 91.7494 12.2202L92.6425 10.1334H83.154L83.9961 8.18836H91.0606C91.4875 8.18836 91.8743 7.93621 92.0447 7.54481L92.7764 5.85186H85.0067L85.7174 4.19975L84.378 3.5634H94.7666C95.1964 3.5634 95.5827 3.30887 95.7507 2.91745L96.6313 0.866725H85.0932C84.2365 0.866725 83.4609 1.37581 83.125 2.15864L79.1597 11.3893C78.8573 12.0905 79.3756 12.8685 80.1438 12.8685" fill="white"/>
<path d="M68.8935 12.8686H70.9222C71.7788 12.8686 72.554 12.3595 72.8903 11.5742L76.3229 3.56344H79.8149C80.3552 3.56344 80.9074 3.23206 81.1019 2.77581L81.913 0.864352H69.6427L68.4737 3.56104C68.4737 3.56104 72.7364 3.56104 72.8928 3.56104L68.896 12.8662L68.8935 12.8686Z" fill="white"/>
<path d="M20.6333 4.21416L19.3228 3.5658H29.5793L27.0397 9.48986C26.8717 9.88126 26.4853 10.1358 26.058 10.1358H18.0962L20.6357 4.21656L20.6333 4.21416ZM26.2308 12.8685C27.9423 12.8685 29.4904 11.8504 30.1601 10.2823L32.9301 3.82755C33.5325 2.42518 32.498 0.866725 30.9666 0.866725H21.4278C19.7164 0.866725 18.173 1.88248 17.5009 3.44814L14.7286 9.90771C14.1261 11.3101 15.1606 12.8685 16.692 12.8685H26.2308Z" fill="white"/>
<path d="M48.6998 20.6393L49.5112 18.7278H37.2408L36.0718 21.4269C36.0718 21.4269 40.3348 21.4269 40.4908 21.4269L36.4943 30.732H38.5226C39.3819 30.732 40.1572 30.2229 40.4908 29.4377L43.9233 21.4269H47.4157C47.9558 21.4269 48.5078 21.0955 48.7022 20.6393" fill="white"/>
<path d="M89.5793 18.7302H84.5219C84.306 18.7302 84.0926 18.795 83.9147 18.9175L75.9266 24.3949L78.3605 18.7302H74.9975L69.8322 30.732H73.2047L74.6616 27.3917L77.5974 27.3965H78.6774L80.9744 30.7344H84.6684L80.6286 24.9184L89.5793 18.7326V18.7302Z" fill="white"/>
<path d="M89.9971 20.0197L86.0388 29.2503C85.7389 29.9515 86.2552 30.732 87.0209 30.732H97.6204C98.0477 30.732 98.4365 30.4774 98.602 30.0836L99.4926 27.9968H90.0261L90.8662 26.0518H97.9132C98.3406 26.0518 98.7269 25.7972 98.8948 25.4082L99.6245 23.7153H91.8743L92.582 22.0632L91.2476 21.4268H101.612C102.039 21.4268 102.426 21.1723 102.594 20.7809L103.472 18.7302H91.9608C91.1061 18.7302 90.333 19.2392 89.9971 20.0221" fill="white"/>
<path d="M106.528 7.46567H99.3656L100.758 4.20226L99.4496 3.57311L108.9 3.56351L110.808 6.92297L108.9 3.56591L107.512 6.81732C107.344 7.20872 106.958 7.46567 106.528 7.46567ZM108.215 10.1359C108.967 10.1359 109.646 9.69167 109.939 9.00492L112.162 3.83006C112.764 2.42769 111.729 0.86923 110.194 0.86923H98.7319L93.5786 12.871H95.6332C96.4898 12.871 97.263 12.3644 97.6014 11.5791L98.2206 10.1359H104.596L106.082 12.871H109.685L108.218 10.1359H108.215Z" fill="white"/>
<path d="M20.5684 21.3213L20.1196 22.3706L19.8004 23.1198C19.2027 24.5222 20.2372 26.0759 21.7686 26.0759H28.9743L28.151 27.9945H18.4201C17.9929 27.9945 17.6064 28.2467 17.4385 28.6381L16.5335 30.7296H27.5221C29.2359 30.7296 30.7841 29.7139 31.4562 28.1458L32.2627 26.2704C32.8652 24.868 31.8307 23.3096 30.2945 23.3096H23.0984L23.6264 22.0729L22.2822 21.4245H33.6357C34.0654 21.4245 34.4518 21.17 34.6198 20.7762L35.4983 18.7254H24.5097C22.7911 18.7254 21.2429 19.746 20.5708 21.3189" fill="white"/>
<path d="M59.9428 24.6806C59.7749 25.072 59.3886 25.329 58.9587 25.329H51.7963L53.1882 22.0656L51.8802 21.4364L61.3302 21.4268L59.9428 24.6782V24.6806ZM62.3718 26.8658L64.5924 21.691C65.1946 20.2886 64.16 18.7302 62.6262 18.7302H51.165L46.0115 30.732H48.0662C48.9231 30.732 49.696 30.2253 50.032 29.44L50.6513 27.9968H57.0266L58.5124 30.732H62.1149L60.6485 27.9968C61.3997 27.9968 62.0789 27.5526 62.3718 26.8658Z" fill="white"/>
<path d="M72.2251 18.7302H68.7666L63.6083 30.732H66.1262C66.6665 30.732 67.2447 30.3742 67.4392 29.9179L72.2251 18.7302Z" fill="white"/>
</svg>
