<svg width="45" height="45" viewBox="0 0 45 45" fill="none" xmlns="http://www.w3.org/2000/svg">
<g clip-path="url(#clip0_5533_40158)">
<path fill-rule="evenodd" clip-rule="evenodd" d="M15.862 7.48966C13.2712 8.02404 10.5151 9.19618 10.5151 9.19618C11.8798 7.31884 14.6498 5.01896 14.6498 5.01896C13.8876 3.57261 13.2128 1.43118 13.2128 1.43118C13.2128 1.43118 16.4161 1.60874 18.9235 2.43081C18.9235 2.43081 23.1833 0.0724861 27.5972 0C27.5972 0 24.38 1.87621 23.0131 3.62318C23.3758 3.81591 25.9488 4.59359 27.9527 5.78652C27.9527 5.78652 24.3299 5.88991 21.0053 6.34955C21.0053 6.34955 19.8348 8.01729 18.8451 11.813C18.8445 11.813 17.1399 9.91654 15.862 7.48966Z" fill="#E2E2E6"/>
<path fill-rule="evenodd" clip-rule="evenodd" d="M33.095 10.6256C30.9014 8.16106 27.974 5.77969 27.974 5.77969C30.6666 5.81846 34.6628 7.42327 34.6628 7.42327C35.4438 5.93197 35.9907 3.87988 35.9907 3.87988C35.9907 3.87988 37.5195 6.49331 38.2138 9.3832C38.2138 9.3832 41.3877 11.3027 43.7827 14.5151C43.7827 14.5151 41.2836 13.9886 39.4439 13.9976C39.4383 14.4123 40.1187 17.8219 39.9707 20.1662C39.9707 20.1662 37.9334 16.8223 36.0219 14.0369C36.0219 14.0369 32.9493 14.0931 29.7209 14.9843C29.7214 14.9843 31.5295 12.8749 33.095 10.6256ZM36.6105 26.69C38.2283 23.9349 39.9713 20.1668 39.9713 20.1668C40.5059 22.6869 40.5537 25.9022 40.5537 25.9022C42.1587 25.5605 44.9999 24.1838 44.9999 24.1838C44.9999 24.1838 43.7343 27.589 40.897 30.2002C40.897 30.2002 41.1841 32.2405 41.2174 34.9326C41.2174 34.9326 39.2108 34.0296 37.5468 33.0198C37.1924 33.2283 35.1813 34.61 31.7837 35.3203C31.7837 35.3203 33.2224 33.0502 34.4124 30.8329C34.4124 30.8329 32.0436 29.2567 30.1671 26.6737C30.1671 26.6731 33.8155 27.1384 36.6105 26.69Z" fill="#E2E2E6"/>
<path fill-rule="evenodd" clip-rule="evenodd" d="M25.1561 21.0797C27.6379 24.1848 30.1564 26.6853 30.1564 26.6853C26.0418 26.0678 22.701 24.9024 22.701 24.9024C21.0298 27.6085 19.2062 30.7546 19.2062 30.7546C19.2062 30.7546 18.1864 27.3416 18.014 23.4678C18.014 23.4678 15.9472 22.7373 12.138 21.2224C12.138 21.2224 14.7656 19.5749 17.9455 18.6764C17.7597 18.3061 18.2471 13.7007 18.8568 11.8184C18.8568 11.8184 20.7111 14.8543 22.2209 17.0862C22.2209 17.0862 25.1762 16.0737 29.7119 14.9959C29.7114 14.9959 27.2296 18.1769 25.1561 21.0797ZM2.56413 32.8247C2.31425 32.3499 2.08137 31.8661 1.86593 31.3744C1.90932 29.7275 2.05508 27.6063 2.47233 25.961C2.47233 25.961 1.27678 25.1232 0.0406131 24.0342C0.0267049 23.8449 0.0105703 23.6538 0 23.4622C0.709877 23.1947 2.21698 22.657 3.53325 22.3491C3.68402 21.9619 4.50349 19.2945 6.08736 17.4543C6.08736 17.4543 6.19418 19.2676 6.62478 21.6815C6.62478 21.6815 9.12493 21.1095 12.1375 21.2213C12.1375 21.2213 9.34579 23.442 7.58779 25.698C8.22534 28.2991 9.50824 30.7957 9.50824 30.7957C7.59113 29.6999 5.5633 28.2485 5.5633 28.2485C4.8512 29.1038 3.41976 31.4109 2.56413 32.8247ZM18.5124 44.6354C18.2021 44.579 17.8933 44.5147 17.5861 44.4427C16.5397 43.3093 14.9436 41.459 13.7247 39.5142C13.7247 39.5142 9.2284 39.1478 6.0601 37.7464C6.0601 37.7464 8.68042 37.2492 11.5578 35.7506C11.3719 35.3803 10.2749 33.3372 9.50768 30.7968C9.50768 30.7968 12.256 33.0394 14.2921 34.352C14.2921 34.352 16.8802 32.8483 19.2062 30.7546C19.2062 30.7546 18.6159 33.6485 18.2893 36.9536C19.7921 37.8204 21.3074 38.6651 22.8346 39.4872C20.4885 39.8322 18.1792 39.7598 18.1792 39.7598C18.088 41.595 18.3322 43.524 18.5124 44.6354ZM38.0736 38.7343C38.0736 38.7343 34.9726 39.562 31.9461 39.6766C31.9461 39.6766 31.9233 37.5914 31.7731 35.3319C31.7731 35.3319 30.1659 37.6357 28.068 39.8514C25.5906 39.8154 22.8346 39.4872 22.8346 39.4872C23.7797 40.4588 24.752 41.4035 25.7503 42.3192C23.8844 43.9212 22.1597 44.9917 22.1597 44.9917C22.4045 44.9951 22.6538 44.9967 22.9002 44.9934C28.7901 44.8962 34.113 42.5283 38.0736 38.7343Z" fill="#E2E2E6"/>
<path fill-rule="evenodd" clip-rule="evenodd" d="M0.249268 18.408C0.249268 18.408 1.90602 16.321 3.83982 14.6263C3.83982 14.6263 4.48628 15.8322 6.06403 17.4387C6.06403 17.4387 6.07571 15.4754 6.30158 12.395C8.06849 10.8172 10.5035 9.18483 10.5035 9.18483C8.48407 9.05502 6.97697 9.15448 6.97697 9.15448C7.4454 6.81695 8.50354 4.30859 8.50354 4.30859C4.20978 7.74747 1.1878 12.7321 0.249268 18.408Z" fill="#E2E2E6"/>
</g>
<defs>
<clipPath id="clip0_5533_40158">
<rect width="45" height="45" fill="white"/>
</clipPath>
</defs>
</svg>
