<svg width="24" height="24" viewBox="0 0 24 24" fill="none" xmlns="http://www.w3.org/2000/svg">
<path d="M0.502441 7.06454L0.502441 8.30142C0.502441 9.1837 1.2265 9.89893 2.11968 9.89893L21.8803 9.89893C22.7735 9.89893 23.4976 9.1837 23.4976 8.30142V7.06454C23.4976 6.18227 22.7735 5.46704 21.8803 5.46704L2.11968 5.46704C1.2265 5.46704 0.502441 6.18227 0.502441 7.06454Z" fill="#CCA6FF"/>
<path d="M3.34985 10.7936V21.1553C3.3476 21.4143 3.4496 21.6636 3.6334 21.8483C3.81721 22.033 4.06776 22.1381 4.32997 22.1403H19.6722C19.9344 22.1381 20.185 22.0331 20.3688 21.8483C20.5526 21.6636 20.6546 21.4143 20.6524 21.1553V10.7936C20.6503 10.5584 20.7429 10.3319 20.9099 10.1642C21.0768 9.99639 21.3044 9.90098 21.5425 9.89893H2.45959C2.69775 9.90096 2.92534 9.99636 3.09229 10.1641C3.25925 10.3319 3.35189 10.5583 3.34985 10.7936Z" fill="#997DBF"/>
<path d="M9.60575 2.52708L11.2215 3.8719C11.4396 4.05338 11.7156 4.15292 12.0007 4.15292C12.2859 4.15292 12.5619 4.05338 12.78 3.8719L14.3958 2.52708C16.2482 0.985143 19.0798 2.28607 19.0798 4.67884V5.46648H4.92188V4.67884C4.92188 2.28607 7.75331 0.985352 9.60575 2.52708Z" fill="#997DBF"/>
<path d="M13.6861 9.89893H10.313V22.1403H13.6861V9.89893Z" fill="#CCA6FF"/>
<g opacity="0.2">
<mask id="mask0_122_199" style="mask-type:alpha" maskUnits="userSpaceOnUse" x="2" y="9" width="20" height="3">
<rect width="19.4577" height="1.74585" transform="matrix(1 0 0 -1 2.24609 11.1362)" fill="#D9D9D9"/>
</mask>
<g mask="url(#mask0_122_199)">
<path d="M3.34985 10.7936V21.1553C3.3476 21.4143 3.4496 21.6636 3.6334 21.8483C3.81721 22.033 4.06776 22.1381 4.32997 22.1403H19.6722C19.9344 22.1381 20.185 22.0331 20.3688 21.8483C20.5526 21.6636 20.6546 21.4143 20.6524 21.1553V10.7936C20.6503 10.5584 20.7429 10.3319 20.9099 10.1642C21.0768 9.99639 21.3044 9.90098 21.5425 9.89893H2.45959C2.69775 9.90096 2.92534 9.99636 3.09229 10.1641C3.25925 10.3319 3.35189 10.5583 3.34985 10.7936Z" fill="black"/>
</g>
</g>
</svg>
