<svg width="135" height="52" viewBox="0 0 135 52" fill="none" xmlns="http://www.w3.org/2000/svg">
<path d="M127.531 37.3586C125.236 36.7678 123.255 36.2709 123.255 34.3654C123.255 32.8708 124.381 31.916 126.18 31.916C127.846 31.8261 129.376 32.9568 129.691 34.6354L134.193 32.4599C132.976 29.4666 130.052 27.6551 126.316 27.6551C121.457 27.6551 118.081 30.6483 118.081 34.9092C118.081 40.121 121.818 41.1187 125.146 41.9795C127.485 42.5703 129.465 43.1142 129.465 45.0627C129.465 46.6943 128.161 47.739 126.18 47.739C124.199 47.739 122.537 46.6513 122.086 45.0197L117.584 47.1952C118.843 50.1884 122.04 52 126.001 52C131.268 52 134.643 49.0537 134.643 44.4289C134.643 39.1702 130.681 38.1725 127.531 37.3586Z" fill="white"/>
<path d="M135 6.57718V8.97958H131.175V11.2451H134.503L133.874 13.5574H131.175V17.1376H128.565V6.57718H135Z" fill="white"/>
<path d="M121.993 9.02667C123.612 9.02667 124.917 10.3414 124.917 11.9729C124.917 13.6045 123.612 14.9192 121.993 14.9192C120.373 14.9192 119.068 13.6045 119.068 11.9729C119.068 10.3414 120.373 9.02667 121.993 9.02667ZM121.993 17.4586C125.007 17.4586 127.438 14.9662 127.438 11.9299C127.438 8.89366 124.964 6.4443 121.95 6.4443C118.936 6.4443 116.504 8.93672 116.504 11.9299C116.504 14.9231 118.979 17.5055 121.993 17.4586Z" fill="white"/>
<path d="M74.0253 51.3192H78.8842V35.86L89.9113 51.3192H94.9949V27.792H90.0895V43.4781L79.1988 27.792H72.8989L74.0253 30.1044V51.3192Z" fill="white"/>
<path d="M111.463 42.3433C110.788 44.0218 109.439 45.3365 107.82 46.0604C106.966 46.4242 106.065 46.6043 105.12 46.6043H102.332V32.5498H105.12C106.065 32.5498 106.966 32.7298 107.82 33.0937C109.486 33.7744 110.791 35.1322 111.463 36.8108C112.181 38.6223 112.181 40.5747 111.463 42.3394V42.3433ZM109.843 28.7427C108.36 28.152 106.783 27.835 105.21 27.745H97.2435V51.2721H105.21C108.36 51.2721 111.374 50.0944 113.669 47.9189C114.749 46.8782 115.65 45.6065 116.233 44.2019C118.167 39.7609 117.134 34.5922 113.669 31.2351C112.543 30.1943 111.285 29.3297 109.843 28.7427Z" fill="white"/>
<path d="M31.138 51.3192H17.2332V27.792H31.138V32.3699H22.3174V37.1316H30.3729L29.1572 41.5726H22.3174V46.7413L31.138 46.7883V51.3231V51.3192Z" fill="white"/>
<path d="M62.9093 32.3736H71.7298V27.7958H57.8717V51.3229H71.7298V46.7881L62.9093 46.7411V41.5724H69.7489L70.9646 37.1315H62.9093V32.3697V32.3736Z" fill="white"/>
<path d="M80.5504 18.5893C80.0999 17.2746 79.8746 15.913 79.9212 14.5552L80.0106 0.0508458H85.0519L85.0051 14.3322C85.0051 15.9208 85.3664 17.1886 86.0851 18.0963C87.7941 19.9078 90.6759 19.9548 92.4317 18.1863L92.5212 18.0963C93.2858 17.1886 93.6472 15.9208 93.6472 14.3322L93.6899 0.00389322H98.8211L98.7316 14.6453C98.7316 16.0069 98.5525 17.3646 98.1025 18.6792C97.6984 19.814 97.0225 20.8547 96.2111 21.7625C95.3562 22.6233 94.3658 23.3041 93.2399 23.7111C90.6759 24.6188 87.8836 24.6188 85.3196 23.6641C84.1937 23.2101 83.2033 22.5763 82.3951 21.6686C81.5838 20.8077 80.9547 19.7631 80.5504 18.5854V18.5893Z" fill="white"/>
<path d="M55.2616 16.7776C54.6325 15.283 54.3178 13.6514 54.3178 12.0629C54.3178 10.4743 54.6791 8.8427 55.3083 7.34803C55.9374 5.89641 56.8386 4.58174 57.9649 3.494C59.0913 2.35932 60.4391 1.49852 61.88 0.911615C63.3637 0.277758 64.9833 -0.039171 66.6496 0.00386879C68.8557 -0.0430838 71.0579 0.547736 72.9961 1.63547C74.7943 2.67625 76.2819 4.21786 77.2257 6.12335L72.6348 8.29881C72.095 7.21108 71.2405 6.30333 70.2034 5.66948C69.1237 5.03562 67.8653 4.76172 66.6029 4.76172C65.6591 4.76172 64.6687 4.94171 63.8143 5.30559C62.9597 5.66948 62.1947 6.21334 61.5654 6.89415C60.8896 7.57497 60.3963 8.38884 60.0351 9.2496C59.27 11.1081 59.27 13.1467 59.9885 15.0052C60.6643 16.7737 62.0587 18.2254 63.7676 18.9962C64.6687 19.4031 65.6125 19.63 66.6029 19.587C68.0439 19.6339 69.481 19.18 70.654 18.3623C71.7337 17.5915 72.4989 16.4138 72.8135 15.0991H64.4901L66.5603 10.8382H78.1695C78.2161 11.7459 78.1695 13.6945 78.1229 14.1014C77.987 15.1891 77.719 16.2768 77.3112 17.3215C76.1848 20.1308 73.9826 22.3063 71.19 23.441C66.5991 25.2995 61.379 24.2118 57.8717 20.6747C56.7454 19.5401 55.8909 18.2254 55.2616 16.7776Z" fill="white"/>
<path d="M1.16909 21.2187V2.49639L0 0.0509505H6.21053V19.0433H15.5244L14.2193 23.6681H0L1.16909 21.2187Z" fill="white"/>
<path d="M1.16909 48.8737V30.1513L0 27.702H6.21053V46.6982H15.5244L14.2193 51.323H0L1.16909 48.8737Z" fill="white"/>
<path d="M31.138 23.668H17.2332V0.140833H31.138V4.7187H22.3174V9.48047H30.3729L29.1572 13.9214H22.3174V19.0431L31.138 19.0901V23.668Z" fill="white"/>
<path d="M101.07 23.668V0.140833H114.974V4.7187H106.154V9.48047H114.209L112.994 13.9214H106.154V19.0431L114.974 19.0901V23.668H101.07Z" fill="white"/>
<path d="M44.4603 6.66735L47.3849 14.6023H41.3997L44.4603 6.66735ZM37.9351 23.6681L39.6907 19.0902H49.0511L50.8494 23.6681H56.1162L46.7091 0.0509505H39.5081L41.0384 3.13417L32.7577 23.6681H37.9351Z" fill="white"/>
<path d="M41.6716 51.6829C42.526 51.8629 43.3806 51.9568 44.2816 51.9568C45.8585 52.0038 47.4315 51.6829 48.9153 51.0961C51.7039 49.9613 53.9101 47.7859 55.0364 44.9766C55.4403 43.9358 55.7122 42.8442 55.8482 41.7564C55.9375 40.6687 55.9375 39.5809 55.8948 38.4463H44.2855V38.4932L42.2153 42.7541H50.496C50.1814 44.0688 49.4163 45.2466 48.3365 46.0174C47.1674 46.8781 45.7731 47.285 44.3321 47.2421C43.8816 47.2421 43.4776 47.1951 43.027 47.1051L41.9939 46.8312C41.8152 46.7842 41.6793 46.6943 41.5007 46.6512C39.7917 45.8804 38.3974 44.4757 37.7216 42.6602C37.003 40.8017 37.003 38.7163 37.7681 36.8577C38.1293 35.9969 38.6692 35.1791 39.2984 34.5022C39.9276 33.8214 40.7394 33.3245 41.5939 32.9606C42.495 32.5968 43.4388 32.4168 44.3826 32.4168C45.641 32.3698 46.9033 32.6907 47.9831 33.3245C49.0162 33.9584 49.8746 34.8662 50.4144 35.9539L55.0054 33.7784C54.0615 31.8729 52.6206 30.3313 50.7757 29.2905C48.8415 28.2028 46.682 27.6589 44.4292 27.6589C41.1899 27.6119 38.0827 28.8836 35.7446 31.196C34.6182 32.2837 33.721 33.5984 33.0879 35.05C31.7829 38.0433 31.7829 41.4864 33.0413 44.4796C33.6705 45.9313 34.525 47.246 35.6047 48.3767C36.5951 49.3745 37.7642 50.1883 39.0265 50.8261C39.9121 51.2291 40.7976 51.5538 41.6832 51.6868L41.6716 51.6829Z" fill="white"/>
</svg>
