<svg width="92" height="51" viewBox="0 0 92 51" fill="none" xmlns="http://www.w3.org/2000/svg">
<path d="M7.6648 24.1458L13.3585 29.6942H22.3331C23.2255 29.6942 24.1092 29.5215 24.9336 29.186C25.7581 28.8505 26.5073 28.3587 27.1383 27.7387C27.7693 27.1188 28.2699 26.3827 28.6114 25.5727C28.9529 24.7627 29.1287 23.8945 29.1287 23.0177C29.1287 22.141 28.9529 21.2728 28.6114 20.4628C28.2699 19.6527 27.7693 18.9167 27.1383 18.2968C26.5073 17.6768 25.7581 17.185 24.9336 16.8495C24.1092 16.514 23.2255 16.3413 22.3331 16.3413H0.25V34.1238H7.6648V21.8873H21.1599C21.4579 21.8967 21.7405 22.0197 21.9479 22.2301C22.1553 22.4405 22.2713 22.7219 22.2713 23.0148C22.2713 23.3077 22.1553 23.5892 21.9479 23.7996C21.7405 24.01 21.4579 24.1329 21.1599 24.1423H7.6648" fill="white"/>
<path d="M38.9811 21.885H60.4426V16.339H31.5663V34.1215H38.9811V21.885Z" fill="white"/>
<path d="M38.9811 24.1435L44.6724 29.6919H60.4426V24.1435H38.9811Z" fill="white"/>
<path d="M63.3594 28.5696L69.0507 34.1157H91.25V28.5673H70.7718V16.3424H63.3594V28.5696Z" fill="white"/>
<path d="M36.0548 13.4861L31.4216 4.17237L38.1436 6.85275C38.0354 7.43303 38.1056 8.03185 38.3453 8.57275C38.5851 9.11365 38.9834 9.5721 39.4895 9.88958C39.9956 10.2071 40.5866 10.3692 41.1869 10.3552C41.7872 10.3412 42.3696 10.1518 42.8599 9.81117C43.3501 9.47051 43.7259 8.99405 43.9393 8.44261C44.1527 7.89117 44.194 7.28976 44.0579 6.71516C43.9219 6.14056 43.6146 5.61883 43.1754 5.21657C42.7361 4.81431 42.1848 4.54977 41.5919 4.45672L46.0009 0.125L50.4111 4.45672C49.8152 4.54835 49.2607 4.81256 48.8186 5.21554C48.3764 5.61852 48.0667 6.14194 47.9291 6.71884C47.7914 7.29574 47.8321 7.89987 48.0459 8.45393C48.2596 9.00799 48.6368 9.48679 49.1292 9.82905C49.6215 10.1713 50.2065 10.3615 50.8095 10.3752C51.4124 10.3889 52.0059 10.2256 52.5138 9.90614C53.0217 9.58666 53.4211 9.12555 53.6608 8.58182C53.9005 8.03809 53.9696 7.43646 53.8593 6.85391L60.5814 4.17353L55.9482 13.4873L36.0548 13.4861Z" fill="white"/>
</svg>
