<svg width="24" height="24" viewBox="0 0 24 24" fill="none" xmlns="http://www.w3.org/2000/svg">
<g clip-path="url(#clip0_1041_905)">
<path d="M11.26 15.9201C10.55 15.0801 9.94 13.9601 9.52 12.6701C9.1 11.3801 8.94 10.1101 9.02 9.01011C9.07 8.31011 9.24 7.66011 9.52 7.11011L2.02 12.6801C1.11 13.2801 0.759997 14.4401 1.18 15.4401L1.65 16.5601C2.03 17.4601 2.95 18.0201 3.92 17.9301L13.23 17.3701C12.52 17.1401 11.84 16.6101 11.26 15.9201Z" fill="#CCA6FF"/>
<path d="M4.80005 18.3402C4.80005 18.3402 7.11005 20.9602 7.49005 21.3502C8.67005 22.5502 10.51 21.9102 9.29005 20.6502C8.20005 19.5202 7.04005 18.2002 7.04005 18.2002L4.80005 18.3402Z" fill="#997DBF"/>
<path d="M16.29 10.5301C15.81 9.05012 15.06 7.78012 14.21 6.94012C13.38 6.12012 12.33 5.58012 11.3 5.91012C11 6.01012 10.73 6.17012 10.51 6.39012C9.89003 6.99012 9.57003 7.95012 9.50003 9.00012C9.45003 9.64012 9.50003 10.3501 9.63003 11.0901L11.72 10.5101C12.53 10.2701 13.38 10.7301 13.62 11.5301L13.65 11.6201C13.77 12.0101 13.72 12.4201 13.53 12.7801C13.34 13.1401 13.01 13.4001 12.62 13.5201L10.61 14.0801C10.93 14.7201 11.29 15.3001 11.69 15.7701C12.37 16.5701 13.19 17.1701 14.04 17.2901C14.35 17.3401 14.67 17.3101 14.97 17.2101C15.99 16.8801 16.53 15.8201 16.71 14.6701C16.9 13.4901 16.76 12.0201 16.28 10.5401L16.29 10.5301Z" fill="#997DBF"/>
<path d="M12.9833 11.2135C13.0306 11.0432 12.81 10.8333 12.4907 10.7447C12.1714 10.6561 11.8743 10.7223 11.827 10.8926C11.7798 11.0629 12.0003 11.2728 12.3196 11.3614C12.6389 11.45 12.9361 11.3838 12.9833 11.2135Z" fill="#CCA6FF"/>
<path d="M11.26 15.9201C11.26 15.9201 11.25 15.9001 11.24 15.9001L3.69 17.2601C2.88 17.3301 2.09 17.1101 1.63 16.5201L1.65 16.5601C2.03 17.4601 2.95 18.0201 3.92 17.9301L13.23 17.3701C12.52 17.1401 11.84 16.6101 11.26 15.9201Z" fill="#997DBF"/>
<path d="M14.6501 23.0801C14.5501 23.0801 14.4601 23.0501 14.3801 23.0001L11.5801 21.1701C11.3501 21.0201 11.2801 20.7101 11.4401 20.4801C11.5901 20.2501 11.9001 20.1901 12.1301 20.3401L14.4701 21.8701L15.7801 19.4001C15.8701 19.2301 16.0501 19.1301 16.2501 19.1301L19.0401 19.2901L18.9401 16.4901C18.9401 16.2901 19.0401 16.1101 19.2101 16.0301L21.7101 14.7701L20.2201 12.4001C20.1201 12.2301 20.1201 12.0201 20.2201 11.8601L21.7501 9.52008L19.2801 8.21008C19.1101 8.12008 19.0001 7.94008 19.0101 7.74008L19.1701 4.95008L16.3701 5.05008C16.1801 5.07008 15.9901 4.95008 15.9101 4.78008L14.6501 2.28008L12.2801 3.77008C12.1101 3.87008 11.9001 3.87008 11.7401 3.77008L9.40006 2.24008L8.09006 4.71008C8.00006 4.88008 7.82006 4.98008 7.62006 4.98008L4.83006 4.82008L4.93006 7.62008C4.94006 7.90008 4.72006 8.13008 4.45006 8.14008C4.19006 8.16008 3.94006 7.93008 3.93006 7.66008L3.81006 4.32008C3.81006 4.18008 3.86006 4.04008 3.96006 3.94008C4.06006 3.84008 4.20006 3.79008 4.34006 3.80008L7.36006 3.97008L8.76006 1.27008C8.83006 1.15008 8.94006 1.06008 9.08006 1.02008C9.22006 0.990077 9.36006 1.01008 9.48006 1.09008L12.0101 2.75008L14.5701 1.13008C14.6901 1.06008 14.8301 1.03008 14.9701 1.07008C15.1101 1.11008 15.2201 1.20008 15.2801 1.33008L16.6401 4.03008L19.6601 3.92008C19.8101 3.92008 19.9401 3.97008 20.0401 4.07008C20.1401 4.17008 20.1901 4.31008 20.1801 4.45008L20.0101 7.47008L22.6901 8.88008C22.8101 8.95008 22.9001 9.06008 22.9401 9.20008C22.9801 9.34008 22.9501 9.48008 22.8701 9.60008L21.2101 12.1301L22.8201 14.6901C22.8901 14.8101 22.9201 14.9501 22.8801 15.0901C22.8401 15.2301 22.7501 15.3401 22.6201 15.4001L19.9201 16.7701L20.0301 19.7901C20.0301 19.9301 19.9801 20.0701 19.8801 20.1701C19.7801 20.2701 19.6501 20.3201 19.5001 20.3101L16.4801 20.1401L15.0701 22.8201C15.0001 22.9401 14.8901 23.0401 14.7501 23.0701C14.7101 23.0801 14.6701 23.0901 14.6301 23.0901L14.6501 23.0801Z" fill="#CCA6FF"/>
<path d="M16.22 4.36994C16.03 4.38994 15.84 4.26994 15.76 4.09994L14.59 1.78994C14.54 1.68994 14.42 1.65994 14.32 1.71994L12.12 3.09994C11.95 3.19994 11.74 3.19994 11.58 3.09994L9.38002 1.65994C9.30002 1.60994 9.20002 1.63994 9.15002 1.71994L7.92002 4.03994C7.83002 4.20994 7.65002 4.31994 7.45002 4.30994L4.88002 4.16994C4.76002 4.16994 4.66002 4.25994 4.67002 4.37994L4.77002 6.95994C4.78002 7.23994 4.56002 7.46994 4.29002 7.47994C4.14002 7.48994 4.00002 7.41994 3.90002 7.29994V7.66994C3.92002 7.94994 4.17002 8.16994 4.43002 8.14994C4.71002 8.13994 4.92002 7.90994 4.91002 7.62994L4.81002 4.82994L7.60002 4.98994C7.79002 4.99994 7.98002 4.89994 8.07002 4.71994L9.38002 2.24994L11.72 3.77994C11.88 3.88994 12.09 3.88994 12.26 3.77994L14.63 2.28994L15.89 4.78994C15.98 4.95994 16.17 5.08994 16.35 5.05994L19.15 4.95994C19.15 4.95994 19.1 4.27994 18.82 4.28994L16.21 4.38994L16.22 4.36994Z" fill="#997DBF"/>
<path d="M19.1301 7.51992C19.1301 7.51992 19.0601 7.44992 19.0201 7.41992L19.0001 7.71992C18.9901 7.91992 19.0901 8.09992 19.2701 8.18992L21.7401 9.49992C21.7401 9.49992 21.9701 8.99992 21.3501 8.69992C20.9601 8.50992 19.1201 7.51992 19.1201 7.51992H19.1301Z" fill="#997DBF"/>
<path d="M21.1101 11.4299C20.9101 11.7299 21.2301 12.1199 21.2301 12.1199L22.8901 9.58991C22.9701 9.46991 22.9901 9.32991 22.9601 9.18991C22.9301 9.06991 22.8501 8.97991 22.7501 8.90991C22.7501 8.90991 21.3201 11.1299 21.1201 11.4199L21.1101 11.4299Z" fill="#997DBF"/>
<path d="M20.19 11.8999C20.12 12.0499 20.12 12.2499 20.21 12.3899L21.7 14.7599C21.7 14.7599 21.8 14.4699 21.56 14.0899C21.32 13.7099 20.19 11.8999 20.19 11.8999Z" fill="#997DBF"/>
<path d="M22.7101 14.49C22.6601 14.59 22.5901 14.68 22.4901 14.73L20.0001 15.99C19.8701 16.06 19.7901 16.19 19.7901 16.34L19.8901 19.12C19.8901 19.26 19.8401 19.4 19.7401 19.5C19.6401 19.6 19.5101 19.65 19.3601 19.64L16.7301 19.49C16.4901 19.48 16.2701 19.6 16.1601 19.81L14.9301 22.14C14.8601 22.26 14.7501 22.35 14.6101 22.39C14.5701 22.4 14.5301 22.41 14.4901 22.41C14.3901 22.41 14.3001 22.38 14.2201 22.33L11.4201 20.5C11.2801 20.73 11.3401 21.03 11.5701 21.18L14.3701 23.01C14.4501 23.06 14.5501 23.09 14.6401 23.09C14.6801 23.09 14.7201 23.09 14.7601 23.07C14.9001 23.03 15.0101 22.94 15.0801 22.82L16.4901 20.14L19.5101 20.31C19.6501 20.32 19.7901 20.27 19.8901 20.17C19.9901 20.07 20.0401 19.94 20.0401 19.79L19.9301 16.77L22.6301 15.41C22.7601 15.35 22.8501 15.23 22.8901 15.1C22.9301 14.96 22.9101 14.82 22.8301 14.7L22.7101 14.5V14.49Z" fill="#997DBF"/>
</g>
<defs>
<clipPath id="clip0_1041_905">
<rect width="21.97" height="22.08" fill="white" transform="translate(1 1)"/>
</clipPath>
</defs>
</svg>
