<svg width="46" height="46" viewBox="0 0 46 46" fill="none" xmlns="http://www.w3.org/2000/svg">
<path d="M23.0014 6.34912C20.3697 6.35013 17.7749 6.96746 15.4247 8.15166C13.0746 9.33586 11.0344 11.054 9.46768 13.1685C7.90097 15.283 6.85124 17.735 6.40259 20.3281C5.95393 22.9212 6.11884 25.5834 6.88408 28.1013C7.18873 27.6646 7.49049 27.2269 7.78936 26.7882C8.96556 25.0601 10.1191 23.3163 11.25 21.5568L12.083 20.2321C12.363 19.7915 12.6359 19.3476 12.9015 18.9002C13.4481 18.0137 13.9709 17.1113 14.4923 16.2118C14.7518 15.7635 14.9984 15.3066 15.2493 14.8554C15.5002 14.4042 15.7374 13.9472 15.9876 13.4866C16.2378 13.026 16.4756 12.5596 16.6955 12.1127L17.3614 10.7244L17.4077 10.6254C17.5891 10.2672 17.9028 9.99376 18.2823 9.86285C18.6618 9.73194 19.0773 9.75387 19.441 9.92399C19.718 10.0721 19.9471 10.2961 20.1015 10.5698C20.2558 10.8435 20.3289 11.1555 20.3123 11.4692C20.3123 12.2696 20.1546 13.1005 20.1019 13.9197C20.0491 14.7389 19.9934 15.5669 19.963 16.3919C19.8979 18.039 19.8582 19.6826 19.8799 21.3204C19.9016 22.9581 19.9695 24.5829 20.1423 26.1714C20.2233 26.9484 20.344 27.7207 20.5039 28.4853C20.6356 29.1735 20.8543 29.8421 21.1546 30.4752C21.2455 30.6737 21.3734 30.8531 21.5314 31.0037C21.6304 31.0717 21.5625 31.0377 21.6116 31.0442C21.632 31.0477 21.6527 31.0477 21.6731 31.0442L21.7259 31.0254H21.7534L21.8459 30.9821C21.8906 30.9555 21.9338 30.9266 21.9753 30.8953C22.221 30.7052 22.4468 30.4908 22.6492 30.2554C23.1454 29.681 23.5996 29.0718 24.0086 28.4325C24.4425 27.7716 24.8524 27.076 25.2444 26.3717C26.0397 24.9596 26.7896 23.4954 27.4938 22.0123C27.8481 21.2709 28.1942 20.5238 28.5322 19.7708C28.8691 19.0231 29.2025 18.2596 29.5148 17.5184C29.6393 17.2134 29.8596 16.9571 30.1426 16.7882C30.4255 16.6194 30.7557 16.5472 31.0832 16.5824C31.4108 16.6177 31.7181 16.7585 31.9586 16.9837C32.1991 17.2089 32.3598 17.5062 32.4165 17.8308C32.4165 18.0253 32.4476 18.2755 32.4693 18.5011L32.5467 19.1996C32.6023 19.666 32.6703 20.1266 32.7477 20.5958C32.9022 21.526 33.1032 22.4479 33.35 23.358C33.5935 24.2663 33.9048 25.155 34.2813 26.0167C34.6466 26.8755 35.1246 27.6819 35.7029 28.4144C35.7635 28.4929 35.7932 28.591 35.7864 28.69C35.7795 28.7889 35.7365 28.8819 35.6656 28.9513C35.5947 29.0207 35.5008 29.0616 35.4017 29.0664C35.3026 29.0711 35.2052 29.0393 35.128 28.977C34.3501 28.3047 33.6653 27.5317 33.0919 26.6783C32.5118 25.8373 31.9953 24.9541 31.5467 24.0362C31.2379 23.418 30.9812 22.8005 30.7281 22.1823C30.5582 22.5438 30.3941 22.9147 30.2184 23.2792C29.4859 24.8056 28.7194 26.3226 27.8792 27.8179C27.475 28.5906 27.0294 29.3411 26.5444 30.0659C26.0539 30.8341 25.5075 31.5652 24.9096 32.2532C24.5668 32.6474 24.1839 33.0049 23.7671 33.3197C23.65 33.4065 23.514 33.4926 23.3745 33.5764L23.0903 33.7247L22.9298 33.797H22.911L22.8213 33.8339L22.7599 33.8555L22.6398 33.8982C22.5567 33.9228 22.4793 33.951 22.3926 33.9705C22.2097 34.0129 22.0238 34.0407 21.8365 34.0537C21.4258 34.0836 21.0133 34.0322 20.6225 33.9025C20.2516 33.7723 19.9073 33.5763 19.6058 33.3241C19.1362 32.9208 18.7525 32.427 18.4778 31.8722C18.0503 31.0006 17.7386 30.0769 17.5509 29.1245C17.3671 28.2559 17.2288 27.3784 17.1365 26.4954C16.9449 24.76 16.8741 23.0536 16.8524 21.3507V18.906C16.5434 19.4869 16.2344 20.0636 15.9254 20.6363C15.6723 21.1063 15.4156 21.5633 15.1531 22.042L14.3679 23.439C13.3112 25.2929 12.2237 27.1274 11.1054 28.9423C10.3823 30.1165 9.65007 31.2814 8.90868 32.4369C10.5083 34.8756 12.7135 36.8573 15.3087 38.1881C17.9039 39.519 20.8001 40.1533 23.714 40.029C26.6279 39.9048 29.4596 39.0262 31.9321 37.4794C34.4046 35.9325 36.4332 33.7702 37.8194 31.2042C39.2055 28.6381 39.9018 25.7562 39.8402 22.8403C39.7785 19.9245 38.9609 17.0745 37.4674 14.5694C35.9739 12.0643 33.8557 9.98982 31.32 8.5489C28.7842 7.10798 25.9179 6.35 23.0014 6.34912Z" fill="url(#paint0_linear_5533_40144)"/>
<defs>
<linearGradient id="paint0_linear_5533_40144" x1="6.15588" y1="23.1967" x2="39.8439" y2="23.1967" gradientUnits="userSpaceOnUse">
<stop stop-color="#21C618"/>
<stop offset="1" stop-color="#3297CB"/>
</linearGradient>
</defs>
</svg>
