<svg xmlns="http://www.w3.org/2000/svg" fill="none" viewBox="0 0 24 24"><path fill="#CCA6FF" d="M5.997 4.001A3.01 3.01 0 0 0 3 6.998v11c0 1.644 1.352 3.004 2.997 3.004h12.005c1.645 0 2.998-1.36 2.998-3.005V6.998a3.01 3.01 0 0 0-2.998-2.997z"></path><path fill="#EDE0FF" d="M5.997 4.001A3.01 3.01 0 0 0 3 6.998V9h18V6.998a3.01 3.01 0 0 0-2.998-2.997z"></path><path fill="#141114" d="M16 13.498a1.002 1.002 0 1 0 0-2.004 1.002 1.002 0 0 0 0 2.004M11.998 17.5a1.002 1.002 0 1 0 0-2.003 1.002 1.002 0 0 0 0 2.003m-3.999 0a1.002 1.002 0 1 0 0-2.003 1.002 1.002 0 0 0 0 2.003m3.999-4.002a1.002 1.002 0 1 0 0-2.004 1.002 1.002 0 0 0 0 2.004m-3.999 0a1.002 1.002 0 1 0 0-2.004 1.002 1.002 0 0 0 0 2.004"></path><path stroke="#141114" stroke-width="0.333" d="M3 8.833h18"></path><rect width="2.3" height="5.3" x="6.85" y="1.85" fill="#CCA6FF" stroke="#141114" stroke-width="0.3" rx="1.15"></rect><rect width="2.3" height="5.3" x="14.85" y="1.85" fill="#CCA6FF" stroke="#141114" stroke-width="0.3" rx="1.15"></rect></svg>