<svg width="133" height="25" viewBox="0 0 133 25" fill="none" xmlns="http://www.w3.org/2000/svg">
<g clip-path="url(#clip0_4601_172678)">
<path d="M25.25 0H0.5V25H25.25V0Z" fill="#00B67A"></path>
<path d="M52.0635 0H27.3135V25H52.0635V0Z" fill="#00B67A"></path>
<path d="M78.874 0H54.124V25H78.874V0Z" fill="#00B67A"></path>
<path d="M105.687 0H80.9375V25H105.687V0Z" fill="#00B67A"></path>
<path d="M132.5 0H120.125V25H132.5V0Z" fill="#DCDCE6"></path>
<path d="M120.125 0H107.75V25H120.125V0Z" fill="#00B67A"></path>
<path d="M12.8754 16.8492L16.6395 15.8857L18.2121 20.7815L12.8754 16.8492ZM21.5379 10.5211H14.9121L12.8754 4.21899L10.8387 10.5211H4.21289L9.57539 14.4273L7.53867 20.7294L12.9012 16.8232L16.2012 14.4273L21.5379 10.5211Z" fill="white"></path>
<path d="M39.6879 16.8492L43.452 15.8857L45.0246 20.7815L39.6879 16.8492ZM48.3504 10.5211H41.7246L39.6879 4.21899L37.6512 10.5211H31.0254L36.3879 14.4273L34.3512 20.7294L39.7137 16.8232L43.0137 14.4273L48.3504 10.5211Z" fill="white"></path>
<path d="M66.4994 16.8492L70.2635 15.8857L71.8361 20.7815L66.4994 16.8492ZM75.1619 10.5211H68.5361L66.4994 4.21899L64.4627 10.5211H57.8369L63.1994 14.4273L61.1627 20.7294L66.5252 16.8232L69.8252 14.4273L75.1619 10.5211Z" fill="white"></path>
<path d="M93.3129 16.8492L97.077 15.8857L98.6496 20.7815L93.3129 16.8492ZM101.975 10.5211H95.3496L93.3129 4.21899L91.2762 10.5211H84.6504L90.0129 14.4273L87.9762 20.7294L93.3387 16.8232L96.6387 14.4273L101.975 10.5211Z" fill="white"></path>
<path d="M120.125 16.8492L123.889 15.8857L125.462 20.7815L120.125 16.8492ZM128.788 10.5211H122.162L120.125 4.21899L118.089 10.5211H111.463L116.825 14.4273L114.789 20.7294L120.151 16.8232L123.451 14.4273L128.788 10.5211Z" fill="white"></path>
</g>
<defs>
<clipPath id="clip0_4601_172678">
<rect width="132" height="25" fill="white" transform="translate(0.5)"></rect>
</clipPath>
</defs>
</svg>