<svg width="100%" height="100%"
    viewBox="0 0 12 13" fill="none" xmlns="http://www.w3.org/2000/svg">
    <path
	d="M0.373047 8.58715C1.2208 10.8719 3.42006 12.5002 5.99985 12.5002C8.57964 12.5002 10.7789 10.8719 11.6267 8.58715L5.99985 8.06543L0.373047 8.58715Z"
	fill="#FFDA44"></path>
    <path
	d="M5.99985 0.5C3.42006 0.5 1.2208 2.12825 0.373047 4.41305L5.99985 4.93477L11.6267 4.41303C10.7789 2.12825 8.57964 0.5 5.99985 0.5Z"
	fill="black"></path>
    <path
	d="M0.373195 4.41309C0.132023 5.06308 0 5.76611 0 6.50003C0 7.23395 0.132023 7.93698 0.373195 8.58698H11.6268C11.868 7.93698 12 7.23395 12 6.50003C12 5.76611 11.868 5.06308 11.6268 4.41309H0.373195Z"
	fill="#D80027"></path>
</svg>