<svg width="100%" height="100%" viewBox="0 0 12 13" fill="none" xmlns="http://www.w3.org/2000/svg">
<path d="M6 12.5C9.31371 12.5 12 9.81371 12 6.5C12 3.18629 9.31371 0.5 6 0.5C2.68629 0.5 0 3.18629 0 6.5C0 9.81371 2.68629 12.5 6 12.5Z" fill="#F0F0F0"></path>
<path d="M1.24065 2.84717C0.769344 3.46036 0.413961 4.16712 0.207031 4.93491H3.32839L1.24065 2.84717Z" fill="#0052B4"></path>
<path d="M11.7932 4.93489C11.5863 4.16712 11.2309 3.46036 10.7596 2.84717L8.67188 4.93489H11.7932Z" fill="#0052B4"></path>
<path d="M0.207031 8.06494C0.413984 8.83271 0.769367 9.53947 1.24065 10.1526L3.32832 8.06494H0.207031Z" fill="#0052B4"></path>
<path d="M9.65315 1.74018C9.03995 1.26888 8.33322 0.913496 7.56543 0.706543V3.82788L9.65315 1.74018Z" fill="#0052B4"></path>
<path d="M2.34766 11.2595C2.96085 11.7309 3.66761 12.0862 4.43537 12.2932V9.17188L2.34766 11.2595Z" fill="#0052B4"></path>
<path d="M4.43535 0.706543C3.66759 0.913496 2.96083 1.26888 2.34766 1.74016L4.43535 3.82786V0.706543Z" fill="#0052B4"></path>
<path d="M7.56543 12.2932C8.3332 12.0862 9.03995 11.7309 9.65313 11.2596L7.56543 9.17188V12.2932Z" fill="#0052B4"></path>
<path d="M8.67188 8.06494L10.7596 10.1527C11.2309 9.53949 11.5863 8.83271 11.7932 8.06494H8.67188Z" fill="#0052B4"></path>
<path d="M11.9492 5.7174H6.78265H6.78262V0.550789C6.52643 0.517438 6.26524 0.5 6 0.5C5.73471 0.5 5.47357 0.517438 5.2174 0.550789V5.71735V5.71738H0.0507891C0.0174375 5.97357 0 6.23476 0 6.5C0 6.76529 0.0174375 7.02643 0.0507891 7.2826H5.21735H5.21738V12.4492C5.47357 12.4826 5.73471 12.5 6 12.5C6.26524 12.5 6.52643 12.4826 6.7826 12.4492V7.28265V7.28262H11.9492C11.9826 7.02643 12 6.76529 12 6.5C12 6.23476 11.9826 5.97357 11.9492 5.7174V5.7174Z" fill="#D80027"></path>
<path d="M7.56543 8.06545L10.2428 10.7429C10.366 10.6198 10.4834 10.4911 10.5955 10.3577L8.30329 8.06543H7.56543V8.06545Z" fill="#D80027"></path>
<path d="M4.43524 8.06543H4.4352L1.75781 10.7428C1.88091 10.866 2.0096 10.9834 2.14301 11.0955L4.43524 8.80322V8.06543Z" fill="#D80027"></path>
<path d="M4.43439 4.9348V4.93475L1.75698 2.25732C1.63384 2.38042 1.51638 2.50911 1.4043 2.64252L3.69655 4.93478H4.43439V4.9348Z" fill="#D80027"></path>
<path d="M7.56543 4.9349L10.2429 2.25745C10.1198 2.13431 9.99107 2.01684 9.85766 1.90479L7.56543 4.19704V4.9349Z" fill="#D80027"></path>
</svg>