<svg width="100%" height="100%" viewBox="0 0 47 21" fill="none" xmlns="http://www.w3.org/2000/svg">
<path d="M21.5548 1.53867C24.3864 1.53867 26.3581 3.4905 26.3581 6.33215C26.3581 9.18401 24.3458 11.1459 21.4838 11.1459H18.3487V16.1316H16.0836V1.53867H21.5548ZM18.3487 9.24472H20.9478C22.9199 9.24472 24.0422 8.18296 24.0422 6.34236C24.0422 4.50188 22.9199 3.45007 20.9578 3.45007H18.3487V9.24472ZM26.9469 13.1078C26.9469 11.2468 28.3728 10.1042 30.9013 9.9626L33.8135 9.79065V8.97163C33.8135 7.78831 33.0146 7.08051 31.6799 7.08051C30.4156 7.08051 29.6267 7.68716 29.4347 8.63782H27.3718C27.4931 6.71622 29.1313 5.3005 31.7607 5.3005C34.3394 5.3005 35.9878 6.66571 35.9878 8.79956V16.1315H33.8944V14.382H33.844C33.2273 15.5652 31.8821 16.3135 30.4865 16.3135C28.4033 16.3135 26.9469 15.019 26.9469 13.1078ZM33.8135 12.1471V11.3077L31.1942 11.4694C29.8897 11.5605 29.1515 12.1369 29.1515 13.0471C29.1515 13.9774 29.92 14.5843 31.0932 14.5843C32.6201 14.5843 33.8135 13.5325 33.8135 12.1471ZM37.9667 20.045V18.2752C38.1282 18.3155 38.4922 18.3155 38.6743 18.3155C39.6856 18.3155 40.2318 17.8909 40.5653 16.7987C40.5653 16.7783 40.7577 16.1514 40.7577 16.1413L36.9149 5.49234H39.281L41.9714 14.1491H42.0115L44.7019 5.49234H47.0076L43.0228 16.6873C42.1129 19.2663 41.0611 20.0955 38.8565 20.0955C38.6743 20.0955 38.1282 20.0752 37.9667 20.045ZM9.39902 2.96281C9.94495 2.28001 10.3155 1.36328 10.2178 0.42627C9.41866 0.466066 8.44339 0.953451 7.87883 1.63676C7.3718 2.2221 6.9232 3.17723 7.04016 4.07483C7.93725 4.15264 8.83345 3.62647 9.39902 2.96281ZM10.2077 4.24945C8.905 4.17177 7.79732 4.98875 7.17512 4.98875C6.55265 4.98875 5.59995 4.28848 4.56957 4.30736C3.22834 4.32713 1.98405 5.08531 1.30329 6.29146C-0.0964873 8.70415 0.933894 12.2831 2.29515 14.248C2.95626 15.2202 3.75297 16.2907 4.80274 16.2522C5.7946 16.2133 6.18338 15.6099 7.38902 15.6099C8.59377 15.6099 8.94391 16.2522 9.99393 16.2328C11.0827 16.2133 11.7634 15.26 12.4245 14.2869C13.1828 13.1787 13.4933 12.1087 13.5128 12.05C13.4933 12.0305 11.4132 11.2325 11.394 8.83987C11.3743 6.8365 13.027 5.88354 13.1048 5.82449C12.1715 4.4441 10.7133 4.28848 10.2077 4.24945Z" fill="white"></path>
</svg>