<svg width="100%" height="100%" viewBox="0 0 49 20" fill="none" xmlns="http://www.w3.org/2000/svg">
<path d="M22.91 15.614H21.1289V1.75464H25.8507C27.0474 1.75464 28.0678 2.15354 28.9027 2.95133C29.7562 3.74912 30.1829 4.72317 30.1829 5.87348C30.1829 7.05161 29.7562 8.02566 28.9027 8.81418C28.0771 9.60269 27.0567 9.99231 25.8507 9.99231H22.91V15.614ZM22.91 3.46154V8.29468H25.8878C26.5929 8.29468 27.1866 8.05349 27.6504 7.58038C28.1235 7.10727 28.3647 6.53212 28.3647 5.88275C28.3647 5.24266 28.1235 4.67679 27.6504 4.20368C27.1866 3.71201 26.6021 3.47082 25.8878 3.47082H22.91V3.46154ZM34.8422 5.8177C36.1595 5.8177 37.1985 6.17021 37.9592 6.87524C38.7199 7.58027 39.1002 8.54504 39.1002 9.76956V15.6139H37.4026V14.2966H37.3284C36.5955 15.3819 35.6122 15.92 34.3877 15.92C33.3394 15.92 32.4674 15.6139 31.7624 14.9923C31.0574 14.3708 30.7049 13.6008 30.7049 12.6732C30.7049 11.6898 31.0759 10.9106 31.8181 10.3354C32.5602 9.751 33.5528 9.46343 34.7866 9.46343C35.8441 9.46343 36.7161 9.65824 37.3933 10.0479V9.63968C37.3933 9.01815 37.1521 8.49865 36.6605 8.06265C36.1688 7.62665 35.5937 7.41328 34.935 7.41328C33.9424 7.41328 33.1539 7.83073 32.5787 8.67491L31.011 7.69158C31.8737 6.43924 33.1539 5.8177 34.8422 5.8177ZM32.5416 12.701C32.5416 13.1648 32.7364 13.5544 33.1353 13.8606C33.525 14.1667 33.9888 14.3244 34.5176 14.3244C35.269 14.3244 35.9369 14.0461 36.5213 13.4895C37.1058 12.9329 37.4026 12.2835 37.4026 11.5321C36.846 11.0961 36.076 10.8735 35.0834 10.8735C34.3599 10.8735 33.7569 11.0497 33.2745 11.393C32.7828 11.7548 32.5416 12.1908 32.5416 12.701ZM48.7852 6.12348L42.8481 19.7787H41.0113L43.2192 15.0012L39.3044 6.12348H41.2433L44.0634 12.9325H44.1005L46.8464 6.12348H48.7852Z" fill="white"></path>
<path d="M15.8233 8.86835C15.8233 8.28763 15.7713 7.73196 15.6748 7.19751H8.20898V10.2588L12.5087 10.2597C12.3343 11.2783 11.7731 12.1467 10.9131 12.7255V14.7117H13.4726C14.967 13.3286 15.8233 11.2841 15.8233 8.86835Z" fill="#2D4BE6"></path>
<path d="M10.9089 12.7264C10.1965 13.2069 9.27904 13.488 8.20573 13.488C6.13239 13.488 4.37354 12.0908 3.74365 10.2078H1.10352V12.2561C2.41153 14.8517 5.0999 16.6328 8.20573 16.6328C10.3523 16.6328 12.1557 15.9268 13.4684 14.7116L10.9089 12.7264Z" fill="#34A853"></path>
<path d="M3.5003 8.68812C3.5003 8.15935 3.58843 7.6482 3.74891 7.16767V5.11938H1.10878C0.567946 6.19269 0.263672 7.40423 0.263672 8.68812C0.263672 9.97201 0.568874 11.1835 1.10878 12.2568L3.74891 10.2086C3.58458 9.71847 3.50062 9.20502 3.5003 8.68812Z" fill="#FABB05"></path>
<path d="M8.20573 3.88771C9.37737 3.88771 10.4266 4.29124 11.255 5.07976L13.5231 2.81347C12.1455 1.53051 10.3496 0.74292 8.20573 0.74292C5.10083 0.74292 2.41153 2.52404 1.10352 5.11965L3.74365 7.16805C4.37354 5.28489 6.13239 3.88771 8.20573 3.88771Z" fill="#E94235"></path>
</svg>