<svg width="100%" height="100%" viewBox="0 0 41 32" fill="none" xmlns="http://www.w3.org/2000/svg">
<path d="M39.4634 31.4873V31.5676H39.5385C39.5526 31.5679 39.5664 31.5644 39.5787 31.5575C39.5836 31.554 39.5876 31.5494 39.5902 31.544C39.5929 31.5386 39.5941 31.5327 39.5938 31.5267C39.5941 31.5208 39.5928 31.515 39.5901 31.5097C39.5875 31.5045 39.5836 31.5 39.5787 31.4967C39.5666 31.4894 39.5526 31.4858 39.5385 31.4864L39.4634 31.4873ZM39.5393 31.4303C39.5715 31.4283 39.6033 31.4376 39.6294 31.4565C39.64 31.465 39.6483 31.4759 39.6538 31.4883C39.6593 31.5007 39.6618 31.5142 39.661 31.5277C39.6615 31.5393 39.6595 31.5509 39.6551 31.5617C39.6508 31.5725 39.6441 31.5822 39.6357 31.5902C39.6155 31.6077 39.5902 31.6182 39.5636 31.6202L39.6643 31.7349H39.5868L39.4942 31.621H39.4642V31.7349H39.3995V31.4305L39.5393 31.4303ZM39.5192 31.8399C39.5532 31.8402 39.5868 31.8334 39.618 31.8198C39.6786 31.7937 39.7269 31.7454 39.753 31.6848C39.7661 31.6532 39.7729 31.6194 39.7729 31.5852C39.7729 31.551 39.7661 31.5171 39.753 31.4856C39.74 31.4556 39.7215 31.4283 39.6985 31.4051C39.6753 31.382 39.648 31.3635 39.618 31.3506C39.5866 31.3378 39.5531 31.3314 39.5192 31.3316C39.4847 31.3314 39.4505 31.3378 39.4185 31.3506C39.3879 31.3634 39.3599 31.3819 39.3362 31.4051C39.3006 31.4416 39.2765 31.4877 39.2669 31.5378C39.2573 31.5879 39.2627 31.6397 39.2824 31.6867C39.2947 31.717 39.313 31.7444 39.3362 31.7672C39.3598 31.7905 39.3878 31.8091 39.4185 31.8218C39.4503 31.8353 39.4846 31.8422 39.5192 31.842M39.5192 31.2585C39.6076 31.2583 39.6925 31.293 39.7556 31.355C39.786 31.3848 39.8102 31.4203 39.8268 31.4595C39.8441 31.4997 39.8529 31.543 39.8529 31.5867C39.8529 31.6305 39.8441 31.6738 39.8268 31.714C39.8098 31.753 39.7857 31.7884 39.7556 31.8184C39.7247 31.848 39.6888 31.8718 39.6495 31.8888C39.6083 31.9063 39.564 31.9152 39.5192 31.9149C39.4738 31.9153 39.4289 31.9064 39.3871 31.8888C39.3473 31.8722 39.3111 31.8483 39.2802 31.8184C39.2502 31.7872 39.2263 31.7506 39.21 31.7105C39.1928 31.6703 39.1839 31.627 39.1839 31.5832C39.1839 31.5395 39.1928 31.4962 39.21 31.456C39.2266 31.4168 39.2509 31.3813 39.2813 31.3516C39.3117 31.3211 39.3481 31.2972 39.3881 31.2812C39.4299 31.2636 39.4748 31.2547 39.5201 31.2551M8.70411 30.0829C8.70411 29.5024 9.08451 29.0256 9.70625 29.0256C10.3003 29.0256 10.7011 29.4819 10.7011 30.0829C10.7011 30.6838 10.3003 31.1401 9.70625 31.1401C9.08451 31.1401 8.70411 30.6633 8.70411 30.0829ZM11.3784 28.4311H10.6601V28.8335C10.4322 28.5362 10.0868 28.3496 9.61689 28.3496C8.69106 28.3496 7.96457 29.0755 7.96457 30.0837C7.96457 31.0919 8.69067 31.8177 9.61689 31.8177C10.0865 31.8177 10.4322 31.631 10.6601 31.3339V31.7349H11.3776L11.3784 28.4311ZM35.6471 30.0829C35.6471 29.5024 36.0275 29.0256 36.6494 29.0256C37.2441 29.0256 37.6443 29.4819 37.6443 30.0829C37.6443 30.6838 37.2441 31.1401 36.6494 31.1401C36.0278 31.1401 35.6471 30.6633 35.6471 30.0829ZM38.3222 27.1052H37.6032V28.8335C37.3755 28.5362 37.0299 28.3496 36.56 28.3496C35.6343 28.3496 34.9078 29.0755 34.9078 30.0837C34.9078 31.0919 35.6339 31.8177 36.56 31.8177C37.0299 31.8177 37.3755 31.631 37.6032 31.3339V31.7349H38.3222V27.1052ZM20.2928 28.9916C20.7556 28.9916 21.0529 29.2817 21.1287 29.7926H19.415C19.4917 29.3158 19.781 28.9916 20.2928 28.9916ZM20.3073 28.3478C19.3393 28.3478 18.6621 29.052 18.6621 30.0819C18.6621 31.1319 19.3664 31.816 20.3554 31.816C20.8528 31.816 21.3085 31.6918 21.7094 31.3532L21.3574 30.821C21.0805 31.0424 20.7278 31.1665 20.3965 31.1665C19.9335 31.1665 19.5121 30.9523 19.4086 30.3577H21.8611C21.8681 30.2685 21.8754 30.1783 21.8754 30.0816C21.8681 29.0522 21.2318 28.3478 20.3073 28.3478ZM28.9786 30.0816C28.9786 29.5013 29.359 29.0245 29.9806 29.0245C30.5747 29.0245 30.9756 29.4808 30.9756 30.0816C30.9756 30.6826 30.5747 31.139 29.9806 31.139C29.359 31.139 28.9786 30.6622 28.9786 30.0816ZM31.6526 30.0816V28.4311H30.9347V28.8335C30.7062 28.5362 30.3614 28.3496 29.8915 28.3496C28.9657 28.3496 28.2392 29.0755 28.2392 30.0837C28.2392 31.0919 28.9653 31.8177 29.8915 31.8177C30.3614 31.8177 30.7062 31.631 30.9347 31.3339V31.7349H31.6528V30.0829L31.6526 30.0816ZM24.9224 30.0816C24.9224 31.0834 25.62 31.8158 26.6846 31.8158C27.1821 31.8158 27.5135 31.7051 27.872 31.422L27.5271 30.8415C27.2574 31.0354 26.9742 31.139 26.6616 31.139C26.0883 31.1319 25.6667 30.7175 25.6667 30.0816C25.6667 29.4459 26.0883 29.0316 26.6616 29.0245C26.9734 29.0245 27.2565 29.128 27.5271 29.3218L27.872 28.7414C27.513 28.4583 27.1815 28.3475 26.6846 28.3475C25.62 28.3475 24.9224 29.0798 24.9224 30.0816ZM34.1819 28.3475C33.7675 28.3475 33.4976 28.5414 33.3111 28.8315V28.4311H32.5992V31.733H33.3183V29.882C33.3183 29.3357 33.5532 29.032 34.0227 29.032C34.1764 29.0298 34.3291 29.0581 34.4718 29.1151L34.6932 28.4383C34.5342 28.3757 34.3273 28.3475 34.1819 28.3475ZM14.9293 28.6936C14.5838 28.4658 14.1076 28.3482 13.5824 28.3482C12.7457 28.3482 12.2069 28.7492 12.2069 29.4052C12.2069 29.9436 12.6079 30.2759 13.3465 30.3795L13.6858 30.4277C14.0797 30.483 14.2656 30.5866 14.2656 30.7732C14.2656 31.0285 14.004 31.1742 13.5127 31.1742C13.0153 31.1742 12.6563 31.0152 12.4142 30.8287L12.0767 31.3887C12.4705 31.6788 12.968 31.8172 13.5067 31.8172C14.4606 31.8172 15.0135 31.3682 15.0135 30.7394C15.0135 30.159 14.5784 29.8553 13.8595 29.7517L13.5211 29.7027C13.2101 29.6624 12.9609 29.5999 12.9609 29.3785C12.9609 29.137 13.1959 28.9918 13.5898 28.9918C14.0115 28.9918 14.4196 29.1507 14.6196 29.2749L14.9305 28.6944L14.9293 28.6936ZM24.197 28.3488C23.7827 28.3488 23.5127 28.5426 23.327 28.8327V28.4311H22.6152V31.733H23.3334V29.882C23.3334 29.3357 23.5683 29.032 24.0378 29.032C24.1916 29.0298 24.3442 29.0581 24.487 29.1151L24.7083 28.4383C24.5493 28.3757 24.3424 28.3488 24.197 28.3488ZM18.0678 28.4311H16.8933V27.4294H16.1672V28.4311H15.4973V29.0873H16.1672V30.5937C16.1672 31.3598 16.4646 31.8161 17.3144 31.8161C17.6261 31.8161 17.9851 31.7196 18.213 31.5609L18.0054 30.946C17.7911 31.0701 17.5563 31.1327 17.3695 31.1327C17.0104 31.1327 16.8933 30.9115 16.8933 30.58V29.088H18.0678V28.4311ZM7.32939 31.7338V29.6616C7.32939 28.8812 6.83197 28.356 6.03008 28.349C5.60845 28.3419 5.17352 28.4732 4.86905 28.9365C4.64114 28.5703 4.28214 28.349 3.77741 28.349C3.42467 28.349 3.07988 28.4527 2.81011 28.8393V28.4311H2.09131V31.733H2.81571V29.9023C2.81571 29.3291 3.13363 29.0245 3.62465 29.0245C4.10172 29.0245 4.34293 29.3352 4.34293 29.895V31.7327H5.06903V29.9017C5.06903 29.3287 5.40038 29.0241 5.87719 29.0241C6.36769 29.0241 6.60172 29.3348 6.60172 29.8946V31.7323L7.32939 31.7338Z" fill="white"></path>
<path d="M39.874 20.7521V20.2693H39.7482L39.6027 20.6006L39.458 20.2693H39.3318V20.7521H39.4212V20.3884L39.5573 20.7023H39.6498L39.7858 20.3876V20.7521H39.874ZM39.076 20.7521V20.352H39.237V20.2705H38.8257V20.352H38.9867V20.7521H39.076Z" fill="#F79410"></path>
<path d="M25.5775 22.8213H14.6929V3.26538H25.5777L25.5775 22.8213Z" fill="#FF5F00"></path>
<path d="M15.3827 13.0438C15.3827 9.07702 17.2406 5.54318 20.1336 3.26586C17.9435 1.53944 15.2349 0.602515 12.4462 0.606703C5.57637 0.606703 0.00732422 6.17496 0.00732422 13.0438C0.00732422 19.9128 5.57623 25.4811 12.4462 25.4811C15.235 25.4853 17.9437 24.5483 20.1339 22.8218C17.241 20.545 15.3827 17.011 15.3827 13.0438Z" fill="#EB001B"></path>
<path d="M40.2638 13.0438C40.2638 19.9128 34.6949 25.4811 27.8249 25.4811C25.0357 25.4852 22.3268 24.5483 20.1362 22.8218C23.0302 20.5446 24.8881 17.011 24.8881 13.0438C24.8881 9.07676 23.0302 5.54318 20.1362 3.26586C22.3268 1.53951 25.0357 0.602616 27.8247 0.606703C34.6947 0.606703 40.2638 6.17496 40.2638 13.0438Z" fill="#F79E1B"></path>
</svg>