<svg width="100%" height="100%" viewBox="0 0 48 16" fill="none" xmlns="http://www.w3.org/2000/svg">
<path d="M34.6912 1.21966C33.9335 0.919058 32.7317 0.587158 31.2458 0.587158C27.4522 0.587158 24.7809 2.61007 24.7645 5.50221C24.733 7.63603 26.6771 8.82121 28.1311 9.53269C29.6173 10.2597 30.1226 10.7343 30.1226 11.3823C30.1074 12.3776 28.9217 12.8364 27.8157 12.8364C26.282 12.8364 25.4602 12.5998 24.2114 12.0461L23.7056 11.8087L23.168 15.1437C24.069 15.5542 25.7289 15.9184 27.4522 15.9343C31.4829 15.9343 34.1071 13.9428 34.1382 10.8607C34.1535 9.16949 33.1269 7.87361 30.9137 6.81468C29.5702 6.13492 28.7473 5.67657 28.7473 4.98104C28.7631 4.34876 29.4433 3.70113 30.9599 3.70113C32.2087 3.66941 33.1263 3.9696 33.8214 4.26999L34.1688 4.42773L34.6912 1.21966Z" fill="white"></path>
<path d="M20.7635 15.7132H16.9221L19.3248 0.856689H23.166L20.7635 15.7132Z" fill="white"></path>
<path fill-rule="evenodd" clip-rule="evenodd" d="M44.5364 0.856689H41.5652C40.6488 0.856689 39.9528 1.12515 39.5574 2.08933L33.8515 15.713H37.8821C37.8821 15.713 38.5458 13.8793 38.6883 13.4844H43.6205C43.7307 14.0059 44.0788 15.713 44.0788 15.713H47.6356L44.5364 0.856689ZM39.7947 10.45C40.1111 9.59656 41.3284 6.29332 41.3284 6.29332C41.3221 6.30605 41.3715 6.1688 41.4454 5.96415L41.4463 5.96166L41.4468 5.96001C41.5571 5.65433 41.7208 5.20062 41.8338 4.87099L42.1023 6.15111C42.1023 6.15111 42.8297 9.70726 42.9877 10.45H39.7947Z" fill="white"></path>
<path d="M13.7139 0.856689L9.95188 10.9874L9.5408 8.93278L9.54041 8.93149L8.19724 2.10551C7.97604 1.15666 7.29627 0.887988 6.45854 0.856689H0.278072L0.214844 1.15687C1.72224 1.54234 3.07047 2.09779 4.25178 2.78845L7.67564 15.6975H11.7378L17.7758 0.856689H13.7139Z" fill="white"></path>
</svg>