<svg width="100%" height="100%" viewBox="0 0 33 34" fill="none" xmlns="http://www.w3.org/2000/svg">
<path d="M32.2111 21.2368C30.0266 29.998 21.1519 35.3299 12.3887 33.1451C3.62907 30.9608 -1.70349 22.0867 0.48208 13.326C2.6656 4.56382 11.5403 -0.768628 20.3009 1.41566C29.0636 3.59995 34.3957 12.4751 32.2111 21.2368Z" fill="#F3BA2F"></path>
<path fill-rule="evenodd" clip-rule="evenodd" d="M16.3471 10.5582L11.5829 15.3224L11.583 15.3222L8.81109 12.5502L16.3471 5.01416L23.8856 12.5524L21.1136 15.3245L16.3471 10.5582ZM6.85271 14.5072L4.08057 17.2797L6.85251 20.0513L9.62465 17.2792L6.85271 14.5072ZM11.5827 19.2379L16.3468 24.0018L21.1132 19.2356L23.8867 22.0062L23.8853 22.0077L16.3468 29.5459L8.81081 22.0098L8.80688 22.0059L11.5827 19.2379ZM25.8396 14.5093L23.0675 17.2815L25.8395 20.0534L28.6116 17.2813L25.8396 14.5093Z" fill="white"></path>
<path d="M19.0694 17.2787H19.0705L16.3464 14.5544L14.3328 16.5674L14.1015 16.7988L13.6244 17.276L13.6206 17.2797L13.6244 17.2836L16.3464 20.0059L19.0707 17.2816L19.072 17.2801L19.0695 17.2787" fill="white"></path>
</svg>