<svg width="100%" height="100%" viewBox="0 0 33 33" fill="none" xmlns="http://www.w3.org/2000/svg">
<path d="M32.0489 20.2083C29.8801 28.9061 21.0697 34.1995 12.3699 32.0305C3.67357 29.862 -1.62042 21.052 0.549337 12.3547C2.71707 3.65592 11.5275 -1.63796 20.2248 0.530531C28.9242 2.69902 34.2176 11.51 32.0489 20.2083Z" fill="#F7931A"></path>
<path fill-rule="evenodd" clip-rule="evenodd" d="M23.6408 14.2558C23.9479 12.0845 22.3849 10.9173 20.2476 10.1386L20.9409 7.19731L19.2481 6.75112L18.5731 9.61489C18.1281 9.4976 17.6711 9.38695 17.2169 9.27731L17.8967 6.39468L16.2049 5.94849L15.5111 8.88875C15.1428 8.80002 14.7812 8.71231 14.4302 8.62001L14.4321 8.61083L12.0976 7.99433L11.6473 9.90657C11.6473 9.90657 12.9033 10.211 12.8768 10.2299C13.5623 10.4109 13.6863 10.8907 13.6655 11.2711L12.8758 14.6219C12.923 14.6346 12.9843 14.653 13.0518 14.6816L12.9945 14.6664L12.9944 14.6664C12.9551 14.656 12.9145 14.6452 12.8729 14.6346L11.7659 19.3286C11.682 19.5488 11.4694 19.8793 10.9902 19.7538C11.0071 19.7798 9.75979 19.429 9.75979 19.429L8.91943 21.4784L11.1223 22.0592C11.3681 22.1244 11.611 22.1914 11.8514 22.2577L11.852 22.2578C12.0121 22.302 12.1711 22.3459 12.3291 22.3887L11.6285 25.3636L13.3194 25.8098L14.0131 22.8665C14.475 22.999 14.9234 23.1214 15.3621 23.2367L14.6708 26.1662L16.3635 26.6124L17.0641 23.6431C19.9506 24.2208 22.1211 23.9878 23.0348 21.2265C23.771 19.0032 22.9981 17.7207 21.4794 16.8845C22.5854 16.6147 23.4185 15.8452 23.6408 14.2558ZM19.7719 19.9926C19.292 22.0324 16.2733 21.1891 14.8921 20.8033L14.892 20.8033C14.7678 20.7685 14.6568 20.7375 14.562 20.7126L15.4916 16.7714C15.6069 16.8018 15.7478 16.8353 15.9075 16.8732C17.3361 17.2122 20.2637 17.907 19.7719 19.9926ZM16.1953 15.0441C17.3469 15.3691 19.8588 16.0781 20.2963 14.2242C20.7431 12.3279 18.3017 11.7563 17.1094 11.4771C16.9753 11.4457 16.857 11.418 16.7604 11.3926L15.9176 14.9672C15.9972 14.9882 16.0906 15.0145 16.1953 15.0441Z" fill="white"></path>
</svg>