<svg width="100%" height="100%" viewBox="0 0 33 33" fill="none" xmlns="http://www.w3.org/2000/svg">
<circle cx="16.3619" cy="16.2804" r="16.2359" fill="#FF060A"></circle>
<path d="M25.8261 14.0061C24.8669 13.179 23.5348 11.9188 22.4558 11.0271L22.3892 10.9883C22.2826 10.9107 22.1627 10.8461 22.0362 10.8009C19.4252 10.3485 7.27611 8.23537 7.04298 8.26122C6.97638 8.26768 6.90977 8.29353 6.85648 8.32584L6.79654 8.37108C6.72327 8.44216 6.66332 8.52617 6.63002 8.62311L6.6167 8.66188V8.87513V8.90744C7.98214 12.4487 13.3839 24.042 14.4497 26.769C14.5163 26.9564 14.6362 27.3054 14.8626 27.3248H14.9159C15.0358 27.3248 15.5553 26.685 15.5553 26.685C15.5553 26.685 24.8336 16.2291 25.7728 15.1176C25.8927 14.9819 25.9993 14.8333 26.0925 14.6782C26.1192 14.5554 26.1058 14.4326 26.0592 14.3163C26.0126 14.2 25.926 14.0901 25.8261 14.0061ZM17.9265 15.2275L21.883 12.1773L24.2075 14.1677L17.9265 15.2275ZM16.3879 15.0272L9.57404 9.83154L20.6041 11.725L16.3879 15.0272ZM17.0007 16.3842L23.9744 15.3374L16.0016 24.2746L17.0007 16.3842ZM8.64821 10.355L15.8218 16.0094L14.7827 24.2811L8.64821 10.355Z" fill="white"></path>
</svg>