<svg width="100%" height="100%" viewBox="0 0 33 34" fill="none" xmlns="http://www.w3.org/2000/svg">
<path d="M32.5105 21.2368C30.3259 29.998 21.4513 35.3299 12.688 33.1451C3.92839 30.9608 -1.40417 22.0867 0.781396 13.326C2.96492 4.56382 11.8396 -0.768628 20.6002 1.41566C29.363 3.59995 34.695 12.4751 32.5105 21.2368Z" fill="#F5F5F5"></path>
<rect x="7.10596" y="7.74023" width="19.0799" height="19.0799" fill="#D8D8D8" fill-opacity="0.01"></rect>
<path d="M10.2058 21.2265C10.321 21.111 10.4793 21.0437 10.6472 21.0437H25.8731C26.1514 21.0437 26.2905 21.3804 26.0938 21.5776L23.086 24.5932C22.9709 24.7086 22.8126 24.7759 22.6447 24.7759H7.41873C7.1405 24.7759 7.00139 24.4392 7.19807 24.2421L10.2058 21.2265Z" fill="url(#paint0_linear_4601_172821)"></path>
<path d="M10.2058 9.96719C10.3258 9.85176 10.4841 9.78442 10.6472 9.78442H25.8731C26.1514 9.78442 26.2905 10.1211 26.0938 10.3183L23.086 13.3339C22.9709 13.4493 22.8126 13.5166 22.6447 13.5166H7.41873C7.1405 13.5166 7.00139 13.18 7.19807 12.9828L10.2058 9.96719Z" fill="url(#paint1_linear_4601_172821)"></path>
<path d="M23.086 15.5612C22.9709 15.4458 22.8126 15.3784 22.6447 15.3784H7.41873C7.1405 15.3784 7.00139 15.7151 7.19807 15.9123L10.2058 18.9279C10.321 19.0433 10.4793 19.1106 10.6472 19.1106H25.8731C26.1514 19.1106 26.2905 18.774 26.0938 18.5768L23.086 15.5612Z" fill="url(#paint2_linear_4601_172821)"></path>
<defs>
<linearGradient id="paint0_linear_4601_172821" x1="-27.3073" y1="6.95248" x2="-27.7146" y2="27.3905" gradientUnits="userSpaceOnUse">
<stop stop-color="#00FFA3"></stop>
<stop offset="1" stop-color="#DC1FFF"></stop>
</linearGradient>
<linearGradient id="paint1_linear_4601_172821" x1="-31.9149" y1="4.54056" x2="-32.3222" y2="24.9786" gradientUnits="userSpaceOnUse">
<stop stop-color="#00FFA3"></stop>
<stop offset="1" stop-color="#DC1FFF"></stop>
</linearGradient>
<linearGradient id="paint2_linear_4601_172821" x1="-29.6258" y1="5.73927" x2="-30.033" y2="26.1773" gradientUnits="userSpaceOnUse">
<stop stop-color="#00FFA3"></stop>
<stop offset="1" stop-color="#DC1FFF"></stop>
</linearGradient>
</defs>
</svg>