<svg width="100%" height="100%" viewBox="0 0 33 33" fill="none" xmlns="http://www.w3.org/2000/svg">
<path d="M16.4015 32.5163C25.3989 32.5163 32.6374 25.2778 32.6374 16.2804C32.6374 7.2829 25.3989 0.0444336 16.4015 0.0444336C7.404 0.0444336 0.165527 7.2829 0.165527 16.2804C0.165527 25.2778 7.404 32.5163 16.4015 32.5163Z" fill="#2775CA"></path>
<path d="M20.7897 18.8914C20.7897 16.5335 19.3456 15.7251 16.4573 15.3883C14.3942 15.1188 13.9816 14.5799 13.9816 13.6366C13.9816 12.6933 14.6693 12.0872 16.0446 12.0872C17.2825 12.0872 17.9702 12.4914 18.314 13.5019C18.3828 13.704 18.5891 13.8387 18.7955 13.8387H19.8956C20.1708 13.8387 20.3771 13.6366 20.3771 13.3672V13.2998C20.102 11.8176 18.8641 10.6724 17.2825 10.5377V8.92089C17.2825 8.65137 17.0762 8.44926 16.7324 8.38184H15.7008C15.4257 8.38184 15.2194 8.58394 15.1506 8.92089V10.4703C13.0875 10.7399 11.781 12.0872 11.781 13.7714C11.781 15.9946 13.1563 16.8703 16.0446 17.2073C17.9702 17.544 18.5891 17.9483 18.5891 19.0262C18.5891 20.1042 17.6263 20.8452 16.3198 20.8452C14.5317 20.8452 13.9127 20.104 13.7064 19.0935C13.6378 18.8241 13.4315 18.6893 13.2252 18.6893H12.056C11.781 18.6893 11.5747 18.8914 11.5747 19.1609V19.2283C11.8497 20.9124 12.95 22.1251 15.2194 22.462V24.0789C15.2194 24.3482 15.4257 24.5504 15.7695 24.6178H16.801C17.0762 24.6178 17.2825 24.4157 17.3513 24.0789V22.462C19.4144 22.1251 20.7897 20.7103 20.7897 18.8914Z" fill="white"></path>
<path fill-rule="evenodd" clip-rule="evenodd" d="M6.87102 13.0045C4.89675 18.1803 7.61979 24.0281 12.9296 25.9101C13.1338 26.0446 13.338 26.3134 13.338 26.515V27.4562C13.338 27.5905 13.338 27.6578 13.2699 27.7249C13.202 27.9938 12.9296 28.1282 12.6572 27.9938C8.84513 26.7839 5.91787 23.8936 4.69253 20.1295C2.65029 13.7439 6.19022 6.95495 12.6572 4.93845C12.7254 4.87134 12.8615 4.87134 12.9296 4.87134C13.202 4.93845 13.338 5.1401 13.338 5.40902V6.35C13.338 6.68619 13.202 6.88784 12.9296 7.02222C10.1386 8.03047 7.89214 10.1814 6.87102 13.0045ZM19.5329 5.20708C19.6009 4.93816 19.8732 4.80378 20.1456 4.93816C23.8896 6.14806 26.885 9.03843 28.1103 12.8698C30.1525 19.2553 26.6126 26.0443 20.1456 28.0608C20.0775 28.1279 19.9414 28.1279 19.8732 28.1279C19.6009 28.0608 19.4648 27.8592 19.4648 27.5903V26.6493C19.4648 26.3131 19.6009 26.1114 19.8732 25.9771C22.6642 24.9688 24.9107 22.8179 25.9318 19.9948C27.9061 14.819 25.183 8.97116 19.8732 7.0892C19.669 6.95466 19.4648 6.6859 19.4648 6.41698V5.476C19.4648 5.34146 19.4648 5.27435 19.5329 5.20708Z" fill="white"></path>
</svg>