<svg width="100%" height="100%" viewBox="0 0 33 33" fill="none" xmlns="http://www.w3.org/2000/svg">
<path d="M16.5048 0.0444336C7.53832 0.0444336 0.268845 7.31391 0.268845 16.2804C0.268845 25.2468 7.53865 32.5163 16.5048 32.5163C25.4709 32.5163 32.7407 25.2488 32.7407 16.2804C32.7407 7.31196 25.4722 0.0444336 16.5048 0.0444336Z" fill="#53AE94"></path>
<path fill-rule="evenodd" clip-rule="evenodd" d="M14.3307 11.7013V14.1375L14.3294 14.1381C9.85239 14.3468 6.48685 15.2429 6.48685 16.3162C6.48685 17.3895 9.85239 18.2856 14.3294 18.4942V26.2981H18.3198V18.4948C22.8033 18.2856 26.1772 17.3888 26.1772 16.3145C26.1772 15.2402 22.8049 14.3435 18.3198 14.1355V11.7013H23.8385V7.9895H8.81262V11.7013H14.3307ZM14.3292 17.8317V17.8336L14.3285 17.832C10.3751 17.6541 7.42291 16.9565 7.42291 16.1259C7.42291 15.2953 10.3738 14.598 14.3285 14.4202V17.1403C14.4421 17.1507 15.0607 17.2025 16.2913 17.2025C17.3158 17.2025 18.0581 17.1583 18.3176 17.1403V14.4202C22.2798 14.5977 25.2378 15.2933 25.2378 16.1269C25.2378 16.9604 22.2801 17.6571 18.3176 17.8343V17.831C18.0623 17.8444 17.3379 17.8739 16.3081 17.8739C15.0202 17.8739 14.4418 17.8389 14.3292 17.8317Z" fill="white"></path>
</svg>