<svg xmlns="http://www.w3.org/2000/svg" fill="none" viewBox="0 0 24 24" class=" group-hover:scale-110 duration-200 ease-out icon-container size-icon-xl muted-icon"><g clip-path="url(#generic-casino_svg__a)"><path fill="#8f8f8f" d="M6.35 19.25c-.17.03-.33.03-.49 0 .16.02.32.03.49 0m1.5-7.47-1.21-1.23 1.55-3.66.97.99.69-2.05c.25-.73 1.03-1.13 1.76-.92.32-.23.72-.33 1.13-.25l.71.15-.5-2.64c-.15-.78-.9-1.29-1.68-1.14l-8.1 1.54c-.78.15-1.29.91-1.14 1.69l2.64 13.85c.12.61.6 1.04 1.17 1.14-.16-.03-.31-.08-.45-.16zM4.46 5.51a.965.965 0 0 1-1.13-.77.96.96 0 0 1 .77-1.13c.52-.1 1.03.24 1.13.77a.96.96 0 0 1-.77 1.13"></path><path fill="#8f8f8f" d="m9.86 5.82-.69 2.05 1.2 1.22.68-3.32c.08-.37.29-.67.57-.87-.74-.21-1.52.18-1.76.92"></path><path fill="#000" d="m9.86 5.82-.69 2.05 1.2 1.22.68-3.32c.08-.37.29-.67.57-.87-.74-.21-1.52.18-1.76.92" opacity="0.25"></path><path fill="#8f8f8f" d="m9.44 13.39-1.58-1.61-2.46 7.31c.14.08.29.13.45.16h.02c.16.03.32.03.49 0l2.01-.38 1.18-5.73-.1.25z"></path><path fill="#000" d="m9.44 13.39-1.58-1.61-2.46 7.31c.14.08.29.13.45.16h.02c.16.03.32.03.49 0l2.01-.38 1.18-5.73-.1.25z" opacity="0.25"></path><path fill="#8f8f8f" d="m13.75 6.31-.04-.21zm7.09.01L13.46 4.8l-.71-.15c-.41-.08-.81.02-1.13.25-.28.2-.49.5-.57.87l-.68 3.32-.83 4.04-1.18 5.73-.15.72c-.16.78.34 1.54 1.12 1.7l8.09 1.66c.78.16 1.54-.34 1.7-1.12l2.84-13.81c.16-.78-.34-1.54-1.12-1.7zm-8.76.4c.11-.52.62-.86 1.14-.75.22.05.4.17.53.33.18.22.28.5.22.8 0 .04-.03.07-.04.1-.15.46-.61.75-1.09.65a.967.967 0 0 1-.75-1.14zm3.67 9.43s-.37-.09-.64-.3l.21.98c.02.07-.05.14-.12.12l-1.46-.3s-.05-.03-.07-.06c-.02-.03-.02-.07 0-.11l.58-.82c-.24.06-.47.07-.71.02-.39-.08-.71-.3-.92-.6a.265.265 0 0 0-.05-.06c-.95-1.45 1.06-2.71 2.18-3.46.08-.05.16-.11.23-.16.24-.16.44-.31.6-.42.05-.03.12-.02.15.03.09.16.23.38.38.62.67 1.07 2.34 3.25.79 4.27-.33.22-.74.31-1.15.22zm2.34 4.73c-.11.52-.62.86-1.14.75a.967.967 0 0 1-.75-1.14c.11-.52.62-.86 1.14-.75.52.11.86.62.75 1.14"></path></g><defs><clipPath id="generic-casino_svg__a"><path fill="#fff" d="M2 1h19.99v21.98H2z"></path></clipPath></defs></svg>