<svg xmlns="http://www.w3.org/2000/svg" fill="none" viewBox="0 0 24 24" class=" group-hover:scale-110 duration-200 ease-out icon-container size-icon-xl muted-icon"><g clip-path="url(#featured_svg__a)"><path fill="#997dbf" d="M4.709 2.443 1 7.233h5.569l-.925-2.396z"></path><path fill="#cca6ff" d="M9.188 4.429 11.07 2H5.501l.925 2.395.935 2.395z"></path><path fill="#997dbf" d="m23 7.232-3.709-4.79-.924 2.395-.936 2.395h5.57Zm-7.154 0-1.893-2.44-1.947-2.52-1.949 2.52-1.892 2.44zm-9.552.92H1.022l9.806 12.133-3.126-9.67-.792-2.463zm10.015 2.463-3.137 9.67 9.806-12.133h-5.877z"></path><path fill="#cca6ff" d="M16.11 8.152H7.846l.848 2.599L12.006 21l3.301-10.25.848-2.598h-.044ZM18.499 2h-5.57l1.883 2.429 1.827 2.36.935-2.394L18.5 2Z"></path></g><defs><clipPath id="featured_svg__a"><path fill="#fff" d="M1 2h22v19H1z"></path></clipPath></defs></svg>