<svg xmlns="http://www.w3.org/2000/svg" fill="none" viewBox="0 0 24 24" class=" group-hover:scale-110 duration-200 ease-out icon-container size-icon-xl muted-icon"><g clip-path="url(#support_svg__a)"><path fill="#cca6ff" d="M19.81 8c-.79-3.61-3.88-6.39-7.56-6.5a7.98 7.98 0 0 0-5.82 2.25 7.956 7.956 0 0 0-2.29 4.24h1.8s.17 0 .25.02c.27-1.06.83-2.04 1.64-2.82a5.897 5.897 0 0 1 4.36-1.69c2.63.08 4.85 1.98 5.57 4.52 0 0 .11-.02.25-.02z"></path><path fill="#997dbf" d="M18.66 8c-.91-2.87-3.46-4.99-6.47-5.08-1.93-.07-3.74.65-5.12 1.98-.9.87-1.53 1.93-1.86 3.1h.81s.09 0 .16.02c.27-1.07.83-2.04 1.64-2.82a5.897 5.897 0 0 1 4.36-1.69c2.63.08 4.85 1.98 5.57 4.52.12-.02.29-.02.29-.02h.61z"></path><path fill="#cca6ff" d="M13.5 19.5h-3a1 1 0 1 0 0 2h3a1 1 0 1 0 0-2"></path><path fill="#997dbf" fill-rule="evenodd" d="M13.5 20.5h-3c-.37 0-.67-.21-.85-.5-.09.15-.15.31-.15.5 0 .55.45 1 1 1h3c.55 0 1-.45 1-1 0-.19-.06-.35-.15-.5-.17.29-.48.5-.85.5" clip-rule="evenodd"></path><path fill="#cca6ff" d="M5 8.5h1c.55 0 1 .45 1 1v7c0 .55-.45 1-1 1H5c-1.66 0-3-1.34-3-3v-3c0-1.66 1.34-3 3-3"></path><path fill="#997dbf" fill-rule="evenodd" d="M6.13 15.94H5c-1.39 0-2.56-.89-3-2.12v.68c0 1.66 1.34 3 3 3h1c.55 0 1-.45 1-1v-1.04c-.19.28-.5.48-.87.48" clip-rule="evenodd"></path><path fill="#cca6ff" d="M19 17.5h-1c-.55 0-1-.45-1-1v-7c0-.55.45-1 1-1h1c1.65 0 3 1.34 3 3v3c0 1.65-1.34 3-3 3"></path><path fill="#997dbf" fill-rule="evenodd" d="M17.87 15.94H19c1.39 0 2.55-.89 3-2.12v.68c0 1.66-1.34 3-3 3h-1c-.55 0-1-.45-1-1v-1.04c.19.28.5.48.87.48" clip-rule="evenodd"></path><path fill="#cca6ff" d="M17.05 21h-2.07s.02-.15.02-.28v-.45c0-.15-.02-.28-.02-.28h2.07c.8 0 1.45-.65 1.45-1.45v-.55h1v.55c0 1.35-1.1 2.45-2.45 2.45z"></path><path fill="#997dbf" d="M17.05 21h-2.07s.02-.15.02-.28v-.22h2.1a1.9 1.9 0 0 0 1.9-1.9V18h.5v.55c0 1.35-1.1 2.45-2.45 2.45"></path></g><defs><clipPath id="support_svg__a"><path fill="#fff" d="M2 1.5h20v20H2z"></path></clipPath></defs></svg>