<svg xmlns="http://www.w3.org/2000/svg" fill="none" viewBox="0 0 24 24"
                        class="icon-container size-icon-m muted-icon">
                        <g clip-path="url(#american-football_svg__a)">
                            <path fill="#cca6ff"
                                d="M1.22 15.85c-.46 2.49-.19 4.56.65 5.45.84.89 2.88 1.26 5.39.93a29.246 29.246 0 0 0-6.04-6.38m20.15-4.08c.6-1.24 1.02-2.46 1.28-3.61a23.188 23.188 0 0 0-6.58-6.96c-1.16.2-2.4.55-3.66 1.08 1.8 1.09 3.5 2.45 5.05 4.08a24.52 24.52 0 0 1 3.9 5.41zm-18.82-.03c-.48 1.04-.84 2.06-1.09 3.05 1.28.96 2.53 2.05 3.7 3.29 1.17 1.24 2.26 2.61 3.17 3.98.99-.2 2.04-.51 3.1-.94a28.54 28.54 0 0 0-3.96-5.24c-1.58-1.66-3.2-3-4.92-4.14M22.91 6.7c.23-2.02-.09-3.69-.91-4.54-.82-.85-2.45-1.26-4.46-1.14.99.77 1.95 1.61 2.86 2.56.91.95 1.78 2.04 2.52 3.12zm-2.11 6.15a23.7 23.7 0 0 0-4.06-5.8c-1.7-1.79-3.5-3.16-5.44-4.26a19.42 19.42 0 0 0-4.72 3.3A18.84 18.84 0 0 0 3 10.84c1.81 1.18 3.57 2.64 5.19 4.34 1.62 1.7 3.04 3.61 4.15 5.53 1.71-.79 3.41-1.89 4.95-3.36a19.19 19.19 0 0 0 3.51-4.5m-7.93-7.31c.38.43.53 1.1.28 1.14-.25.04-.27-.42-.65-.85s-.93-.45-.74-.71c.19-.26.72-.01 1.1.42zm-.92.68c.4.42.57 1.08.32 1.13-.24.05-.28-.41-.68-.83s-.94-.41-.76-.68c.18-.27.72-.04 1.12.38m-.82.7c.41.4.6 1.06.36 1.12-.24.06-.3-.4-.71-.81-.41-.4-.96-.38-.78-.66.17-.28.72-.06 1.13.34zm-.89.73c.43.39.64 1.04.4 1.11-.24.07-.31-.39-.73-.78s-.97-.35-.81-.63c.16-.28.71-.09 1.14.3m-1.94.52c.16-.29.71-.1 1.15.28.43.38.66 1.03.42 1.1-.24.07-.32-.39-.75-.77s-.98-.33-.82-.61m-.86.91c.16-.28.71-.1 1.14.28.43.38.66 1.03.42 1.1-.24.07-.32-.39-.75-.77s-.98-.33-.82-.61zm-.82.96c.16-.29.71-.1 1.15.28.43.38.66 1.03.42 1.1-.24.07-.32-.39-.75-.77s-.98-.33-.82-.61m.82 2.29c-.24.07-.32-.39-.75-.77s-.98-.33-.82-.61c.16-.29.71-.1 1.15.28.43.38.66 1.03.42 1.1">
                            </path>
                            <path fill="#997dbf" fill-rule="evenodd"
                                d="M8.7 8.53c-.18.19-.36.37-.53.55a1.712 1.712 0 0 1 .79.75l.55-.58c-.09-.14-.21-.31-.39-.47a1.55 1.55 0 0 0-.42-.25m.82-.8s-.08.07-.12.11l-.31.3-.05.05c.14.07.27.16.4.27.16.14.29.31.38.48l.03-.03.12-.12c.11-.11.22-.21.33-.31-.09-.15-.21-.33-.4-.51-.13-.12-.26-.19-.39-.25zM7.04 10.4c-.15.2-.29.38-.41.56.13.07.26.16.39.26.14.12.25.26.33.41.14-.16.3-.33.47-.52-.09-.14-.2-.3-.38-.46-.13-.12-.27-.19-.4-.25m.8-.96c-.18.2-.35.4-.51.59.15.07.3.16.43.29.15.13.27.29.36.45.17-.19.34-.38.52-.59-.1-.14-.21-.32-.4-.48-.14-.12-.28-.19-.41-.25zm5.29-3.49c.26-.29.38-.51.24-.65-.13-.13-.39-.1-.72.04.07.06.15.13.22.21.11.12.2.26.26.4m-6.75 5.4c-.28.49-.36.85-.2 1.02.17.17.46 0 .85-.4a2.07 2.07 0 0 0-.35-.41c-.1-.09-.21-.15-.31-.2zm3.99-4.4c-.16.14-.33.29-.49.44.12.07.25.15.37.25.17.15.3.35.39.53l.52-.46c-.09-.15-.19-.31-.36-.48-.14-.14-.29-.22-.42-.28zm.85-.71c-.16.12-.31.24-.48.38.13.08.27.17.39.29.15.15.27.33.35.5.16-.14.31-.27.46-.39a2.22 2.22 0 0 0-.35-.51c-.12-.13-.25-.21-.38-.28zm.97-.66c-.17.1-.36.22-.56.37.11.08.22.17.33.27.15.15.26.34.34.52.19-.16.36-.31.51-.45-.07-.14-.16-.29-.29-.45-.1-.11-.21-.19-.32-.26z"
                                clip-rule="evenodd"></path>
                            <path fill="#997dbf"
                                d="M7.26 22.23c-.38-.55-.79-1.08-1.21-1.61-1.55.45-2.98.66-4.19.66 0 0 0 .01.01.02.84.88 2.88 1.26 5.39.93M22.65 8.16c-.42-.68-.88-1.35-1.38-2.01-.35 1.02-.82 2.09-1.4 3.17.55.8 1.06 1.62 1.5 2.45.6-1.24 1.02-2.46 1.28-3.61M11.43 21.11c-.42-.71-.88-1.41-1.38-2.1-1.01.53-2.01.95-2.99 1.29.45.58.87 1.16 1.27 1.76.99-.2 2.04-.51 3.1-.94zM22.3 2.55c-.08-.1-.15-.21-.22-.29-.04.83-.19 1.75-.46 2.73.45.56.89 1.13 1.28 1.71.2-1.75-.01-3.22-.6-4.15m-5 14.8a19.41 19.41 0 0 0 3.51-4.5c-.43-.87-.94-1.73-1.49-2.56-1.03 1.7-2.36 3.41-4.01 4.97-1.39 1.32-2.88 2.4-4.37 3.27.51.72.99 1.45 1.41 2.18 1.71-.79 3.41-1.89 4.95-3.36">
                            </path>
                        </g>
                        <defs>
                            <clipPath id="american-football_svg__a">
                                <path fill="#fff" d="M1 1h21.98v21.35H1z"></path>
                            </clipPath>
                        </defs>
                    </svg>