<svg xmlns="http://www.w3.org/2000/svg" fill="none" viewBox="0 0 24 24"
                        class="icon-container size-icon-m muted-icon">
                        <g clip-path="url(#aussie-rules_svg__a)">
                            <path fill="#8f8f8f"
                                d="M20 23V6.18c0-.28.22-.5.5-.5s.5.22.5.5V23zM2 23V6.5c0-.28.22-.5.5-.5s.5.22.5.5V23zm6.43 0c-.28 0-.5-.22-.5-.5v-21c0-.28.22-.5.5-.5s.5.22.5.5v21c0 .28-.22.5-.5.5m6 0c-.28 0-.5-.22-.5-.5v-21c0-.28.22-.5.5-.5s.5.22.5.5v21c0 .28-.22.5-.5.5">
                            </path>
                            <path fill="#696969"
                                d="M8.43 16.85c.68 0 1.23.55 1.23 1.23V23H7.19v-4.92c0-.68.55-1.23 1.23-1.23zm6 0c.68 0 1.23.55 1.23 1.23V23h-2.47v-4.92c0-.68.55-1.23 1.23-1.23z">
                            </path>
                            <path fill="#8f8f8f" fill-rule="evenodd"
                                d="M7.31 18.11s.01.1.04 0c.14-.59.67-1.03 1.3-1.03.1 0 .19.04.28.06-.16-.08-.32-.14-.51-.14-.61 0-1.11.5-1.11 1.11m6.05 0s.01.1.04 0c.14-.59.67-1.03 1.3-1.03.1 0 .19.04.28.06-.16-.08-.32-.14-.51-.14-.61 0-1.11.5-1.11 1.11"
                                clip-rule="evenodd"></path>
                        </g>
                        <defs>
                            <clipPath id="aussie-rules_svg__a">
                                <path fill="#fff" d="M2 1h19v22H2z"></path>
                            </clipPath>
                        </defs>
                    </svg>