<svg xmlns="http://www.w3.org/2000/svg" fill="none" viewBox="0 0 24 24"
                        class="icon-container size-icon-m muted-icon">
                        <g clip-path="url(#badminton_svg__a)">
                            <path fill="#8f8f8f" fill-rule="evenodd"
                                d="M6.93 21.99a3.464 3.464 0 0 1-4.91 0 3.464 3.464 0 0 1 0-4.91z" clip-rule="evenodd">
                            </path>
                            <path fill="#8f8f8f" d="M4.046 15.047 2.412 16.68l4.908 4.907 1.633-1.633z">
                            </path>
                            <path fill="#696969" d="m8.288 19.281-1.633 1.634.672.671 1.633-1.633z">
                            </path>
                            <path fill="#8f8f8f" fill-rule="evenodd"
                                d="M9.42 19.56 22 15.4c.58-.22.97-.78.98-1.41l-.32-2.37c.01-.65-.5-1.19-1.15-1.22l-3.44-.14.36-2.93c0-.96-.77-1.73-1.73-1.73l-2.93.36-.14-3.46c-.03-.65-.57-1.16-1.22-1.15L10.01 1c-.63.01-1.18.4-1.41.98L4.47 14.62l4.94 4.94z"
                                clip-rule="evenodd"></path>
                            <path fill="#696969" fill-rule="evenodd"
                                d="M6.28 21.34c-1.36 1.2-3.23 1.38-4.53.07-.22-.22-.39-.47-.54-.73.17.47.43.92.81 1.3a3.464 3.464 0 0 0 4.91 0l-.64-.64zm3.14-1.78L22 15.4c.58-.22.97-.78.98-1.41l-.32-2.37c0-.35-.15-.67-.39-.89L8.75 18.89z"
                                clip-rule="evenodd"></path>
                            <path fill="#8f8f8f" fill-rule="evenodd"
                                d="M4.44 14.58 8.6 2c.22-.58.78-.97 1.41-.98l2.37.32c.35 0 .67.15.89.39L5.11 15.25z"
                                clip-rule="evenodd"></path>
                            <path fill="#696969" fill-rule="evenodd"
                                d="m5.11 15.25 3.64 3.64 13.52-8.16c-.2-.19-.46-.32-.76-.33l-3.44-.14.36-2.93c0-.96-.77-1.73-1.73-1.73l-2.93.36-.14-3.46c-.01-.31-.15-.58-.35-.78z"
                                clip-rule="evenodd"></path>
                            <path fill="#8f8f8f" fill-rule="evenodd"
                                d="m6.11 16.25 2.64 2.64 13.52-8.16c-.2-.19-.46-.32-.76-.33l-3.44-.14.36-2.93c0-.96-.77-1.73-1.73-1.73l-2.93.36z"
                                clip-rule="evenodd"></path>
                            <path fill="#696969" fill-rule="evenodd"
                                d="M17.91 6.09 6.93 17.07l.85.85 10.29-7.66.36-2.93c0-.49-.2-.92-.52-1.24"
                                clip-rule="evenodd"></path>
                            <path fill="#8f8f8f" fill-rule="evenodd"
                                d="M17.91 6.09c-.31-.3-.74-.49-1.21-.49l-2.93.36-7.66 10.29.82.82z" clip-rule="evenodd">
                            </path>
                        </g>
                        <defs>
                            <clipPath id="badminton_svg__a">
                                <path fill="#fff" d="M1 1h21.98v22H1z"></path>
                            </clipPath>
                        </defs>
                    </svg>