<svg xmlns="http://www.w3.org/2000/svg" fill="none" viewBox="0 0 24 24"
                        class="icon-container size-icon-m muted-icon">
                        <g clip-path="url(#bandy_svg__a)">
                            <path fill="#8f8f8f" fill-rule="evenodd"
                                d="M12.01 2.04c.4 0 .73.3.78.68v1.1l.58-.58a.792.792 0 0 1 1.2 1.03l-.08.09-.57.57h.97A.788.788 0 0 1 15 6.5h-1.09l.58.58c.31.31.31.81 0 1.11-.28.28-.72.31-1.03.08l-.09-.08-.58-.58v.98a.788.788 0 0 1-1.57.11V7.62l-.57.57a.792.792 0 0 1-1.2-1.03l.08-.09.58-.58h-.98a.788.788 0 0 1-.11-1.57h1.08l-.57-.57a.779.779 0 0 1 0-1.11c.28-.28.72-.3 1.03-.08l.09.08.57.57v-.98c0-.44.35-.79.79-.79"
                                clip-rule="evenodd"></path>
                            <path fill="#8f8f8f"
                                d="m17.25 8.56-1.55 4.82 2.5 2.46 1.56-4.81zM6.49 18.65c-.4.69-.4 1.54 0 2.23S7.63 22 8.43 22h4.43l-4.51-4.45c-.76.03-1.47.44-1.85 1.1zM22.01 4.06c.13-.4.09-.84-.1-1.21l-.08-.14c-.14-.21-.34-.41-.59-.53l-.2-.1c-.42-.14-.86-.1-1.23.09s-.66.52-.79.92l-1.25 3.88 2.5 2.47 1.74-5.37zm-7.43 12.78c-.14.42-.53.69-.97.69h-3.14l4.41 4.35c.92-.25 1.67-.94 1.98-1.88l.83-2.56-2.5-2.47-.6 1.87z">
                            </path>
                            <path fill="#696969"
                                d="m18.2 15.84 1.56-4.81-1-.98-1.55 4.81zM6.4 20.66c.03.07.05.15.09.23.4.69 1.14 1.12 1.94 1.12h4.43l-1.33-1.31H6.82c-.14 0-.28 0-.41-.03zm15.51-17.8-.08-.14c-.13-.2-.32-.37-.54-.5l-2.02 6.23 1 .98 1.74-5.37c.13-.4.09-.84-.1-1.21zm-8.4 17.68 1.37 1.35c.92-.25 1.67-.94 1.98-1.88l.83-2.56-1-.98-.5 1.54a3.862 3.862 0 0 1-2.68 2.54z">
                            </path>
                            <path fill="#8f8f8f"
                                d="M5.23 15.06a3.23 3.23 0 1 0 0-6.46 3.23 3.23 0 0 0 0 6.46"></path>
                            <path fill="#696969" fill-rule="evenodd"
                                d="M7.88 10c.11.35.18.72.18 1.11 0 1.98-1.61 3.59-3.59 3.59-.32 0-.64-.05-.94-.13.49.31 1.07.49 1.7.49 1.78 0 3.23-1.45 3.23-3.23 0-.68-.21-1.31-.57-1.83z"
                                clip-rule="evenodd"></path>
                        </g>
                        <defs>
                            <clipPath id="bandy_svg__a">
                                <path fill="#fff" d="M2 2h20.09v20H2z"></path>
                            </clipPath>
                        </defs>
                    </svg>