<svg xmlns="http://www.w3.org/2000/svg" fill="none" viewBox="0 0 24 24"
                        class="icon-container size-icon-m muted-icon">
                        <g clip-path="url(#baseball_svg__a)">
                            <path fill="#8f8f8f"
                                d="M21.47 6.47c.12.22.24.43.35.65-.11-.22-.23-.44-.35-.65M4.71 20.2c-.25-.22-.5-.46-.74-.71.23.25.48.49.74.71m17.6-11.93c.08.21.14.41.21.62-.06-.21-.13-.41-.21-.62M10.35 22.83c-.3-.04-.59-.1-.88-.17.29.07.58.12.88.17m-3.07-.93c-.2-.1-.41-.2-.6-.31.2.11.4.21.6.31M1.35 11.22c.07.02.06.18.04.43.12-.08.23-.16.35-.24l.11-.08c.04-.59.17-1.06.28-1.02.09.03.04.36 0 .81.26-.2.53-.38.79-.56.02-.57.13-.99.24-.96.09.03.05.34.03.79.31-.2.63-.38.95-.55.06-.59.23-1.04.37-1 .12.03.05.35 0 .81.43-.21.86-.39 1.3-.55.11-.69.38-1.23.56-1.18.16.05 0 .45-.1 1.02.6-.19 1.21-.33 1.81-.43.2-.69.56-1.21.73-1.13.16.07-.07.47-.26 1.06.32-.03.63-.06.95-.06.3 0 .59 0 .88.02.38-.64.87-1.06 1.02-.94.14.12-.21.45-.54.98.64.07 1.25.19 1.85.38.51-.51 1.07-.79 1.19-.63.1.14-.29.38-.73.79.59.22 1.15.49 1.68.82.49-.36.97-.54 1.05-.39.08.13-.26.31-.69.62.52.36 1.01.78 1.45 1.24.55-.29 1.06-.39 1.12-.23.06.15-.35.27-.85.54.41.48.75 1 1.02 1.56.59-.16 1.1-.13 1.13.04.03.17-.4.19-.94.35.22.51.37 1.04.47 1.58.53 0 .96.13.95.29 0 .16-.38.09-.88.11.05.35.06.69.06 1.04 1.93-2.08 3.08-4.82 2.97-7.89-.16.08-.32.09-.41.03-.14-.11.16-.23.38-.49-.05-.62-.15-1.25-.3-1.9-.13-.21-.26-.42-.4-.62.02.16 0 .34-.08.51-.18.37-.62.58-.79.46-.17-.11.25-.27.43-.65.16-.32.06-.65.17-.69-.44-.57-.93-1.1-1.47-1.57.05.13.08.29.05.45-.07.41-.42.73-.62.67-.2-.06.16-.33.23-.74.06-.36-.13-.64-.04-.71-.39-.31-.8-.59-1.22-.84.06.09.1.19.09.3-.01.29-.33.55-.54.52-.2-.03.12-.25.14-.54.01-.28-.26-.49-.1-.52-.45-.24-.93-.45-1.41-.63.02.18-.06.38-.18.45-.16.09-.03-.22-.17-.4-.13-.19-.46-.15-.31-.27-1-.3-2.06-.47-3.15-.47C5.94 1 1.03 5.88 1 11.92c.04-.03.08-.05.12-.08.05-.38.15-.65.24-.62z">
                            </path>
                            <path fill="#8f8f8f"
                                d="M17.7 17.54c-.54.08-.9.25-.95.08-.05-.19.45-.42 1.09-.48.05-.5.04-1-.02-1.5-.55.18-.89.46-.97.28-.08-.18.33-.49.91-.68-.09-.48-.23-.94-.42-1.39-.62.34-.95.77-1.09.6-.14-.18.27-.64.9-.99-.25-.5-.56-.97-.94-1.39-.53.46-.78.93-.94.8-.16-.13.14-.63.67-1.09-.42-.43-.89-.81-1.39-1.14-.48.55-.65 1.08-.84.98-.18-.1.05-.65.5-1.18-.51-.3-1.06-.54-1.64-.73-.39.59-.49 1.1-.7 1.01-.18-.08-.07-.59.27-1.15-.54-.15-1.1-.25-1.67-.29-.22.65-.21 1.16-.42 1.13-.19-.03-.21-.54-.03-1.14-.16 0-.32-.02-.49-.01-.38 0-.77.04-1.15.1-.05.7.1 1.21-.12 1.23-.2.02-.35-.5-.32-1.15-.58.1-1.15.25-1.72.45.04.72.26 1.23.05 1.28-.2.05-.42-.45-.48-1.11-.43.17-.86.36-1.29.59.06.76.31 1.27.13 1.34-.17.06-.39-.46-.47-1.15-.31.18-.62.36-.92.57.08.68.27 1.14.14 1.21-.12.06-.3-.4-.39-1.03-.28.2-.56.4-.83.62.07.58.21.97.08 1.02-.11.05-.25-.3-.33-.81-.17.14-.34.28-.51.44.07.57.23.96.11 1.01-.11.05-.27-.3-.35-.79l-.08.08c.25 2.42 1.29 4.6 2.85 6.29 5.01 2.18 10.29 1.08 13.78-1.89z">
                            </path>
                            <path fill="#000"
                                d="m21.82 7.12.06.12zM8.54 22.4c-.1-.03-.2-.07-.3-.1.1.04.2.07.3.1M22.76 9.84c-.07-.32-.15-.64-.25-.96.09.31.17.63.24.96zM18.79 20.6s.05-.05.08-.07c-.06.05-.13.1-.2.15.04-.03.08-.05.12-.08m2.57-14.34v.04c.03.06.07.11.1.17-.04-.07-.07-.14-.11-.21zM3.91 19.43l.06.06zm2.77 2.16c-.1-.05-.19-.11-.29-.16.1.06.19.11.29.16M4.8 20.28s-.06-.05-.09-.08c.03.03.06.05.09.08M22.22 8.04c.03.08.06.15.08.23-.03-.08-.05-.15-.08-.23"
                                opacity="0.25"></path>
                            <path fill="#8f8f8f"
                                d="M21.77 8.08c.16-.28.11-.59.18-.67-.02-.05-.04-.11-.07-.16l-.06-.12c-.11-.22-.23-.44-.35-.65-.03-.06-.07-.11-.1-.17.16.64.25 1.28.3 1.9.03-.04.07-.07.1-.12z">
                            </path>
                            <path fill="#000"
                                d="M21.77 8.08c.16-.28.11-.59.18-.67-.02-.05-.04-.11-.07-.16l-.06-.12c-.11-.22-.23-.44-.35-.65-.03-.06-.07-.11-.1-.17.16.64.25 1.28.3 1.9.03-.04.07-.07.1-.12z"
                                opacity="0.25"></path>
                            <path fill="#8f8f8f"
                                d="M12.58 22.75c-.35-.21-.58-.51-.5-.6.09-.11.33.24.76.45.03.02.07.02.1.04.5-.17.97-.36 1.39-.58-.36-.2-.6-.46-.53-.58.08-.14.4.18.89.37.45-.26.85-.55 1.21-.88-.5-.15-.87-.43-.81-.57.07-.16.49.17 1.08.3.43-.45.79-.94 1.06-1.47-.61-.07-1.06.1-1.08-.1-.01-.21.56-.35 1.2-.26h.05c.14-.31.25-.64.33-.98.03-.11.04-.23.06-.34h-.07c-3.5 2.97-8.78 4.07-13.78 1.89l.06.06c.24.25.48.49.74.71.03.03.06.05.09.08.24.21.48.4.73.58l.2.14c.21.15.43.29.65.42.1.06.19.11.29.16.2.11.4.22.6.31l.33.15c.21.09.42.17.63.25.1.04.2.07.3.1.24.08.48.15.72.21.07.02.13.03.2.05.29.07.59.13.88.17h.07c-.24-.19-.39-.41-.32-.49.09-.11.33.24.76.45.1.05.2.08.29.11.27.02.54.02.81.02l.37-.1c.09-.02.16-.06.25-.08z">
                            </path>
                            <path fill="#696969"
                                d="M12.58 22.75c-.35-.21-.58-.51-.5-.6.09-.11.33.24.76.45.03.02.07.02.1.04.5-.17.97-.36 1.39-.58-.36-.2-.6-.46-.53-.58.08-.14.4.18.89.37.45-.26.85-.55 1.21-.88-.5-.15-.87-.43-.81-.57.07-.16.49.17 1.08.3.43-.45.79-.94 1.06-1.47-.61-.07-1.06.1-1.08-.1-.01-.21.56-.35 1.2-.26h.05c.14-.31.25-.64.33-.98.03-.11.04-.23.06-.34h-.07c-3.5 2.97-8.78 4.07-13.78 1.89l.06.06c.24.25.48.49.74.71.03.03.06.05.09.08.24.21.48.4.73.58l.2.14c.21.15.43.29.65.42.1.06.19.11.29.16.2.11.4.22.6.31l.33.15c.21.09.42.17.63.25.1.04.2.07.3.1.24.08.48.15.72.21.07.02.13.03.2.05.29.07.59.13.88.17h.07c-.24-.19-.39-.41-.32-.49.09-.11.33.24.76.45.1.05.2.08.29.11.27.02.54.02.81.02l.37-.1c.09-.02.16-.06.25-.08z">
                            </path>
                            <path fill="#8f8f8f"
                                d="M22.86 10.54c-.15.14-.41.18-.53.1-.15-.1.19-.14.32-.36.11-.2 0-.44.11-.43-.06-.32-.15-.64-.24-.96-.06-.21-.13-.41-.21-.62-.03-.08-.05-.15-.08-.23v-.02c-.02.09-.05.18-.1.27-.1.18-.26.3-.42.38.11 3.07-1.04 5.81-2.97 7.89 0 .21 0 .43-.02.64.45.09.78.26.75.39-.03.14-.36.03-.81-.03-.03.17-.05.35-.09.52-.09.39-.21.75-.34 1.08.26.14.41.3.37.4-.04.1-.24.02-.52-.1-.24.51-.5.96-.79 1.33.02.01.04.02.04.04 0 .08-.1.14-.24.18-.62.72-1.22 1.14-1.51 1.31 1.1-.38 2.15-.93 3.08-1.63.07-.05.13-.1.2-.15 1.56-1.35 2.67-2.9 3.35-4.56.48-1.24.76-2.58.76-3.99 0-.49-.04-.97-.11-1.44z">
                            </path>
                            <path fill="#696969"
                                d="M22.86 10.54c-.15.14-.41.18-.53.1-.15-.1.19-.14.32-.36.11-.2 0-.44.11-.43-.06-.32-.15-.64-.24-.96-.06-.21-.13-.41-.21-.62-.03-.08-.05-.15-.08-.23v-.02c-.02.09-.05.18-.1.27-.1.18-.26.3-.42.38.11 3.07-1.04 5.81-2.97 7.89 0 .21 0 .43-.02.64.45.09.78.26.75.39-.03.14-.36.03-.81-.03-.03.17-.05.35-.09.52-.09.39-.21.75-.34 1.08.26.14.41.3.37.4-.04.1-.24.02-.52-.1-.24.51-.5.96-.79 1.33.02.01.04.02.04.04 0 .08-.1.14-.24.18-.62.72-1.22 1.14-1.51 1.31 1.1-.38 2.15-.93 3.08-1.63.07-.05.13-.1.2-.15 1.56-1.35 2.67-2.9 3.35-4.56.48-1.24.76-2.58.76-3.99 0-.49-.04-.97-.11-1.44z">
                            </path>
                        </g>
                        <defs>
                            <clipPath id="baseball_svg__a">
                                <path fill="#fff" d="M1 1h21.96v21.93H1z"></path>
                            </clipPath>
                        </defs>
                    </svg>