<svg xmlns="http://www.w3.org/2000/svg" fill="none" viewBox="0 0 24 24"
                        class="icon-container size-icon-m muted-icon">
                        <g clip-path="url(#basketball_svg__a)">
                            <path fill="#cca6ff"
                                d="M10.01 19.63c-1.12-1.08-2.26-2.19-3.44-2.89.42 2.28 1.43 4.32 2.84 5.94A11 11 0 0 0 12 23c.79 0 1.55-.09 2.29-.24-.37-.15-.74-.31-1.12-.51-1.01-.53-2.06-1.55-3.16-2.62m-4.66-3.45s-.09 0-.15.04c-.55.32-1.17 1.57-1.66 2.8 1.16 1.4 2.66 2.49 4.37 3.18-1.19-1.7-2.01-3.72-2.31-5.93-.08-.03-.16-.07-.24-.09zm6.31-1.8c-1.87-.43-3.6-1.07-5.17-1.86-.1.69-.15 1.38-.14 2.09 0 .3.03.58.06.87 1.56.73 3.02 2.14 4.33 3.4 1.05 1.02 2.04 1.98 2.92 2.45.79.42 1.59.7 2.36.9 3.17-1.25 5.62-3.92 6.56-7.24-1.11.18-2.29.28-3.55.28-2.26 0-4.74-.29-7.37-.9z">
                            </path>
                            <path fill="#cca6ff"
                                d="M14.14 7.25c-1.95.42-4.14.89-5.96.51a12.55 12.55 0 0 0-1.49 3.7c1.56.82 3.31 1.47 5.2 1.9 4.13.95 7.89 1.08 10.94.5.1-.61.17-1.23.17-1.86 0-1.44-.28-2.81-.79-4.07-1.14-.55-2.62-1.08-4.3-1.21-.99-.07-2.34.22-3.77.53m-8.27 3.73c.32-1.27.81-2.49 1.48-3.6a1.34 1.34 0 0 1-.24-.32C6.55 6 6.93 3.68 7.3 2.07a10.98 10.98 0 0 0-5.41 5.6c1.05 1.26 2.4 2.38 3.98 3.32zm-1.2 4.34c.32-.19.6-.21.81-.17 0-.18-.03-.35-.03-.53-.02-.87.05-1.73.19-2.57-1.62-.92-3.03-2.03-4.16-3.27C1.17 9.8 1 10.88 1 12c0 2.24.67 4.31 1.82 6.05.51-1.18 1.15-2.32 1.86-2.72zm4.8-9.31c-.23.26-.45.53-.66.81 1.51.18 3.33-.21 5.1-.59 1.33-.29 2.6-.56 3.67-.56.14 0 .27 0 .4.01 1.31.1 2.5.42 3.52.81a10.953 10.953 0 0 0-4.24-4.14c-2.96.05-5.73 1.35-7.79 3.66">
                            </path>
                            <path fill="#cca6ff"
                                d="M7.98 6.44c.26-.36.53-.7.83-1.03 1.84-2.06 4.21-3.37 6.79-3.79-1.13-.39-2.33-.61-3.59-.61-1.26 0-2.42.21-3.52.59-.37 1.44-.84 3.9-.5 4.85z">
                            </path>
                            <path fill="#000"
                                d="M13.18 22.25c-.38-.2-.77-.49-1.16-.8a11.86 11.86 0 0 1-3.35.24c.24.34.48.68.75.99.41.1.82.18 1.25.23h.06a10.86 10.86 0 0 0 2.44.02h.01c.38-.04.75-.1 1.12-.18-.37-.15-.74-.31-1.12-.51zm-7.11-1.01c.19.12.37.26.57.37 0 0 .02 0 .02.01.38.21.78.4 1.18.56.02 0 .03.01.05.02-.14-.2-.26-.43-.4-.64-.49-.08-.97-.19-1.43-.32zm14.86-2.83c.73-1.02 1.29-2.17 1.64-3.41-.75.12-1.54.19-2.36.23a12.213 12.213 0 0 1-6.92 5.87c.12.08.25.17.37.23.79.42 1.59.7 2.36.9 1.19-.47 2.27-1.13 3.21-1.96 0 0 .02-.02.03-.02.3-.26.58-.54.84-.83.02-.02.04-.05.07-.07.26-.29.51-.6.74-.92 0-.01.02-.02.02-.03zm1.9-4.54c.05-.3.09-.6.12-.9.03-.32.05-.64.05-.96 0-.32-.02-.67-.05-1 0-.09-.02-.17-.03-.26-.03-.25-.06-.49-.11-.74-.02-.08-.03-.17-.05-.25-.05-.25-.11-.5-.18-.75-.02-.06-.04-.13-.06-.19-.08-.28-.18-.55-.28-.81-.01-.03-.02-.05-.03-.08-.24-.11-.49-.23-.76-.34.11.64.17 1.3.17 1.98 0 1.62-.32 3.16-.9 4.57.73-.06 1.44-.14 2.11-.27m-1.35-7.42c-.15-.26-.33-.5-.51-.75.07.22.14.45.2.68.11.04.22.07.33.11 0-.01-.01-.03-.02-.04"
                                opacity="0.25"></path>
                        </g>
                        <defs>
                            <clipPath id="basketball_svg__a">
                                <path fill="#fff" d="M1 1h22v22H1z"></path>
                            </clipPath>
                        </defs>
                    </svg>