<svg xmlns="http://www.w3.org/2000/svg" fill="none" viewBox="0 0 24 24"
                        class="icon-container size-icon-m muted-icon">
                        <g clip-path="url(#boxing_svg__a)">
                            <path fill="#8f8f8f"
                                d="M10.2 11.25c-.31 0-.6-.04-.89-.1.2.6.44.74.68.96.05.05.63 1.18.63 2.42 0 .08-.04.14-.1.19a.26.26 0 0 1-.17.07c-.14 0-.26-.11-.26-.26 0-1.03-1.01-2.05-1.02-2.06-.37-.34-.69-.99-.92-1.81-.03-.1-.05-.21-.08-.32a3.88 3.88 0 0 1-.07-.33c-.16-.78-.25-1.66-.25-2.59 0-2.07-1.08-2.05-1.69-2.05-.61 0-2.07.43-2.07 2.29v3.09c0 2.64 2.7 6.33 8.67 6.42h.23c3.52 0 5.89-2.02 5.89-5.02v-1.68c-.31.43-1.02.78-1.86.78h-6.73z">
                            </path>
                            <path fill="#8f8f8f"
                                d="M16.52 1H9.65C7.73 1 6.17 2.8 6.17 4.38c2.53 0 2.59 2.1 2.59 3.03 0 1.1.4 2.85 1.59 2.85l6.16.16c.87 0 1.66-.32 2.27-.84.09-.08.18-.15.26-.24.09-.1.18-.2.26-.31.42-.56.68-1.25.68-1.99V4.37c0-1.87-1.56-3.38-3.48-3.38z">
                            </path>
                            <path fill="#696969"
                                d="M12.15 22.63a.5.5 0 0 1-.35-.14.5.5 0 0 1-.14-.35l.1-3.49c0-.29.27-.52.56-.52 3.2 0 4.59-.97 5.33-1.51v-.6s-1.38 1.72-4.86 1.72c-2.97 0-5.07-1.09-5.07-1.09v.32c.55.26 1.5.65 2.58.84.25.05.44.26.43.5l-.09 3.94c0 .14-.13.24-.27.22a6.59 6.59 0 0 1-2.66-1.04v.26s1 1.31 4.96 1.31c3.64 0 4.96-1.27 4.96-1.27v-.44c-.77.51-2.46 1.3-5.5 1.34z">
                            </path>
                            <path fill="#8f8f8f"
                                d="m10.14 21.7.07-3.13c0-.1-.07-.19-.18-.21-.93-.18-1.74-.5-2.3-.75-.13-.06-.26-.11-.35-.16v3c0 .05.02.1.06.14.06.06.16.14.29.25.41.32 1.26.78 2.25.98.08.02.15-.04.15-.12zm2.41-2.98c-.14 0-.27.11-.27.25l-.09 2.89c0 .14.12.25.26.25 3.03-.13 5.09-1.2 5.68-2a.43.43 0 0 0 .08-.27V17.1c0-.1-.11-.16-.19-.11-.61.38-2.23 1.73-5.46 1.73z">
                            </path>
                            <path fill="#696969"
                                d="M19.77 4.36V6.7c0 1.53-1.36 3.39-3.44 3.39-2.21 0-4.1.01-2.8-.15 1.56-.19 3.46-.64 4.31-1.65 1.56-1.87 1.93-3.93 1.93-3.93M6.8 5.8c.45.05.8.54.8 2.36 0 1.82.52 3.3.82 3.86.3.56-1.03-.2-1.17-1.58-.14-1.38.18-3.97-.44-4.28-.34-.17-.45-.41 0-.36zm11.99 6.35v-1.68c-.24.37-1.02.78-1.86.78H10.2c-.31 0-.6-.04-.89-.1.1.3.09.25.21.47 1.3.44 4.41.11 5.77.26 1.36.15 3.51.28 3.51.28zm-6.01 4.38c-3.75-.06-6.31-1.32-7.79-2.89 1.26 1.85 3.76 3.46 7.69 3.53h.23c2.3 0 4.11-.87 5.09-2.3-1.12 1.05-2.86 1.67-4.96 1.67h-.25z">
                            </path>
                            <path fill="#696969"
                                d="M12.8 17.75c-2.97 0-5.07-1.09-5.07-1.09v.32c.55.26 1.5.65 2.58.84.25.05.44.26.43.5l-.02.87c.34.07.67.13 1.02.17l.02-.71c0-.29.27-.52.56-.52 3.2 0 4.59-.97 5.33-1.51v-.6s-1.38 1.72-4.86 1.72z">
                            </path>
                            <path fill="#696969"
                                d="M10.03 18.36c-.06-.01-.11-.03-.16-.04l-.06 2.7c0 .08-.08.14-.15.12-.99-.2-1.84-.66-2.25-.98 0 0-.01 0-.02-.02v.31c0 .05.02.1.06.14.06.06.16.14.29.25.41.32 1.26.78 2.25.98.08.02.15-.04.15-.12l.07-3.13c0-.1-.07-.19-.18-.21m8.17-1.27c0-.1-.1-.16-.19-.11-.04.03-.1.06-.15.1v2.07c0 .1-.02.19-.07.27-.59.79-2.61 1.85-5.59 1.99v.44c-.02.14.1.25.25.25 3.03-.13 5.09-1.2 5.68-2a.43.43 0 0 0 .08-.27v-2.74z">
                            </path>
                        </g>
                        <defs>
                            <clipPath id="boxing_svg__a">
                                <path fill="#fff" d="M4 1h16v22.01H4z"></path>
                            </clipPath>
                        </defs>
                    </svg>