<svg xmlns="http://www.w3.org/2000/svg" fill="none" viewBox="0 0 24 24"
                        class="icon-container size-icon-m muted-icon">
                        <g fill-rule="evenodd" clip-path="url(#cricket_svg__a)" clip-rule="evenodd">
                            <path fill="#cca6ff"
                                d="M3.81 6.71h1.62c.45 0 .81.36.81.81v15.01a.82.82 0 0 1-.81.81H3.81a.82.82 0 0 1-.81-.81V7.51c0-.45.36-.81.81-.81z">
                            </path>
                            <path fill="#997dbf"
                                d="M3.81 6.71c-.18 9.26-.18 14.36 0 15.31.26 1.42 2.06 1.31 1.62 1.31H3.81c-.45 0-.81-.3-.81-.67V7.47c0-.37.36-.76.81-.76">
                            </path>
                            <path fill="#cca6ff"
                                d="M11.11 6.71h1.62c.45 0 .81.36.81.81v15.01a.82.82 0 0 1-.81.81h-1.62a.82.82 0 0 1-.81-.81V7.51c0-.45.36-.81.81-.81zm7.7 0h1.62c.45 0 .81.36.81.81v15.01c0 .21-.08.42-.24.57a.82.82 0 0 1-.57.24h-1.62a.82.82 0 0 1-.81-.81V7.51c0-.45.36-.81.81-.81z">
                            </path>
                            <path fill="#997dbf"
                                d="M11.1 6.71c-.18 9.26-.18 14.36 0 15.31.26 1.42 2.06 1.31 1.62 1.31H11.1c-.45 0-.81-.3-.81-.67V7.38c0-.37.36-.67.81-.67m7.71 0c-.18 9.26-.18 14.36 0 15.31.26 1.42 2.06 1.31 1.62 1.31h-1.62c-.45 0-.81-.3-.81-.44V7.61c0-.61.36-.91.81-.91z">
                            </path>
                            <path fill="#cca6ff"
                                d="M3.1 3.86h-.83s-.07 0-.1-.02a.236.236 0 0 1-.09-.06c-.02-.03-.04-.05-.06-.09a.355.355 0 0 1-.02-.1v-.27c0-.15.12-.27.27-.27h.54l-.03-.09a.72.72 0 0 1 .02-.54c.08-.17.22-.3.4-.37a.72.72 0 0 1 .54.02c.17.08.3.22.37.4l.14.39a.728.728 0 0 1 .5-.83c.17-.05.36-.03.52.05.16.08.28.22.34.39l.08.21c0-.16.07-.32.18-.44a.704.704 0 0 1 .89-.14c.14.08.25.21.31.37l.06.17c.01-.16.08-.31.2-.43.11-.12.26-.19.42-.21.16-.02.32.01.46.1.14.08.24.21.3.36l.16.44a.695.695 0 0 1 .05-.53c.09-.16.23-.29.41-.35.18-.06.37-.04.53.04.17.08.29.23.35.4l.21.58h1.37c.15 0 .27.12.27.27v.27c0 .15-.12.27-.27.27h-1.08c.05.18.03.37-.06.53-.09.16-.23.28-.41.34-.18.06-.37.04-.53-.04a.694.694 0 0 1-.35-.4L9 3.85c.05.18.02.36-.06.52-.09.16-.23.28-.41.34A.7.7 0 0 1 8 4.67a.762.762 0 0 1-.36-.39l-.06-.17a.717.717 0 0 1-.62.64.682.682 0 0 1-.46-.1.709.709 0 0 1-.3-.36l-.08-.21c0 .16-.07.32-.18.44-.11.12-.26.2-.42.23a.65.65 0 0 1-.47-.09.71.71 0 0 1-.31-.37L4.6 3.9a.728.728 0 0 1-.5.83c-.17.05-.36.03-.52-.05a.689.689 0 0 1-.34-.39l-.16-.43z">
                            </path>
                            <path fill="#997dbf"
                                d="M10.11 4.71c-.44.16-.89-.01-1.05-.7-.09-.25-.37-1.02-.38-1.07.36.58.7 1.18 1.02 1.32.32.15.56.15.78.08-.07.17-.21.3-.37.37m-1.51 0c-.44.16-.89-.01-1.05-.7-.09-.25-.37-1.02-.38-1.07.36.58.7 1.18 1.02 1.32.32.15.56.15.78.08-.07.17-.21.3-.37.37m-1.43 0c-.44.16-.89-.01-1.05-.7-.09-.25-.37-1.02-.38-1.07.36.58.7 1.18 1.02 1.32.32.15.56.15.78.08-.07.17-.21.3-.37.37m-1.46 0c-.44.16-.89-.01-1.05-.7-.09-.25-.37-1.02-.38-1.07.36.58.7 1.18 1.02 1.32.32.15.56.15.78.08-.07.17-.21.3-.37.37m-1.5 0c-.44.16-.89-.01-1.05-.7-.09-.25-.37-1.02-.38-1.07.36.58.7 1.18 1.02 1.32.32.15.56.15.78.08-.07.17-.21.3-.37.37">
                            </path>
                            <path fill="#cca6ff"
                                d="M13.61 3.86h-1.2a.273.273 0 0 1-.27-.27v-.27c0-.15.12-.27.27-.27h.91l-.03-.09a.635.635 0 0 1-.04-.27c0-.09.03-.18.07-.27.04-.08.09-.16.16-.22s.15-.11.24-.14a.72.72 0 0 1 .54.02c.08.04.16.09.22.16s.11.15.14.24l.14.39a.728.728 0 0 1 .5-.83c.17-.05.36-.03.52.05.16.08.28.22.34.39l.08.21c0-.16.07-.32.18-.44a.704.704 0 0 1 .89-.14c.14.08.25.21.31.37l.06.17c.01-.16.08-.31.2-.43.11-.12.26-.19.42-.21.16-.02.32.01.46.1.14.08.24.21.3.36l.16.44a.695.695 0 0 1 .05-.53c.09-.16.23-.29.41-.35.18-.06.37-.04.53.04.17.08.29.23.35.4l.21.58h1.01c.15 0 .27.12.27.27v.27c0 .15-.12.27-.27.27h-.71c.06.18.04.37-.05.54a.74.74 0 0 1-.41.35c-.18.06-.37.04-.54-.04a.708.708 0 0 1-.35-.41l-.16-.43c.05.18.02.36-.06.52-.09.16-.23.28-.41.34a.7.7 0 0 1-.53-.04.762.762 0 0 1-.36-.39l-.06-.17a.717.717 0 0 1-.62.64.682.682 0 0 1-.46-.1.709.709 0 0 1-.3-.36l-.08-.21c0 .16-.07.32-.18.44-.11.12-.26.2-.42.23a.65.65 0 0 1-.47-.09.71.71 0 0 1-.31-.37l-.14-.39a.728.728 0 0 1-.5.83c-.17.05-.36.03-.52-.05a.689.689 0 0 1-.34-.39l-.16-.43z">
                            </path>
                            <path fill="#997dbf"
                                d="M20.61 4.71c-.44.16-.89-.01-1.05-.7-.09-.25-.37-1.02-.38-1.07.36.58.7 1.18 1.02 1.32.32.15.56.15.78.08-.07.17-.21.3-.37.37m-1.51 0c-.44.16-.89-.01-1.05-.7-.09-.25-.37-1.02-.38-1.07.36.58.7 1.18 1.02 1.32.32.15.56.15.78.08-.07.17-.21.3-.37.37m-1.43 0c-.44.16-.89-.01-1.05-.7-.09-.25-.37-1.02-.38-1.07.36.58.7 1.18 1.02 1.32.32.15.56.15.78.08-.07.17-.21.3-.37.37m-1.46 0c-.44.16-.89-.01-1.05-.7-.09-.25-.37-1.02-.38-1.07.36.58.7 1.18 1.02 1.32.32.15.56.15.78.08-.07.17-.21.3-.37.37m-1.5 0c-.44.16-.89-.01-1.05-.7-.09-.25-.37-1.02-.38-1.07.36.58.7 1.18 1.02 1.32.32.15.56.15.78.08-.07.17-.21.3-.37.37">
                            </path>
                        </g>
                        <defs>
                            <clipPath id="cricket_svg__a">
                                <path fill="#fff" d="M2 2h20v21.33H2z"></path>
                            </clipPath>
                        </defs>
                    </svg>