<svg xmlns="http://www.w3.org/2000/svg" fill="none" viewBox="0 0 24 24"
                        class="icon-container size-icon-m muted-icon">
                        <g clip-path="url(#darts_svg__a)">
                            <path fill="#696969"
                                d="M12 23.01c-6.07 0-11-4.93-11-11s4.93-11 11-11 11 4.93 11 11-4.93 11-11 11m0-20c-4.96 0-9 4.04-9 9s4.04 9 9 9 9-4.04 9-9-4.04-9-9-9">
                            </path>
                            <path fill="#8f8f8f"
                                d="M12 19.01c-3.86 0-7-3.14-7-7s3.14-7 7-7 7 3.14 7 7-3.14 7-7 7m0-12c-2.76 0-5 2.24-5 5s2.24 5 5 5 5-2.24 5-5-2.24-5-5-5">
                            </path>
                            <path fill="#696969" d="M12 15.01a3 3 0 1 0 0-6 3 3 0 0 0 0 6"></path>
                            <path fill="#000"
                                d="M11.99 12.19s-.1-.02-.13-.05c-.07-.07-.07-.19 0-.27l4.26-4.26c.07-.07.19-.07.27 0 .08.07.07.19 0 .27l-4.26 4.26s-.08.05-.13.05z">
                            </path>
                            <path fill="#8f8f8f"
                                d="m19.78 4.75-6.1 6.1s-.25.01-.4-.13c-.15-.14-.15-.38-.13-.4l6.1-6.1c.28-.28.52-.28.66-.13.14.15.15.38-.13.66">
                            </path>
                            <path fill="#000"
                                d="m19.6 4.58-6.1 6.1s-.15 0-.29-.06c.02.04.04.07.07.11.15.15.38.15.4.13l6.1-6.1c.28-.28.28-.52.13-.66a.413.413 0 0 0-.11-.07c.07.14.04.31-.2.56z">
                            </path>
                            <path fill="#8f8f8f"
                                d="m17 8.07-1.87 1.87c-.29.29-.77.29-1.06 0a.754.754 0 0 1 0-1.06l1.87-1.87c.29-.29.77-.29 1.06 0 .29.29.29.77 0 1.06">
                            </path>
                            <path fill="#000"
                                d="M16.67 7.74 14.8 9.61c-.23.23-.58.27-.86.13.04.07.07.14.13.2.29.29.77.29 1.06 0L17 8.07c.29-.29.29-.77 0-1.06a.625.625 0 0 0-.2-.13c.14.28.1.63-.13.86">
                            </path>
                            <path fill="#8f8f8f" fill-rule="evenodd"
                                d="m20.25 1.18-.98.98c-.16.16-.22.39-.16.6l.45 1.68 1.68.45c.21.06.44 0 .6-.16l.98-.98c.16-.16.22-.39.16-.6l-.45-1.68-1.68-.45c-.21-.06-.44 0-.6.16"
                                clip-rule="evenodd"></path>
                            <path fill="#000" fill-rule="evenodd"
                                d="m20.82 1.56-1.18 1.18c-.1.1-.15.23-.14.37l.06 1.34 2.97-2.97-1.34-.06c-.14 0-.27.05-.37.14"
                                clip-rule="evenodd"></path>
                            <path fill="#000" fill-rule="evenodd"
                                d="m21.84 4.73.98-.98c.16-.16.22-.39.16-.6l-.45-1.68-2.97 2.97 1.68.45c.21.06.44 0 .6-.16"
                                clip-rule="evenodd"></path>
                            <path fill="#8f8f8f" fill-rule="evenodd"
                                d="m21.27 4.36 1.18-1.18c.1-.1.15-.23.14-.37l-.06-1.34-2.97 2.97 1.34.06c.14 0 .27-.05.37-.14"
                                clip-rule="evenodd"></path>
                        </g>
                        <defs>
                            <clipPath id="darts_svg__a">
                                <path fill="#fff" d="M1 1h22v22.01H1z"></path>
                            </clipPath>
                        </defs>
                    </svg>