<svg xmlns="http://www.w3.org/2000/svg" fill="none" viewBox="0 0 24 24"
                        class="icon-container size-icon-m muted-icon">
                        <path fill="#8f8f8f" fill-rule="evenodd"
                            d="M10.287 13.65c1.135.218 2.25.19 3.352 0v.745c-1.117.322-2.235.334-3.352 0z"
                            clip-rule="evenodd"></path>
                        <path fill="#000" fill-rule="evenodd"
                            d="M12.296 13.796c.45-.02.9-.068 1.344-.146v.745c-.421.123-.854.2-1.291.232.27-.204.241-.675-.053-.832Z"
                            clip-rule="evenodd" opacity="0.25"></path>
                        <path fill="#8f8f8f" fill-rule="evenodd"
                            d="M10.44 14.87a6.555 6.555 0 0 0 3.052.002c-1.04 2.051-1.05 4.7-.975 7.955l-.495.013c-.603.013-.904.008-.902-.013l.01-.168c.084-1.46.15-5.683-.689-7.786z"
                            clip-rule="evenodd"></path>
                        <path fill="#000" fill-rule="evenodd"
                            d="M13.492 14.872c-1.04 2.051-1.05 4.7-.975 7.955l-.144.016c-.266.026-.399.027-.4.004l-.008-.158c-.058-1.434-.128-6.677.528-7.661a6.91 6.91 0 0 0 .97-.15z"
                            clip-rule="evenodd" opacity="0.25"></path>
                        <path fill="#8f8f8f"
                            d="M11.885 13.365a6.257 6.257 0 1 0 0-12.514 6.257 6.257 0 0 0 0 12.514"></path>
                        <path fill="#000"
                            d="M11.885 13.364A6.256 6.256 0 0 0 15.89 2.301c.448 1.539.448 4.064-.295 6.292-.742 2.227-2.738 4.223-3.71 4.771"
                            opacity="0.25"></path>
                        <path fill="#8f8f8f" fill-rule="evenodd"
                            d="M11.438 21.161c.095-.21.226-.34.37-.34.136 0 .258.114.352.304.105-.488.244-1.046.393-1.643.308-1.238 1.032-2.261 2.168-3.07-.694.907-1.195 1.979-1.504 3.218-.075.299-.141.592-.201.871.12-.22.248-.45.38-.687.618-1.117 1.58-1.917 2.887-2.404-.904.696-1.666 1.602-2.285 2.719-.14.254-.276.51-.409.768.43-.2.99-.264 1.683-.188a3.05 3.05 0 0 0-1.74 1.067c-.665.821-1.023 1.662-1.376 1.361a.319.319 0 0 1-.08-.1c-.08.104-.17.163-.268.163-.104 0-.2-.067-.28-.183a.175.175 0 0 1-.009.012.315.315 0 0 1-.085.108c-.353.301-.71-.54-1.376-1.361a3.041 3.041 0 0 0-1.74-1.067c.692-.076 1.253-.012 1.683.188a31.192 31.192 0 0 0-.41-.768c-.618-1.117-1.38-2.023-2.284-2.719 1.307.487 2.269 1.288 2.888 2.404l.38.687c-.063-.291-.13-.582-.202-.872-.31-1.238-.81-2.31-1.503-3.216 1.136.808 1.859 1.83 2.168 3.07.152.611.294 1.182.4 1.678"
                            clip-rule="evenodd"></path>
                    </svg>