<svg xmlns="http://www.w3.org/2000/svg" fill="none" viewBox="0 0 24 24"
                        class="icon-container size-icon-m muted-icon">
                        <g clip-path="url(#greyhounds_svg__a)">
                            <path fill="#8f8f8f" fill-rule="evenodd"
                                d="M11.47 5.21c0 2.27-1.17 4.21-2.86 4.21S5.75 7.47 5.75 5.21 6.92 1 8.61 1s2.86 1.95 2.86 4.21M6.72 12c0 2.27-1.17 4.21-2.86 4.21S1 14.26 1 12s1.17-4.21 2.86-4.21S6.72 9.74 6.72 12m13.41 3.53c1.69 0 2.86-1.95 2.86-4.21s-1.17-4.21-2.86-4.21-2.86 1.95-2.86 4.21 1.17 4.21 2.86 4.21M18.24 5.21c0 2.27-1.17 4.21-2.86 4.21s-2.86-1.95-2.86-4.21S13.69 1 15.38 1s2.86 1.95 2.86 4.21m-2.03 9.01v-.15c-.13-2.28-1.98-4.03-4.22-4.03a4.23 4.23 0 0 0-4.22 3.98v.18c0 .19-.07.35-.2.45-1.1.78-1.78 2.05-1.83 3.43 0 2.76 2.86 4.92 6.25 4.92s6.25-2.14 6.25-4.9a4.39 4.39 0 0 0-1.64-3.31l-.2-.16a.53.53 0 0 1-.2-.42z"
                                clip-rule="evenodd"></path>
                            <path fill="#696969"
                                d="M11.77 21.59c-2.82 0-5.27-1.5-6.01-3.6 0 .03-.01.06-.01.09C5.75 20.84 8.61 23 12 23s6.25-2.14 6.25-4.9c-.01-.43-.11-.84-.23-1.23-.12 2.67-2.91 4.72-6.23 4.72zM8.39 8.02c-1.24 0-2.19-1.05-2.62-2.5.1 2.14 1.22 3.91 2.84 3.91 1.62 0 2.86-1.95 2.86-4.21 0-.6-.09-1.18-.24-1.71 0 .1.02.2.02.3 0 2.27-1.17 4.21-2.86 4.21m14.36 1.59c0 .1.02.2.02.3 0 2.27-1.17 4.21-2.86 4.21-1.24 0-2.19-1.05-2.62-2.5.1 2.14 1.23 3.91 2.84 3.91 1.61 0 2.86-1.95 2.86-4.21 0-.6-.09-1.18-.24-1.71m-16.27.68c0 .1.02.2.02.3 0 2.27-1.17 4.21-2.86 4.21-1.24 0-2.2-1.05-2.62-2.5.1 2.14 1.22 3.91 2.84 3.91 1.62 0 2.86-1.95 2.86-4.21 0-.6-.09-1.18-.24-1.71m8.68-2.27c-1.24 0-2.19-1.05-2.62-2.5.1 2.14 1.23 3.91 2.84 3.91 1.61 0 2.86-1.95 2.86-4.21 0-.6-.09-1.18-.24-1.71 0 .1.02.2.02.3 0 2.27-1.17 4.21-2.86 4.21">
                            </path>
                        </g>
                        <defs>
                            <clipPath id="greyhounds_svg__a">
                                <path fill="#fff" d="M1 1h21.99v22H1z"></path>
                            </clipPath>
                        </defs>
                    </svg>