<svg xmlns="http://www.w3.org/2000/svg" fill="none" viewBox="0 0 24 24"
                        class="icon-container size-icon-m muted-icon">
                        <g clip-path="url(#handball_svg__a)">
                            <path fill="#8f8f8f"
                                d="m5.58 15.19 1.66 1.96c.13.16.32.14.37.12.08-.02.21-.07.26-.24.08-.26.09-.57.03-.92l-.26-2.81-.02-3.83c0-.44.17-.84.48-1.15.31-.3.69-.48 1.15-.47.43 0 .84.17 1.14.48.3.31.47.72.47 1.15v3.93c.08 1.01.22 2.24.32 2.74.08-.67.14-2.17.16-3.45l.11-4.12c0-.98.8-1.8 1.8-1.8h.01c.99 0 1.8.8 1.81 1.79l-.13 4.47c0 .28-.05 2.83-.11 3.36.07-.16.56-1.65.84-2.53l.51-3.75c.13-.86.94-1.47 1.79-1.33.86.13 1.46.93 1.33 1.79l-.53 3.83c-.17.6-.39 1.33-.56 1.94.25-.38.53-.81.8-1.23l.79-1.75c.21-.66.98-1.06 1.7-.83.05.01.08.05.12.07.1-.57.16-1.15.16-1.74 0-5.44-4.43-9.87-9.89-9.87C6.43 1 2 5.43 2 10.89c0 1.53.36 2.96.97 4.25.03-.03.05-.06.08-.09.73-.62 1.87-.56 2.53.13z">
                            </path>
                            <path fill="#696969"
                                d="M21.33 13.09a.83.83 0 0 0-1.04.53l-.82 1.82s-1.33 2.07-1.53 2.29c-.2.22-.65-.04-.59-.32.08-.31.89-3.05.89-3.05l.53-3.84c.08-.56-.31-1.09-.87-1.17-.56-.08-1.09.31-1.17.87l-.53 3.84s-.74 2.31-.88 2.64c-.24.56-1.11.39-1.02-.34.06-.52.11-3.32.11-3.32l.13-4.45c0-.7-.57-1.26-1.27-1.25-.7.01-1.26.57-1.25 1.27l-.11 4.12s-.07 3.8-.28 4c-.21.2-.61.18-.84-.1-.23-.28-.44-3.19-.44-3.19V9.51c0-.59-.48-1.08-1.08-1.08-.59 0-1.08.47-1.08 1.07l.02 3.78.26 2.77c.08.47.05.85-.04 1.16-.2.69-1.11.86-1.57.31l-1.64-1.94c-.47-.49-1.26-.53-1.78-.09-.52.44-.56 1.19-.09 1.67l1.58 2.19 1.1 1.36c.23.29 1.9 2.3 3.4 2.3h4.5c1.2 0 2.24-.52 3.15-1.65l2.21-2.71 1.72-2.54.89-1.98a.83.83 0 0 0-.53-1.04z">
                            </path>
                            <path fill="#8f8f8f" fill-rule="evenodd"
                                d="M8.42 11.86c0-.95-.07-1.6-.07-2.16 0-1.05.91-1.08.91-1.08s-.53.58-.56 1c-.04.64-.29 2.24-.29 2.24zm3.91-1V8.7c0-1.05.91-1.08.91-1.08s-.53.58-.56 1c-.04.64-.35 2.24-.35 2.24m4.25 1.8c.12-.94.21-1.59.28-2.14.14-1.04 1.05-.95 1.05-.95s-.61.51-.69.91c-.12.63-.65 2.17-.65 2.17zm3.28 2.43c.31-.74.35-.84.53-1.27.34-.82.99-.5.99-.5s-.53.24-.68.55c-.24.48-.84 1.22-.84 1.22M6.12 17.13c-.57-.76-.65-.86-.99-1.3-.64-.84-1.28-.28-1.28-.28s.68.12.95.43c.42.49 1.32 1.15 1.32 1.15"
                                clip-rule="evenodd"></path>
                        </g>
                        <defs>
                            <clipPath id="handball_svg__a">
                                <path fill="#fff" d="M2 1h19.9v22H2z"></path>
                            </clipPath>
                        </defs>
                    </svg>