<svg xmlns="http://www.w3.org/2000/svg" fill="none" viewBox="0 0 24 24"
                        class="icon-container size-icon-m muted-icon">
                        <g clip-path="url(#ice-hockey_svg__a)">
                            <path fill="#cca6ff"
                                d="m17.17 8.56-1.55 4.82 2.5 2.47 1.55-4.82zM6.41 18.66c-.4.69-.4 1.54 0 2.23s1.14 1.12 1.94 1.12h4.43l-4.51-4.45c-.76.03-1.47.44-1.85 1.1zM21.93 4.07c.13-.4.09-.84-.1-1.21l-.08-.14c-.14-.21-.34-.41-.59-.53l-.2-.1c-.42-.14-.86-.1-1.23.09s-.66.52-.79.92l-1.25 3.88 2.5 2.47 1.74-5.37zM14.5 16.85c-.14.42-.53.69-.97.69h-3.14l4.41 4.35c.92-.25 1.67-.94 1.98-1.88l.83-2.56-2.5-2.47-.6 1.87z">
                            </path>
                            <path fill="#997dbf"
                                d="m18.12 15.85 1.55-4.82-.99-.98-1.56 4.81zM6.31 20.66c.03.07.05.15.09.23.4.69 1.14 1.12 1.94 1.12h4.43l-1.33-1.31H6.73c-.14 0-.28 0-.41-.03zm15.52-17.8-.08-.14c-.13-.2-.32-.37-.54-.5l-2.02 6.23 1 .98 1.74-5.37c.13-.4.09-.84-.1-1.21zm-8.4 17.68 1.37 1.35c.92-.25 1.67-.94 1.98-1.88l.83-2.56-1-.98-.5 1.54a3.862 3.862 0 0 1-2.68 2.54z">
                            </path>
                            <path fill="#cca6ff"
                                d="M7.75 13.5c-.41 0-.75-.34-.75-.75v-10c0-.41.34-.75.75-.75s.75.34.75.75v10c0 .41-.34.75-.75.75">
                            </path>
                            <path fill="#cca6ff"
                                d="M7.75 5.84c-.15 0-.29-.04-.42-.13l-2-1.34a.755.755 0 0 1-.21-1.04c.23-.34.7-.44 1.04-.21l1.58 1.06 1.58-1.06c.34-.23.81-.14 1.04.21.23.34.14.81-.21 1.04l-2 1.34c-.13.08-.27.13-.42.13zm2 6.66a.74.74 0 0 1-.42-.13l-1.58-1.06-1.58 1.06c-.34.23-.81.14-1.04-.21a.746.746 0 0 1 .21-1.04l2-1.34a.74.74 0 0 1 .83 0l2 1.34c.34.23.44.7.21 1.04a.74.74 0 0 1-.62.33zm3-4h-10c-.41 0-.75-.34-.75-.75S2.34 7 2.75 7h10c.41 0 .75.34.75.75s-.34.75-.75.75">
                            </path>
                            <path fill="#cca6ff"
                                d="M11.75 10.5c-.24 0-.48-.12-.62-.33l-1.34-2a.74.74 0 0 1 0-.83l1.34-2c.23-.34.7-.44 1.04-.21.34.23.44.7.21 1.04l-1.06 1.58 1.06 1.58c.23.34.14.81-.21 1.04-.13.09-.27.13-.42.13m-8 0a.755.755 0 0 1-.63-1.17l1.06-1.58-1.06-1.58a.746.746 0 0 1 .21-1.04c.34-.23.81-.14 1.04.21l1.34 2c.17.25.17.58 0 .83l-1.34 2a.74.74 0 0 1-.62.33">
                            </path>
                            <path fill="#997dbf"
                                d="M5.11 4.14c.05.09.13.17.22.23L7 5.49V5.4zM2.48 8.23c-.14 0-.28-.05-.39-.11.13.22.38.38.66.38h.93l.18-.27zm2.74 0L4.1 9.9a.74.74 0 0 1-.62.33c-.13 0-.26-.04-.38-.11.06.09.13.18.22.25a.751.751 0 0 0 1.04-.2L5.48 8.5h1.51v-.27H5.21zM5.49 7 4.37 5.33a.804.804 0 0 0-.23-.22L5.4 7zm2.74-3.14.27-.18v-.93c0-.28-.16-.51-.38-.64.07.11.11.23.11.37zm3.88 2.04L11.37 7h.44l.56-.83c.23-.34.14-.81-.21-1.04-.01 0-.03 0-.04-.02.14.24.15.55-.02.79zM9.9 4.11 8.23 5.23v1.78h.27V5.5l1.67-1.12c.34-.23.44-.7.21-1.04a.655.655 0 0 0-.25-.22c.2.34.11.78-.22 1zM8.23 8.23v1.6l.27.18V8.5h1.51l-.18-.27zm1.88 3.67a.74.74 0 0 1-.62.33.74.74 0 0 1-.42-.13l-.83-.56v.93c0 .41-.34.75-.75.75-.14 0-.26-.05-.37-.11.13.22.36.38.64.38.41 0 .75-.34.75-.75v-.93l.83.56a.751.751 0 0 0 1.04-.2c.23-.34.14-.81-.21-1.04l-.05-.03c.15.24.15.56-.01.81zm3.01-4.79c.07.11.11.23.11.37 0 .41-.34.75-.75.75h-.93l.56.83c.23.34.14.81-.21 1.04-.13.09-.27.13-.42.13-.15 0-.28-.05-.4-.14l.05.07c.15.22.38.33.62.33a.755.755 0 0 0 .63-1.17l-.56-.83h.93c.41 0 .75-.34.75-.75 0-.28-.16-.51-.38-.64zm-7.22 5a.75.75 0 0 1-.79.02c0 .01 0 .03.02.04.23.34.7.43 1.04.21l.83-.56v-.44l-1.1.74z">
                            </path>
                        </g>
                        <defs>
                            <clipPath id="ice-hockey_svg__a">
                                <path fill="#fff" d="M2 2h20v20H2z"></path>
                            </clipPath>
                        </defs>
                    </svg>