<svg xmlns="http://www.w3.org/2000/svg" shape-rendering="geometricPrecision" text-rendering="geometricPrecision" image-rendering="optimizeQuality" fill-rule="evenodd" clip-rule="evenodd" viewBox="0 0 511 511.52"><path d="M351.5 66.2c-1.43 9.24-3.58 17.7-6.53 26.08-2.92 8.29-6.59 16.36-11.11 24.93-7.7 14.59-18.37 24.36-29.13 34.18-4.12 3.78-8.28 7.57-12 11.42-7.73 7.98-11.25 16.54-10.83 25 .44 8.94 5.21 18.26 13.98 27.18 8.93 9.08 18.36 14.08 27.47 14.64 8.56.51 17.25-2.99 25.35-10.84 3.85-3.72 7.64-7.87 11.42-12 9.82-10.75 19.59-21.43 34.19-29.13 8.57-4.52 16.64-8.19 24.92-11.11 8.38-2.95 16.85-5.1 26.09-6.54 15.07-2.34 26.3-7.94 34.04-15.62 5.88-5.83 9.83-12.97 11.99-20.83 2.21-8.07 2.53-16.96 1.11-26.09-2.78-17.84-12.17-36.36-27.14-51.45-15.13-15.25-33.6-24.73-51.37-27.5-8.98-1.39-17.73-1.07-25.67 1.1-7.78 2.13-14.84 6.01-20.66 11.78-7.92 7.85-13.71 19.34-16.12 34.8zm-44.45 92.04 19.74 19.74 12.22-12.23-19.32-19.32a151.156 151.156 0 0 0 6.86-7.24l19.51 19.51 12.64-12.64-21.42-21.42c.85-1.4 1.66-2.85 2.45-4.34.85-1.61 1.68-3.22 2.48-4.83l23.54 23.54 11.42-11.41-27.11-27.12-1.83 1.82c1.09-2.62 2.08-5.22 2.99-7.81l.01-.03c1.56-4.43 2.89-8.82 4.01-13.26l7.23-7.23-4.75-4.75c.11-.66.22-1.33.33-2.01.53-3.42 1.25-6.63 2.13-9.63l9.34 9.34 12.42-12.42-13.7-13.7c1.27-1.71 2.62-3.28 4.06-4.7.9-.9 1.84-1.74 2.81-2.53l13.88 13.88 12.41-12.41-9.5-9.5c2.89-.66 5.9-1.05 9-1.18 1.28-.06 2.58-.07 3.89-.03l3.66 3.66 3.12-3.12c.46.06.91.12 1.37.2 3.37.52 6.77 1.31 10.17 2.36l-7.61 7.61 27.11 27.11 14.67-14.67c1.13 1.04 2.25 2.11 3.34 3.22 1.26 1.27 2.48 2.57 3.66 3.89L449.66 69.2l26.04 26.04 7.65-7.64a73.83 73.83 0 0 1 2.57 10.88l.08.56-3.25 3.25 3.91 3.91c.05 1.53.04 3.05-.02 4.56-.12 2.91-.47 5.74-1.05 8.47l-9.89-9.89-12.41 12.42 14.48 14.48c-.95 1.2-1.97 2.35-3.09 3.45a39.55 39.55 0 0 1-4.05 3.51l-14.39-14.4-12.42 12.42 10.12 10.12c-2.99.88-6.2 1.6-9.63 2.13-.68.11-1.35.21-2.01.32l-5.53-5.52-8.55 8.56c-3.78 1.01-7.49 2.16-11.19 3.46-3.48 1.23-6.96 2.6-10.5 4.13l3.73-3.74-26.04-26.04-11.42 11.42 23.25 23.25c-1.61.8-3.22 1.63-4.83 2.48-1.49.79-2.94 1.6-4.34 2.45l-21.13-21.13-12.64 12.64 19.22 19.22-1.35 1.2c-2.04 1.86-3.99 3.74-5.89 5.66l-19.03-19.03-12.22 12.23 19.44 19.44c-2.25 2.44-4.51 4.88-6.85 7.25l-19.64-19.64-22.09 22.08a65.034 65.034 0 0 1-4.1-3.82 61.96 61.96 0 0 1-2.95-3.22l22.09-22.09-19.94-19.94c2.37-2.34 4.81-4.6 7.25-6.85zM396.03 54.5l27.12 27.12 12.41-12.42-27.11-27.11-12.42 12.41zm34.17 34.17 26.04 26.04 12.41-12.42-26.04-26.04-12.41 12.42zm18.99 33.09-26.04-26.04-12.42 12.41 26.04 26.04 12.42-12.41zM416.1 88.67l-27.11-27.12-12.42 12.42 27.11 27.11 12.42-12.41zm-58.99 4.76 27.11 27.12 12.41-12.42-27.11-27.11-12.41 12.41zm34.16 34.17 26.04 26.04 12.41-12.42-26.04-26.04-12.41 12.42zM254.91 279.93 23.68 511.16c-.48.48-1.27.48-1.76 0L.36 489.6c-.48-.49-.48-1.27 0-1.76l231.23-231.22-.19-.2c-1.48-13.31 14.25-20.09 20.1-36.58 4.54-12.8 4.9-21.4 12.86-37.03.89-11.33 6.04-22.31 15.69-32.28 4.26-4.41 8.51-8.29 12.74-12.16 9.61-8.79 19.17-17.52 25.46-29.44 4.16-7.88 7.49-15.19 10.08-22.52 2.54-7.24 4.42-14.67 5.7-22.9 3.02-19.43 10.64-34.21 21.16-44.64 8.08-8.02 17.79-13.39 28.39-16.29C394-.26 405.27-.73 416.64 1.05c21.35 3.32 43.36 14.53 61.21 32.54 17.65 17.8 28.76 39.83 32.09 61.19 1.79 11.52 1.33 22.93-1.55 33.48-2.94 10.74-8.41 20.55-16.6 28.66-10.31 10.23-24.8 17.61-43.78 20.57-8.23 1.28-15.66 3.15-22.9 5.7-7.33 2.59-14.64 5.92-22.53 10.08-11.92 6.29-20.65 15.85-29.44 25.46-3.87 4.23-7.75 8.48-12.15 12.74-10 9.69-21.01 14.83-32.34 15.73-15.59 7.93-24.18 8.29-36.96 12.82-16.49 5.85-23.28 21.58-36.59 20.1l-.19-.19z"/></svg>