<svg xmlns="http://www.w3.org/2000/svg" fill="none" viewBox="0 0 24 24"
                        class="icon-container size-icon-m muted-icon">
                        <path fill="#8f8f8f" fill-rule="evenodd"
                            d="M6.538 12.062c.928 0 1.379-1.372 1.379-2.205s-.451-.813-1.38-.813c-.927 0-1.54 1.045-1.54 1.88 0 .833.613 1.138 1.54 1.138Zm1.918-7.836c.738 0 1.097-1.288 1.097-2.312 0-1.022-.75-.81-1.536-.701-.786.108-.786.946-.786 1.82 0 .872.487 1.193 1.225 1.193m3.255-.118c.738 0 1.096-1.288 1.096-2.311s-.75-.81-1.536-.702c-.785.108-.785.946-.785 1.82 0 .873.488 1.193 1.225 1.193m3.017.202c.738 0 1.096-1.288 1.096-2.31 0-1.023-.75-.81-1.535-.703-.786.108-.786.946-.786 1.82 0 .873.488 1.193 1.225 1.193m3.083.723c.737 0 1.096-1.288 1.096-2.312 0-1.022-.75-.81-1.537-.701-.784.108-.784.945-.784 1.819s.486 1.194 1.224 1.194Z"
                            clip-rule="evenodd"></path>
                        <path fill="#696969" fill-rule="evenodd"
                            d="M10.328 1.745c.405.06 1.42-.43 2.603 0 .27.098-.128 3.196.296 3.4.19.092-.093-3.439.246-3.4l.018.002c.314.028 1.864.021 2.496.363.058.032.03.656-.002 1.332l-.024.516c-.026.607-.038 1.14.026 1.187.187.138.244-2.752.658-2.755.268-.003 1.632-.41 2.408.58.168.213.165.884-.008 2.015l.023.35c.24 3.71.264 5.29-.014 8.12-.1 1.005-1.067 2.296-.947 3.719-.092.646-.579.93-1.462.854l-.22.004c-.77.013-1.584.018-2.45.018h-.389a565.74 565.74 0 0 1-3.907-.022c-1.175.063-1.963-.754-2.365-2.452l.003.002c1.047.401 2.078.548 3.094.441-2.453-.029-3.198-.856-3.31-.901-.167-.239-.344-.47-.53-.694l-.059-.071-.25-.302c-.626-.761-1.233-1.557-1.517-2.899l.066-.066c.744-.742 1.313-1.198 1.706-1.368.048-.02.261.305.5.685l.267.423c.242.384.46.713.51.692-.912-1.542-.904-4.168-.528-5.25.05-.18-.046-1.054-.135-1.955l-.025-.27c-.092-.967-.156-1.886-.004-1.933l.057-.017c.456-.146 1.467-.535 2.52-.348.151.027.195.803.26 1.589l.007.094.013.146c.064.701.155 1.35.368 1.41.145.042-.204-3.27.001-3.24Z"
                            clip-rule="evenodd"></path>
                        <path fill="#8f8f8f" fill-rule="evenodd"
                            d="M18.733 5.74c.104-1.314.09-2.05-.043-2.21-.616-.738-1.854-.444-1.916-.408-.54.312-.148 2.475-.74 2.475-.776-.036-.293-2.91-.392-2.96-.51-.261-1.708-.25-1.92-.272-.268-.03.402 3.232-.472 3.232-.928 0-.336-3.164-.55-3.238-.937-.32-1.74.046-2.06 0-.164-.022.285 3.053-.205 3.053-.93 0-.757-3.008-.997-3.048-.87-.145-1.704.177-2.04.273-.245.07.254 3.107.232 3.599-.298.808-.043 4.04.695 5.32.449 1.577 10.039 2.073 10.264.409.228-2.18.35-3.267.144-6.225M6.513 9.693l.628-.144c.14.72.325 1.416.691 2.012-.983.515-1.68-.179-2.32-1.122.292-.285.582-.572 1-.746Z"
                            clip-rule="evenodd"></path>
                        <path fill="#000" fill-rule="evenodd"
                            d="m6.513 9.693.633-.139c.14.72.32 1.411.686 2.007-.4-.056-1.162-1.336-1.32-1.868Z"
                            clip-rule="evenodd" opacity="0.563"></path>
                        <path fill="#8f8f8f" fill-rule="evenodd"
                            d="M9.458 19.033c3.168.139 5.904.163 9.112-.21l.107 3.566c-3.227.505-6.534.638-9.971.146-1.912-.432-1.773-3.5.752-3.502"
                            clip-rule="evenodd"></path>
                        <path fill="#696969"
                            d="M18.568 18.825c-3.06.355-5.698.349-8.686.226l-.105-.005-.319-.013c-2.525.001-2.664 3.07-.752 3.502 3.368.482 6.612.365 9.777-.117l.194-.03c.147-.04.25.13.051.153-3.456.541-6.723.615-9.97.161l-.112-.016-.042-.01c-.998-.24-1.54-1.126-1.413-2.068.134-.99.959-1.716 2.228-1.731h.047l.118.005c3.544.152 5.973.118 8.696-.184.1-.014.2-.026.3-.035.12-.021.263.118-.012.162">
                        </path>
                    </svg>