<svg xmlns="http://www.w3.org/2000/svg" fill="none" viewBox="0 0 24 24"
                        class="icon-container size-icon-m muted-icon">
                        <g clip-path="url(#politics_svg__a)">
                            <path fill="#8f8f8f" d="M11.98 8a3.5 3.5 0 1 0 0-7 3.5 3.5 0 0 0 0 7"></path>
                            <path fill="#696969" fill-rule="evenodd"
                                d="M14.41 1.99c.12.35.19.71.19 1.1 0 1.93-1.57 3.5-3.5 3.5-.95 0-1.8-.38-2.43-.99.46 1.39 1.76 2.4 3.31 2.4 1.93 0 3.5-1.57 3.5-3.5 0-.99-.41-1.87-1.07-2.51"
                                clip-rule="evenodd"></path>
                            <path fill="#8f8f8f"
                                d="M9.55 8h4.86c2.14 0 3.87 1.73 3.87 3.87v3.12H5.68v-3.12C5.68 9.73 7.41 8 9.55 8">
                            </path>
                            <path fill="#696969" fill-rule="evenodd"
                                d="M18.28 14.99v-3.12c0-2.14-1.73-3.87-3.87-3.87h-4.13c1.4.62 4.33 4.2 2.57 6.99z"
                                clip-rule="evenodd"></path>
                            <path fill="#8f8f8f" fill-rule="evenodd"
                                d="M4.57 16.99h14.81l-.98 5.28a.88.88 0 0 1-.87.72H6.42c-.42 0-.79-.3-.87-.72z"
                                clip-rule="evenodd"></path>
                            <path fill="#696969" fill-rule="evenodd" d="M4.57 16.99h14.81l-.37 1.77H4.94z"
                                clip-rule="evenodd"></path>
                            <path fill="#8f8f8f"
                                d="M21.5 16.99h-19c-.28 0-.5-.22-.5-.5s.22-.5.5-.5h19c.28 0 .5.22.5.5s-.22.5-.5.5">
                            </path>
                        </g>
                        <defs>
                            <clipPath id="politics_svg__a">
                                <path fill="#fff" d="M2 1h20v21.99H2z"></path>
                            </clipPath>
                        </defs>
                    </svg>