<svg xmlns="http://www.w3.org/2000/svg" fill="none" viewBox="0 0 24 24"
                        class="icon-container size-icon-m muted-icon">
                        <g clip-path="url(#rugby-league_svg__a)">
                            <path fill="#8f8f8f"
                                d="M4.23 23c-.28 0-.5-.22-.5-.5v-21c0-.28.22-.5.5-.5s.5.22.5.5v21c0 .28-.22.5-.5.5">
                            </path>
                            <path fill="#8f8f8f"
                                d="M20.27 12.75c0 .28-.22.5-.5.5H4.23c-.28 0-.5-.22-.5-.5s.22-.5.5-.5h15.53c.28 0 .5.22.5.5z">
                            </path>
                            <path fill="#8f8f8f"
                                d="M19.77 23c-.28 0-.5-.22-.5-.5v-21c0-.28.22-.5.5-.5s.5.22.5.5v21c0 .28-.22.5-.5.5">
                            </path>
                            <path fill="#696969"
                                d="M4.23 16.85c.68 0 1.23.55 1.23 1.23V23H3v-4.92c0-.68.55-1.23 1.23-1.23m15.54 0c.68 0 1.23.55 1.23 1.23V23h-2.47v-4.92c0-.68.55-1.23 1.23-1.23zm0-4.03H4.23c-.2 0-.37-.12-.45-.28-.03.07-.05.14-.05.22 0 .28.22.5.5.5h15.53c.28 0 .5-.22.5-.5 0-.08-.02-.15-.05-.22a.49.49 0 0 1-.45.28z">
                            </path>
                            <path fill="#8f8f8f" fill-rule="evenodd"
                                d="M3.11 18.11s.01.1.04 0c.14-.59.67-1.03 1.3-1.03.1 0 .19.04.28.06-.16-.08-.32-.14-.51-.14-.61 0-1.11.5-1.11 1.11m15.58 0s.01.1.04 0c.14-.59.67-1.03 1.3-1.03.1 0 .19.04.28.06-.16-.08-.32-.14-.51-.14-.61 0-1.11.5-1.11 1.11"
                                clip-rule="evenodd"></path>
                        </g>
                        <defs>
                            <clipPath id="rugby-league_svg__a">
                                <path fill="#fff" d="M3 1h18v22H3z"></path>
                            </clipPath>
                        </defs>
                    </svg>