<svg xmlns="http://www.w3.org/2000/svg" fill="none" viewBox="0 0 24 24"
                        class="icon-container size-icon-m muted-icon">
                        <g clip-path="url(#rugby-union_svg__a)">
                            <path fill="#cca6ff"
                                d="M14.86 14.86c4.13-4.13 6.01-8.8 6.58-12.27-3.47.57-8.14 2.45-12.27 6.58-4.13 4.13-6.01 8.8-6.58 12.27 3.47-.57 8.14-2.45 12.27-6.58">
                            </path>
                            <path fill="#cca6ff"
                                d="M2.61 22.41c2.67 1.43 10.21.58 15.3-4.5 5.09-5.09 5.93-12.63 4.5-15.3-.55 3.72-2.51 8.59-6.86 12.94-4.35 4.35-9.22 6.32-12.94 6.86M21.43 1.62C18.75.19 11.21 1.04 6.13 6.13 1.04 11.21.19 18.75 1.62 21.43c.55-3.72 2.51-8.59 6.86-12.94 4.36-4.36 9.23-6.32 12.95-6.87">
                            </path>
                            <path fill="#997dbf"
                                d="M7.4 19.98c-1.8.11-3.32-.1-4.34-.56-.2.71-.36 1.39-.47 2.03 1.44-.24 3.08-.71 4.81-1.46zm10.51-2.07c1.17-1.17 2.11-2.48 2.86-3.83-3.15 2.97-6.94 4.7-10.33 5.45-2.79 1.65-5.53 2.54-7.83 2.88 2.67 1.43 10.21.58 15.3-4.5M1.62 21.43c.12-.79.31-1.64.57-2.52-.02-.02-.04-.03-.06-.05-.23-.23-.46-.7-.46-.7-.25-.48-.43-1.09-.54-1.81-.28 2.16-.08 4.01.49 5.07z">
                            </path>
                        </g>
                        <defs>
                            <clipPath id="rugby-union_svg__a">
                                <path fill="#fff" d="M1 1h22.03v22.03H1z"></path>
                            </clipPath>
                        </defs>
                    </svg>