<svg xmlns="http://www.w3.org/2000/svg" fill="none" viewBox="0 0 24 24"
                        class="icon-container size-icon-m muted-icon">
                        <g clip-path="url(#snooker_svg__a)">
                            <path fill="#cca6ff"
                                d="M11.99 9.16a2.37 2.37 0 1 0 0-4.74 2.37 2.37 0 0 0 0 4.74"></path>
                            <path fill="#997dbf" fill-rule="evenodd"
                                d="M14.01 5.56c.12.66.05 1.38-.99 2.28-.34.29-.76.51-1.21.53-.91.05-1.71-.43-2.15-1.15a2.382 2.382 0 0 0 2.85 1.88c.82-.17 1.5-.81 1.75-1.61.22-.72.09-1.39-.24-1.93z"
                                clip-rule="evenodd"></path>
                            <path fill="#cca6ff"
                                d="M8.98 14.6a2.37 2.37 0 1 0 0-4.74 2.37 2.37 0 0 0 0 4.74"></path>
                            <path fill="#997dbf" fill-rule="evenodd"
                                d="M11 11.01c.12.66.05 1.38-.99 2.28-.34.29-.76.51-1.21.53-.91.05-1.71-.43-2.15-1.15a2.382 2.382 0 0 0 2.85 1.88c.82-.17 1.5-.81 1.75-1.61.22-.72.09-1.39-.24-1.93z"
                                clip-rule="evenodd"></path>
                            <path fill="#cca6ff" d="M15 14.6a2.37 2.37 0 1 0 0-4.74 2.37 2.37 0 0 0 0 4.74">
                            </path>
                            <path fill="#997dbf" fill-rule="evenodd"
                                d="M17.02 11.01c.12.66.05 1.38-.99 2.28-.34.29-.76.51-1.21.53-.91.05-1.71-.43-2.15-1.15a2.382 2.382 0 0 0 2.85 1.88c.82-.17 1.5-.81 1.75-1.61.22-.72.09-1.39-.24-1.93z"
                                clip-rule="evenodd"></path>
                            <path fill="#cca6ff"
                                d="M5.97 20.16a2.37 2.37 0 1 0 0-4.74 2.37 2.37 0 0 0 0 4.74"></path>
                            <path fill="#997dbf" fill-rule="evenodd"
                                d="M7.99 16.56c.12.66.05 1.38-.99 2.28-.34.29-.76.51-1.21.53-.91.05-1.71-.43-2.15-1.15a2.382 2.382 0 0 0 2.85 1.88c.82-.17 1.5-.81 1.75-1.61.22-.72.09-1.39-.24-1.93z"
                                clip-rule="evenodd"></path>
                            <path fill="#cca6ff"
                                d="M11.99 20.16a2.37 2.37 0 1 0 0-4.74 2.37 2.37 0 0 0 0 4.74"></path>
                            <path fill="#997dbf" fill-rule="evenodd"
                                d="M14.01 16.56c.12.66.05 1.38-.99 2.28-.34.29-.76.51-1.21.53-.91.05-1.71-.43-2.15-1.15a2.382 2.382 0 0 0 2.85 1.88c.82-.17 1.5-.81 1.75-1.61.22-.72.09-1.39-.24-1.93z"
                                clip-rule="evenodd"></path>
                            <path fill="#cca6ff"
                                d="M18.01 20.16a2.37 2.37 0 1 0 0-4.74 2.37 2.37 0 0 0 0 4.74"></path>
                            <path fill="#997dbf" fill-rule="evenodd"
                                d="M20.03 16.56c.12.66.05 1.38-.99 2.28-.34.29-.76.51-1.21.53-.91.05-1.71-.43-2.15-1.15a2.382 2.382 0 0 0 2.85 1.88c.82-.17 1.5-.81 1.75-1.61.22-.72.09-1.39-.24-1.93z"
                                clip-rule="evenodd"></path>
                            <path fill="#997dbf"
                                d="M19.19 22H4.83c-1.38 0-2.63-.71-3.32-1.9a3.765 3.765 0 0 1 0-3.81L8.72 3.85C9.41 2.66 10.64 2 12.02 2s2.61.66 3.3 1.85l7.18 12.44c.69 1.19.69 2.61 0 3.81a3.772 3.772 0 0 1-3.3 1.9zM9.72 4.44 2.54 16.87a2.6 2.6 0 0 0 0 2.64 2.63 2.63 0 0 0 2.29 1.32h14.36c.96 0 1.81-.49 2.29-1.32a2.6 2.6 0 0 0 0-2.64L14.3 4.44a2.609 2.609 0 0 0-2.29-1.32c-.96 0-1.81.49-2.29 1.32">
                            </path>
                        </g>
                        <defs>
                            <clipPath id="snooker_svg__a">
                                <path fill="#fff" d="M1 2h22.01v20H1z"></path>
                            </clipPath>
                        </defs>
                    </svg>