<svg xmlns="http://www.w3.org/2000/svg" fill="none" viewBox="0 0 24 24"
                        class="icon-container size-icon-m muted-icon">
                        <g clip-path="url(#soccer_svg__a)">
                            <path fill="#8f8f8f"
                                d="m2 14.18 1.41-1.84s.02-.04.02-.06c.06-1.89.62-4.01 1.09-5.25l-.95-1.28c-.46.45-.85.88-1.22 1.42l-.62.93c-.46 1.21-.72 2.52-.72 3.89v.11l.22.6c.22.59.53 1.11.77 1.48m1.81 4.67c-1.36-1.57-1.89-3.22-2.05-3.86 0-.04-.03-.07-.05-.1-.15-.19-.32-.42-.49-.69.41 2.01 1.38 3.81 2.73 5.26-.02-.15-.06-.3-.06-.44 0-.06-.03-.13-.07-.18zM18.98 4.56c-.04.8-.24 1.79-.52 2.57v.08c1.27 2 1.83 3.86 2.02 4.57.9.32 1.62.68 2.04.91.08-.25.18-.57.25-.85l.17-.66c-.14-1.95-.78-3.76-1.81-5.3l-.49-.35c-.59-.41-1.1-.77-1.65-.98zM10.03 1.7c1.73-.56 4.22-.32 4.94-.23l.03-.05c-.96-.27-1.96-.43-3.01-.43-1.59 0-3.11.35-4.47.96.59-.11 1.49-.24 2.46-.25h.06zM9.02 20.82c-.69-.35-1.29-.72-1.77-1.09-.02-.01-.03-.02-.05-.02-.6-.05-1.7-.16-2.6-.39.03.21.08.44.15.69l.08.3c1.92 1.66 4.42 2.66 7.16 2.66-.1-.48-.17-.86-.19-1.1-1.09-.31-2-.66-2.78-1.05m4.02-7.41s-.07-.03-.1-.03-.06 0-.09.02c-1.04.54-3.06 1.56-4.93 2.3-.22 1.38-.22 2.75-.2 3.45 0 .06.03.12.08.16 1.2.87 2.69 1.58 4.21 2 .05.01.1.01.15 0 1.23-.29 3.05-.96 3.82-1.41.04-.02.06-.05.08-.09.41-1.05.77-2.75.84-4.03 0-.04-.02-.07-.05-.09l-3.82-2.29zm-.38-.7.57-4.66s0-.04-.02-.06c-.98-.71-2.8-2.03-4-2.83a.118.118 0 0 0-.1-.01c-.91.35-3.01 1.5-3.86 1.97-.04.02-.07.06-.09.1-.24.63-.47 1.4-.64 2.17-.27 1.19-.36 2.21-.39 2.86.51.44 2.21 1.87 3.52 2.81 1.9-.74 3.93-1.76 4.97-2.3.02-.01.04-.04.04-.06zM15.2 2.1s-.1-.05-.16-.06c-1.16-.18-3.29-.14-4.7.23-.2.54-.59 1.63-.73 2.36 1.2.8 3.79 2.67 4.08 2.88.02.01.04.02.06.01.53-.08 2.76-.43 4.02-.62.04 0 .08-.03.09-.07.28-.78.47-1.73.49-2.42 0-.08-.03-.16-.09-.21-.78-.68-2.42-1.73-3.05-2.11zm7.19 11.37v-.09c-.38-.21-1.12-.6-2.07-.93l-2.69 3.13s-.06.09-.06.15c-.03.58-.12 1.32-.27 2.06-.16.8-.37 1.59-.59 2.18.44.19 1.28.37 2.09.42l.22.02c1.54-1.29 2.72-2.99 3.37-4.94v-.74c.02-.46 0-.97 0-1.28z">
                            </path>
                            <path fill="#696969"
                                d="m22.77 11.84.17-.66c-.14-1.95-.78-3.76-1.81-5.3l-.04-.03c.37 1.16.57 2.4.57 3.68 0 .89-.1 1.76-.28 2.6.48.21.88.41 1.15.55.08-.25.18-.57.25-.85zM12 22.98c-.1-.48-.17-.86-.19-1.1-.25-.07-.49-.14-.72-.22-.55.08-1.1.13-1.67.13-1.09 0-2.14-.16-3.14-.42 1.67 1.02 3.62 1.62 5.72 1.62zm6.81-2.57.22.02c1.54-1.29 2.72-2.99 3.37-4.94v-.74c.02-.46 0-.97 0-1.28v-.09c-.25-.14-.67-.36-1.19-.58-.7 2.55-2.2 4.76-4.22 6.35-.08.3-.17.58-.26.83.44.19 1.28.37 2.09.42z">
                            </path>
                        </g>
                        <defs>
                            <clipPath id="soccer_svg__a">
                                <path fill="#fff" d="M1 1h21.94v21.98H1z"></path>
                            </clipPath>
                        </defs>
                    </svg>