<svg xmlns="http://www.w3.org/2000/svg" fill="none" viewBox="0 0 24 24"
                        class="icon-container size-icon-m muted-icon">
                        <g clip-path="url(#tennis_svg__a)">
                            <path fill="#8f8f8f"
                                d="M14.55 16.36c-1.61 0-3.14-.55-4.27-1.69-2.55-2.55-2.17-7.07.84-10.08 3.03-3.03 7.72-3.47 10.23-.95 2.54 2.54 2.09 7.11-.99 10.2-1.67 1.67-3.8 2.53-5.81 2.53zm2.57-13.18c-1.76 0-3.68.77-5.16 2.26-1.25 1.25-2.02 2.82-2.16 4.43-.14 1.57.33 2.98 1.32 3.97.99.99 2.4 1.47 3.97 1.32 1.61-.15 3.18-.91 4.43-2.16 2.58-2.58 3.03-6.48.99-8.52-.88-.88-2.09-1.3-3.39-1.3">
                            </path>
                            <path fill="#696969" fill-rule="evenodd"
                                d="M3.66 23.49c-.61.61-1.59.61-2.2 0-.61-.61-.61-1.59 0-2.2.61-.61 3.71-2.49 3.71-2.49l.98.98s-2 3.21-2.49 3.71"
                                clip-rule="evenodd"></path>
                            <path fill="#8f8f8f" d="m7.752 16.354-2.043 2.044.841.84 2.043-2.043z"></path>
                            <path fill="#8f8f8f"
                                d="M7.54 18.02c-.06 0-.13 0-.19-.03a.588.588 0 0 1-.37-.75l1.85-5.44c.11-.31.44-.48.75-.37.31.11.48.44.37.75L8.1 17.62c-.08.25-.32.4-.56.4">
                            </path>
                            <path fill="#8f8f8f"
                                d="M7.54 18.02c-.25 0-.48-.15-.56-.4-.11-.31.06-.65.37-.75L12.77 15c.31-.11.65.06.75.37.11.31-.06.65-.37.75l-5.42 1.87c-.06.02-.13.03-.19.03M4.5 7.95a2.5 2.5 0 1 0 0-5 2.5 2.5 0 0 0 0 5">
                            </path>
                            <path fill="#696969" fill-rule="evenodd"
                                d="M6.56 4.03c.09.27.14.56.14.86a2.78 2.78 0 0 1-2.78 2.78c-.25 0-.49-.04-.73-.1.38.24.83.38 1.31.38a2.5 2.5 0 0 0 2.06-3.92"
                                clip-rule="evenodd"></path>
                        </g>
                        <defs>
                            <clipPath id="tennis_svg__a">
                                <path fill="#fff" d="M1 2h22v21.95H1z"></path>
                            </clipPath>
                        </defs>
                    </svg>