<svg xmlns="http://www.w3.org/2000/svg" fill="none" viewBox="0 0 24 24"
                        class="icon-container size-icon-m muted-icon">
                        <g clip-path="url(#volleyball_svg__a)">
                            <path fill="#cca6ff"
                                d="M20.8 9.12c0-1.3-.23-2.55-.63-3.71-1 5.65-4.95 10.25-5.82 11.2.49.68 1.02 1.28 1.53 1.79 2.97-2.02 4.92-5.43 4.92-9.29z">
                            </path>
                            <path fill="#cca6ff"
                                d="M17.21 2.32c-.23-.12-.46-.23-.69-.34 0 .56-.04 1.62-.29 2.92.02.07.02.14-.02.2 0 .02-.02.02-.03.04-.45 2.14-1.49 4.86-3.84 7.06.33 1.51.95 2.82 1.67 3.93 1.05-1.17 5.1-6.03 5.73-11.77-.05-.1-.1-.21-.16-.31-.7-.67-1.5-1.26-2.38-1.73z">
                            </path>
                            <path fill="#cca6ff"
                                d="M12.03 11.7c.92-.87 1.62-1.84 2.16-2.82-1.11-.63-6.17-3.17-12.35-1.07-.48 1.14-.75 2.34-.82 3.55 1.43-.54 6.26-2.02 11.01.33zm3.66-7.15c.25-1.37.26-2.43.25-2.81a10.84 10.84 0 0 0-7.1-.27c-1.22.37-2.34.94-3.33 1.67 4.8-.59 8.94.89 10.19 1.41z">
                            </path>
                            <path fill="#cca6ff"
                                d="M14.45 8.37c.55-1.12.9-2.24 1.12-3.24-1.12-.47-5.73-2.21-10.95-1.26-.92.83-1.7 1.81-2.3 2.94l-.15.3c6.11-1.86 11.08.59 12.29 1.27zm-10.7 2.87c-1.37.24-2.37.6-2.75.75 0 1.06.15 2.13.47 3.18.31 1.04.77 2.01 1.35 2.9 1.07.81 2.29 1.44 3.62 1.82-2.49-3.49-2.69-7.49-2.69-8.66z">
                            </path>
                            <path fill="#cca6ff"
                                d="M11.16 20.23c-3.26-3.7-3.63-8.07-3.67-9.18-1.15-.09-2.23-.03-3.17.1-.01 1.01.13 5.38 3.01 8.96a11.152 11.152 0 0 0 3.83.12">
                            </path>
                            <path fill="#cca6ff"
                                d="M11.75 12.2a11.57 11.57 0 0 0-3.68-1.09c.05 1.18.47 5.46 3.76 9.01 1.27-.26 2.46-.73 3.54-1.38-1.47-1.49-3.01-3.66-3.62-6.53z">
                            </path>
                            <path fill="#997dbf"
                                d="M16.41 18.91c.84-.6 4.43-3.48 6.13-10.04v-.03c-.46-1.53-1.24-2.9-2.25-4.06-.03.21-.07.43-.11.64.41 1.16.63 2.41.63 3.71 0 3.86-1.95 7.27-4.92 9.29.18.18.36.35.53.51zm-9.62 2.78c.73.39 1.5.7 2.28.92a12.71 12.71 0 0 1-2.64-2.71c-1.32-.39-2.54-1.01-3.62-1.82.99 1.5 2.34 2.74 3.97 3.62zm3.78 1.22c1.18.16 2.39.12 3.57-.12-1.2-.77-2.17-1.65-2.98-2.56a11.152 11.152 0 0 1-3.83-.12c.83 1.03 1.89 2 3.23 2.8zm4.35-.31a11.042 11.042 0 0 0 3.34-1.56c-.58-.35-1.71-1.12-2.89-2.31-1.07.65-2.27 1.12-3.54 1.38.83.9 1.85 1.75 3.09 2.49">
                            </path>
                            <path fill="#997dbf"
                                d="M22.82 10.02c-1.77 5.85-4.93 8.54-5.96 9.29.87.73 1.59 1.19 1.9 1.37 1.19-.93 2.19-2.09 2.93-3.46 1.2-2.23 1.58-4.74 1.13-7.19zm-3.23-5.97c.05.1.11.2.16.31 0-.05.02-.1.02-.15-.06-.06-.12-.11-.18-.16">
                            </path>
                        </g>
                        <defs>
                            <clipPath id="volleyball_svg__a">
                                <path fill="#fff" d="M1 1h22v22H1z"></path>
                            </clipPath>
                        </defs>
                    </svg>