<svg width="219" height="171" viewBox="0 0 219 171" fill="none" xmlns="http://www.w3.org/2000/svg" class="h-auto w-52"><g id="Emailer" clip-path="url(#clip0_11218_125294)"><path id="cross" d="M15.2768 79.0771V80.5154M10.9629 83.3915H12.4011M15.2768 87.2274V85.7892M19.6048 83.3916H18.1666" stroke="#5A5F66" stroke-width="2.921" stroke-linecap="round" opacity="1" style="transform: none; transform-origin: 15.2838px 83.1523px;" transform-origin="15.283849716186523px 83.15225219726562px"></path><path id="star2" fill-rule="evenodd" clip-rule="evenodd" d="M147.187 76.5918C149.661 75.8199 153.454 72.7935 154.332 69.5374C155.129 72.4157 158.466 75.8199 161.478 76.0775C158.088 77.2779 154.847 80.844 154.332 83.6455C153.982 80.79 149.499 77.008 147.187 76.5918" fill="#3F4750" opacity="1" style="transform: none; transform-origin: 154.332px 76.5914px;" transform-origin="154.3324966430664px 76.59144973754883px"></path><path id="star1" fill-rule="evenodd" clip-rule="evenodd" d="M199.894 104.865C201.131 104.479 203.027 102.966 203.466 101.338C203.864 102.776 205.533 104.479 207.039 104.608C205.344 105.207 203.724 106.991 203.466 108.392C203.291 106.964 201.05 105.072 199.894 104.865" fill="#3F4750" opacity="1" style="transform: none; transform-origin: 203.466px 104.865px;" transform-origin="203.46649932861328px 104.86499786376953px"></path><path id="circle3" fill-rule="evenodd" clip-rule="evenodd" d="M42.0863 55.1558C42.0863 56.9417 40.6393 58.3882 38.8547 58.3882C37.0692 58.3882 35.623 56.9417 35.623 55.1558C35.623 53.3707 37.0692 51.9233 38.8547 51.9233C40.6393 51.9233 42.0863 53.3707 42.0863 55.1558" fill="#3F4750" opacity="1" style="transform: none; transform-origin: 38.8547px 55.1558px;" transform-origin="38.85465049743652px 55.1557502746582px"></path><path id="circle2" fill-rule="evenodd" clip-rule="evenodd" d="M193.218 47.9303C193.218 50.9141 190.799 53.3329 187.817 53.3329C184.833 53.3329 182.415 50.9141 182.415 47.9303C182.415 44.9464 184.833 42.5276 187.817 42.5276C190.799 42.5276 193.218 44.9464 193.218 47.9303" fill="#3F4750" opacity="1" style="transform: none; transform-origin: 187.816px 47.9303px;" transform-origin="187.81649780273438px 47.93025016784668px"></path><path id="circle1" fill-rule="evenodd" clip-rule="evenodd" d="M28.1314 131.299C26.0663 132.085 23.7552 131.048 22.9696 128.983C22.184 126.917 23.2206 124.605 25.2864 123.82C27.3506 123.034 29.6617 124.071 30.4474 126.136C31.2338 128.202 30.1964 130.514 28.1314 131.299Z" stroke="#5A5F66" stroke-width="2.921" stroke-linecap="round" opacity="1" style="transform: none; transform-origin: 26.7087px 127.559px;" transform-origin="26.708667755126953px 127.55949783325195px"></path><path id="zap3" d="M103.969 21.1182L103.857 21.227C103.316 21.8343 103.66 22.8477 104.505 22.9516L109.217 23.5307L105.053 39.0554C104.789 40.0398 105.938 40.7794 106.714 40.1245L124.529 25.084L124.641 24.9752C125.182 24.3679 124.838 23.3545 123.994 23.2505L118.322 22.5508L123.427 7.20689C123.759 6.20947 122.585 5.40286 121.784 6.07846L103.969 21.1182Z" fill="#5A5F66" opacity="1" style="transform: none; transform-origin: 114.249px 23.1011px;" transform-origin="114.24901962280273px 23.10105609893799px"></path><path id="zap2" d="M70.159 61.9052L70.1393 62.0014C70.0729 62.509 70.6105 62.9145 71.0867 62.6695L73.7434 61.3019L77.0748 70.8529C77.2859 71.4586 78.1455 71.4366 78.3172 70.8211L82.2592 56.6877L82.2789 56.5915C82.3453 56.0839 81.8077 55.6784 81.3315 55.9234L78.1328 57.5681L75.3552 47.7777C75.1746 47.1413 74.2781 47.1375 74.1011 47.7724L70.159 61.9052Z" fill="#5A5F66" opacity="1" style="transform: none; transform-origin: 76.2091px 59.2967px;" transform-origin="76.20909881591797px 59.29673957824707px"></path><path id="zap1" d="M174.661 132.163L174.603 132.234C174.326 132.628 174.596 133.201 175.099 133.205L177.91 133.228L176.507 142.638C176.418 143.235 177.143 143.593 177.555 143.155L187.019 133.111L187.078 133.039C187.355 132.645 187.085 132.073 186.581 132.068L183.198 132.039L185.167 122.672C185.295 122.063 184.55 121.667 184.125 122.119L174.661 132.163Z" fill="#3F4750" opacity="1" style="transform: none; transform-origin: 180.84px 132.637px;" transform-origin="180.84049224853516px 132.63673782348633px"></path><g id="Envelope"><path id="Envelope Bottom" fill-rule="evenodd" clip-rule="evenodd" d="M52.0645 120.646C52.0645 118.402 53.0068 116.262 54.6615 114.746L102.352 71.0733C105.46 68.2274 110.242 68.28 113.286 71.1936L158.809 114.762C160.385 116.271 161.277 118.359 161.277 120.542V176.696C161.277 184.981 154.561 191.696 146.277 191.696H67.0645C58.7802 191.696 52.0645 184.981 52.0645 176.696V120.646Z" fill="#5A5F66"></path><g id="Letter" opacity="1" style="transform: none; transform-origin: 106.673px 136.475px;" transform-origin="106.67259979248047px 136.4749526977539px"><path id="Vector" d="M142.937 178.751H70.4079C68.061 178.751 66.1582 176.64 66.1582 174.036V98.9136C66.1582 96.3099 68.061 94.1989 70.4079 94.1989H142.937C145.284 94.1989 147.187 96.3099 147.187 98.9136V174.036C147.187 176.64 145.284 178.751 142.937 178.751Z" fill="#C3C7CF"></path><path id="@" d="M111.258 109.736C113.733 109.736 115.871 110.192 117.672 111.103C119.474 112.015 120.841 113.296 121.775 114.945C122.73 116.573 123.207 118.473 123.207 120.643C123.207 122.38 122.903 124.04 122.296 125.625C121.71 127.209 120.852 128.501 119.723 129.499C118.616 130.498 117.303 130.997 115.784 130.997C114.677 130.997 113.809 130.758 113.179 130.281C112.55 129.781 112.159 129.087 112.007 128.197C111.334 129.065 110.488 129.749 109.467 130.248C108.447 130.747 107.384 130.997 106.277 130.997C104.605 130.997 103.292 130.498 102.337 129.499C101.404 128.479 100.937 127.101 100.937 125.364C100.937 123.715 101.273 122.173 101.946 120.741C102.641 119.308 103.607 118.169 104.844 117.322C106.081 116.454 107.47 116.02 109.012 116.02C110.9 116.02 112.224 116.66 112.984 117.941L113.277 116.313H116.5L114.872 125.625C114.807 126.081 114.774 126.482 114.774 126.829C114.774 127.394 114.883 127.817 115.1 128.099C115.339 128.381 115.751 128.522 116.337 128.522C117.162 128.522 117.868 128.121 118.454 127.318C119.04 126.493 119.474 125.484 119.756 124.29C120.06 123.096 120.212 121.935 120.212 120.806C120.212 118.049 119.409 115.944 117.802 114.49C116.196 113.035 113.863 112.308 110.802 112.308C108.241 112.308 105.94 112.916 103.9 114.131C101.881 115.347 100.297 117.018 99.1462 119.146C97.9958 121.273 97.4206 123.639 97.4206 126.243C97.4206 129.022 98.2454 131.138 99.895 132.592C101.545 134.047 103.9 134.774 106.96 134.774C109.022 134.774 110.824 134.394 112.365 133.634L112.854 136.109C110.878 136.955 108.664 137.379 106.211 137.379C103.846 137.379 101.773 136.934 99.9927 136.044C98.2128 135.154 96.8345 133.884 95.8577 132.234C94.881 130.606 94.3926 128.707 94.3926 126.536C94.3926 123.432 95.1089 120.6 96.5415 118.038C97.9958 115.477 100.004 113.459 102.565 111.983C105.126 110.485 108.024 109.736 111.258 109.736ZM107.416 128.132C108.328 128.132 109.153 127.871 109.891 127.35C110.65 126.808 111.247 126.102 111.681 125.234C112.116 124.344 112.333 123.4 112.333 122.401C112.333 121.36 112.04 120.513 111.453 119.862C110.889 119.189 110.086 118.852 109.044 118.852C108.111 118.852 107.286 119.146 106.57 119.732C105.875 120.296 105.332 121.034 104.942 121.946C104.573 122.857 104.388 123.812 104.388 124.811C104.388 125.831 104.638 126.645 105.137 127.253C105.636 127.839 106.396 128.132 107.416 128.132Z" fill="#404449" fill-opacity="0.3"></path></g><g id="Enveloper Top"><path fill-rule="evenodd" clip-rule="evenodd" d="M52.0645 123.222L101.158 155.658C104.501 157.866 108.84 157.866 112.183 155.658L161.277 123.222V181.696C161.277 187.219 156.8 191.696 151.277 191.696H62.0644C56.5416 191.696 52.0645 187.219 52.0645 181.696V123.222Z" fill="#73777F"></path><path fill-rule="evenodd" clip-rule="evenodd" d="M101.309 145.696C104.581 143.617 108.76 143.617 112.033 145.696L161.277 176.979V181.696C161.277 187.219 156.8 191.696 151.277 191.696H62.0644C56.5416 191.696 52.0645 187.219 52.0645 181.696V176.979L101.309 145.696Z" fill="#8D9199"></path></g></g></g><defs><clipPath id="clip0_11218_125294"><rect width="219" height="171" fill="white"></rect></clipPath></defs></svg>