<svg width="425" height="70" viewBox="0 0 425 70" fill="none" xmlns="http://www.w3.org/2000/svg">
<g clip-path="url(#clip0_8004_113808)">
<path d="M59.1273 23.1461C57.8561 22.6418 55.8399 22.085 53.3469 22.085C46.9826 22.085 42.5009 25.4788 42.4734 30.3309C42.4205 33.9107 45.6821 35.8991 48.1215 37.0927C50.6149 38.3124 51.4625 39.1086 51.4625 40.1958C51.4371 41.8655 49.4478 42.6352 47.5924 42.6352C45.0192 42.6352 43.6405 42.2384 41.5454 41.3094L40.6969 40.9112L39.7949 46.5062C41.3065 47.1949 44.0914 47.806 46.9826 47.8327C53.7447 47.8327 58.1472 44.4915 58.1995 39.3207C58.2251 36.4834 56.5028 34.3093 52.7898 32.5328C50.5358 31.3923 49.1554 30.6234 49.1554 29.4565C49.1818 28.3957 50.3229 27.3092 52.8672 27.3092C54.9624 27.256 56.5019 27.7596 57.668 28.2636L58.2509 28.5282L59.1273 23.1461Z" fill="white"/>
<path d="M35.7651 47.4617H29.3203L33.3513 22.5371H39.7956L35.7651 47.4617Z" fill="white"/>
<path fill-rule="evenodd" clip-rule="evenodd" d="M75.6486 22.5371H70.6638C69.1264 22.5371 67.9587 22.9875 67.2953 24.6051L57.7227 47.4612H64.4848C64.4848 47.4612 65.5982 44.385 65.8373 43.7225H74.1119C74.2968 44.5974 74.8808 47.4612 74.8808 47.4612H80.848L75.6486 22.5371ZM67.6935 38.6317C68.2242 37.1999 70.2664 31.6581 70.2664 31.6581C70.2559 31.6794 70.3389 31.4491 70.4628 31.1058L70.4643 31.1016L70.4651 31.0989C70.6503 30.586 70.9248 29.8248 71.1145 29.2718L71.565 31.4195C71.565 31.4195 72.7852 37.3856 73.0503 38.6317H67.6935Z" fill="white"/>
<path d="M23.9362 22.5371L17.6247 39.5332L16.9351 36.0862L16.9344 36.0841L14.681 24.6322C14.3099 23.0404 13.1694 22.5896 11.764 22.5371H1.39514L1.28906 23.0407C3.818 23.6874 6.07989 24.6193 8.06177 25.778L13.8059 47.4352H20.621L30.7508 22.5371H23.9362Z" fill="white"/>
</g>
<path d="M158.308 21.3887C163.059 21.3887 166.367 24.6633 166.367 29.4307C166.367 34.2152 162.991 37.5066 158.189 37.5066H152.93V45.8711H149.13V21.3887H158.308ZM152.93 34.317H157.29C160.599 34.317 162.482 32.5357 162.482 29.4478C162.482 26.36 160.599 24.5954 157.307 24.5954H152.93V34.317ZM167.355 40.7981C167.355 37.6759 169.747 35.7589 173.989 35.5214L178.875 35.2329V33.8589C178.875 31.8736 177.534 30.6862 175.295 30.6862C173.174 30.6862 171.85 31.7039 171.528 33.2988H168.067C168.271 30.075 171.019 27.6999 175.431 27.6999C179.757 27.6999 182.522 29.9903 182.522 33.5702V45.8709H179.01V42.9357H178.926C177.891 44.9207 175.634 46.1762 173.293 46.1762C169.798 46.1762 167.355 44.0044 167.355 40.7981ZM178.875 39.1863V37.778L174.48 38.0493C172.292 38.2021 171.053 39.1692 171.053 40.6962C171.053 42.2569 172.343 43.2751 174.311 43.2751C176.873 43.2751 178.875 41.5105 178.875 39.1863ZM185.842 52.4365V49.4673C186.113 49.5349 186.724 49.5349 187.03 49.5349C188.726 49.5349 189.642 48.8225 190.202 46.9903C190.202 46.956 190.525 45.9042 190.525 45.8873L184.078 28.0217H188.047L192.561 42.5449H192.628L197.142 28.0217H201.01L194.325 46.8032C192.798 51.13 191.034 52.5212 187.335 52.5212C187.03 52.5212 186.113 52.4872 185.842 52.4365ZM137.915 23.778C138.831 22.6325 139.452 21.0945 139.289 19.5225C137.948 19.5892 136.312 20.4069 135.364 21.5533C134.514 22.5353 133.761 24.1377 133.957 25.6436C135.463 25.7741 136.966 24.8914 137.915 23.778ZM139.272 25.9365C137.086 25.8062 135.228 27.1769 134.184 27.1769C133.14 27.1769 131.541 26.002 129.813 26.0337C127.562 26.0669 125.475 27.3389 124.333 29.3624C121.984 33.4101 123.713 39.4144 125.997 42.711C127.106 44.3421 128.443 46.1379 130.204 46.0733C131.868 46.008 132.52 44.9958 134.543 44.9958C136.564 44.9958 137.151 46.0733 138.913 46.0408C140.74 46.008 141.882 44.4088 142.991 42.7763C144.263 40.9171 144.784 39.1219 144.816 39.0234C144.784 38.9907 141.294 37.6519 141.262 33.6378C141.229 30.2768 144.002 28.678 144.132 28.579C142.566 26.2631 140.12 26.002 139.272 25.9365Z" fill="white"/>
<g clip-path="url(#clip1_8004_113808)">
<path d="M308.909 60.5304V60.6652H309.035C309.059 60.6656 309.082 60.6598 309.103 60.6481C309.111 60.6424 309.118 60.6346 309.122 60.6256C309.127 60.6165 309.129 60.6065 309.128 60.5965C309.129 60.5866 309.127 60.5769 309.122 60.5681C309.118 60.5592 309.111 60.5517 309.103 60.5462C309.083 60.534 309.059 60.528 309.035 60.5289L308.909 60.5304ZM309.037 60.4348C309.091 60.4315 309.144 60.447 309.188 60.4788C309.206 60.4931 309.22 60.5114 309.229 60.5321C309.238 60.5529 309.242 60.5756 309.241 60.5982C309.242 60.6177 309.238 60.6372 309.231 60.6553C309.224 60.6734 309.213 60.6897 309.199 60.7031C309.165 60.7325 309.122 60.7501 309.078 60.7534L309.246 60.9458H309.116L308.961 60.7547H308.911V60.9458H308.802V60.4352L309.037 60.4348ZM309.003 61.122C309.06 61.1226 309.117 61.1111 309.169 61.0883C309.27 61.0445 309.351 60.9634 309.395 60.8618C309.417 60.8088 309.429 60.752 309.429 60.6947C309.429 60.6373 309.417 60.5805 309.395 60.5276C309.373 60.4772 309.342 60.4314 309.304 60.3925C309.265 60.3538 309.219 60.3228 309.169 60.301C309.116 60.2796 309.06 60.2688 309.003 60.2693C308.945 60.2688 308.888 60.2796 308.834 60.301C308.783 60.3225 308.736 60.3535 308.696 60.3925C308.636 60.4537 308.596 60.5312 308.58 60.6152C308.564 60.6992 308.573 60.7861 308.606 60.865C308.626 60.9157 308.657 60.9617 308.696 61.0001C308.736 61.0392 308.783 61.0703 308.834 61.0916C308.888 61.1143 308.945 61.1259 309.003 61.1255M309.003 60.1465C309.151 60.1463 309.294 60.2045 309.4 60.3085C309.451 60.3584 309.491 60.418 309.519 60.4838C309.548 60.5512 309.563 60.6239 309.563 60.6973C309.563 60.7707 309.548 60.8433 309.519 60.9108C309.491 60.9761 309.45 61.0355 309.4 61.0859C309.348 61.1355 309.288 61.1756 309.222 61.2041C309.153 61.2334 309.078 61.2483 309.003 61.2478C308.927 61.2485 308.852 61.2336 308.781 61.2041C308.715 61.1762 308.654 61.1361 308.602 61.0859C308.552 61.0336 308.512 60.9721 308.484 60.9049C308.455 60.8374 308.441 60.7648 308.441 60.6914C308.441 60.618 308.455 60.5453 308.484 60.4779C308.512 60.4122 308.553 60.3527 308.604 60.3028C308.655 60.2517 308.716 60.2115 308.783 60.1846C308.853 60.1552 308.929 60.1403 309.005 60.1408M257.305 58.1744C257.305 57.2005 257.943 56.4005 258.986 56.4005C259.983 56.4005 260.655 57.1661 260.655 58.1744C260.655 59.1824 259.983 59.948 258.986 59.948C257.943 59.948 257.305 59.1481 257.305 58.1744ZM261.792 58.1744V55.4032H260.587V56.0782C260.204 55.5794 259.625 55.2664 258.836 55.2664C257.283 55.2664 256.064 56.4841 256.064 58.1757C256.064 59.867 257.283 61.0848 258.836 61.0848C259.624 61.0848 260.204 60.7716 260.587 60.273V60.9458H261.79L261.792 58.1744ZM302.507 58.1744C302.507 57.2005 303.145 56.4005 304.188 56.4005C305.186 56.4005 305.858 57.1661 305.858 58.1744C305.858 59.1824 305.186 59.948 304.188 59.948C303.146 59.948 302.507 59.1481 302.507 58.1744ZM306.995 58.1744V53.1787H305.789V56.0782C305.407 55.5794 304.827 55.2664 304.038 55.2664C302.485 55.2664 301.267 56.4841 301.267 58.1757C301.267 59.867 302.485 61.0848 304.038 61.0848C304.827 61.0848 305.407 60.7716 305.789 60.273V60.9458H306.995V58.1744ZM276.747 56.3434C277.524 56.3434 278.023 56.8302 278.15 57.6872H275.275C275.403 56.8873 275.889 56.3434 276.747 56.3434ZM276.772 55.2633C275.148 55.2633 274.011 56.4447 274.011 58.1726C274.011 59.9342 275.193 61.0819 276.852 61.0819C277.687 61.0819 278.451 60.8736 279.124 60.3054L278.533 59.4127C278.069 59.7841 277.477 59.9922 276.921 59.9922C276.144 59.9922 275.438 59.6329 275.264 58.6353H279.378C279.39 58.4856 279.402 58.3344 279.402 58.1722C279.39 56.4452 278.323 55.2633 276.772 55.2633ZM291.319 58.1722C291.319 57.1985 291.957 56.3986 293 56.3986C293.997 56.3986 294.67 57.1641 294.67 58.1722C294.67 59.1805 293.997 59.946 293 59.946C291.957 59.946 291.319 59.1461 291.319 58.1722ZM295.805 58.1722V55.4032H294.601V56.0782C294.218 55.5794 293.639 55.2664 292.851 55.2664C291.298 55.2664 290.079 56.4841 290.079 58.1757C290.079 59.867 291.297 61.0848 292.851 61.0848C293.639 61.0848 294.218 60.7716 294.601 60.273V60.9458H295.806V58.1744L295.805 58.1722ZM284.514 58.1722C284.514 59.8528 285.685 61.0815 287.471 61.0815C288.305 61.0815 288.861 60.8959 289.463 60.421L288.884 59.447C288.432 59.7723 287.957 59.946 287.432 59.946C286.47 59.9342 285.763 59.2389 285.763 58.1722C285.763 57.1057 286.47 56.4106 287.432 56.3986C287.955 56.3986 288.43 56.5723 288.884 56.8973L289.463 55.9236C288.86 55.4487 288.304 55.2629 287.471 55.2629C285.685 55.2629 284.514 56.4914 284.514 58.1722ZM300.049 55.2629C299.354 55.2629 298.901 55.5881 298.588 56.0749V55.4032H297.394V60.9427H298.6V57.8373C298.6 56.9208 298.994 56.4113 299.782 56.4113C300.04 56.4076 300.296 56.455 300.535 56.5507L300.907 55.4152C300.64 55.3102 300.293 55.2629 300.049 55.2629ZM267.749 55.8435C267.169 55.4614 266.37 55.264 265.489 55.264C264.086 55.264 263.182 55.9368 263.182 57.0374C263.182 57.9406 263.854 58.4981 265.094 58.6718L265.663 58.7528C266.324 58.8456 266.636 59.0194 266.636 59.3324C266.636 59.7607 266.197 60.0051 265.372 60.0051C264.538 60.0051 263.936 59.7383 263.529 59.4256L262.963 60.3649C263.624 60.8517 264.459 61.0839 265.362 61.0839C266.963 61.0839 267.89 60.3306 267.89 59.2757C267.89 58.302 267.16 57.7925 265.954 57.6187L265.386 57.5364C264.865 57.4688 264.447 57.3639 264.447 56.9925C264.447 56.5874 264.841 56.3438 265.502 56.3438C266.209 56.3438 266.894 56.6104 267.229 56.8188L267.751 55.8449L267.749 55.8435ZM283.297 55.2651C282.602 55.2651 282.149 55.5901 281.838 56.0768V55.4032H280.644V60.9427H281.848V57.8373C281.848 56.9208 282.243 56.4113 283.03 56.4113C283.288 56.4076 283.544 56.455 283.784 56.5507L284.155 55.4152C283.888 55.3102 283.541 55.2651 283.297 55.2651ZM273.014 55.4032H271.044V53.7226H269.826V55.4032H268.702V56.5041H269.826V59.0312C269.826 60.3166 270.325 61.0821 271.75 61.0821C272.273 61.0821 272.876 60.9202 273.258 60.6538L272.91 59.6224C272.55 59.8305 272.156 59.9355 271.843 59.9355C271.241 59.9355 271.044 59.5644 271.044 59.0082V56.5051H273.014V55.4032ZM254.999 60.944V57.4675C254.999 56.1583 254.164 55.2771 252.819 55.2653C252.112 55.2535 251.382 55.4737 250.871 56.2511C250.489 55.6367 249.886 55.2653 249.04 55.2653C248.448 55.2653 247.869 55.4393 247.417 56.088V55.4032H246.211V60.9427H247.426V57.8713C247.426 56.9096 247.96 56.3986 248.783 56.3986C249.584 56.3986 249.988 56.9199 249.988 57.859V60.9421H251.207V57.8704C251.207 56.9089 251.763 56.3979 252.562 56.3979C253.385 56.3979 253.778 56.9192 253.778 57.8584V60.9414L254.999 60.944Z" fill="white"/>
<path d="M309.599 42.52V41.71H309.388L309.143 42.2659L308.901 41.71H308.689V42.52H308.839V41.9098L309.067 42.4364H309.222L309.451 41.9085V42.52H309.599ZM308.26 42.52V41.8487H308.53V41.7119H307.84V41.8487H308.11V42.52H308.26Z" fill="#F79410"/>
<path d="M285.614 45.9923H267.354V13.1836H285.615L285.614 45.9923Z" fill="#FF5F00"/>
<path d="M268.51 29.5883C268.51 22.9332 271.627 17.0045 276.48 13.1839C272.806 10.2875 268.262 8.71565 263.583 8.72268C252.058 8.72268 242.715 18.0645 242.715 29.5883C242.715 41.1123 252.058 50.454 263.583 50.454C268.262 50.4611 272.806 48.8891 276.481 45.9926C271.627 42.1729 268.51 36.244 268.51 29.5883Z" fill="#EB001B"/>
<path d="M310.252 29.5883C310.252 41.1123 300.909 50.454 289.383 50.454C284.704 50.4609 280.159 48.889 276.484 45.9926C281.34 42.1722 284.457 36.244 284.457 29.5883C284.457 22.9328 281.34 17.0045 276.484 13.1839C280.159 10.2876 284.704 8.71582 289.383 8.72268C300.909 8.72268 310.252 18.0645 310.252 29.5883Z" fill="#F79E1B"/>
</g>
<g clip-path="url(#clip2_8004_113808)">
<path d="M381.289 34.2791V43.6949H378.301V20.4434H386.222C388.23 20.4434 389.942 21.1126 391.343 22.451C392.775 23.7895 393.491 25.4236 393.491 27.3535C393.491 29.33 392.775 30.9641 391.343 32.287C389.958 33.6099 388.246 34.2636 386.222 34.2636H381.289V34.2791ZM381.289 23.307V31.4155H386.285C387.468 31.4155 388.464 31.0108 389.242 30.2171C390.036 29.4234 390.44 28.4585 390.44 27.369C390.44 26.2952 390.036 25.3458 389.242 24.5521C388.464 23.7272 387.483 23.3226 386.285 23.3226H381.289V23.307ZM401.307 27.2599C403.517 27.2599 405.26 27.8513 406.537 29.0341C407.813 30.2169 408.451 31.8355 408.451 33.8899V43.6947H405.603V41.4847H405.478C404.249 43.3056 402.599 44.2083 400.545 44.2083C398.786 44.2083 397.323 43.6947 396.14 42.652C394.958 41.6092 394.366 40.3175 394.366 38.7612C394.366 37.1115 394.989 35.8041 396.234 34.8392C397.479 33.8587 399.144 33.3763 401.214 33.3763C402.988 33.3763 404.451 33.7031 405.587 34.3568V33.672C405.587 32.6292 405.183 31.7577 404.358 31.0262C403.533 30.2947 402.568 29.9368 401.463 29.9368C399.798 29.9368 398.475 30.6371 397.51 32.0534L394.88 30.4037C396.327 28.3026 398.475 27.2599 401.307 27.2599ZM397.448 38.8079C397.448 39.586 397.775 40.2397 398.444 40.7533C399.097 41.2669 399.876 41.5314 400.763 41.5314C402.023 41.5314 403.144 41.0645 404.124 40.1307C405.105 39.1969 405.603 38.1075 405.603 36.8469C404.669 36.1154 403.377 35.7419 401.712 35.7419C400.498 35.7419 399.487 36.0376 398.677 36.6134C397.852 37.2204 397.448 37.9519 397.448 38.8079ZM424.699 27.7729L414.739 50.6821H411.657L415.361 42.667L408.794 27.7729H412.046L416.778 39.1964H416.84L421.447 27.7729H424.699Z" fill="white"/>
<path d="M369.399 32.3783C369.399 31.4041 369.312 30.4718 369.15 29.5752H356.625V34.7111L363.839 34.7126C363.546 36.4215 362.604 37.8784 361.162 38.8494V42.1817H365.456C367.963 39.8612 369.399 36.4312 369.399 32.3783Z" fill="#4285F4"/>
<path d="M361.155 38.8504C359.96 39.6566 358.421 40.1282 356.62 40.1282C353.142 40.1282 350.191 37.7842 349.134 34.625H344.705V38.0614C346.9 42.416 351.41 45.4041 356.62 45.4041C360.222 45.4041 363.247 44.2198 365.449 42.181L361.155 38.8504Z" fill="#34A853"/>
<path d="M348.725 32.0751C348.725 31.188 348.873 30.3304 349.142 29.5243V26.0879H344.713C343.805 27.8886 343.295 29.9211 343.295 32.0751C343.295 34.2291 343.807 36.2616 344.713 38.0623L349.142 34.6259C348.866 33.8037 348.726 32.9423 348.725 32.0751Z" fill="#FABB05"/>
<path d="M356.62 24.0221C358.586 24.0221 360.346 24.6991 361.736 26.0219L365.541 22.2198C363.23 20.0674 360.217 18.7461 356.62 18.7461C351.411 18.7461 346.9 21.7342 344.705 26.0889L349.134 29.5254C350.191 26.3661 353.142 24.0221 356.62 24.0221Z" fill="#E94235"/>
</g>
<defs>
<clipPath id="clip0_8004_113808">
<rect width="81.7073" height="25.8023" fill="white" transform="translate(0 22.085)"/>
</clipPath>
<clipPath id="clip1_8004_113808">
<rect width="67.8463" height="52.5261" fill="white" transform="translate(242.715 8.72266)"/>
</clipPath>
<clipPath id="clip2_8004_113808">
<rect width="81.7073" height="33.072" fill="white" transform="translate(343.008 18.4502)"/>
</clipPath>
</defs>
</svg>
