<svg xmlns="http://www.w3.org/2000/svg" width="120" height="120" fill="none" viewBox="0 0 121 120" class="w-40 h-40"><mask id="empty-betslip_svg__a" width="121" height="120" x="0" y="0" maskUnits="userSpaceOnUse" style="mask-type: luminance;"><path fill="#fff" d="M120.5 0H.5v120h120z"></path></mask><g mask="url(#empty-betslip_svg__a)"><mask id="empty-betslip_svg__b" width="121" height="120" x="0" y="0" maskUnits="userSpaceOnUse" style="mask-type: luminance;"><path fill="#fff" d="M120.5 0H.5v120h120z"></path></mask><g mask="url(#empty-betslip_svg__b)"><mask id="empty-betslip_svg__c" width="93" height="100" x="14" y="10" maskUnits="userSpaceOnUse" style="mask-type: luminance;"><path fill="#fff" d="M106.373 10.333H14.5v99.4h91.873z"></path></mask><g mask="url(#empty-betslip_svg__c)"><path fill="#FF9448" d="M105.343 25.373c-4.813-.94-7.856-2.87-6.96-5.943.11-.377-.2-2.05-.776-2.16l-2.93.737c-.47-.09-.944.036-1.16.31-.69.873-2.22 1.286-3.714 1-1.49-.287-2.573-1.197-2.64-2.207-.02-.313-.356-.593-.82-.683l-2.903-.55c-.463-.087-.937.036-1.163.303-.727.857-2.264 1.26-3.727.98s-2.49-1.173-2.51-2.167c-.004-.31-.327-.583-.78-.67l-2.847-.54c-.453-.086-.93.037-1.166.297-.76.84-2.304 1.237-3.74.963-1.434-.273-2.414-1.153-2.384-2.126.01-.304-.293-.574-.74-.657l-2.703-.513c-.544-.104-1.117.1-1.283.453-1.36 2.883-6.11 4.577-10.53 3.713-.547-.106-1.144.104-1.334.47l-33.956 63.64c-.314.61.406 2.747 1.096 2.927 5.563 1.45 7.73 5.447 5.254 10.703-.314.667.463 2.704 1.186 2.9l3.61.98c.597.164 1.287-.066 1.684-.56 1.253-1.56 3.436-2.286 5.323-1.783 1.89.507 2.527 1.48 2.527 2.5-.07.583.626 2.593 1.233 2.76l3.826 1.037c.61.166 1.3-.07 1.677-.574 1.197-1.6 3.367-2.346 5.3-1.83 1.94.52 3.207 2.194 3.077 4.094-.043.6.363 1.133.986 1.303l3.93 1.067c.627.17 1.314-.07 1.67-.587 1.134-1.64 3.297-2.407 5.28-1.877 1.99.534 3.357 2.25 3.317 4.2-.013.614.424 1.164 1.064 1.337l3.903 1.057c.79.213 1.6-.204 1.813-.934 1.674-5.733 8-8.943 14.22-7.323.78.203 1.55-.193 1.724-.887l18.076-72.826c.1-.404-.1-2.21-1.007-2.337z"></path><path fill="#FFA667" d="M64.784 11.523c.01-.303-.294-.57-.74-.653l-2.704-.51c-.543-.103-1.116.1-1.283.45-1.36 2.87-6.11 4.553-10.53 3.693-.547-.106-1.143.104-1.333.467L14.667 79.79c-.313.607-.013 1.243.677 1.423 5.563 1.444 8.176 6.75 5.7 11.98-.314.664.016 1.36.74 1.557l3.61.973a1.66 1.66 0 0 0 1.68-.556c1.253-1.55 3.436-2.274 5.32-1.774 1.89.504 3.063 2.13 2.846 3.97-.07.58.307 1.1.914 1.264l3.826 1.033c.61.167 1.3-.07 1.677-.57 1.197-1.59 3.367-2.333 5.3-1.82 1.94.517 3.207 2.183 3.077 4.073-.044.597.363 1.127.986 1.297l3.93 1.06c.627.17 1.314-.07 1.67-.587 1.134-1.63 3.297-2.393 5.28-1.866 1.99.53 3.354 2.24 3.317 4.18-.013.613.423 1.156 1.063 1.33l3.904 1.053c.79.213 1.6-.203 1.813-.93 1.673-5.707 8-8.897 14.22-7.283.78.203 1.55-.194 1.723-.884l18.077-72.463c.1-.403-.307-.823-.91-.94-4.813-.937-7.957-4.24-7.06-7.3.11-.377-.27-.767-.847-.877l-2.86-.54c-.47-.09-.943.037-1.16.307-.69.867-2.22 1.28-3.713.993-1.493-.286-2.573-1.19-2.64-2.196-.02-.314-.357-.59-.82-.68l-2.903-.547c-.464-.087-.937.037-1.164.303-.726.854-2.263 1.254-3.726.974-1.464-.28-2.49-1.17-2.51-2.157-.004-.307-.327-.58-.78-.667l-2.847-.536c-.453-.087-.93.036-1.167.296-.76.837-2.303 1.234-3.74.957-1.433-.273-2.413-1.147-2.383-2.117z"></path><path fill="#fff" d="m99.75 28.176-17.457 63.8c-.137.493-.607.847-1.187.89-4.05.29-7.91 1.8-10.896 4.29-.53.44-1.35.45-1.904.02a12.073 12.073 0 0 0-4.353-2.12 12.89 12.89 0 0 0-7.27.23c-.593.193-1.247.02-1.613-.423-1.454-1.77-3.457-3.02-5.794-3.627-2.33-.607-4.813-.53-7.19.223-.593.19-1.233.02-1.573-.413-1.35-1.727-3.267-2.943-5.55-3.54a12.597 12.597 0 0 0-4.767-.287c-.706.09-1.323-.286-1.433-.876-.623-3.307-2.533-6.2-5.36-8.184-.4-.283-.52-.763-.3-1.21l28.713-58.246c.14-.284.524-.487.964-.51 3.07-.164 6.033-1.017 8.32-2.384.396-.236 1.003-.243 1.403-.01.933.54 2.017.93 3.217 1.164 1.79.346 3.663.303 5.41-.127.433-.107.926-.01 1.216.233 1.17.994 2.754 1.71 4.57 2.064 1.824.353 3.714.306 5.454-.13.433-.11.936-.01 1.24.24 1.23 1.013 2.86 1.743 4.716 2.103 1.247.243 2.514.3 3.76.177.537-.054 1.08.176 1.267.536 1.07 2.074 3.157 3.96 5.883 5.294.394.193.597.523.514.83zM79.786 90.489 97.42 28.24c-2.57-1.383-4.58-3.203-5.777-5.2a16.233 16.233 0 0 1-3.78-.286c-2.067-.404-3.91-1.174-5.367-2.237a15.95 15.95 0 0 1-6.106 0c-2.027-.397-3.814-1.15-5.21-2.193a15.925 15.925 0 0 1-6.05 0 13.371 13.371 0 0 1-3.307-1.084c-2.343 1.257-5.207 2.077-8.2 2.33L25.926 76.856c2.627 2.03 4.494 4.777 5.34 7.9 1.604-.083 3.18.07 4.694.46 2.513.65 4.676 1.907 6.306 3.667 2.634-.66 5.34-.66 7.907 0 2.577.663 4.823 1.953 6.567 3.76a16.08 16.08 0 0 1 8.006 0 15.306 15.306 0 0 1 4.424 1.916c3.043-2.223 6.736-3.64 10.616-4.076z"></path><path fill="#fff" d="M65.536 48.816c-9.803-2.164-15.02-9.66-11.937-16.397 2.924-6.383 12.38-9.91 21.34-8.133 8.96 1.776 14.98 8.53 12.897 15.286-2.203 7.144-12.33 11.444-22.3 9.24zm8.85-23.084c-7.85-1.566-16.12 1.54-18.63 7.137-2.51 5.597 1.953 12.347 10.447 14.207 8.616 1.89 17.393-1.804 19.356-7.977 1.874-5.883-3.22-11.777-11.176-13.367z"></path><path fill="#fff" d="M75.727 44.003c-.33-.07-.627-.233-.814-.473L64.087 29.643c-.334-.427-.107-.957.5-1.187.603-.23 1.363-.076 1.7.347L77.2 42.59c.377.473.17 1.07-.463 1.333-.317.13-.68.153-1.01.083z"></path><path fill="#fff" d="M60.406 40.709c-.32-.07-.606-.227-.773-.46-.337-.463-.093-1.043.543-1.293l19.024-7.52c.596-.237 1.376-.077 1.74.353.366.433.176.98-.424 1.22l-19.11 7.62c-.32.127-.68.15-1 .08M72.153 64.85 48.95 59.44c-.737-.174-1.13-.787-.873-1.37.256-.584 1.05-.914 1.783-.744l23.037 5.323c.763.177 1.22.81 1.016 1.417-.203.607-.99.96-1.76.783M69.806 71.81 46.08 66.125c-.754-.18-1.147-.827-.88-1.44.266-.613 1.086-.96 1.833-.78l23.553 5.59c.78.187 1.244.85 1.03 1.49-.213.64-1.023 1.01-1.81.823M67.34 79.13l-24.277-5.977c-.77-.19-1.166-.867-.886-1.514.28-.64 1.123-1.007 1.89-.82l24.096 5.877c.8.193 1.267.897 1.044 1.567-.224.67-1.06 1.063-1.864.866z"></path><path fill="#FFC9A3" d="M15.187 80.797a1.095 1.095 0 0 1-.633-.42c.043.387.323.72.79.84 2.963.77 5.09 2.637 6.056 5.003-.876-2.563-3.076-4.606-6.213-5.42zM32.24 92.977c-1.883-.5-3.97-.054-5.223 1.5a1.663 1.663 0 0 1-1.68.556l-3.707-.7c-.31-.083-.54-.26-.687-.486.06.416.36.773.844.903l3.61.973a1.66 1.66 0 0 0 1.68-.556c1.253-1.55 3.436-2.274 5.32-1.774 1.196.32 2.106 1.09 2.556 2.077-.366-1.187-1.353-2.133-2.713-2.497zM46.804 96.854c-1.933-.514-4.007-.047-5.203 1.543a1.605 1.605 0 0 1-1.677.57L36 98.21a1.258 1.258 0 0 1-.747-.536c.07.446.407.82.903.953l3.827 1.033c.61.163 1.3-.07 1.677-.57 1.196-1.59 3.366-2.333 5.3-1.82 1.296.347 2.29 1.207 2.766 2.303-.39-1.293-1.466-2.33-2.923-2.72M105.871 25.727c0 .033 0 .07-.01.103L87.784 98.293c-.173.687-.94.74-1.72.537-6.22-1.613-12.453 1.65-14.123 7.353-.213.727-1.023 1.144-1.814.93l-4-.776c-.39-.104-.7-.35-.883-.66.094.503.49.93 1.04 1.076l3.903 1.054c.79.213 1.6-.204 1.814-.93 1.673-5.707 8-8.897 14.22-7.284.78.204 1.55-.193 1.723-.883l18.077-72.463c.046-.18-.017-.364-.147-.52zM61.747 100.83c-1.984-.527-4.05-.04-5.184 1.593-.356.514-1.043.754-1.67.587l-4.026-.787a1.34 1.34 0 0 1-.81-.596c.08.476.446.873.966 1.013l3.93 1.06c.627.17 1.314-.07 1.67-.587 1.134-1.633 3.297-2.393 5.28-1.866 1.37.363 2.444 1.286 2.967 2.46-.44-1.367-1.593-2.47-3.123-2.877"></path></g></g></g></svg>