<svg xmlns="http://www.w3.org/2000/svg" fill="none" viewBox="0 0 24 24" class="icon-container size-icon-2xl default-icon"><path fill="#cca6ff" d="M.502 7.065V8.3c0 .883.724 1.598 1.618 1.598h19.76c.893 0 1.618-.715 1.618-1.598V7.065c0-.883-.725-1.598-1.618-1.598H2.12c-.894 0-1.618.715-1.618 1.598"></path><path fill="#997dbf" d="M3.35 10.794v10.361a.97.97 0 0 0 .283.693c.184.185.435.29.697.292h15.342a.994.994 0 0 0 .697-.292.97.97 0 0 0 .283-.693V10.794a.88.88 0 0 1 .258-.63.903.903 0 0 1 .633-.265H2.46a.904.904 0 0 1 .632.265c.167.168.26.394.258.63m6.256-8.267 1.616 1.345a1.219 1.219 0 0 0 1.558 0l1.616-1.345c1.852-1.542 4.684-.24 4.684 2.152v.787H4.922V4.68c0-2.393 2.831-3.694 4.684-2.152Z"></path><g opacity="0.2"><mask id="rewards-locked_svg__a" width="20" height="3" x="2" y="9" maskUnits="userSpaceOnUse" style="mask-type: alpha;"><path fill="#D9D9D9" d="M2.246 11.136h19.458V9.39H2.246z"></path></mask><g mask="url(#rewards-locked_svg__a)"><path fill="#000" d="M3.35 10.794v10.361a.97.97 0 0 0 .283.693c.184.185.435.29.697.292h15.342a.994.994 0 0 0 .697-.292.97.97 0 0 0 .283-.693V10.794a.88.88 0 0 1 .258-.63.903.903 0 0 1 .633-.265H2.46a.904.904 0 0 1 .632.265c.167.168.26.394.258.63"></path></g></g><path fill="#997dbf" d="M7.839 10.038a4.161 4.161 0 0 1 8.322 0v1.605H7.84z"></path><path fill="#cca6ff" fill-rule="evenodd" d="M15.114 11.977h1.37c.863 0 1.562.702 1.562 1.569v2.093c0 3.176-2.564 5.751-5.728 5.751h-.634c-3.164 0-5.728-2.575-5.728-5.751v-2.093c0-.867.7-1.569 1.563-1.569h1.369v-2.08a3.122 3.122 0 0 1 3.113-3.127 3.122 3.122 0 0 1 3.114 3.127v2.08Zm-1.041 0v-2.08c0-1.148-.929-2.08-2.072-2.08a2.077 2.077 0 0 0-2.072 2.08v2.08zm-2.593 5.677a1.831 1.831 0 0 1-1.302-1.755c0-1.01.817-1.83 1.823-1.83s1.823.82 1.823 1.83c0 .829-.55 1.53-1.302 1.755v1.122a.522.522 0 0 1-.521.523.522.522 0 0 1-.52-.523v-1.122Zm.521-.97a.783.783 0 0 0 .781-.785.783.783 0 0 0-.781-.784.783.783 0 0 0-.781.784c0 .433.35.785.781.785" clip-rule="evenodd"></path></svg>