<svg xmlns="http://www.w3.org/2000/svg" fill="none" viewBox="0 0 24 24" className="icon-container size-icon-xl default-icon"><path fill="#cca6ff" d="M20.017 3h-5.555c-.23 0-.44.135-.48.342-.18.828-.991 1.458-1.962 1.458-.97 0-1.792-.63-1.962-1.458-.04-.198-.25-.342-.48-.342H4.003C2.34 3 1 4.206 1 5.7v12.6C1 19.794 2.341 21 4.003 21h5.555c.23 0 .44-.144.48-.342.18-.828.991-1.458 1.962-1.458.97 0 1.792.63 1.962 1.458.04.207.25.342.48.342h5.555C21.66 21 23 19.794 23 18.3V5.7C23 4.206 21.659 3 19.997 3z"></path></svg>