<svg xmlns="http://www.w3.org/2000/svg" fill="none" viewBox="0 0 24 24" class="icon-container size-icon-xl default-icon"><path fill="#997dbf" d="M22.95 6.85v1.553c0 .432-.218.857-.619 1.048-.29.14-.592.128-.901.128h-1.166v-3.95c0-.377-.331-.734-.72-.715-.035.002-.072-.007-.105.017H6.33c-.607 0-1.213-.02-1.82-.01-.01 0-.017-.005-.027-.005a.725.725 0 0 0-.719.715v3.945c-.516 0-1.029-.002-1.545-.005a1.14 1.14 0 0 1-1.062-.71c-.074-.18-.081-.366-.081-.556V3.111c0-.135-.003-.264.019-.399.086-.532.568-.904 1.098-.913.396-.008.792.01 1.19.01h18.382c.058 0 .113-.01.168-.006.569.058.995.516 1.017 1.082v.041c.017.49 0 .983 0 1.475z"></path><path fill="#cca6ff" d="M18.823 9.359a3 3 0 0 0-3-3l-7.618.003a3 3 0 0 0-3 3L5.2 15.605c0 1.657 1.34 3 2.997 3l7.629.004a2.996 2.996 0 0 0 2.997-3z"></path><path fill="#000" d="M15.008 13.575c.266.266.753.285 1.017 0 .264-.288.285-.732.002-1.017l-1.046-1.046-1.66-1.66-.385-.385a1.026 1.026 0 0 0-.098-.08c0-.002-.003-.002-.003-.002a.736.736 0 0 0-.513-.117h-.007a.726.726 0 0 0-.399.199l-1.045 1.045-2.046 2.046c-.266.266-.285.753 0 1.017.286.264.732.285 1.017 0l1.046-1.046c.273-.273.546-.544.818-.818v4.828c0 .377.33.736.719.72.388-.017.72-.317.72-.72v-4.828l1.477 1.478z" opacity="0.2"></path><path fill="#000" d="M14.597 13.15c.266.265.753.284 1.017 0 .263-.289.285-.732.002-1.018l-1.046-1.045-1.66-1.66-.385-.386a1.016 1.016 0 0 0-.099-.08c0-.002-.002-.002-.002-.002a.736.736 0 0 0-.513-.117h-.008a.725.725 0 0 0-.398.199l-1.045 1.046-2.046 2.045c-.266.267-.285.753 0 1.017.285.264.732.286 1.017 0l1.046-1.045c.273-.274.546-.545.817-.818v4.827c0 .377.331.737.72.72.388-.017.72-.317.72-.72v-4.827l1.477 1.477.386.386Z"></path><path fill="#997dbf" d="M5.2 20.966c0-.683.554-1.236 1.237-1.236h11.152a1.237 1.237 0 1 1 0 2.473H6.437A1.237 1.237 0 0 1 5.2 20.966"></path></svg>