<svg xmlns="http://www.w3.org/2000/svg" fill="none" viewBox="0 0 24 24" class="icon-container size-icon-xl default-icon"><path fill="#997dbf" d="M12 22.667c5.891 0 10.667-4.776 10.667-10.667S17.89 1.333 12 1.333 1.334 6.11 1.334 12 6.109 22.667 12 22.667"></path><path fill="#000" d="M6.547 11.72a.906.906 0 0 0 0 1.813h11.805a.906.906 0 0 0 0-1.812H6.547Zm0-3.934a.906.906 0 1 0 0 1.812h11.805a.906.906 0 0 0 0-1.812zm0 7.87a.906.906 0 0 0 0 1.812h11.805a.906.906 0 0 0 0-1.812z" opacity="0.2"></path><path fill="#cca6ff" d="M6.114 11.116a.906.906 0 0 0 0 1.812H17.92a.906.906 0 0 0 0-1.812zm0-3.935a.906.906 0 1 0 0 1.812H17.92a.906.906 0 1 0 0-1.812zm0 7.87a.906.906 0 1 0 0 1.812H17.92a.906.906 0 1 0 0-1.812z"></path></svg>