<svg xmlns="http://www.w3.org/2000/svg" fill="none" viewBox="0 0 24 24" class="icon-container size-icon-xl default-icon"><path fill="#997dbf" d="M12 22.667c5.891 0 10.667-4.776 10.667-10.667S17.89 1.333 12 1.333 1.333 6.11 1.333 12 6.11 22.667 12 22.667"></path><path fill="#000" d="M20.708 17.078a9.293 9.293 0 0 1-8.077 4.689 9.295 9.295 0 0 1-8.077-4.69c2.153-1.436 4.98-2.307 8.077-2.307 3.097 0 5.924.87 8.077 2.308" opacity="0.25"></path><path fill="#cca6ff" d="M20.085 16.633a9.293 9.293 0 0 1-8.076 4.69 9.295 9.295 0 0 1-8.077-4.69c2.153-1.436 4.98-2.308 8.077-2.308 3.097 0 5.923.872 8.076 2.308"></path><path fill="#000" d="M12.62 13.194a3.964 3.964 0 1 0 0-7.93 3.964 3.964 0 0 0 0 7.93" opacity="0.25"></path><path fill="#cca6ff" d="M11.998 12.75a3.964 3.964 0 1 0 0-7.93 3.964 3.964 0 0 0 0 7.93"></path></svg>