<svg width="51" height="20" viewBox="0 0 51 20" fill="none" xmlns="http://www.w3.org/2000/svg" className="h-6 md:h-8 lg:h-11 xl:h-9 w-auto"><path d="M4.54385 14.1537L7.69344 17.2999H12.6621C14.7397 17.2999 16.4244 15.6046 16.4244 13.5126C16.4244 11.4206 14.7403 9.72522 12.6621 9.72522H0.439758V19.8106H4.54385V12.8726H12.0139C12.3653 12.8726 12.6497 13.1589 12.6497 13.5126C12.6497 13.8662 12.3653 14.1525 12.0139 14.1525H4.54328" fill="#8f8f8f"></path><path d="M21.8781 12.8731H33.7586V9.72632H17.7745V19.8117H21.8781V12.8731Z" fill="#8f8f8f"></path><path d="M21.8773 14.1536L25.0274 17.2998V17.3003H33.7578V14.1536H21.8773Z" fill="#8f8f8f"></path><path d="M35.3723 16.6637L38.5218 19.8099H50.8105V16.6631H39.4763V9.729H35.3723V16.6637Z" fill="#8f8f8f"></path><path d="M20.2578 8.10953L17.694 2.82774L21.4141 4.34879C21.3961 4.44725 21.3855 4.54797 21.3855 4.65153C21.3855 5.58237 22.1348 6.33667 23.0595 6.33667C23.9842 6.33667 24.7335 5.58237 24.7335 4.65153C24.7335 3.81178 24.1224 3.11747 23.3242 2.98958L25.765 0.532593L28.2057 2.98958C27.4075 3.11747 26.7965 3.81178 26.7965 4.65153C26.7965 5.58237 27.5458 6.33667 28.4705 6.33667C29.3952 6.33667 30.1445 5.58237 30.1445 4.65153C30.1445 4.54797 30.1338 4.44725 30.1158 4.34879L33.836 2.82774L31.2721 8.10953H20.2567H20.2578Z" fill="#8f8f8f"></path></svg>