<svg width="69" height="15" viewBox="0 0 69 15" fill="none" xmlns="http://www.w3.org/2000/svg" className="h-5 lg:h-8 xl:h-7 w-auto"><g clip-path="url(#clip0_8643_59504)"><path d="M17.8597 0.703186H19.706V2.99932H20.6715L23.1869 0.703186H25.7276L22.2383 3.7515L26.0664 6.86316H23.3817L20.6376 4.49576H19.706V6.86316H17.8597V0.703186Z" fill="#8f8f8f"></path><path d="M30.0808 0.703247H32.5538L35.8737 6.86322H33.8496L33.2483 5.76266H29.3355L28.7511 6.86322H26.6592L30.0808 0.703247ZM32.6131 4.47999L31.3004 2.0255L30.0046 4.47999H32.6131Z" fill="#8f8f8f"></path><path d="M36.6276 0.703247H41.8615C42.9371 0.703247 43.4114 0.798259 43.7586 1.09121C44.1143 1.37625 44.2753 1.90674 44.2753 2.7381C44.2753 3.88616 44.0042 4.33747 43.2251 4.51166C43.9788 4.63834 44.2075 4.96297 44.1906 5.89726V6.86322H42.3189V6.0952C42.3104 5.43012 42.1241 5.2876 41.3026 5.31135H38.4739V6.86322H36.636L36.6276 0.703247ZM41.3534 3.80699C42.2426 3.80699 42.4205 3.69614 42.4205 3.08648C42.4205 2.69059 42.3866 2.52432 42.2681 2.38972C42.1325 2.23928 41.9801 2.21553 41.4211 2.21553H38.4739V3.80699H41.3534Z" fill="#8f8f8f"></path><path d="M48.586 0.703247H51.059L54.3789 6.86322H52.3548L51.7535 5.76266H47.8407L47.2563 6.86322H45.1644L48.586 0.703247ZM51.1183 4.47999L49.8056 2.0255L48.5098 4.47999H51.1183Z" fill="#8f8f8f"></path><path d="M56.5557 2.22345H53.854V0.703247H61.1121V2.22345H58.4104V6.86322H56.5642L56.5557 2.22345Z" fill="#8f8f8f"></path><path d="M68.9124 0.703247V2.09676H64.0087V3.15773H68.6329V4.37706H64.0087V5.4697H68.9801V6.86322H62.1878V0.703247H68.9124Z" fill="#8f8f8f"></path><path d="M25.5414 11.9067C25.5329 12.8014 25.5075 13.1102 25.3804 13.3873C25.1433 13.9099 24.6521 14.1632 23.7035 14.2266C23.3309 14.2662 22.6025 14.2741 21.3914 14.2741C19.6468 14.2741 19.0794 14.187 18.5881 13.8703C17.9868 13.4823 17.8174 12.8331 17.8174 11.0041C17.8174 9.38095 17.9953 8.79504 18.639 8.42291C19.1895 8.09828 19.7654 8.0191 21.4677 8.0191C23.7374 8.0191 24.2286 8.06661 24.7453 8.32789C25.2365 8.57334 25.4651 9.11966 25.4651 10.0302V10.2361H23.6951C23.6612 9.56306 23.5257 9.50763 21.9165 9.50763C20.409 9.50763 20.1295 9.54722 19.9009 9.74516C19.6807 9.95102 19.6383 10.1965 19.6383 11.1941C19.6383 12.6747 19.7738 12.7856 21.5524 12.7856C22.9244 12.7856 23.1276 12.7776 23.3817 12.6668C23.6443 12.5559 23.7459 12.358 23.7459 11.9225L25.5414 11.9067Z" fill="#8f8f8f"></path><path d="M32.8929 8.09039C33.833 8.26458 34.2904 8.75548 34.4174 9.74519C34.4513 9.99064 34.4682 10.4895 34.4682 11.2416C34.4682 12.7302 34.3158 13.3319 33.7907 13.7674C33.4265 14.0841 32.9184 14.2266 32.0291 14.2662C31.6988 14.282 30.8942 14.2979 30.3014 14.2979C28.8531 14.2979 28.1163 14.2662 27.7521 14.1949C27.0746 14.0762 26.685 13.8149 26.4563 13.3636C26.2192 12.9123 26.1684 12.461 26.1684 11.107C26.1684 10.0698 26.1853 9.81645 26.2954 9.39681C26.4648 8.73964 26.8205 8.39126 27.5065 8.1854C28.0147 8.03497 28.5737 8.0033 30.1743 8.0033C31.9275 8.0033 32.461 8.01913 32.8929 8.09039ZM28.3619 9.72935C28.1163 9.91938 28.0401 10.2282 28.0401 11.115C28.0401 12.0176 28.1163 12.3501 28.3365 12.5481C28.5821 12.7539 28.887 12.7856 30.276 12.7856C31.8682 12.7856 32.1985 12.7302 32.4102 12.4372C32.5796 12.2155 32.6304 11.8988 32.6304 11.0833C32.6304 9.53141 32.605 9.51558 30.3268 9.51558C28.9717 9.50766 28.5991 9.55517 28.3619 9.72935Z" fill="#8f8f8f"></path><path d="M35.2387 8.06665H38.1691L40.3795 12.1601L42.5815 8.06665H45.4949V14.2266H43.691L43.7841 9.46808L41.0909 14.2266H39.6173L36.9664 9.46808L37.0257 14.2266H35.2387V8.06665Z" fill="#8f8f8f"></path><path d="M46.4011 8.06665H51.8806C52.5836 8.06665 52.9647 8.12999 53.2781 8.28835C53.7693 8.54963 53.9725 8.96135 53.9725 9.7452C53.9725 10.5449 53.7015 10.9645 53.1256 11.0754C53.9471 11.2337 54.2181 11.59 54.2181 12.4926C54.2181 13.2686 53.9979 13.7595 53.5152 14.0128C53.2357 14.1633 52.8292 14.2266 52.1347 14.2266H46.4011V8.06665ZM51.3132 10.5211C51.6689 10.5211 51.796 10.5053 51.9145 10.4499C52.0585 10.3628 52.1517 10.2044 52.1517 9.99065C52.1517 9.7452 52.0331 9.55518 51.8298 9.48392C51.7113 9.44433 51.6181 9.43641 51.2624 9.43641H48.205V10.5291H51.3132V10.5211ZM51.508 12.8569C51.8806 12.8569 51.9569 12.8489 52.0754 12.8094C52.2618 12.746 52.3634 12.5639 52.3634 12.3026C52.3634 12.0334 52.2533 11.8513 52.05 11.7801C51.9399 11.7405 51.8637 11.7325 51.4572 11.7325H48.1965V12.8569H51.508Z" fill="#8f8f8f"></path><path d="M57.6991 8.06665H60.1722L63.4921 14.2266H61.4679L60.8666 13.1261H56.9539L56.3695 14.2266H54.2776L57.6991 8.06665ZM60.2314 11.8434L58.9187 9.38891L57.6229 11.8434H60.2314Z" fill="#8f8f8f"></path><path d="M65.0844 9.58685H62.171V8.06665H68.9802V9.58685H66.9307V14.2266H65.0844V9.58685Z" fill="#8f8f8f"></path><path d="M10.4664 3.3636H3.6741V14.2425H0.769165V0.647827H10.4664V3.3636ZM15.3108 0.647827V14.2425H5.60508V11.5267H12.4059V0.647827H15.3108Z" fill="#8f8f8f"></path></g><defs><clipPath id="clip0_8643_59504"><rect width="68.211" height="13.6422" fill="white" transform="translate(0.769531 0.647827)"></rect></clipPath></defs>
</svg>