<svg width="115" height="28" viewBox="0 0 115 28" fill="none" xmlns="http://www.w3.org/2000/svg" className="h-5 md:h-9 lg:h-11 xl:h-10 w-auto"><path d="M16.4204 17.527C16.4023 17.7169 16.0699 18.0113 15.8662 18.024C14.9693 18.0782 14.0666 18.0476 13.0979 18.0476V14.9641C14.0795 14.9641 15.0534 14.9443 16.024 14.9858C16.1708 14.9928 16.4146 15.2859 16.4275 15.4573C16.4734 16.1461 16.4863 16.842 16.4204 17.527ZM21.2489 15.4044C21.243 14.8564 21.051 14.4193 20.4677 14.2402C20.0442 14.1083 19.6219 13.9688 19.1234 13.8082C19.3089 13.7916 19.4221 13.7916 19.5307 13.7719C20.2679 13.638 21.0788 13.4157 21.1946 12.6261C21.3394 11.648 21.3012 10.6145 21.1616 9.63123C20.9999 8.49061 20.0771 8.00824 18.8395 7.99167C15.3541 7.94452 11.8674 7.97383 8.38194 7.9751C8.23321 7.9751 8.08448 7.99868 7.96744 8.00951C8.1013 8.71236 8.2261 9.37443 8.36383 10.1009H8.96715C11.2304 10.1009 13.4963 10.1066 15.7595 10.0951C16.2328 10.0932 16.4695 10.2614 16.4508 10.7476C16.4359 11.1816 16.4268 11.6187 16.4546 12.0507C16.4857 12.5643 16.1701 12.7956 15.7485 12.8173C14.8755 12.8625 13.9987 12.8301 13.0578 12.8301V10.9681H8.27201V11.6334C8.27201 13.6871 8.29206 15.7402 8.26102 17.794C8.25003 18.5624 8.12005 19.3284 8.03534 20.1746H8.61861C11.6837 20.1746 14.7488 20.1803 17.8139 20.1689C18.3461 20.167 18.8886 20.1434 19.4079 20.044C20.3326 19.8687 21.3012 19.1531 21.2566 17.9507C21.2256 17.1032 21.2566 16.2532 21.2495 15.4038M14.2929 26.1039C10.5967 26.1039 7.27489 24.4898 5.01486 21.941L4.26282 22.4998C4.43353 22.6878 4.74715 23.0115 4.92886 23.1905C7.43073 25.6559 10.7564 27.0138 14.2929 27.0138C17.8294 27.0138 21.157 25.6566 23.6589 23.1905C24.1361 22.7203 24.5707 22.2233 24.9632 21.6995H23.7837C21.5198 24.3891 18.1062 26.1045 14.2929 26.1045M24.3929 7.01546H25.5115C24.9891 6.19855 24.3689 5.43198 23.6589 4.73231C23.0258 4.10848 22.1859 3.4668 21.4577 2.98825L20.9973 3.7784C22.3288 4.63163 23.485 5.73402 24.3929 7.01609M19.6122 1.55643C17.9264 0.853579 16.1384 0.497375 14.2929 0.497375C12.4474 0.497375 10.6607 0.853579 8.97491 1.55643C7.34796 2.23443 5.88783 3.20491 4.63334 4.4411C3.37885 5.6773 2.39337 7.11614 1.70598 8.72001C0.992089 10.3812 0.630615 12.1438 0.630615 13.9605C0.630615 15.7772 0.992089 17.5416 1.70534 19.2022C2.08492 20.086 2.55438 20.9214 3.1105 21.6988L5.04202 20.3416C3.75455 18.5338 2.99669 16.3341 2.99669 13.9605C2.99669 7.82345 8.06508 2.82895 14.2929 2.82895C16.2083 2.82895 18.0131 3.3024 19.596 4.13397L20.7005 2.0662C20.3468 1.88205 19.9853 1.71 19.6129 1.55643" fill="#8f8f8f"></path><path d="M5.04267 20.3416C3.75455 18.5338 2.99733 16.3335 2.99733 13.9611C2.99733 7.82345 8.06444 2.82959 14.2936 2.82959C16.2083 2.82959 18.0131 3.3024 19.5948 4.13397L20.6999 2.06684C20.3462 1.88205 19.9834 1.71063 19.6116 1.55579C17.9271 0.853579 16.1378 0.497375 14.2936 0.497375C12.4493 0.497375 10.6601 0.853579 8.97491 1.55579C7.34796 2.23379 5.88719 3.20427 4.6327 4.44047C3.37821 5.67667 2.39337 7.11614 1.70534 8.71937C0.992736 10.3806 0.630615 12.1438 0.630615 13.9611C0.630615 15.7784 0.992089 17.5416 1.70469 19.2022C2.08427 20.0867 2.55503 20.9208 3.1105 21.6995L5.04202 20.3416H5.04267Z" fill="#8f8f8f"></path><path d="M16.5927 17.6328C16.5875 17.9814 16.4219 18.1279 16.0592 18.1317C15.1422 18.1388 14.2247 18.1317 13.3096 18.1445C13.1098 18.1464 13.0788 18.0725 13.0801 17.9043C13.0891 17.4308 13.084 16.9574 13.084 16.4833C13.084 16.0092 13.093 15.558 13.0801 15.0967C13.0743 14.9106 13.137 14.8654 13.3168 14.8673C14.2098 14.8743 15.1034 14.8635 15.9965 14.8711C16.4569 14.8749 16.5868 14.9922 16.5965 15.4497C16.6134 16.178 16.6075 16.9051 16.5927 17.6334M20.2339 14.1173C19.8104 14.0032 19.3739 13.9401 18.9426 13.8554C19.2982 13.7502 19.6616 13.7037 20.0173 13.6203C20.8592 13.4253 21.2666 13.0111 21.3416 12.1744C21.4056 11.4403 21.4205 10.6961 21.3235 9.96009C21.1838 8.8902 20.6284 8.3097 19.5588 8.08221C19.0396 7.97006 18.5132 7.9433 17.9829 7.9433C14.762 7.94521 11.5424 7.9433 8.32144 7.9433H7.95996C8.2128 8.55949 8.33631 9.15592 8.32144 9.77466C8.31562 9.96072 8.38222 10.0079 8.56328 10.006C9.16143 9.99513 9.76087 10.0021 10.361 10.0021C12.2065 10.0021 14.0514 9.99832 15.8949 10.0041C16.4743 10.006 16.603 10.1309 16.6101 10.698C16.6172 11.2294 16.6082 11.7609 16.5862 12.2923C16.5681 12.7173 16.4375 12.8416 16.001 12.8473C15.108 12.8562 14.2143 12.8454 13.3213 12.8543C13.1376 12.8562 13.0756 12.8002 13.0794 12.6173C13.0904 12.1674 13.0704 11.715 13.0885 11.2651C13.0976 11.0319 13.0187 10.9815 12.793 10.9815C11.4059 10.9924 10.0195 10.9981 8.63247 10.9796C8.34471 10.9758 8.31885 11.0752 8.31885 11.3123C8.3279 13.4635 8.32079 15.6128 8.32596 17.7615C8.32984 18.5733 8.32984 19.3775 7.96837 20.1256C8.07506 20.2014 8.17012 20.1747 8.26194 20.1747C11.5178 20.1766 14.7724 20.1785 18.0282 20.1727C18.4738 20.1727 18.9199 20.1492 19.3616 20.0791C20.6678 19.8656 21.3429 19.1137 21.3649 17.8087C21.3778 17.0695 21.3707 16.3303 21.3668 15.5905C21.3649 14.7322 21.0771 14.3448 20.2333 14.1173" fill="#8f8f8f"></path><path d="M111.734 14.8838C112.615 16.6686 113.429 18.4401 114.369 20.1669C114.323 20.2319 114.233 20.1892 114.159 20.1892C112.584 20.1924 111.009 20.1835 109.434 20.1994C109.184 20.202 109.091 20.1096 109.005 19.9057C108.345 18.342 107.665 16.7859 107.016 15.217C106.901 14.9386 106.753 14.8494 106.472 14.8672C106.191 14.8851 105.908 14.8755 105.626 14.8717C105.508 14.8698 105.426 14.8742 105.43 15.0303C105.464 16.4386 105.346 17.85 105.515 19.2557C105.552 19.566 105.675 19.8541 105.786 20.1708H100.296C100.782 19.1168 100.648 17.9998 100.654 16.898C100.665 15.0367 100.666 13.1754 100.656 11.3147C100.655 11.0446 100.725 10.97 101.004 10.9738C102.379 10.991 103.754 10.9904 105.129 10.9815C105.36 10.9802 105.433 11.0376 105.424 11.2676C105.405 11.706 105.424 12.1463 105.415 12.5853C105.411 12.7631 105.44 12.8606 105.658 12.8574C106.54 12.8428 107.422 12.8511 108.303 12.8358C108.694 12.8294 108.824 12.6848 108.843 12.3082C108.872 11.7302 108.874 11.1529 108.845 10.5749C108.823 10.1353 108.701 10.0078 108.24 10.0027C107.465 9.99443 106.689 9.9957 105.913 9.99507C104.256 9.99443 102.599 9.99188 100.941 9.99953C100.744 10.0008 100.642 9.98551 100.65 9.74846C100.672 9.12781 100.549 8.53393 100.212 8.00377C100.263 7.90372 100.344 7.94451 100.404 7.94451C103.812 7.94642 107.221 7.94833 110.63 7.95661C111.1 7.95789 111.566 8.01205 112.021 8.14077C112.908 8.39056 113.423 8.97934 113.545 9.85679C113.704 11.0051 113.666 12.1673 113.59 13.3181C113.519 14.3696 113.112 14.7136 112.04 14.8538C111.959 14.864 111.877 14.8698 111.733 14.8838" fill="#8f8f8f"></path><path d="M92.6732 20.1619C91.3922 20.1619 90.1099 20.1937 88.8295 20.1542C87.1567 20.102 86.2552 19.243 86.0438 17.6054C85.9261 16.6941 85.9901 15.781 85.983 14.8692C85.974 13.6782 85.9946 12.4879 85.9869 11.2969C85.9849 11.0388 86.0619 10.9707 86.3264 10.9739C87.6779 10.9917 89.03 10.9974 90.3815 10.9809C90.6925 10.977 90.7345 11.079 90.7333 11.3511C90.721 13.3163 90.7261 15.2814 90.7281 17.2472C90.7281 17.9405 90.9143 18.1285 91.6282 18.1362C92.357 18.1444 93.0857 18.1483 93.8145 18.1387C94.4165 18.1304 94.6293 17.9176 94.6364 17.3052C94.6474 16.2997 94.6403 15.2935 94.6403 14.288C94.6403 13.1895 94.6442 12.0915 94.639 10.993C94.6351 10.1799 94.4476 10.0015 93.6141 10.0008C91.2396 9.99955 88.8645 9.99381 86.49 10.0078C86.1382 10.0097 86.1485 9.90652 86.2514 9.63952C86.7021 8.46513 87.6352 7.97129 88.8295 7.956C91.4155 7.9235 94.002 7.91713 96.588 7.95281C98.1503 7.97448 99.1034 8.88824 99.3123 10.4163C99.366 10.8069 99.3879 11.1975 99.3873 11.5913C99.3854 13.2908 99.3873 14.9902 99.386 16.6897C99.386 17.3766 99.2994 18.0482 99.0194 18.6854C98.5926 19.6566 97.7752 20.0969 96.7632 20.1345C95.402 20.1861 94.037 20.1472 92.6738 20.1472V20.1625" fill="#8f8f8f"></path><path d="M66.9038 14.8545C65.7994 14.8583 64.6955 14.8583 63.5322 14.8583C64.1556 13.5023 64.7686 12.1705 65.4159 10.7642C66.0031 12.1183 66.5495 13.3889 67.1056 14.6576C67.2233 14.9252 67.0209 14.8545 66.9038 14.8545ZM73.6412 18.2438C72.258 14.9411 70.8619 11.6442 69.4865 8.34022C69.3617 8.0401 69.2279 7.92794 68.8884 7.93368C67.5602 7.95535 66.232 7.9426 64.9044 7.9426H63.6919C63.8458 8.15033 63.9487 8.31474 64.0793 8.45747C64.2112 8.60021 64.2041 8.72128 64.1213 8.8895C62.6483 11.9137 61.183 14.9411 59.7118 17.9654C59.3342 18.7428 58.89 19.4819 58.3015 20.1867H61.7572C61.4985 19.373 61.4856 19.0894 61.7261 18.5873C61.9667 18.0884 62.2325 17.5983 62.4711 17.0981C62.5429 16.9484 62.6308 16.9044 62.7918 16.9044C64.4498 16.9101 66.1065 16.9101 67.7645 16.9063C67.9333 16.9063 68.04 16.9318 68.1092 17.114C68.298 17.6092 68.5185 18.0941 68.7202 18.5854C68.9129 19.0569 68.9039 19.531 68.6963 19.9987C68.6705 20.0548 68.6006 20.1109 68.6524 20.1669H74.8285C74.3073 19.5616 73.9296 18.9308 73.6419 18.2438" fill="#8f8f8f"></path><path d="M81.4448 20.1861H75.9645C76.5284 18.8218 76.2898 17.4008 76.3137 16.0047C76.3461 14.1102 76.317 12.2145 76.3273 10.3194C76.3286 10.0735 76.2866 9.97532 76.0085 9.98743C75.4692 10.011 74.928 10.0027 74.3874 9.99253C73.709 9.97978 73.0521 10.0461 72.428 10.4717C72.4248 9.97214 72.5503 9.54265 72.5923 9.10489C72.6123 8.89843 72.6589 8.69516 72.6951 8.49061C72.7598 8.12527 72.9749 7.9426 73.3405 7.9426C76.9242 7.9426 80.5079 7.94197 84.0916 7.9426C84.594 7.9426 84.6005 7.94515 84.6794 8.42498C84.788 9.0845 84.8863 9.74593 84.9891 10.4061C84.9613 10.4176 84.9361 10.436 84.927 10.4309C84.325 10.0633 83.6635 9.97405 82.969 9.99699C82.4174 10.0148 81.8645 10.0053 81.3123 9.99763C81.1422 9.99508 81.0588 10.025 81.0607 10.2226C81.0885 13.0645 81.0181 15.9078 81.1021 18.7498C81.1163 19.2379 81.2528 19.6999 81.4448 20.1867" fill="#8f8f8f"></path><path d="M52.516 7.95032C52.1888 8.66655 52.1377 9.38851 52.1377 10.1188C52.1377 12.6842 52.1416 15.2496 52.1325 17.8151C52.1319 18.0617 52.1746 18.1509 52.4526 18.147C53.6392 18.1298 54.8258 18.1381 56.0131 18.14C56.7308 18.1413 57.4357 18.0687 58.1534 17.7558C58.0176 18.5574 57.8896 19.3055 57.7655 20.0542C57.7512 20.1409 57.7001 20.1696 57.6232 20.1734C57.565 20.1766 57.5055 20.1753 57.4473 20.1753C54.0628 20.1753 50.6789 20.1753 47.2943 20.1747C47.2148 20.1747 47.1294 20.197 47.0357 20.1224C47.4418 19.2392 47.3939 18.2891 47.3933 17.3442C47.3926 15.1719 47.3939 12.999 47.3926 10.8267C47.3926 9.86005 47.4547 8.88575 47.0176 7.95032H52.516Z" fill="#8f8f8f"></path><path d="M35.1514 7.95596H40.6524C40.2075 8.84169 40.2715 9.77011 40.2709 10.6903C40.2696 13.0588 40.2767 15.4273 40.2624 17.7958C40.2605 18.0934 40.3446 18.1514 40.6291 18.1457C41.6036 18.1272 42.5794 18.1355 43.5545 18.1393C44.4676 18.1425 45.3813 18.1565 46.2743 17.764C46.1476 18.5446 46.026 19.2825 45.9083 20.021C45.8902 20.1351 45.8288 20.179 45.7175 20.1746C45.6471 20.172 45.5766 20.1746 45.5061 20.1746C42.181 20.1746 38.856 20.1707 35.5309 20.1809C35.2212 20.1816 35.1443 20.1363 35.2729 19.8311C35.5103 19.2678 35.5374 18.6625 35.5381 18.0609C35.5419 15.3916 35.5426 12.723 35.5381 10.0537C35.5368 9.347 35.4488 8.65052 35.152 7.95532" fill="#8f8f8f"></path><path d="M33.3436 12.5115V15.1604C31.6002 14.6653 29.8291 14.9265 28.076 14.8622C27.8833 14.8552 27.8096 14.9004 27.8122 15.1075C27.8232 16.0321 27.8219 16.9573 27.8128 17.8819C27.8109 18.0757 27.8639 18.1375 28.0676 18.1362C29.4896 18.126 30.9122 18.1356 32.3342 18.1222C32.911 18.1171 33.4736 17.9928 34.0782 17.8131C33.934 18.5771 33.7956 19.3099 33.6579 20.0421C33.6158 20.2639 33.4367 20.1715 33.3184 20.1715C31.4612 20.1753 29.604 20.1695 27.7469 20.1689C26.1716 20.1689 24.5971 20.167 23.0218 20.181C22.7444 20.1836 22.6759 20.1396 22.7929 19.8675C23.0018 19.3826 23.0568 18.8626 23.0581 18.3407C23.0658 16.006 23.0736 13.6706 23.0632 11.3358C23.0619 11.0446 23.1376 10.9745 23.4279 10.9771C24.7911 10.9904 26.1548 10.9879 27.518 10.9694C27.7954 10.9656 27.8523 11.0523 27.8406 11.302C27.8206 11.729 27.8419 12.1572 27.8316 12.5848C27.8271 12.7581 27.8684 12.8282 28.0631 12.8263C29.2852 12.8135 30.5074 12.8173 31.7302 12.8059C32.2727 12.8008 32.7952 12.6593 33.3429 12.5108" fill="#8f8f8f"></path><path d="M33.8628 10.3125C32.9349 9.99896 32.0244 9.97347 31.1075 9.97602C28.548 9.98302 25.9886 9.97347 23.4292 9.98494C23.1395 9.98621 23.0483 9.91803 23.058 9.62682C23.0781 9.05779 22.9449 8.50787 22.7114 7.94202H23.0742C26.4199 7.94202 29.7663 7.94521 33.1127 7.93629C33.3772 7.93565 33.4987 7.97388 33.5337 8.27083C33.6119 8.93289 33.7432 9.58923 33.8635 10.3125" fill="#8f8f8f"></path>
</svg>