<svg viewBox="0 0 21 22" fill="#8f8f8f" xmlns="http://www.w3.org/2000/svg" aria-hidden="true"><g clip-path="url(#clip0_830_1168)"><path d="M20.6849 13.5409C19.2829 19.1683 13.5846 22.5902 7.95813 21.1864C2.33425 19.7949 -1.09118 14.0844 0.314348 8.46576C1.71463 2.834 7.41465 -0.59056 13.0377 0.810596C18.665 2.21525 22.0887 7.91265 20.6849 13.5427V13.5409ZM15.1276 9.50371C15.3376 8.11219 14.2752 7.35953 12.8171 6.85193L13.2897 4.96768L12.1388 4.67887L11.6794 6.52287C11.3774 6.44673 11.0624 6.37671 10.7482 6.30407L11.2085 4.44257L10.0533 4.15377L9.58071 6.04852C9.33128 5.98988 9.08623 5.933 8.84556 5.87349L7.25712 5.47966L6.95081 6.71103C6.95081 6.71103 7.8041 6.90794 7.7866 6.91757C8.25482 7.03659 8.33796 7.34291 8.32483 7.58796L7.0322 12.769C6.96656 12.9143 6.82215 13.1243 6.49484 13.0438C6.50797 13.0613 5.65467 12.8338 5.65467 12.8338L5.07705 14.1553L6.5736 14.5281L7.38752 14.7399L6.91492 16.6565L8.07016 16.9427L8.54275 15.0436C8.85781 15.1311 9.15975 15.2099 9.46168 15.2825L9.01534 17.1676L10.1706 17.4564L10.6475 15.5398C12.6079 15.9135 14.087 15.7647 14.7084 13.9872C15.2072 12.5546 14.6821 11.7293 13.6433 11.1902C14.3907 11.0213 14.956 10.525 15.1136 9.50109H15.1223L15.1276 9.50371ZM12.4933 13.197C12.1397 14.6322 9.73036 13.8533 8.94883 13.6608L9.57896 11.1228C10.3631 11.3241 12.867 11.7092 12.4933 13.197ZM12.8521 9.48621C12.5283 10.7902 10.5224 10.1295 9.87214 9.96756L10.4445 7.65709C11.0956 7.81463 13.1899 8.11569 12.8512 9.48096L12.8521 9.48621Z"></path></g><defs><clipPath id="clip0_830_1168"><rect width="21" height="21" transform="translate(0 0.5)"></rect></clipPath></defs></svg>