<svg viewBox="0 0 21 22" fill="#8f8f8f" xmlns="http://www.w3.org/2000/svg" aria-hidden="true"><g clip-path="url(#clip0_830_1166)"><path d="M9.34746 11.5767C9.34746 12.42 8.7433 13.1062 7.98369 13.1062C7.23598 13.1062 6.61992 12.42 6.61992 11.5767C6.61992 10.7338 7.22408 10.0472 7.98369 10.0472C8.74904 10.0472 9.35935 10.74 9.34746 11.5767Z"></path><path d="M14.3895 11.5767C14.3895 12.42 13.7915 13.1062 13.0257 13.1062C12.278 13.1062 11.662 12.42 11.662 11.5767C11.662 10.7338 12.2661 10.0472 13.0257 10.0472C13.7915 10.0472 14.4014 10.74 14.3895 11.5767Z"></path><path d="M10.5 0.5C4.70121 0.5 0 5.20121 0 11C0 16.7988 4.70121 21.5 10.5 21.5C16.2988 21.5 21 16.7988 21 11C21 5.20121 16.2988 0.5 10.5 0.5ZM18.0022 14.8657C16.7044 15.8189 15.4469 16.3977 14.207 16.7812C14.1873 16.7873 14.166 16.7799 14.1537 16.7631C13.8674 16.3644 13.6073 15.944 13.3793 15.5027C13.3662 15.4769 13.3781 15.4457 13.4051 15.4354C13.8182 15.2792 14.2111 15.0925 14.5893 14.8719C14.6192 14.8542 14.6208 14.8116 14.5934 14.7911C14.5134 14.7316 14.4338 14.6688 14.3579 14.6061C14.3436 14.5946 14.3243 14.5921 14.3083 14.5999C11.8539 15.734 9.16535 15.734 6.68186 14.5999C6.66586 14.593 6.64658 14.5954 6.63305 14.6069C6.55717 14.6693 6.4776 14.7316 6.39803 14.7911C6.37055 14.8116 6.3726 14.8542 6.40254 14.8719C6.7807 15.0884 7.17363 15.2792 7.58625 15.4358C7.61332 15.4461 7.62603 15.4769 7.6125 15.5027C7.38978 15.9448 7.12934 16.3648 6.83771 16.7635C6.825 16.7799 6.80408 16.7873 6.78439 16.7812C5.55023 16.3977 4.29311 15.8189 2.99496 14.8657C2.9843 14.8571 2.9765 14.844 2.97527 14.83C2.71113 11.9987 3.25008 9.13215 5.21719 6.19297C5.22211 6.18518 5.22908 6.17902 5.23769 6.17574C6.20525 5.73113 7.24254 5.40424 8.32617 5.21762C8.34586 5.21475 8.36555 5.22377 8.3758 5.241C8.50992 5.47848 8.66291 5.7824 8.76668 6.03096C9.90897 5.85664 11.0693 5.85664 12.2358 6.03096C12.3391 5.78773 12.4868 5.47848 12.6201 5.241C12.6304 5.22295 12.65 5.21393 12.6697 5.21762C13.7542 5.40465 14.7915 5.73195 15.7586 6.17574C15.7672 6.17902 15.7742 6.18518 15.7783 6.19379C17.4919 8.7142 18.3385 11.5574 18.0219 14.8309C18.0206 14.8448 18.0137 14.8571 18.0022 14.8657Z"></path></g><defs><clipPath id="clip0_830_1166"><rect width="21" height="21" transform="translate(0 0.5)"></rect></clipPath></defs></svg>