<svg viewBox="0 0 21 22" fill="#8f8f8f" xmlns="http://www.w3.org/2000/svg" aria-hidden="true"><g clip-path="url(#clip0_830_1170)"><path fill-rule="evenodd" clip-rule="evenodd" d="M10.5 0.541016C4.70087 0.541016 0 5.24923 0 11.0589C0 15.7052 3.00826 19.6479 7.18098 21.0381C7.70598 21.1347 7.89708 20.8103 7.89708 20.531C7.89708 20.2821 7.88868 19.6196 7.88343 18.7428C4.96232 19.3781 4.34597 17.3327 4.34597 17.3327C3.86926 16.1168 3.18046 15.7934 3.18046 15.7934C2.22706 15.1424 3.25291 15.155 3.25291 15.155C4.30607 15.2285 4.86047 16.2386 4.86047 16.2386C5.79707 17.8451 7.31853 17.381 7.91598 17.1122C8.01258 16.4328 8.28348 15.9698 8.58378 15.7073C6.25277 15.4416 3.80101 14.5386 3.80101 10.5087C3.80101 9.36105 4.21052 8.4213 4.88147 7.68629C4.77332 7.42064 4.41317 6.35069 4.98437 4.90378C4.98437 4.90378 5.86637 4.62028 7.87188 5.98109C8.72844 5.74748 9.61219 5.62849 10.5 5.62723C11.3925 5.63143 12.2903 5.74799 13.1292 5.98109C15.1337 4.62028 16.0136 4.90273 16.0136 4.90273C16.5869 6.35069 16.2257 7.42064 16.1186 7.68629C16.7906 8.4213 17.198 9.36105 17.198 10.5087C17.198 14.5491 14.7421 15.4385 12.4037 15.6989C12.7806 16.0233 13.1156 16.6649 13.1156 17.6466C13.1156 19.0515 13.103 20.1866 13.103 20.531C13.103 20.8124 13.292 21.14 13.8254 21.0371C15.9163 20.3358 17.7339 18.9952 19.0213 17.2046C20.3088 15.4141 21.001 13.2642 21.0001 11.0589C21.0001 5.24923 16.2982 0.541016 10.5 0.541016Z"></path></g><defs><clipPath id="clip0_830_1170"><rect width="21" height="21" transform="translate(0 0.5)"></rect></clipPath></defs></svg>