<svg version="1.0" xmlns="http://www.w3.org/2000/svg" viewBox="0 0 108 108"><g transform="translate(0,108) scale(0.1,-0.1)" stroke="none" fill="#8f8f8f"><path d="M435 1070 c-193 -41 -347 -180 -411 -370 -14 -41 -19 -83 -18 -165 0 -94 4 -120 26 -176 65 -165 183 -279 348 -335 41 -14 83 -19 165 -18 94 0 120 4 176 26 165 65 279 183 335 348 14 41 19 83 18 165 0 94 -4 120 -26 176 -64 163 -178 275 -336 330 -64 23 -214 33 -277 19z m60 -345 c39 -52 73 -93 77 -92 3 1 43 44 88 95 69 78 86 92 111 92 17 0 29 -4 27 -9 -1 -5 -45 -57 -96 -116 -55 -62 -92 -111 -89 -119 3 -8 55 -79 116 -159 61 -80 111 -148 111 -151 0 -3 -40 -6 -89 -6 l-89 0 -77 100 c-42 55 -80 100 -84 100 -4 0 -47 -45 -95 -100 -73 -84 -92 -100 -117 -100 -16 0 -29 3 -29 8 1 4 48 60 105 126 l105 119 -48 61 c-119 151 -182 235 -182 240 0 3 42 6 93 6 l93 0 69 -95z"></path><path d="M347 758 c5 -7 83 -109 173 -226 89 -118 168 -216 176 -219 7 -2 20 -3 29 -1 13 2 -27 62 -155 231 -158 208 -175 227 -202 227 -23 0 -28 -3 -21 -12z"></path></g></svg>