<svg width="100%" height="100%" viewBox="0 0 321 126" fill="none" xmlns="http://www.w3.org/2000/svg">
<path d="M219.307 79.8229L244.916 79.8566C234.954 71.4584 228.968 58.3036 228.992 40.1733C229.015 22.0429 235.042 8.905 245.023 0.533783L219.415 0.496727C212.263 9.89203 208.167 23.0333 208.143 40.143C208.119 57.3671 212.182 70.5185 219.307 79.8195M75.8472 79.6241L101.456 79.6578C108.608 70.377 112.704 57.2357 112.728 40.0116C112.751 22.9019 108.689 9.75054 101.564 0.335029L75.955 0.297974C85.9162 8.69614 91.9024 21.8509 91.8788 39.9813C91.8552 58.1116 85.8286 71.2495 75.8472 79.6207M112.108 79.6713L136.47 79.705C139.997 69.0599 141.601 55.9152 141.624 40.052C141.645 24.1888 140.078 11.0408 136.578 0.38556L112.216 0.351873C118.434 10.1043 121.817 23.2557 121.793 40.025C121.769 56.909 118.353 70.0503 112.108 79.6746M146.897 79.7218L173.866 79.7589C171.276 68.7634 170.386 55.6188 170.407 40.0924C170.427 24.5661 171.353 11.4248 173.974 0.43609L147.004 0.399035C149.595 11.3945 150.484 24.5391 150.464 40.0655C150.444 55.5884 149.517 68.7331 146.897 79.7218ZM184.292 79.7723L208.655 79.806C202.436 70.1648 199.054 57.0168 199.078 40.1328C199.101 23.3635 202.517 10.2222 208.763 0.486621L184.4 0.452934C180.873 11.098 179.27 24.2427 179.246 40.1059C179.223 55.9691 180.792 69.1171 184.289 79.7723M16.9218 125.779H24.4104C33.6474 125.779 39.7919 120.082 40.5095 112.775L40.5533 112.371H29.2075L29.1165 112.775C28.4899 115.555 26.1116 117.168 22.7934 117.168H18.4882C14.4963 117.168 11.7171 114.746 11.7171 109.949V108.962C11.7171 104.165 14.4963 101.743 18.4882 101.743H22.7934C26.1116 101.743 28.4866 103.357 29.1165 106.139L29.2075 106.543H40.5533L40.5095 106.139C39.7919 98.8762 33.8731 93.136 24.4104 93.136H17.0127C7.41867 93.136 0.421875 99.1457 0.421875 109.053V109.814C0.421875 119.769 7.37151 125.779 16.9218 125.779ZM44.8113 125.152H74.2706V116.454H55.9314V93.7659H44.8113V125.155V125.152ZM93.2398 125.779H101.581C111.222 125.779 118.172 119.769 118.172 109.814V109.053C118.172 99.1424 111.222 93.136 101.581 93.136H93.2836C83.5986 93.136 76.6489 99.1457 76.6489 109.053V109.814C76.6489 119.769 83.5986 125.779 93.2398 125.779ZM100.055 117.168H94.8096C90.6829 117.168 87.9476 114.837 87.9476 110.04V108.875C87.9476 104.03 90.6829 101.746 94.8096 101.746H100.055C104.181 101.746 106.917 104.034 106.917 108.875V110.04C106.917 114.837 104.181 117.168 100.055 117.168ZM138.572 125.779H144.087C154.132 125.779 160.139 120.129 160.139 110.623V93.7625H148.928V110.623C148.928 114.793 146.597 117.081 142.561 117.081H140.095C136.059 117.081 133.728 114.793 133.728 110.623V93.7625H122.564V110.623C122.564 120.129 128.527 125.779 138.572 125.779ZM165.744 125.152H186.28C196.952 125.152 203.41 119.681 203.41 109.818V109.056C203.41 99.1929 196.952 93.7659 186.28 93.7659H165.744V125.155V125.152ZM185.205 116.676H176.865V102.238H185.205C189.689 102.238 192.111 104.613 192.111 108.561V110.266C192.111 114.211 189.689 116.676 185.205 116.676ZM237.265 108.649V108.201C240.136 107.618 242.423 105.152 242.423 101.608C242.423 97.1245 238.879 93.7625 231.572 93.7625H202.83C206.775 97.3502 209.019 102.551 209.019 109.053V109.814C209.019 116.363 206.779 121.564 202.83 125.149H230.498C239.287 125.149 243.279 121.426 243.279 115.598C243.279 111.563 240.722 109.501 237.269 108.649M229.063 105.691H217.986V100.759H229.063C230.676 100.759 231.619 101.612 231.619 103.09V103.316C231.619 104.795 230.676 105.694 229.063 105.694M229.332 118.159H217.986V112.6H229.332C231.171 112.6 232.293 113.496 232.293 115.201V115.561C232.293 117.266 231.171 118.162 229.332 118.162M247.449 125.159H279.556V117.579H258.256V112.826H279.061V105.964H258.256V101.345H279.556V93.7659H247.449V125.155V125.159ZM296.504 125.159H307.624V101.349H320.449V93.7693H283.679V101.349H296.504V125.159Z" fill="#E2E2E6"></path>
</svg>