<svg width="287" height="24" viewBox="0 0 287 24" fill="white" xmlns="http://www.w3.org/2000/svg">
  <path d="M269.432 23.059H277.592V6.28191H287V0.94387H260.025V6.28191H269.432V23.059ZM233.442 23.059H256.998V17.721H241.37V14.3731H256.635V9.53986H241.37V6.28481H256.998V0.94387H233.442V23.059ZM220.152 18.13H211.829V14.2135H220.152C221.5 14.2135 222.325 14.846 222.325 16.047V16.2994C222.325 17.5005 221.503 18.1329 220.152 18.1329M219.956 9.35129H211.829V5.87576H219.956C221.14 5.87576 221.832 6.47629 221.832 7.51779V7.67445C221.832 8.71594 221.14 9.34839 219.956 9.34839M225.977 11.4343V11.1181C228.083 10.7061 229.76 8.97124 229.76 6.47339C229.76 3.31408 227.161 0.94387 221.799 0.94387H200.712C203.606 3.47074 205.252 7.13484 205.252 11.7157V12.2524C205.252 16.8652 203.609 20.5293 200.712 23.0561H221.01C227.457 23.0561 230.388 20.4335 230.388 16.3285C230.388 13.4854 228.512 12.0319 225.98 11.4314M187.785 17.0856H181.667V6.91435H187.785C191.075 6.91435 192.851 8.58829 192.851 11.3676V12.5686C192.851 15.3479 191.075 17.0856 187.785 17.0856ZM173.507 23.0561H188.573C196.404 23.0561 201.141 19.2006 201.141 12.2524V11.7157C201.141 4.76463 196.404 0.94387 188.573 0.94387H173.507V23.059V23.0561ZM153.571 23.4971H157.616C164.984 23.4971 169.392 19.5168 169.392 12.8181V0.94387H161.169V12.821C161.169 15.7598 159.459 17.37 156.498 17.37H154.689C151.728 17.37 150.018 15.7598 150.018 12.821V0.94387H141.828V12.821C141.828 19.5197 146.202 23.5 153.574 23.5M125.315 17.4338H121.466C118.439 17.4338 116.433 15.7917 116.433 12.412V11.5909C116.433 8.17924 118.439 6.56912 121.466 6.56912H125.315C128.342 6.56912 130.348 8.17924 130.348 11.5909V12.412C130.348 15.7917 128.342 17.4338 125.315 17.4338ZM120.315 23.5H126.432C133.505 23.5 138.604 19.2673 138.604 12.2524V11.7157C138.604 4.73272 133.505 0.5 126.432 0.5H120.345C113.239 0.5 108.14 4.73272 108.14 11.7157V12.2524C108.14 19.2644 113.239 23.5 120.312 23.5M106.394 23.059V16.929H92.9376V0.94387H84.7777V23.059H106.394ZM64.3189 23.5H69.8142C76.5905 23.5 81.098 19.4878 81.6237 14.3383L81.6569 14.054H73.3338L73.2673 14.3383C72.8081 16.2965 71.062 17.4338 68.63 17.4338H65.4729C62.5455 17.4338 60.5063 15.7279 60.5063 12.3481V11.6519C60.5063 8.27207 62.5455 6.56622 65.4729 6.56622H68.63C71.065 6.56622 72.8081 7.70346 73.2673 9.66171L73.3338 9.94601H81.6569L81.6237 9.66171C81.098 4.54415 76.7537 0.5 69.8142 0.5H64.3854C57.3462 0.5 52.2134 4.73272 52.2134 11.7157V12.2524C52.2134 19.2644 57.313 23.5 64.3189 23.5ZM31.4857 23.059H38.5581C36.7485 20.3726 35.7606 16.7085 35.7606 12.0029C35.7606 7.2973 36.7485 3.66221 38.5581 0.946771H31.4857C30.4646 3.91751 30.0054 7.58161 30.0054 12.0029C30.0054 16.4242 30.4646 20.0912 31.4857 23.059ZM20.628 23.059H28.4586C27.7033 19.9955 27.4375 16.3314 27.4375 12.0029C27.4375 7.67445 27.7003 4.01034 28.4586 0.946771H20.628C21.3832 4.01034 21.6491 7.67445 21.6491 12.0029C21.6491 16.3314 21.3863 19.9955 20.628 23.059ZM10.5285 23.059H17.6008C18.622 20.0883 19.0812 16.4242 19.0812 12.0029C19.0812 7.58161 18.622 3.91461 17.6008 0.946771H10.5285C12.3381 3.66221 13.326 7.32921 13.326 12.0029C13.326 16.6766 12.3381 20.3755 10.5285 23.059ZM0 23.059H7.43489C9.50735 20.4683 10.6916 16.8042 10.6916 12.0029C10.6916 7.20156 9.50735 3.56937 7.43489 0.946771H0C2.8942 3.28507 4.63736 6.94917 4.63736 12.0029C4.63736 17.0566 2.8942 20.7236 0 23.059ZM41.6487 23.059H49.0836C46.1894 20.7207 44.4462 17.0566 44.4462 12.0029C44.4462 6.94917 46.1894 3.28216 49.0836 0.946771H41.6487C39.5762 3.56937 38.3919 7.23348 38.3919 12.0029C38.3919 16.7723 39.5762 20.4683 41.6487 23.059Z"></path>
</svg>