<svg xmlns="http://www.w3.org/2000/svg" fill="none" viewBox="0 0 376 170"><g fill="#8d52da" clip-path="url(#default_svg__a)"><path d="M316.248.583c-32.457 56.328-32.457 112.69 0 169.018H375.5c-49.131-55.847-49.68-112.175 0-169.018zM158.014 169.635h59.492c-10.567-56.328-10.567-112.69 0-169.018h-59.492c10.533 57.427 10.67 111.626 0 169.018"></path><path d="M296.487.583h-59.252c-10.945 56.328-10.945 112.69 0 169.018h59.252c-27.036-55.847-27.413-112.14 0-169.018m-236.769 0c32.457 56.328 32.457 112.69 0 169.018H.5C49.631 113.754 50.18 57.426.5.583h59.252z"></path><path d="M79.48.583h59.252c10.945 56.328 10.945 112.69 0 169.018H79.48c27.036-55.847 27.413-112.14 0-169.018"></path></g><defs><clipPath id="default_svg__a"><path fill="#fff" d="M.5.583h375v169.052H.5z"></path></clipPath></defs></svg>