<svg width="100%" height="100%" viewBox="0 0 24 25" fill="none" xmlns="http://www.w3.org/2000/svg">
<path d="M17.1291 11.1645C17.3711 9.56775 16.1614 8.69678 14.4678 8.16452L15.0001 5.9871L13.6936 5.64839L13.1614 7.77743C12.8227 7.68065 12.484 7.58388 12.1452 7.53549L12.6775 5.40646L11.3227 5.06775L10.7904 7.24517C10.5001 7.14839 10.2098 7.10001 9.96783 7.05162V7.00323L8.12912 6.56775L7.79041 7.97097L8.75815 8.21291C9.29041 8.35807 9.38718 8.69678 9.3388 8.9871L8.75815 11.4548L7.88718 14.8903C7.8388 15.0839 7.64525 15.3258 7.25815 15.229C7.30654 15.229 6.3388 14.9871 6.3388 14.9871L5.66138 16.4871L7.40331 16.9226C7.69363 16.971 8.03234 17.0677 8.32267 17.1645L7.79041 19.3419L9.09686 19.6807L9.62912 17.5032C9.96783 17.6 10.3549 17.6968 10.6936 17.7936L10.1614 19.9226L11.4678 20.2613L12.0001 18.0839C14.2743 18.5194 15.9194 18.3258 16.6452 16.2936C17.2259 14.6484 16.6452 13.729 15.4356 13.1C16.3065 12.9065 16.9356 12.3258 17.1291 11.1645ZM14.1291 15.3742C13.6936 17.0194 10.9356 16.1484 10.0646 15.9065L10.7904 13.0032C11.6614 13.2452 14.5162 13.6807 14.1291 15.3742ZM14.5162 11.1645C14.1291 12.6161 11.8549 11.8903 11.1291 11.6968L11.7582 9.08388C12.5323 9.22904 14.9033 9.61614 14.5162 11.1645Z" fill="white"></path>
<path d="M24 12.858C24 19.4871 18.5806 24.858 12 24.858C5.37097 24.858 0 19.4871 0 12.858C0 6.27739 5.37097 0.858032 12 0.858032C18.5806 0.858032 24 6.27739 24 12.858ZM17.129 11.1645C17.371 9.56771 16.1613 8.69674 14.4677 8.16448L15 5.98706L13.6935 5.64835L13.1613 7.77739C12.8226 7.68061 12.4839 7.58384 12.1452 7.53545L12.6774 5.40642L11.3226 5.06771L10.7903 7.24513C10.5 7.14835 10.2097 7.09997 9.96774 7.05158V7.00319L8.12903 6.56771L7.79032 7.97094L8.75806 8.21287C9.29032 8.35803 9.3871 8.69674 9.33871 8.98706L8.75806 11.4548L7.8871 14.8903C7.83871 15.0838 7.64516 15.3258 7.25806 15.229C7.30645 15.229 6.33871 14.9871 6.33871 14.9871L5.66129 16.4871L7.40323 16.9225C7.69355 16.9709 8.03226 17.0677 8.32258 17.1645L7.79032 19.3419L9.09677 19.6806L9.62903 17.5032C9.96774 17.6 10.3548 17.6967 10.6935 17.7935L10.1613 19.9225L11.4677 20.2613L12 18.0838C14.2742 18.5193 15.9194 18.3258 16.6452 16.2935C17.2258 14.6484 16.6452 13.729 15.4355 13.1C16.3065 12.9064 16.9355 12.3258 17.129 11.1645ZM14.129 15.3742C13.6935 17.0193 10.9355 16.1484 10.0645 15.9064L10.7903 13.0032C11.6613 13.2451 14.5161 13.6806 14.129 15.3742ZM14.5161 11.1645C14.129 12.6161 11.8548 11.8903 11.129 11.6967L11.7581 9.08384C12.5323 9.229 14.9032 9.6161 14.5161 11.1645Z" fill="#382E40"></path>
</svg>