<svg width="100%" height="100%" viewBox="0 0 36 36" fill="none" xmlns="http://www.w3.org/2000/svg"><path d="M0 18C0 8.05887 8.05887 0 18 0V0C27.9411 0 36 8.05887 36 18V18C36 27.9411 27.9411 36 18 36V36C8.05887 36 0 27.9411 0 18V18Z" fill="#FEC005"></path><path d="M25.6933 15.4597C26.0562 13.0645 24.2417 11.7581 21.7014 10.9597L22.4998 7.69355L20.5401 7.18548L19.7417 10.379C19.2336 10.2339 18.7256 10.0887 18.2175 10.0161L19.0159 6.82258L16.9836 6.31451L16.1852 9.58064C15.7498 9.43548 15.3143 9.3629 14.9514 9.29032V9.21774L12.1933 8.56451L11.6852 10.6694L13.1369 11.0323C13.9352 11.25 14.0804 11.7581 14.0078 12.1935L13.1369 15.8952L11.8304 21.0484C11.7578 21.3387 11.4675 21.7016 10.8869 21.5564C10.9594 21.5564 9.50783 21.1935 9.50783 21.1935L8.4917 23.4435L11.1046 24.0968C11.5401 24.1694 12.0482 24.3145 12.4836 24.4597L11.6852 27.7258L13.6449 28.2339L14.4433 24.9677C14.9514 25.1129 15.532 25.2581 16.0401 25.4032L15.2417 28.5968L17.2014 29.1048L17.9998 25.8387C21.4111 26.4919 23.8788 26.2016 24.9675 23.1532C25.8385 20.6855 24.9675 19.3064 23.153 18.3629C24.4594 18.0726 25.403 17.2016 25.6933 15.4597ZM21.1933 21.7742C20.5401 24.2419 16.403 22.9355 15.0965 22.5726L16.1852 18.2177C17.4917 18.5806 21.774 19.2339 21.1933 21.7742ZM21.774 15.4597C21.1933 17.6371 17.782 16.5484 16.6933 16.2581L17.6369 12.3387C18.7982 12.5564 22.3546 13.1371 21.774 15.4597Z" fill="white"></path></svg>