<svg width="100%" height="100%" viewBox="0 0 36 36" fill="none" xmlns="http://www.w3.org/2000/svg"><g clip-path="url(#clip0_1981_1181)"><path d="M0 18C0 8.05888 8.05888 0 18 0C27.9411 0 36 8.05888 36 18C36 27.9411 27.9411 36 18 36C8.05888 36 0 27.9411 0 18Z" fill="white"></path><path d="M18.0098 -0.711517C10.196 -0.711517 7.91075 -0.703457 7.46655 -0.666607C5.86303 -0.533316 4.86522 -0.280841 3.77816 0.260383C2.94041 0.676378 2.27972 1.15859 1.62766 1.83454C0.44013 3.06727 -0.279583 4.58385 -0.540119 6.38658C-0.666789 7.26175 -0.703638 7.44024 -0.711123 11.9105C-0.714002 13.4006 -0.711123 15.3617 -0.711123 17.9921C-0.711123 25.7996 -0.702486 28.0825 -0.665061 28.5258C-0.535513 30.0862 -0.29081 31.0679 0.227383 32.1417C1.21771 34.1972 3.10911 35.7402 5.33735 36.316C6.10888 36.5146 6.96102 36.624 8.05498 36.6759C8.51848 36.696 13.2427 36.7104 17.9698 36.7104C22.6968 36.7104 27.4239 36.7047 27.8759 36.6816C29.1426 36.622 29.8781 36.5233 30.6914 36.3131C32.934 35.7345 34.7909 34.2144 35.8014 32.1301C36.3095 31.0822 36.5671 30.0631 36.6837 28.5843C36.7091 28.2618 36.7197 23.1211 36.7197 17.9872C36.7197 12.8525 36.7082 7.72122 36.6829 7.39879C36.5648 5.89603 36.3072 4.88555 35.7827 3.81749C35.3523 2.94319 34.8744 2.29026 34.1806 1.62266C32.9424 0.440024 31.4281 -0.279689 29.6236 -0.539938C28.7493 -0.666319 28.5752 -0.703744 24.1014 -0.711517H18.0098Z" fill="url(#paint0_radial_1981_1181)"></path><path d="M18.0098 -0.711517C10.196 -0.711517 7.91075 -0.703457 7.46655 -0.666607C5.86303 -0.533316 4.86522 -0.280841 3.77816 0.260383C2.94041 0.676378 2.27972 1.15859 1.62766 1.83454C0.44013 3.06727 -0.279583 4.58385 -0.540119 6.38658C-0.666789 7.26175 -0.703638 7.44024 -0.711123 11.9105C-0.714002 13.4006 -0.711123 15.3617 -0.711123 17.9921C-0.711123 25.7996 -0.702486 28.0825 -0.665061 28.5258C-0.535513 30.0862 -0.29081 31.0679 0.227383 32.1417C1.21771 34.1972 3.10911 35.7402 5.33735 36.316C6.10888 36.5146 6.96102 36.624 8.05498 36.6759C8.51848 36.696 13.2427 36.7104 17.9698 36.7104C22.6968 36.7104 27.4239 36.7047 27.8759 36.6816C29.1426 36.622 29.8781 36.5233 30.6914 36.3131C32.934 35.7345 34.7909 34.2144 35.8014 32.1301C36.3095 31.0822 36.5671 30.0631 36.6837 28.5843C36.7091 28.2618 36.7197 23.1211 36.7197 17.9872C36.7197 12.8525 36.7082 7.72122 36.6829 7.39879C36.5648 5.89603 36.3072 4.88555 35.7827 3.81749C35.3523 2.94319 34.8744 2.29026 34.1806 1.62266C32.9424 0.440024 31.4281 -0.279689 29.6236 -0.539938C28.7493 -0.666319 28.5752 -0.703744 24.1014 -0.711517H18.0098Z" fill="url(#paint1_radial_1981_1181)"></path><path d="M18.0011 7.00012C15.0135 7.00012 14.6385 7.01319 13.4651 7.06658C12.294 7.12021 11.4946 7.30562 10.7952 7.57765C10.0717 7.85863 9.45792 8.23448 8.84647 8.84616C8.23456 9.45762 7.85871 10.0714 7.57682 10.7946C7.30409 11.4943 7.11846 12.2939 7.06574 13.4646C7.01326 14.638 6.99951 15.0132 6.99951 18.0007C6.99951 20.9883 7.0128 21.3621 7.06597 22.5355C7.11983 23.7066 7.30524 24.506 7.57704 25.2055C7.85825 25.929 8.2341 26.5427 8.84578 27.1542C9.45701 27.7661 10.0707 28.1429 10.7938 28.4238C11.4937 28.6959 12.2933 28.8813 13.4642 28.9349C14.6376 28.9883 15.0123 29.0014 17.9997 29.0014C20.9875 29.0014 21.3613 28.9883 22.5347 28.9349C23.7058 28.8813 24.5061 28.6959 25.206 28.4238C25.9293 28.1429 26.5421 27.7661 27.1533 27.1542C27.7653 26.5427 28.1411 25.929 28.423 25.2057C28.6934 24.506 28.8791 23.7064 28.9341 22.5358C28.9868 21.3624 29.0005 20.9883 29.0005 18.0007C29.0005 15.0132 28.9868 14.6382 28.9341 13.4648C28.8791 12.2937 28.6934 11.4943 28.423 10.7949C28.1411 10.0714 27.7653 9.45762 27.1533 8.84616C26.5414 8.23425 25.9295 7.8584 25.2053 7.57765C24.504 7.30562 23.7042 7.12021 22.5331 7.06658C21.3597 7.01319 20.9861 7.00012 17.9976 7.00012H18.0011ZM17.0142 8.98253C17.3071 8.98207 17.6339 8.98253 18.0011 8.98253C20.9382 8.98253 21.2863 8.99307 22.4462 9.04578C23.5188 9.09482 24.1009 9.27404 24.4887 9.42461C25.002 9.624 25.368 9.86235 25.7528 10.2474C26.1378 10.6324 26.3762 10.9991 26.576 11.5124C26.7266 11.8998 26.9061 12.4819 26.9549 13.5544C27.0076 14.7141 27.019 15.0624 27.019 17.9982C27.019 20.934 27.0076 21.2824 26.9549 22.442C26.9058 23.5146 26.7266 24.0967 26.576 24.484C26.3767 24.9974 26.1378 25.3629 25.7528 25.7477C25.3678 26.1327 25.0023 26.3711 24.4887 26.5705C24.1014 26.7217 23.5188 26.9005 22.4462 26.9495C21.2866 27.0022 20.9382 27.0137 18.0011 27.0137C15.0637 27.0137 14.7155 27.0022 13.5559 26.9495C12.4833 26.9 11.9012 26.7208 11.5132 26.5702C10.9998 26.3708 10.6332 26.1325 10.2481 25.7475C9.86311 25.3625 9.62476 24.9967 9.42492 24.4831C9.27435 24.0958 9.0949 23.5137 9.04609 22.4411C8.99338 21.2815 8.98283 20.9331 8.98283 17.9955C8.98283 15.0578 8.99338 14.7113 9.04609 13.5517C9.09513 12.4791 9.27435 11.897 9.42492 11.5092C9.62431 10.9959 9.86311 10.6292 10.2481 10.2442C10.6332 9.85914 10.9998 9.62079 11.5132 9.42095C11.901 9.26969 12.4833 9.09093 13.5559 9.04165C14.5707 8.99582 14.964 8.98207 17.0142 8.97978V8.98253ZM23.8731 10.8091C23.1443 10.8091 22.553 11.3997 22.553 12.1287C22.553 12.8575 23.1443 13.4488 23.8731 13.4488C24.6019 13.4488 25.1932 12.8575 25.1932 12.1287C25.1932 11.3999 24.6019 10.8086 23.8731 10.8086V10.8091ZM18.0011 12.3515C14.8812 12.3515 12.3518 14.8809 12.3518 18.0007C12.3518 21.1206 14.8812 23.6489 18.0011 23.6489C21.1209 23.6489 23.6494 21.1206 23.6494 18.0007C23.6494 14.8809 21.1209 12.3515 18.0011 12.3515ZM18.0011 14.3339C20.0261 14.3339 21.6679 15.9755 21.6679 18.0007C21.6679 20.0258 20.0261 21.6676 18.0011 21.6676C15.9758 21.6676 14.3342 20.0258 14.3342 18.0007C14.3342 15.9755 15.9758 14.3339 18.0011 14.3339Z" fill="white"></path></g><defs><radialGradient id="paint0_radial_1981_1181" cx="0" cy="0" r="1" gradientUnits="userSpaceOnUse" gradientTransform="translate(9.23055 39.5927) rotate(-90) scale(37.0879 34.5041)"><stop stop-color="#FFDD55"></stop><stop offset="0.1" stop-color="#FFDD55"></stop><stop offset="0.5" stop-color="#FF543E"></stop><stop offset="1" stop-color="#C837AB"></stop></radialGradient><radialGradient id="paint1_radial_1981_1181" cx="0" cy="0" r="1" gradientUnits="userSpaceOnUse" gradientTransform="translate(-6.98248 1.9843) rotate(78.6776) scale(16.5786 68.3549)"><stop stop-color="#3771C8"></stop><stop offset="0.128" stop-color="#3771C8"></stop><stop offset="1" stop-color="#6600FF" stop-opacity="0"></stop></radialGradient><clipPath id="clip0_1981_1181"><path d="M0 18C0 8.05888 8.05888 0 18 0C27.9411 0 36 8.05888 36 18C36 27.9411 27.9411 36 18 36C8.05888 36 0 27.9411 0 18Z" fill="white"></path></clipPath></defs></svg>