<svg width="100%" height="100%" viewBox="0 0 36 36" fill="none" xmlns="http://www.w3.org/2000/svg"><path d="M0 18C0 8.05887 8.05887 0 18 0V0C27.9411 0 36 8.05887 36 18V18C36 27.9411 27.9411 36 18 36V36C8.05887 36 0 27.9411 0 18V18Z" fill="#0088CC"></path><path d="M14.3407 27.317C13.6692 27.317 13.7898 27.0588 13.5487 26.4217L11.5859 19.948L23.7758 12.3379L25.2049 12.7167L24.0169 15.9536L14.3407 27.317Z" fill="#C8DAEA"></path><path d="M14.3408 27.3172C14.8573 27.3172 15.0812 27.0761 15.3739 26.8006C15.8215 26.3702 21.5721 20.7746 21.5721 20.7746L18.0426 19.9137L14.7713 21.9798L14.3408 27.145V27.3172Z" fill="#A9C9DD"></path><path d="M14.6851 22.0486L23.0183 28.1952C23.9653 28.7117 24.654 28.4534 24.895 27.3171L28.2868 11.3394C28.6312 9.94478 27.7531 9.32496 26.8406 9.73817L6.93731 17.4171C5.57714 17.9681 5.59436 18.7256 6.69627 19.0528L11.8098 20.654L23.6382 13.1989C24.1891 12.8545 24.7056 13.0439 24.2924 13.4227L14.6851 22.0486Z" fill="url(#paint0_linear_380_350)"></path><defs><linearGradient id="paint0_linear_380_350" x1="19.6766" y1="18.4941" x2="23.9809" y2="25.381" gradientUnits="userSpaceOnUse"><stop stop-color="#EFF7FC"></stop><stop offset="1" stop-color="white"></stop></linearGradient></defs></svg>