<svg width="100%" height="100%" viewBox="0 0 36 36" fill="none" xmlns="http://www.w3.org/2000/svg"><path d="M18 36C27.9411 36 36 27.9412 36 18C36 8.05892 27.9411 4.57764e-05 18 4.57764e-05C8.05888 4.57764e-05 0 8.05892 0 18C0 27.9412 8.05888 36 18 36Z" fill="#050505"></path><path d="M8.36317 27.2667H10.6407L16.7217 20.3544L22.0113 27.2553H28.1948L20.0811 16.5281L26.9479 8.72758H24.6703L19.0277 15.1389L14.188 8.73328H7.80518L15.657 18.9765L8.35748 27.2724L8.36317 27.2667ZM11.2727 10.4357H13.3453L24.7671 25.5472H22.8597L11.2784 10.4357H11.2727Z" fill="white"></path></svg>