<svg width="100%" height="100%" viewBox="0 0 36 36" fill="none" xmlns="http://www.w3.org/2000/svg"><rect width="36" height="36" rx="18" fill="white"></rect><path d="M17.9919 9C17.9919 9 9.86588 9.00001 7.82634 9.52428C6.73431 9.82613 5.8351 10.7157 5.52997 11.8119C5.00001 13.8296 5 18.0079 5 18.0079C5 18.0079 5.00001 22.2022 5.52997 24.1881C5.8351 25.2843 6.71825 26.158 7.82634 26.4598C9.88194 27 17.9919 27 17.9919 27C17.9919 27 26.1341 27 28.1736 26.4757C29.2817 26.1739 30.1648 25.3161 30.4539 24.204C30.9999 22.2022 31 18.0238 31 18.0238C31 18.0238 31.016 13.8296 30.4539 11.8119C30.1648 10.7157 29.2817 9.84204 28.1736 9.55607C26.1341 9.00003 17.9919 9 17.9919 9ZM15.4064 14.1475L22.1674 18.0079L15.4064 21.8525V14.1475Z" fill="#FF0000"></path></svg>